<?xml version="1.0" encoding="utf-8" standalone="no"?>
<!DOCTYPE svg PUBLIC "-//W3C//DTD SVG 1.1//EN"
  "http://www.w3.org/Graphics/SVG/1.1/DTD/svg11.dtd">
<svg xmlns:xlink="http://www.w3.org/1999/xlink" width="622.999275pt" height="475.259375pt" viewBox="0 0 622.999275 475.259375" xmlns="http://www.w3.org/2000/svg" version="1.1">
 <metadata>
  <rdf:RDF xmlns:dc="http://purl.org/dc/elements/1.1/" xmlns:cc="http://creativecommons.org/ns#" xmlns:rdf="http://www.w3.org/1999/02/22-rdf-syntax-ns#">
   <cc:Work>
    <dc:type rdf:resource="http://purl.org/dc/dcmitype/StillImage"/>
    <dc:date>2026-06-16T19:48:27.202730</dc:date>
    <dc:format>image/svg+xml</dc:format>
    <dc:creator>
     <cc:Agent>
      <dc:title>Matplotlib v3.10.1, https://matplotlib.org/</dc:title>
     </cc:Agent>
    </dc:creator>
   </cc:Work>
  </rdf:RDF>
 </metadata>
 <defs>
  <style type="text/css">*{stroke-linejoin: round; stroke-linecap: butt}</style>
 </defs>
 <g id="figure_1">
  <g id="patch_1">
   <path d="M 0 475.259375 
L 622.999275 475.259375 
L 622.999275 0 
L 0 0 
z
" style="fill: #ffffff"/>
  </g>
  <g id="axes_1">
   <g id="patch_2">
    <path d="M 93.228125 406.996875 
L 615.799275 406.996875 
L 615.799275 39.276875 
L 93.228125 39.276875 
z
" style="fill: #ffffff"/>
   </g>
   <g id="matplotlib.axis_1">
    <g id="xtick_1">
     <g id="line2d_1">
      <defs>
       <path id="m4ec128fce3" d="M 0 0 
L 0 3.5 
" style="stroke: #212529; stroke-width: 0.8"/>
      </defs>
      <g>
       <use xlink:href="#m4ec128fce3" x="107.666365" y="406.996875" style="fill: #212529; stroke: #212529; stroke-width: 0.8"/>
      </g>
     </g>
     <g id="text_1">
      <!-- 0 -->
      <g style="fill: #212529" transform="translate(100.99324 431.213125) scale(0.24 -0.24)">
       <defs>
        <path id="Helvetica-30" d="M 1731 4475 
Q 2600 4475 2988 3759 
Q 3288 3206 3288 2244 
Q 3288 1331 3016 734 
Q 2622 -122 1728 -122 
Q 922 -122 528 578 
Q 200 1163 200 2147 
Q 200 2909 397 3456 
Q 766 4475 1731 4475 
z
M 1725 391 
Q 2163 391 2422 778 
Q 2681 1166 2681 2222 
Q 2681 2984 2493 3476 
Q 2306 3969 1766 3969 
Q 1269 3969 1039 3501 
Q 809 3034 809 2125 
Q 809 1441 956 1025 
Q 1181 391 1725 391 
z
" transform="scale(0.015625)"/>
       </defs>
       <use xlink:href="#Helvetica-30"/>
      </g>
     </g>
    </g>
    <g id="xtick_2">
     <g id="line2d_2">
      <g>
       <use xlink:href="#m4ec128fce3" x="200.816303" y="406.996875" style="fill: #212529; stroke: #212529; stroke-width: 0.8"/>
      </g>
     </g>
     <g id="text_2">
      <!-- 10 -->
      <g style="fill: #212529" transform="translate(187.470053 431.213125) scale(0.24 -0.24)">
       <defs>
        <path id="Helvetica-31" d="M 613 3169 
L 613 3600 
Q 1222 3659 1462 3798 
Q 1703 3938 1822 4456 
L 2266 4456 
L 2266 0 
L 1666 0 
L 1666 3169 
L 613 3169 
z
" transform="scale(0.015625)"/>
       </defs>
       <use xlink:href="#Helvetica-31"/>
       <use xlink:href="#Helvetica-30" transform="translate(55.615234 0)"/>
      </g>
     </g>
    </g>
    <g id="xtick_3">
     <g id="line2d_3">
      <g>
       <use xlink:href="#m4ec128fce3" x="293.966241" y="406.996875" style="fill: #212529; stroke: #212529; stroke-width: 0.8"/>
      </g>
     </g>
     <g id="text_3">
      <!-- 20 -->
      <g style="fill: #212529" transform="translate(280.619991 431.213125) scale(0.24 -0.24)">
       <defs>
        <path id="Helvetica-32" d="M 200 0 
Q 231 578 439 1006 
Q 647 1434 1250 1784 
L 1850 2131 
Q 2253 2366 2416 2531 
Q 2672 2791 2672 3125 
Q 2672 3516 2437 3745 
Q 2203 3975 1813 3975 
Q 1234 3975 1013 3538 
Q 894 3303 881 2888 
L 309 2888 
Q 319 3472 525 3841 
Q 891 4491 1816 4491 
Q 2584 4491 2939 4075 
Q 3294 3659 3294 3150 
Q 3294 2613 2916 2231 
Q 2697 2009 2131 1694 
L 1703 1456 
Q 1397 1288 1222 1134 
Q 909 863 828 531 
L 3272 531 
L 3272 0 
L 200 0 
z
" transform="scale(0.015625)"/>
       </defs>
       <use xlink:href="#Helvetica-32"/>
       <use xlink:href="#Helvetica-30" transform="translate(55.615234 0)"/>
      </g>
     </g>
    </g>
    <g id="xtick_4">
     <g id="line2d_4">
      <g>
       <use xlink:href="#m4ec128fce3" x="387.116178" y="406.996875" style="fill: #212529; stroke: #212529; stroke-width: 0.8"/>
      </g>
     </g>
     <g id="text_4">
      <!-- 30 -->
      <g style="fill: #212529" transform="translate(373.769928 431.213125) scale(0.24 -0.24)">
       <defs>
        <path id="Helvetica-33" d="M 1663 -122 
Q 869 -122 511 314 
Q 153 750 153 1375 
L 741 1375 
Q 778 941 903 744 
Q 1122 391 1694 391 
Q 2138 391 2406 628 
Q 2675 866 2675 1241 
Q 2675 1703 2392 1887 
Q 2109 2072 1606 2072 
Q 1550 2072 1492 2070 
Q 1434 2069 1375 2066 
L 1375 2563 
Q 1463 2553 1522 2550 
Q 1581 2547 1650 2547 
Q 1966 2547 2169 2647 
Q 2525 2822 2525 3272 
Q 2525 3606 2287 3787 
Q 2050 3969 1734 3969 
Q 1172 3969 956 3594 
Q 838 3388 822 3006 
L 266 3006 
Q 266 3506 466 3856 
Q 809 4481 1675 4481 
Q 2359 4481 2734 4176 
Q 3109 3872 3109 3294 
Q 3109 2881 2888 2625 
Q 2750 2466 2531 2375 
Q 2884 2278 3082 2001 
Q 3281 1725 3281 1325 
Q 3281 684 2859 281 
Q 2438 -122 1663 -122 
z
" transform="scale(0.015625)"/>
       </defs>
       <use xlink:href="#Helvetica-33"/>
       <use xlink:href="#Helvetica-30" transform="translate(55.615234 0)"/>
      </g>
     </g>
    </g>
    <g id="xtick_5">
     <g id="line2d_5">
      <g>
       <use xlink:href="#m4ec128fce3" x="480.266116" y="406.996875" style="fill: #212529; stroke: #212529; stroke-width: 0.8"/>
      </g>
     </g>
     <g id="text_5">
      <!-- 40 -->
      <g style="fill: #212529" transform="translate(466.919866 431.213125) scale(0.24 -0.24)">
       <defs>
        <path id="Helvetica-34" d="M 2116 1584 
L 2116 3613 
L 681 1584 
L 2116 1584 
z
M 2125 0 
L 2125 1094 
L 163 1094 
L 163 1644 
L 2213 4488 
L 2688 4488 
L 2688 1584 
L 3347 1584 
L 3347 1094 
L 2688 1094 
L 2688 0 
L 2125 0 
z
" transform="scale(0.015625)"/>
       </defs>
       <use xlink:href="#Helvetica-34"/>
       <use xlink:href="#Helvetica-30" transform="translate(55.615234 0)"/>
      </g>
     </g>
    </g>
    <g id="xtick_6">
     <g id="line2d_6">
      <g>
       <use xlink:href="#m4ec128fce3" x="573.416053" y="406.996875" style="fill: #212529; stroke: #212529; stroke-width: 0.8"/>
      </g>
     </g>
     <g id="text_6">
      <!-- 50 -->
      <g style="fill: #212529" transform="translate(560.069803 431.213125) scale(0.24 -0.24)">
       <defs>
        <path id="Helvetica-35" d="M 791 1141 
Q 847 659 1238 475 
Q 1438 381 1700 381 
Q 2200 381 2440 700 
Q 2681 1019 2681 1406 
Q 2681 1875 2395 2131 
Q 2109 2388 1709 2388 
Q 1419 2388 1211 2275 
Q 1003 2163 856 1963 
L 369 1991 
L 709 4400 
L 3034 4400 
L 3034 3856 
L 1131 3856 
L 941 2613 
Q 1097 2731 1238 2791 
Q 1488 2894 1816 2894 
Q 2431 2894 2859 2497 
Q 3288 2100 3288 1491 
Q 3288 856 2895 371 
Q 2503 -113 1644 -113 
Q 1097 -113 676 195 
Q 256 503 206 1141 
L 791 1141 
z
" transform="scale(0.015625)"/>
       </defs>
       <use xlink:href="#Helvetica-35"/>
       <use xlink:href="#Helvetica-30" transform="translate(55.615234 0)"/>
      </g>
     </g>
    </g>
    <g id="text_7">
     <!-- Epoch -->
     <g style="fill: #212529" transform="translate(311.984012 461.80625) scale(0.3 -0.3)">
      <defs>
       <path id="Helvetica-45" d="M 547 4591 
L 3894 4591 
L 3894 4028 
L 1153 4028 
L 1153 2634 
L 3688 2634 
L 3688 2103 
L 1153 2103 
L 1153 547 
L 3941 547 
L 3941 0 
L 547 0 
L 547 4591 
z
M 2244 4591 
L 2244 4591 
z
" transform="scale(0.015625)"/>
       <path id="Helvetica-70" d="M 1825 378 
Q 2219 378 2480 708 
Q 2741 1038 2741 1694 
Q 2741 2094 2625 2381 
Q 2406 2934 1825 2934 
Q 1241 2934 1025 2350 
Q 909 2038 909 1556 
Q 909 1169 1025 897 
Q 1244 378 1825 378 
z
M 369 3331 
L 916 3331 
L 916 2888 
Q 1084 3116 1284 3241 
Q 1569 3428 1953 3428 
Q 2522 3428 2919 2992 
Q 3316 2556 3316 1747 
Q 3316 653 2744 184 
Q 2381 -113 1900 -113 
Q 1522 -113 1266 53 
Q 1116 147 931 375 
L 931 -1334 
L 369 -1334 
L 369 3331 
z
" transform="scale(0.015625)"/>
       <path id="Helvetica-6f" d="M 1741 363 
Q 2300 363 2508 786 
Q 2716 1209 2716 1728 
Q 2716 2197 2566 2491 
Q 2328 2953 1747 2953 
Q 1231 2953 997 2559 
Q 763 2166 763 1609 
Q 763 1075 997 719 
Q 1231 363 1741 363 
z
M 1763 3444 
Q 2409 3444 2856 3012 
Q 3303 2581 3303 1744 
Q 3303 934 2909 406 
Q 2516 -122 1688 -122 
Q 997 -122 590 345 
Q 184 813 184 1600 
Q 184 2444 612 2944 
Q 1041 3444 1763 3444 
z
M 1744 3428 
L 1744 3428 
z
" transform="scale(0.015625)"/>
       <path id="Helvetica-63" d="M 1703 3444 
Q 2269 3444 2623 3169 
Q 2978 2894 3050 2222 
L 2503 2222 
Q 2453 2531 2275 2736 
Q 2097 2941 1703 2941 
Q 1166 2941 934 2416 
Q 784 2075 784 1575 
Q 784 1072 996 728 
Q 1209 384 1666 384 
Q 2016 384 2220 598 
Q 2425 813 2503 1184 
L 3050 1184 
Q 2956 519 2581 211 
Q 2206 -97 1622 -97 
Q 966 -97 575 383 
Q 184 863 184 1581 
Q 184 2463 612 2953 
Q 1041 3444 1703 3444 
z
M 1616 3428 
L 1616 3428 
z
" transform="scale(0.015625)"/>
       <path id="Helvetica-68" d="M 413 4606 
L 975 4606 
L 975 2894 
Q 1175 3147 1334 3250 
Q 1606 3428 2013 3428 
Q 2741 3428 3000 2919 
Q 3141 2641 3141 2147 
L 3141 0 
L 2563 0 
L 2563 2109 
Q 2563 2478 2469 2650 
Q 2316 2925 1894 2925 
Q 1544 2925 1259 2684 
Q 975 2444 975 1775 
L 975 0 
L 413 0 
L 413 4606 
z
" transform="scale(0.015625)"/>
      </defs>
      <use xlink:href="#Helvetica-45"/>
      <use xlink:href="#Helvetica-70" transform="translate(66.699219 0)"/>
      <use xlink:href="#Helvetica-6f" transform="translate(122.314453 0)"/>
      <use xlink:href="#Helvetica-63" transform="translate(177.929688 0)"/>
      <use xlink:href="#Helvetica-68" transform="translate(227.929688 0)"/>
     </g>
    </g>
   </g>
   <g id="matplotlib.axis_2">
    <g id="ytick_1">
     <g id="line2d_7">
      <defs>
       <path id="m3ec05be087" d="M 0 0 
L -3.5 0 
" style="stroke: #212529; stroke-width: 0.8"/>
      </defs>
      <g>
       <use xlink:href="#m3ec05be087" x="93.228125" y="214.737196" style="fill: #212529; stroke: #212529; stroke-width: 0.8"/>
      </g>
     </g>
     <g id="text_8">
      <!-- $\mathdefault{10^{-1}}$ -->
      <g style="fill: #212529" transform="translate(39.428125 223.345321) scale(0.24 -0.24)">
       <defs>
        <path id="Helvetica-2212" d="M 3547 1894 
L 3547 1369 
L 288 1369 
L 288 1894 
L 3547 1894 
z
" transform="scale(0.015625)"/>
       </defs>
       <use xlink:href="#Helvetica-31" transform="translate(0 0.654688)"/>
       <use xlink:href="#Helvetica-30" transform="translate(55.615234 0.654688)"/>
       <use xlink:href="#Helvetica-2212" transform="translate(112.145664 37.2625) scale(0.7)"/>
       <use xlink:href="#Helvetica-31" transform="translate(153.02457 37.2625) scale(0.7)"/>
      </g>
     </g>
    </g>
    <g id="ytick_2">
     <g id="line2d_8">
      <defs>
       <path id="m87cbf713b2" d="M 0 0 
L -2 0 
" style="stroke: #212529; stroke-width: 0.6"/>
      </defs>
      <g>
       <use xlink:href="#m87cbf713b2" x="93.228125" y="357.652642" style="fill: #212529; stroke: #212529; stroke-width: 0.6"/>
      </g>
     </g>
    </g>
    <g id="ytick_3">
     <g id="line2d_9">
      <g>
       <use xlink:href="#m87cbf713b2" x="93.228125" y="321.648005" style="fill: #212529; stroke: #212529; stroke-width: 0.6"/>
      </g>
     </g>
    </g>
    <g id="ytick_4">
     <g id="line2d_10">
      <g>
       <use xlink:href="#m87cbf713b2" x="93.228125" y="296.102309" style="fill: #212529; stroke: #212529; stroke-width: 0.6"/>
      </g>
     </g>
    </g>
    <g id="ytick_5">
     <g id="line2d_11">
      <g>
       <use xlink:href="#m87cbf713b2" x="93.228125" y="276.287528" style="fill: #212529; stroke: #212529; stroke-width: 0.6"/>
      </g>
     </g>
    </g>
    <g id="ytick_6">
     <g id="line2d_12">
      <g>
       <use xlink:href="#m87cbf713b2" x="93.228125" y="260.097673" style="fill: #212529; stroke: #212529; stroke-width: 0.6"/>
      </g>
     </g>
    </g>
    <g id="ytick_7">
     <g id="line2d_13">
      <g>
       <use xlink:href="#m87cbf713b2" x="93.228125" y="246.409346" style="fill: #212529; stroke: #212529; stroke-width: 0.6"/>
      </g>
     </g>
    </g>
    <g id="ytick_8">
     <g id="line2d_14">
      <g>
       <use xlink:href="#m87cbf713b2" x="93.228125" y="234.551977" style="fill: #212529; stroke: #212529; stroke-width: 0.6"/>
      </g>
     </g>
    </g>
    <g id="ytick_9">
     <g id="line2d_15">
      <g>
       <use xlink:href="#m87cbf713b2" x="93.228125" y="224.093037" style="fill: #212529; stroke: #212529; stroke-width: 0.6"/>
      </g>
     </g>
    </g>
    <g id="ytick_10">
     <g id="line2d_16">
      <g>
       <use xlink:href="#m87cbf713b2" x="93.228125" y="153.186863" style="fill: #212529; stroke: #212529; stroke-width: 0.6"/>
      </g>
     </g>
    </g>
    <g id="ytick_11">
     <g id="line2d_17">
      <g>
       <use xlink:href="#m87cbf713b2" x="93.228125" y="117.182227" style="fill: #212529; stroke: #212529; stroke-width: 0.6"/>
      </g>
     </g>
    </g>
    <g id="ytick_12">
     <g id="line2d_18">
      <g>
       <use xlink:href="#m87cbf713b2" x="93.228125" y="91.636531" style="fill: #212529; stroke: #212529; stroke-width: 0.6"/>
      </g>
     </g>
    </g>
    <g id="ytick_13">
     <g id="line2d_19">
      <g>
       <use xlink:href="#m87cbf713b2" x="93.228125" y="71.82175" style="fill: #212529; stroke: #212529; stroke-width: 0.6"/>
      </g>
     </g>
    </g>
    <g id="ytick_14">
     <g id="line2d_20">
      <g>
       <use xlink:href="#m87cbf713b2" x="93.228125" y="55.631894" style="fill: #212529; stroke: #212529; stroke-width: 0.6"/>
      </g>
     </g>
    </g>
    <g id="ytick_15">
     <g id="line2d_21">
      <g>
       <use xlink:href="#m87cbf713b2" x="93.228125" y="41.943567" style="fill: #212529; stroke: #212529; stroke-width: 0.6"/>
      </g>
     </g>
    </g>
    <g id="text_9">
     <!-- MSE (standardized) -->
     <g style="fill: #212529" transform="translate(29.175 355.682969) rotate(-90) scale(0.3 -0.3)">
      <defs>
       <path id="Helvetica-4d" d="M 472 4591 
L 1363 4591 
L 2681 709 
L 3991 4591 
L 4872 4591 
L 4872 0 
L 4281 0 
L 4281 2709 
Q 4281 2850 4287 3175 
Q 4294 3500 4294 3872 
L 2984 0 
L 2369 0 
L 1050 3872 
L 1050 3731 
Q 1050 3563 1058 3217 
Q 1066 2872 1066 2709 
L 1066 0 
L 472 0 
L 472 4591 
z
" transform="scale(0.015625)"/>
       <path id="Helvetica-53" d="M 894 1481 
Q 916 1091 1078 847 
Q 1388 391 2169 391 
Q 2519 391 2806 491 
Q 3363 684 3363 1184 
Q 3363 1559 3128 1719 
Q 2891 1875 2384 1991 
L 1763 2131 
Q 1153 2269 900 2434 
Q 463 2722 463 3294 
Q 463 3913 891 4309 
Q 1319 4706 2103 4706 
Q 2825 4706 3329 4357 
Q 3834 4009 3834 3244 
L 3250 3244 
Q 3203 3613 3050 3809 
Q 2766 4169 2084 4169 
Q 1534 4169 1293 3937 
Q 1053 3706 1053 3400 
Q 1053 3063 1334 2906 
Q 1519 2806 2169 2656 
L 2813 2509 
Q 3278 2403 3531 2219 
Q 3969 1897 3969 1284 
Q 3969 522 3414 194 
Q 2859 -134 2125 -134 
Q 1269 -134 784 303 
Q 300 738 309 1481 
L 894 1481 
z
M 2150 4716 
L 2150 4716 
z
" transform="scale(0.015625)"/>
       <path id="Helvetica-20" transform="scale(0.015625)"/>
       <path id="Helvetica-28" d="M 1894 4666 
Q 1403 3713 1256 3263 
Q 1034 2578 1034 1681 
Q 1034 775 1288 25 
Q 1444 -438 1903 -1306 
L 1525 -1306 
Q 1069 -594 959 -397 
Q 850 -200 722 138 
Q 547 600 478 1125 
Q 444 1397 444 1644 
Q 444 2569 734 3291 
Q 919 3750 1503 4666 
L 1894 4666 
z
" transform="scale(0.015625)"/>
       <path id="Helvetica-73" d="M 747 1050 
Q 772 769 888 619 
Q 1100 347 1625 347 
Q 1938 347 2175 483 
Q 2413 619 2413 903 
Q 2413 1119 2222 1231 
Q 2100 1300 1741 1391 
L 1294 1503 
Q 866 1609 663 1741 
Q 300 1969 300 2372 
Q 300 2847 642 3140 
Q 984 3434 1563 3434 
Q 2319 3434 2653 2991 
Q 2863 2709 2856 2384 
L 2325 2384 
Q 2309 2575 2191 2731 
Q 1997 2953 1519 2953 
Q 1200 2953 1036 2831 
Q 872 2709 872 2509 
Q 872 2291 1088 2159 
Q 1213 2081 1456 2022 
L 1828 1931 
Q 2434 1784 2641 1647 
Q 2969 1431 2969 969 
Q 2969 522 2630 197 
Q 2291 -128 1597 -128 
Q 850 -128 539 211 
Q 228 550 206 1050 
L 747 1050 
z
M 1578 3428 
L 1578 3428 
z
" transform="scale(0.015625)"/>
       <path id="Helvetica-74" d="M 525 4281 
L 1094 4281 
L 1094 3347 
L 1628 3347 
L 1628 2888 
L 1094 2888 
L 1094 703 
Q 1094 528 1213 469 
Q 1278 434 1431 434 
Q 1472 434 1519 436 
Q 1566 438 1628 444 
L 1628 0 
Q 1531 -28 1426 -40 
Q 1322 -53 1200 -53 
Q 806 -53 665 148 
Q 525 350 525 672 
L 525 2888 
L 72 2888 
L 72 3347 
L 525 3347 
L 525 4281 
z
" transform="scale(0.015625)"/>
       <path id="Helvetica-61" d="M 844 891 
Q 844 647 1022 506 
Q 1200 366 1444 366 
Q 1741 366 2019 503 
Q 2488 731 2488 1250 
L 2488 1703 
Q 2384 1638 2221 1594 
Q 2059 1550 1903 1531 
L 1563 1488 
Q 1256 1447 1103 1359 
Q 844 1213 844 891 
z
M 2206 2028 
Q 2400 2053 2466 2191 
Q 2503 2266 2503 2406 
Q 2503 2694 2298 2823 
Q 2094 2953 1713 2953 
Q 1272 2953 1088 2716 
Q 984 2584 953 2325 
L 428 2325 
Q 444 2944 830 3186 
Q 1216 3428 1725 3428 
Q 2316 3428 2684 3203 
Q 3050 2978 3050 2503 
L 3050 575 
Q 3050 488 3086 434 
Q 3122 381 3238 381 
Q 3275 381 3322 386 
Q 3369 391 3422 400 
L 3422 -16 
Q 3291 -53 3222 -62 
Q 3153 -72 3034 -72 
Q 2744 -72 2613 134 
Q 2544 244 2516 444 
Q 2344 219 2022 53 
Q 1700 -113 1313 -113 
Q 847 -113 551 170 
Q 256 453 256 878 
Q 256 1344 547 1600 
Q 838 1856 1309 1916 
L 2206 2028 
z
M 1741 3428 
L 1741 3428 
z
" transform="scale(0.015625)"/>
       <path id="Helvetica-6e" d="M 413 3347 
L 947 3347 
L 947 2872 
Q 1184 3166 1450 3294 
Q 1716 3422 2041 3422 
Q 2753 3422 3003 2925 
Q 3141 2653 3141 2147 
L 3141 0 
L 2569 0 
L 2569 2109 
Q 2569 2416 2478 2603 
Q 2328 2916 1934 2916 
Q 1734 2916 1606 2875 
Q 1375 2806 1200 2600 
Q 1059 2434 1017 2257 
Q 975 2081 975 1753 
L 975 0 
L 413 0 
L 413 3347 
z
M 1734 3428 
L 1734 3428 
z
" transform="scale(0.015625)"/>
       <path id="Helvetica-64" d="M 769 1634 
Q 769 1097 997 734 
Q 1225 372 1728 372 
Q 2119 372 2370 708 
Q 2622 1044 2622 1672 
Q 2622 2306 2362 2611 
Q 2103 2916 1722 2916 
Q 1297 2916 1033 2591 
Q 769 2266 769 1634 
z
M 1616 3406 
Q 2000 3406 2259 3244 
Q 2409 3150 2600 2916 
L 2600 4606 
L 3141 4606 
L 3141 0 
L 2634 0 
L 2634 466 
Q 2438 156 2169 18 
Q 1900 -119 1553 -119 
Q 994 -119 584 351 
Q 175 822 175 1603 
Q 175 2334 548 2870 
Q 922 3406 1616 3406 
z
" transform="scale(0.015625)"/>
       <path id="Helvetica-72" d="M 428 3347 
L 963 3347 
L 963 2769 
Q 1028 2938 1284 3180 
Q 1541 3422 1875 3422 
Q 1891 3422 1928 3419 
Q 1966 3416 2056 3406 
L 2056 2813 
Q 2006 2822 1964 2825 
Q 1922 2828 1872 2828 
Q 1447 2828 1219 2554 
Q 991 2281 991 1925 
L 991 0 
L 428 0 
L 428 3347 
z
" transform="scale(0.015625)"/>
       <path id="Helvetica-69" d="M 413 3331 
L 984 3331 
L 984 0 
L 413 0 
L 413 3331 
z
M 413 4591 
L 984 4591 
L 984 3953 
L 413 3953 
L 413 4591 
z
" transform="scale(0.015625)"/>
       <path id="Helvetica-7a" d="M 163 444 
L 2147 2844 
L 309 2844 
L 309 3347 
L 2903 3347 
L 2903 2888 
L 931 503 
L 2963 503 
L 2963 0 
L 163 0 
L 163 444 
z
M 1609 3428 
L 1609 3428 
z
" transform="scale(0.015625)"/>
       <path id="Helvetica-65" d="M 1806 3422 
Q 2163 3422 2497 3255 
Q 2831 3088 3006 2822 
Q 3175 2569 3231 2231 
Q 3281 2000 3281 1494 
L 828 1494 
Q 844 984 1069 676 
Q 1294 369 1766 369 
Q 2206 369 2469 659 
Q 2619 828 2681 1050 
L 3234 1050 
Q 3213 866 3089 639 
Q 2966 413 2813 269 
Q 2556 19 2178 -69 
Q 1975 -119 1719 -119 
Q 1094 -119 659 336 
Q 225 791 225 1609 
Q 225 2416 662 2919 
Q 1100 3422 1806 3422 
z
M 2703 1941 
Q 2669 2306 2544 2525 
Q 2313 2931 1772 2931 
Q 1384 2931 1121 2651 
Q 859 2372 844 1941 
L 2703 1941 
z
M 1753 3428 
L 1753 3428 
z
" transform="scale(0.015625)"/>
       <path id="Helvetica-29" d="M 222 -1306 
Q 719 -338 863 106 
Q 1081 778 1081 1681 
Q 1081 2584 828 3334 
Q 672 3797 213 4666 
L 591 4666 
Q 1072 3897 1173 3717 
Q 1275 3538 1394 3222 
Q 1544 2831 1608 2450 
Q 1672 2069 1672 1716 
Q 1672 791 1378 66 
Q 1194 -400 613 -1306 
L 222 -1306 
z
" transform="scale(0.015625)"/>
      </defs>
      <use xlink:href="#Helvetica-4d"/>
      <use xlink:href="#Helvetica-53" transform="translate(83.300781 0)"/>
      <use xlink:href="#Helvetica-45" transform="translate(150 0)"/>
      <use xlink:href="#Helvetica-20" transform="translate(216.699219 0)"/>
      <use xlink:href="#Helvetica-28" transform="translate(244.482422 0)"/>
      <use xlink:href="#Helvetica-73" transform="translate(277.783203 0)"/>
      <use xlink:href="#Helvetica-74" transform="translate(327.783203 0)"/>
      <use xlink:href="#Helvetica-61" transform="translate(355.566406 0)"/>
      <use xlink:href="#Helvetica-6e" transform="translate(411.181641 0)"/>
      <use xlink:href="#Helvetica-64" transform="translate(466.796875 0)"/>
      <use xlink:href="#Helvetica-61" transform="translate(522.412109 0)"/>
      <use xlink:href="#Helvetica-72" transform="translate(578.027344 0)"/>
      <use xlink:href="#Helvetica-64" transform="translate(611.328125 0)"/>
      <use xlink:href="#Helvetica-69" transform="translate(666.943359 0)"/>
      <use xlink:href="#Helvetica-7a" transform="translate(689.160156 0)"/>
      <use xlink:href="#Helvetica-65" transform="translate(739.160156 0)"/>
      <use xlink:href="#Helvetica-64" transform="translate(794.775391 0)"/>
      <use xlink:href="#Helvetica-29" transform="translate(850.390625 0)"/>
     </g>
    </g>
   </g>
   <g id="line2d_22">
    <path d="M 116.981359 127.219302 
L 126.296353 76.894754 
L 135.611347 71.520493 
L 144.92634 64.169597 
L 154.241334 55.99142 
L 163.556328 56.744171 
L 172.871322 57.749659 
L 182.186315 61.961334 
L 191.501309 65.477621 
L 200.816303 67.661897 
L 210.131297 70.704095 
L 219.44629 79.395842 
L 228.761284 125.207589 
L 238.076278 149.646184 
L 247.391272 161.403562 
L 256.706266 174.089122 
L 266.021259 188.629065 
L 275.336253 195.829291 
L 284.651247 202.091362 
L 293.966241 213.585923 
L 303.281234 219.682171 
L 312.596228 218.73404 
L 321.911222 212.339278 
L 331.226216 230.384594 
L 340.541209 233.870756 
L 349.856203 238.02377 
L 359.171197 239.231381 
L 368.486191 247.6258 
L 377.801184 252.879595 
L 387.116178 269.870741 
L 396.431172 285.408374 
L 405.746166 274.533642 
L 415.061159 271.981937 
L 424.376153 280.016569 
L 433.691147 261.48273 
L 443.006141 272.14507 
L 452.321134 282.564841 
L 461.636128 294.419565 
L 470.951122 280.129684 
L 480.266116 324.152991 
L 489.58111 303.779546 
L 498.896103 325.149984 
L 508.211097 304.374847 
L 517.526091 309.728924 
L 526.841085 313.79999 
L 536.156078 304.712166 
L 545.471072 297.416007 
L 554.786066 271.08269 
L 564.10106 292.198112 
L 573.416053 294.175837 
L 582.731047 299.317677 
L 592.046041 305.884806 
" clip-path="url(#p56da39073a)" style="fill: none; stroke: #2563eb; stroke-width: 3; stroke-linecap: square"/>
   </g>
   <g id="line2d_23">
    <path d="M 116.981359 120.664973 
L 126.296353 86.001277 
L 135.611347 68.142411 
L 144.92634 62.709843 
L 154.241334 58.073639 
L 163.556328 57.069178 
L 172.871322 59.704356 
L 182.186315 62.098908 
L 191.501309 63.935994 
L 200.816303 65.606756 
L 210.131297 70.194138 
L 219.44629 77.538348 
L 228.761284 118.423169 
L 238.076278 140.0386 
L 247.391272 151.239668 
L 256.706266 163.193944 
L 266.021259 173.276842 
L 275.336253 179.874973 
L 284.651247 189.242644 
L 293.966241 201.385185 
L 303.281234 203.334964 
L 312.596228 220.228337 
L 321.911222 216.090632 
L 331.226216 226.95108 
L 340.541209 229.610662 
L 349.856203 228.938763 
L 359.171197 249.125116 
L 368.486191 240.415546 
L 377.801184 265.442257 
L 387.116178 266.223501 
L 396.431172 275.729828 
L 405.746166 251.67919 
L 415.061159 274.828864 
L 424.376153 285.80877 
L 433.691147 284.627641 
L 443.006141 298.402845 
L 452.321134 302.654745 
L 461.636128 302.007684 
L 470.951122 336.90216 
L 480.266116 326.290639 
L 489.58111 369.483509 
L 498.896103 339.353474 
L 508.211097 371.640642 
L 517.526091 390.28233 
L 526.841085 371.354532 
L 536.156078 344.340949 
L 545.471072 350.127721 
L 554.786066 371.820608 
L 564.10106 355.254412 
L 573.416053 366.178904 
L 582.731047 367.656352 
L 592.046041 382.648186 
" clip-path="url(#p56da39073a)" style="fill: none; stroke: #d97706; stroke-width: 3; stroke-linecap: square"/>
   </g>
   <g id="line2d_24">
    <path d="M 219.44629 406.996875 
L 219.44629 39.276875 
" clip-path="url(#p56da39073a)" style="fill: none; stroke-dasharray: 2,3.3; stroke-dashoffset: 0; stroke: #dc2626; stroke-width: 2"/>
   </g>
   <g id="patch_3">
    <path d="M 93.228125 406.996875 
L 93.228125 39.276875 
" style="fill: none; stroke: #212529; stroke-width: 1.4; stroke-linejoin: miter; stroke-linecap: square"/>
   </g>
   <g id="patch_4">
    <path d="M 615.799275 406.996875 
L 615.799275 39.276875 
" style="fill: none; stroke: #212529; stroke-width: 1.4; stroke-linejoin: miter; stroke-linecap: square"/>
   </g>
   <g id="patch_5">
    <path d="M 93.228125 406.996875 
L 615.799275 406.996875 
" style="fill: none; stroke: #212529; stroke-width: 1.4; stroke-linejoin: miter; stroke-linecap: square"/>
   </g>
   <g id="patch_6">
    <path d="M 93.228125 39.276875 
L 615.799275 39.276875 
" style="fill: none; stroke: #212529; stroke-width: 1.4; stroke-linejoin: miter; stroke-linecap: square"/>
   </g>
   <g id="text_10">
    <!-- Boundary (Dirichlet) -->
    <g style="fill: #212529" transform="translate(204.302762 31.988125) scale(0.34 -0.34)">
     <defs>
      <path id="Helvetica-42" d="M 2213 2650 
Q 2606 2650 2825 2759 
Q 3169 2931 3169 3378 
Q 3169 3828 2803 3984 
Q 2597 4072 2191 4072 
L 1081 4072 
L 1081 2650 
L 2213 2650 
z
M 2422 531 
Q 2994 531 3238 863 
Q 3391 1072 3391 1369 
Q 3391 1869 2944 2050 
Q 2706 2147 2316 2147 
L 1081 2147 
L 1081 531 
L 2422 531 
z
M 472 4591 
L 2444 4591 
Q 3250 4591 3591 4109 
Q 3791 3825 3791 3453 
Q 3791 3019 3544 2741 
Q 3416 2594 3175 2472 
Q 3528 2338 3703 2169 
Q 4013 1869 4013 1341 
Q 4013 897 3734 538 
Q 3319 0 2413 0 
L 472 0 
L 472 4591 
z
" transform="scale(0.015625)"/>
      <path id="Helvetica-75" d="M 975 3347 
L 975 1125 
Q 975 869 1056 706 
Q 1206 406 1616 406 
Q 2203 406 2416 931 
Q 2531 1213 2531 1703 
L 2531 3347 
L 3094 3347 
L 3094 0 
L 2563 0 
L 2569 494 
Q 2459 303 2297 172 
Q 1975 -91 1516 -91 
Q 800 -91 541 388 
Q 400 644 400 1072 
L 400 3347 
L 975 3347 
z
M 1747 3428 
L 1747 3428 
z
" transform="scale(0.015625)"/>
      <path id="Helvetica-79" d="M 2503 3347 
L 3125 3347 
Q 3006 3025 2597 1878 
Q 2291 1016 2084 472 
Q 1597 -809 1397 -1090 
Q 1197 -1372 709 -1372 
Q 591 -1372 527 -1362 
Q 463 -1353 369 -1328 
L 369 -816 
Q 516 -856 581 -865 
Q 647 -875 697 -875 
Q 853 -875 926 -823 
Q 1000 -772 1050 -697 
Q 1066 -672 1162 -440 
Q 1259 -209 1303 -97 
L 66 3347 
L 703 3347 
L 1600 622 
L 2503 3347 
z
M 1597 3428 
L 1597 3428 
z
" transform="scale(0.015625)"/>
      <path id="Helvetica-44" d="M 2250 531 
Q 2566 531 2769 597 
Q 3131 719 3363 1066 
Q 3547 1344 3628 1778 
Q 3675 2038 3675 2259 
Q 3675 3113 3336 3584 
Q 2997 4056 2244 4056 
L 1141 4056 
L 1141 531 
L 2250 531 
z
M 516 4591 
L 2375 4591 
Q 3322 4591 3844 3919 
Q 4309 3313 4309 2366 
Q 4309 1634 4034 1044 
Q 3550 0 2369 0 
L 516 0 
L 516 4591 
z
" transform="scale(0.015625)"/>
      <path id="Helvetica-6c" d="M 428 4591 
L 991 4591 
L 991 0 
L 428 0 
L 428 4591 
z
" transform="scale(0.015625)"/>
     </defs>
     <use xlink:href="#Helvetica-42"/>
     <use xlink:href="#Helvetica-6f" transform="translate(66.699219 0)"/>
     <use xlink:href="#Helvetica-75" transform="translate(122.314453 0)"/>
     <use xlink:href="#Helvetica-6e" transform="translate(177.929688 0)"/>
     <use xlink:href="#Helvetica-64" transform="translate(233.544922 0)"/>
     <use xlink:href="#Helvetica-61" transform="translate(289.160156 0)"/>
     <use xlink:href="#Helvetica-72" transform="translate(344.775391 0)"/>
     <use xlink:href="#Helvetica-79" transform="translate(378.076172 0)"/>
     <use xlink:href="#Helvetica-20" transform="translate(428.076172 0)"/>
     <use xlink:href="#Helvetica-28" transform="translate(455.859375 0)"/>
     <use xlink:href="#Helvetica-44" transform="translate(489.160156 0)"/>
     <use xlink:href="#Helvetica-69" transform="translate(561.376953 0)"/>
     <use xlink:href="#Helvetica-72" transform="translate(583.59375 0)"/>
     <use xlink:href="#Helvetica-69" transform="translate(616.894531 0)"/>
     <use xlink:href="#Helvetica-63" transform="translate(639.111328 0)"/>
     <use xlink:href="#Helvetica-68" transform="translate(689.111328 0)"/>
     <use xlink:href="#Helvetica-6c" transform="translate(744.726562 0)"/>
     <use xlink:href="#Helvetica-65" transform="translate(766.943359 0)"/>
     <use xlink:href="#Helvetica-74" transform="translate(822.558594 0)"/>
     <use xlink:href="#Helvetica-29" transform="translate(850.341797 0)"/>
    </g>
   </g>
   <g id="legend_1">
    <g id="line2d_25">
     <path d="M 413.614275 69.693125 
L 437.614275 69.693125 
L 461.614275 69.693125 
" style="fill: none; stroke: #2563eb; stroke-width: 3; stroke-linecap: square"/>
    </g>
    <g id="text_11">
     <!-- Train -->
     <g transform="translate(480.814275 78.093125) scale(0.24 -0.24)">
      <defs>
       <path id="Helvetica-54" d="M 3828 4591 
L 3828 4044 
L 2281 4044 
L 2281 0 
L 1650 0 
L 1650 4044 
L 103 4044 
L 103 4591 
L 3828 4591 
z
" transform="scale(0.015625)"/>
      </defs>
      <use xlink:href="#Helvetica-54"/>
      <use xlink:href="#Helvetica-72" transform="translate(61.083984 0)"/>
      <use xlink:href="#Helvetica-61" transform="translate(94.384766 0)"/>
      <use xlink:href="#Helvetica-69" transform="translate(150 0)"/>
      <use xlink:href="#Helvetica-6e" transform="translate(172.216797 0)"/>
     </g>
    </g>
    <g id="line2d_26">
     <path d="M 413.614275 103.911875 
L 437.614275 103.911875 
L 461.614275 103.911875 
" style="fill: none; stroke: #d97706; stroke-width: 3; stroke-linecap: square"/>
    </g>
    <g id="text_12">
     <!-- Validation -->
     <g transform="translate(480.814275 112.311875) scale(0.24 -0.24)">
      <defs>
       <path id="Helvetica-56" d="M 850 4591 
L 2169 681 
L 3472 4591 
L 4169 4591 
L 2494 0 
L 1834 0 
L 163 4591 
L 850 4591 
z
" transform="scale(0.015625)"/>
      </defs>
      <use xlink:href="#Helvetica-56"/>
      <use xlink:href="#Helvetica-61" transform="translate(66.699219 0)"/>
      <use xlink:href="#Helvetica-6c" transform="translate(122.314453 0)"/>
      <use xlink:href="#Helvetica-69" transform="translate(144.53125 0)"/>
      <use xlink:href="#Helvetica-64" transform="translate(166.748047 0)"/>
      <use xlink:href="#Helvetica-61" transform="translate(222.363281 0)"/>
      <use xlink:href="#Helvetica-74" transform="translate(277.978516 0)"/>
      <use xlink:href="#Helvetica-69" transform="translate(305.761719 0)"/>
      <use xlink:href="#Helvetica-6f" transform="translate(327.978516 0)"/>
      <use xlink:href="#Helvetica-6e" transform="translate(383.59375 0)"/>
     </g>
    </g>
    <g id="line2d_27">
     <path d="M 413.614275 138.186875 
L 437.614275 138.186875 
L 461.614275 138.186875 
" style="fill: none; stroke-dasharray: 2,3.3; stroke-dashoffset: 0; stroke: #dc2626; stroke-width: 2"/>
    </g>
    <g id="text_13">
     <!-- physics on -->
     <g transform="translate(480.814275 146.586875) scale(0.24 -0.24)">
      <use xlink:href="#Helvetica-70"/>
      <use xlink:href="#Helvetica-68" transform="translate(55.615234 0)"/>
      <use xlink:href="#Helvetica-79" transform="translate(111.230469 0)"/>
      <use xlink:href="#Helvetica-73" transform="translate(161.230469 0)"/>
      <use xlink:href="#Helvetica-69" transform="translate(211.230469 0)"/>
      <use xlink:href="#Helvetica-63" transform="translate(233.447266 0)"/>
      <use xlink:href="#Helvetica-73" transform="translate(283.447266 0)"/>
      <use xlink:href="#Helvetica-20" transform="translate(333.447266 0)"/>
      <use xlink:href="#Helvetica-6f" transform="translate(361.230469 0)"/>
      <use xlink:href="#Helvetica-6e" transform="translate(416.845703 0)"/>
     </g>
    </g>
   </g>
  </g>
 </g>
 <defs>
  <clipPath id="p56da39073a">
   <rect x="93.228125" y="39.276875" width="522.57115" height="367.72"/>
  </clipPath>
 </defs>
</svg>
