<?xml version="1.0" encoding="utf-8" standalone="no"?>
<!DOCTYPE svg PUBLIC "-//W3C//DTD SVG 1.1//EN"
  "http://www.w3.org/Graphics/SVG/1.1/DTD/svg11.dtd">
<svg xmlns:xlink="http://www.w3.org/1999/xlink" width="620.73195pt" height="475.4075pt" viewBox="0 0 620.73195 475.4075" xmlns="http://www.w3.org/2000/svg" version="1.1">
 <metadata>
  <rdf:RDF xmlns:dc="http://purl.org/dc/elements/1.1/" xmlns:cc="http://creativecommons.org/ns#" xmlns:rdf="http://www.w3.org/1999/02/22-rdf-syntax-ns#">
   <cc:Work>
    <dc:type rdf:resource="http://purl.org/dc/dcmitype/StillImage"/>
    <dc:date>2026-06-21T05:01:38.838104</dc:date>
    <dc:format>image/svg+xml</dc:format>
    <dc:creator>
     <cc:Agent>
      <dc:title>Matplotlib v3.8.0, https://matplotlib.org/</dc:title>
     </cc:Agent>
    </dc:creator>
   </cc:Work>
  </rdf:RDF>
 </metadata>
 <defs>
  <style type="text/css">*{stroke-linejoin: round; stroke-linecap: butt}</style>
 </defs>
 <g id="figure_1">
  <g id="patch_1">
   <path d="M 0 475.4075 
L 620.73195 475.4075 
L 620.73195 0 
L 0 0 
z
" style="fill: #ffffff"/>
  </g>
  <g id="axes_1">
   <g id="patch_2">
    <path d="M 103.634375 404.945625 
L 613.53195 404.945625 
L 613.53195 40.105625 
L 103.634375 40.105625 
z
" style="fill: #ffffff"/>
   </g>
   <g id="matplotlib.axis_1">
    <g id="xtick_1">
     <g id="line2d_1">
      <defs>
       <path id="m77329e8cd0" d="M 0 0 
L 0 3.5 
" style="stroke: #212529; stroke-width: 0.8"/>
      </defs>
      <g>
       <use xlink:href="#m77329e8cd0" x="126.086118" y="404.945625" style="fill: #212529; stroke: #212529; stroke-width: 0.8"/>
      </g>
     </g>
     <g id="text_1">
      <!-- 0 -->
      <g style="fill: #212529" transform="translate(118.451118 430.181875) scale(0.24 -0.24)">
       <defs>
        <path id="DejaVuSans-30" d="M 2034 4250 
Q 1547 4250 1301 3770 
Q 1056 3291 1056 2328 
Q 1056 1369 1301 889 
Q 1547 409 2034 409 
Q 2525 409 2770 889 
Q 3016 1369 3016 2328 
Q 3016 3291 2770 3770 
Q 2525 4250 2034 4250 
z
M 2034 4750 
Q 2819 4750 3233 4129 
Q 3647 3509 3647 2328 
Q 3647 1150 3233 529 
Q 2819 -91 2034 -91 
Q 1250 -91 836 529 
Q 422 1150 422 2328 
Q 422 3509 836 4129 
Q 1250 4750 2034 4750 
z
" transform="scale(0.015625)"/>
       </defs>
       <use xlink:href="#DejaVuSans-30"/>
      </g>
     </g>
    </g>
    <g id="xtick_2">
     <g id="line2d_2">
      <g>
       <use xlink:href="#m77329e8cd0" x="271.170077" y="404.945625" style="fill: #212529; stroke: #212529; stroke-width: 0.8"/>
      </g>
     </g>
     <g id="text_2">
      <!-- 200 -->
      <g style="fill: #212529" transform="translate(248.265077 430.181875) scale(0.24 -0.24)">
       <defs>
        <path id="DejaVuSans-32" d="M 1228 531 
L 3431 531 
L 3431 0 
L 469 0 
L 469 531 
Q 828 903 1448 1529 
Q 2069 2156 2228 2338 
Q 2531 2678 2651 2914 
Q 2772 3150 2772 3378 
Q 2772 3750 2511 3984 
Q 2250 4219 1831 4219 
Q 1534 4219 1204 4116 
Q 875 4013 500 3803 
L 500 4441 
Q 881 4594 1212 4672 
Q 1544 4750 1819 4750 
Q 2544 4750 2975 4387 
Q 3406 4025 3406 3419 
Q 3406 3131 3298 2873 
Q 3191 2616 2906 2266 
Q 2828 2175 2409 1742 
Q 1991 1309 1228 531 
z
" transform="scale(0.015625)"/>
       </defs>
       <use xlink:href="#DejaVuSans-32"/>
       <use xlink:href="#DejaVuSans-30" x="63.623047"/>
       <use xlink:href="#DejaVuSans-30" x="127.246094"/>
      </g>
     </g>
    </g>
    <g id="xtick_3">
     <g id="line2d_3">
      <g>
       <use xlink:href="#m77329e8cd0" x="416.254036" y="404.945625" style="fill: #212529; stroke: #212529; stroke-width: 0.8"/>
      </g>
     </g>
     <g id="text_3">
      <!-- 400 -->
      <g style="fill: #212529" transform="translate(393.349036 430.181875) scale(0.24 -0.24)">
       <defs>
        <path id="DejaVuSans-34" d="M 2419 4116 
L 825 1625 
L 2419 1625 
L 2419 4116 
z
M 2253 4666 
L 3047 4666 
L 3047 1625 
L 3713 1625 
L 3713 1100 
L 3047 1100 
L 3047 0 
L 2419 0 
L 2419 1100 
L 313 1100 
L 313 1709 
L 2253 4666 
z
" transform="scale(0.015625)"/>
       </defs>
       <use xlink:href="#DejaVuSans-34"/>
       <use xlink:href="#DejaVuSans-30" x="63.623047"/>
       <use xlink:href="#DejaVuSans-30" x="127.246094"/>
      </g>
     </g>
    </g>
    <g id="xtick_4">
     <g id="line2d_4">
      <g>
       <use xlink:href="#m77329e8cd0" x="561.337996" y="404.945625" style="fill: #212529; stroke: #212529; stroke-width: 0.8"/>
      </g>
     </g>
     <g id="text_4">
      <!-- 600 -->
      <g style="fill: #212529" transform="translate(538.432996 430.181875) scale(0.24 -0.24)">
       <defs>
        <path id="DejaVuSans-36" d="M 2113 2584 
Q 1688 2584 1439 2293 
Q 1191 2003 1191 1497 
Q 1191 994 1439 701 
Q 1688 409 2113 409 
Q 2538 409 2786 701 
Q 3034 994 3034 1497 
Q 3034 2003 2786 2293 
Q 2538 2584 2113 2584 
z
M 3366 4563 
L 3366 3988 
Q 3128 4100 2886 4159 
Q 2644 4219 2406 4219 
Q 1781 4219 1451 3797 
Q 1122 3375 1075 2522 
Q 1259 2794 1537 2939 
Q 1816 3084 2150 3084 
Q 2853 3084 3261 2657 
Q 3669 2231 3669 1497 
Q 3669 778 3244 343 
Q 2819 -91 2113 -91 
Q 1303 -91 875 529 
Q 447 1150 447 2328 
Q 447 3434 972 4092 
Q 1497 4750 2381 4750 
Q 2619 4750 2861 4703 
Q 3103 4656 3366 4563 
z
" transform="scale(0.015625)"/>
       </defs>
       <use xlink:href="#DejaVuSans-36"/>
       <use xlink:href="#DejaVuSans-30" x="63.623047"/>
       <use xlink:href="#DejaVuSans-30" x="127.246094"/>
      </g>
     </g>
    </g>
    <g id="text_5">
     <!-- Epoch -->
     <g style="fill: #212529" transform="translate(312.65035 461.968438) scale(0.3 -0.3)">
      <defs>
       <path id="DejaVuSans-45" d="M 628 4666 
L 3578 4666 
L 3578 4134 
L 1259 4134 
L 1259 2753 
L 3481 2753 
L 3481 2222 
L 1259 2222 
L 1259 531 
L 3634 531 
L 3634 0 
L 628 0 
L 628 4666 
z
" transform="scale(0.015625)"/>
       <path id="DejaVuSans-70" d="M 1159 525 
L 1159 -1331 
L 581 -1331 
L 581 3500 
L 1159 3500 
L 1159 2969 
Q 1341 3281 1617 3432 
Q 1894 3584 2278 3584 
Q 2916 3584 3314 3078 
Q 3713 2572 3713 1747 
Q 3713 922 3314 415 
Q 2916 -91 2278 -91 
Q 1894 -91 1617 61 
Q 1341 213 1159 525 
z
M 3116 1747 
Q 3116 2381 2855 2742 
Q 2594 3103 2138 3103 
Q 1681 3103 1420 2742 
Q 1159 2381 1159 1747 
Q 1159 1113 1420 752 
Q 1681 391 2138 391 
Q 2594 391 2855 752 
Q 3116 1113 3116 1747 
z
" transform="scale(0.015625)"/>
       <path id="DejaVuSans-6f" d="M 1959 3097 
Q 1497 3097 1228 2736 
Q 959 2375 959 1747 
Q 959 1119 1226 758 
Q 1494 397 1959 397 
Q 2419 397 2687 759 
Q 2956 1122 2956 1747 
Q 2956 2369 2687 2733 
Q 2419 3097 1959 3097 
z
M 1959 3584 
Q 2709 3584 3137 3096 
Q 3566 2609 3566 1747 
Q 3566 888 3137 398 
Q 2709 -91 1959 -91 
Q 1206 -91 779 398 
Q 353 888 353 1747 
Q 353 2609 779 3096 
Q 1206 3584 1959 3584 
z
" transform="scale(0.015625)"/>
       <path id="DejaVuSans-63" d="M 3122 3366 
L 3122 2828 
Q 2878 2963 2633 3030 
Q 2388 3097 2138 3097 
Q 1578 3097 1268 2742 
Q 959 2388 959 1747 
Q 959 1106 1268 751 
Q 1578 397 2138 397 
Q 2388 397 2633 464 
Q 2878 531 3122 666 
L 3122 134 
Q 2881 22 2623 -34 
Q 2366 -91 2075 -91 
Q 1284 -91 818 406 
Q 353 903 353 1747 
Q 353 2603 823 3093 
Q 1294 3584 2113 3584 
Q 2378 3584 2631 3529 
Q 2884 3475 3122 3366 
z
" transform="scale(0.015625)"/>
       <path id="DejaVuSans-68" d="M 3513 2113 
L 3513 0 
L 2938 0 
L 2938 2094 
Q 2938 2591 2744 2837 
Q 2550 3084 2163 3084 
Q 1697 3084 1428 2787 
Q 1159 2491 1159 1978 
L 1159 0 
L 581 0 
L 581 4863 
L 1159 4863 
L 1159 2956 
Q 1366 3272 1645 3428 
Q 1925 3584 2291 3584 
Q 2894 3584 3203 3211 
Q 3513 2838 3513 2113 
z
" transform="scale(0.015625)"/>
      </defs>
      <use xlink:href="#DejaVuSans-45"/>
      <use xlink:href="#DejaVuSans-70" x="63.183594"/>
      <use xlink:href="#DejaVuSans-6f" x="126.660156"/>
      <use xlink:href="#DejaVuSans-63" x="187.841797"/>
      <use xlink:href="#DejaVuSans-68" x="242.822266"/>
     </g>
    </g>
   </g>
   <g id="matplotlib.axis_2">
    <g id="ytick_1">
     <g id="line2d_5">
      <defs>
       <path id="m0cd598e5a9" d="M 0 0 
L -3.5 0 
" style="stroke: #212529; stroke-width: 0.8"/>
      </defs>
      <g>
       <use xlink:href="#m0cd598e5a9" x="103.634375" y="402.404184" style="fill: #212529; stroke: #212529; stroke-width: 0.8"/>
      </g>
     </g>
     <g id="text_6">
      <!-- $\mathdefault{10^{-3}}$ -->
      <g style="fill: #212529" transform="translate(40.234375 411.522309) scale(0.24 -0.24)">
       <defs>
        <path id="DejaVuSans-31" d="M 794 531 
L 1825 531 
L 1825 4091 
L 703 3866 
L 703 4441 
L 1819 4666 
L 2450 4666 
L 2450 531 
L 3481 531 
L 3481 0 
L 794 0 
L 794 531 
z
" transform="scale(0.015625)"/>
        <path id="DejaVuSans-2212" d="M 678 2272 
L 4684 2272 
L 4684 1741 
L 678 1741 
L 678 2272 
z
" transform="scale(0.015625)"/>
        <path id="DejaVuSans-33" d="M 2597 2516 
Q 3050 2419 3304 2112 
Q 3559 1806 3559 1356 
Q 3559 666 3084 287 
Q 2609 -91 1734 -91 
Q 1441 -91 1130 -33 
Q 819 25 488 141 
L 488 750 
Q 750 597 1062 519 
Q 1375 441 1716 441 
Q 2309 441 2620 675 
Q 2931 909 2931 1356 
Q 2931 1769 2642 2001 
Q 2353 2234 1838 2234 
L 1294 2234 
L 1294 2753 
L 1863 2753 
Q 2328 2753 2575 2939 
Q 2822 3125 2822 3475 
Q 2822 3834 2567 4026 
Q 2313 4219 1838 4219 
Q 1578 4219 1281 4162 
Q 984 4106 628 3988 
L 628 4550 
Q 988 4650 1302 4700 
Q 1616 4750 1894 4750 
Q 2613 4750 3031 4423 
Q 3450 4097 3450 3541 
Q 3450 3153 3228 2886 
Q 3006 2619 2597 2516 
z
" transform="scale(0.015625)"/>
       </defs>
       <use xlink:href="#DejaVuSans-31" transform="translate(0 0.765625)"/>
       <use xlink:href="#DejaVuSans-30" transform="translate(63.623047 0.765625)"/>
       <use xlink:href="#DejaVuSans-2212" transform="translate(128.203125 39.046875) scale(0.7)"/>
       <use xlink:href="#DejaVuSans-33" transform="translate(186.855469 39.046875) scale(0.7)"/>
      </g>
     </g>
    </g>
    <g id="ytick_2">
     <g id="line2d_6">
      <g>
       <use xlink:href="#m0cd598e5a9" x="103.634375" y="277.688912" style="fill: #212529; stroke: #212529; stroke-width: 0.8"/>
      </g>
     </g>
     <g id="text_7">
      <!-- $\mathdefault{10^{-2}}$ -->
      <g style="fill: #212529" transform="translate(40.234375 286.807037) scale(0.24 -0.24)">
       <use xlink:href="#DejaVuSans-31" transform="translate(0 0.765625)"/>
       <use xlink:href="#DejaVuSans-30" transform="translate(63.623047 0.765625)"/>
       <use xlink:href="#DejaVuSans-2212" transform="translate(128.203125 39.046875) scale(0.7)"/>
       <use xlink:href="#DejaVuSans-32" transform="translate(186.855469 39.046875) scale(0.7)"/>
      </g>
     </g>
    </g>
    <g id="ytick_3">
     <g id="line2d_7">
      <g>
       <use xlink:href="#m0cd598e5a9" x="103.634375" y="152.97364" style="fill: #212529; stroke: #212529; stroke-width: 0.8"/>
      </g>
     </g>
     <g id="text_8">
      <!-- $\mathdefault{10^{-1}}$ -->
      <g style="fill: #212529" transform="translate(40.234375 162.091765) scale(0.24 -0.24)">
       <use xlink:href="#DejaVuSans-31" transform="translate(0 0.684375)"/>
       <use xlink:href="#DejaVuSans-30" transform="translate(63.623047 0.684375)"/>
       <use xlink:href="#DejaVuSans-2212" transform="translate(128.203125 38.965625) scale(0.7)"/>
       <use xlink:href="#DejaVuSans-31" transform="translate(186.855469 38.965625) scale(0.7)"/>
      </g>
     </g>
    </g>
    <g id="ytick_4">
     <g id="line2d_8">
      <defs>
       <path id="m3b0dc569cb" d="M 0 0 
L -2 0 
" style="stroke: #212529; stroke-width: 0.6"/>
      </defs>
      <g>
       <use xlink:href="#m3b0dc569cb" x="103.634375" y="364.861146" style="fill: #212529; stroke: #212529; stroke-width: 0.6"/>
      </g>
     </g>
    </g>
    <g id="ytick_5">
     <g id="line2d_9">
      <g>
       <use xlink:href="#m3b0dc569cb" x="103.634375" y="342.899877" style="fill: #212529; stroke: #212529; stroke-width: 0.6"/>
      </g>
     </g>
    </g>
    <g id="ytick_6">
     <g id="line2d_10">
      <g>
       <use xlink:href="#m3b0dc569cb" x="103.634375" y="327.318108" style="fill: #212529; stroke: #212529; stroke-width: 0.6"/>
      </g>
     </g>
    </g>
    <g id="ytick_7">
     <g id="line2d_11">
      <g>
       <use xlink:href="#m3b0dc569cb" x="103.634375" y="315.23195" style="fill: #212529; stroke: #212529; stroke-width: 0.6"/>
      </g>
     </g>
    </g>
    <g id="ytick_8">
     <g id="line2d_12">
      <g>
       <use xlink:href="#m3b0dc569cb" x="103.634375" y="305.356839" style="fill: #212529; stroke: #212529; stroke-width: 0.6"/>
      </g>
     </g>
    </g>
    <g id="ytick_9">
     <g id="line2d_13">
      <g>
       <use xlink:href="#m3b0dc569cb" x="103.634375" y="297.007552" style="fill: #212529; stroke: #212529; stroke-width: 0.6"/>
      </g>
     </g>
    </g>
    <g id="ytick_10">
     <g id="line2d_14">
      <g>
       <use xlink:href="#m3b0dc569cb" x="103.634375" y="289.77507" style="fill: #212529; stroke: #212529; stroke-width: 0.6"/>
      </g>
     </g>
    </g>
    <g id="ytick_11">
     <g id="line2d_15">
      <g>
       <use xlink:href="#m3b0dc569cb" x="103.634375" y="283.39557" style="fill: #212529; stroke: #212529; stroke-width: 0.6"/>
      </g>
     </g>
    </g>
    <g id="ytick_12">
     <g id="line2d_16">
      <g>
       <use xlink:href="#m3b0dc569cb" x="103.634375" y="240.145874" style="fill: #212529; stroke: #212529; stroke-width: 0.6"/>
      </g>
     </g>
    </g>
    <g id="ytick_13">
     <g id="line2d_17">
      <g>
       <use xlink:href="#m3b0dc569cb" x="103.634375" y="218.184605" style="fill: #212529; stroke: #212529; stroke-width: 0.6"/>
      </g>
     </g>
    </g>
    <g id="ytick_14">
     <g id="line2d_18">
      <g>
       <use xlink:href="#m3b0dc569cb" x="103.634375" y="202.602836" style="fill: #212529; stroke: #212529; stroke-width: 0.6"/>
      </g>
     </g>
    </g>
    <g id="ytick_15">
     <g id="line2d_19">
      <g>
       <use xlink:href="#m3b0dc569cb" x="103.634375" y="190.516677" style="fill: #212529; stroke: #212529; stroke-width: 0.6"/>
      </g>
     </g>
    </g>
    <g id="ytick_16">
     <g id="line2d_20">
      <g>
       <use xlink:href="#m3b0dc569cb" x="103.634375" y="180.641567" style="fill: #212529; stroke: #212529; stroke-width: 0.6"/>
      </g>
     </g>
    </g>
    <g id="ytick_17">
     <g id="line2d_21">
      <g>
       <use xlink:href="#m3b0dc569cb" x="103.634375" y="172.29228" style="fill: #212529; stroke: #212529; stroke-width: 0.6"/>
      </g>
     </g>
    </g>
    <g id="ytick_18">
     <g id="line2d_22">
      <g>
       <use xlink:href="#m3b0dc569cb" x="103.634375" y="165.059798" style="fill: #212529; stroke: #212529; stroke-width: 0.6"/>
      </g>
     </g>
    </g>
    <g id="ytick_19">
     <g id="line2d_23">
      <g>
       <use xlink:href="#m3b0dc569cb" x="103.634375" y="158.680297" style="fill: #212529; stroke: #212529; stroke-width: 0.6"/>
      </g>
     </g>
    </g>
    <g id="ytick_20">
     <g id="line2d_24">
      <g>
       <use xlink:href="#m3b0dc569cb" x="103.634375" y="115.430602" style="fill: #212529; stroke: #212529; stroke-width: 0.6"/>
      </g>
     </g>
    </g>
    <g id="ytick_21">
     <g id="line2d_25">
      <g>
       <use xlink:href="#m3b0dc569cb" x="103.634375" y="93.469332" style="fill: #212529; stroke: #212529; stroke-width: 0.6"/>
      </g>
     </g>
    </g>
    <g id="ytick_22">
     <g id="line2d_26">
      <g>
       <use xlink:href="#m3b0dc569cb" x="103.634375" y="77.887564" style="fill: #212529; stroke: #212529; stroke-width: 0.6"/>
      </g>
     </g>
    </g>
    <g id="ytick_23">
     <g id="line2d_27">
      <g>
       <use xlink:href="#m3b0dc569cb" x="103.634375" y="65.801405" style="fill: #212529; stroke: #212529; stroke-width: 0.6"/>
      </g>
     </g>
    </g>
    <g id="ytick_24">
     <g id="line2d_28">
      <g>
       <use xlink:href="#m3b0dc569cb" x="103.634375" y="55.926295" style="fill: #212529; stroke: #212529; stroke-width: 0.6"/>
      </g>
     </g>
    </g>
    <g id="ytick_25">
     <g id="line2d_29">
      <g>
       <use xlink:href="#m3b0dc569cb" x="103.634375" y="47.577007" style="fill: #212529; stroke: #212529; stroke-width: 0.6"/>
      </g>
     </g>
    </g>
    <g id="ytick_26">
     <g id="line2d_30">
      <g>
       <use xlink:href="#m3b0dc569cb" x="103.634375" y="40.344526" style="fill: #212529; stroke: #212529; stroke-width: 0.6"/>
      </g>
     </g>
    </g>
    <g id="text_9">
     <!-- MSE (standardized) -->
     <g style="fill: #212529" transform="translate(29.995312 368.267031) rotate(-90) scale(0.3 -0.3)">
      <defs>
       <path id="DejaVuSans-4d" d="M 628 4666 
L 1569 4666 
L 2759 1491 
L 3956 4666 
L 4897 4666 
L 4897 0 
L 4281 0 
L 4281 4097 
L 3078 897 
L 2444 897 
L 1241 4097 
L 1241 0 
L 628 0 
L 628 4666 
z
" transform="scale(0.015625)"/>
       <path id="DejaVuSans-53" d="M 3425 4513 
L 3425 3897 
Q 3066 4069 2747 4153 
Q 2428 4238 2131 4238 
Q 1616 4238 1336 4038 
Q 1056 3838 1056 3469 
Q 1056 3159 1242 3001 
Q 1428 2844 1947 2747 
L 2328 2669 
Q 3034 2534 3370 2195 
Q 3706 1856 3706 1288 
Q 3706 609 3251 259 
Q 2797 -91 1919 -91 
Q 1588 -91 1214 -16 
Q 841 59 441 206 
L 441 856 
Q 825 641 1194 531 
Q 1563 422 1919 422 
Q 2459 422 2753 634 
Q 3047 847 3047 1241 
Q 3047 1584 2836 1778 
Q 2625 1972 2144 2069 
L 1759 2144 
Q 1053 2284 737 2584 
Q 422 2884 422 3419 
Q 422 4038 858 4394 
Q 1294 4750 2059 4750 
Q 2388 4750 2728 4690 
Q 3069 4631 3425 4513 
z
" transform="scale(0.015625)"/>
       <path id="DejaVuSans-20" transform="scale(0.015625)"/>
       <path id="DejaVuSans-28" d="M 1984 4856 
Q 1566 4138 1362 3434 
Q 1159 2731 1159 2009 
Q 1159 1288 1364 580 
Q 1569 -128 1984 -844 
L 1484 -844 
Q 1016 -109 783 600 
Q 550 1309 550 2009 
Q 550 2706 781 3412 
Q 1013 4119 1484 4856 
L 1984 4856 
z
" transform="scale(0.015625)"/>
       <path id="DejaVuSans-73" d="M 2834 3397 
L 2834 2853 
Q 2591 2978 2328 3040 
Q 2066 3103 1784 3103 
Q 1356 3103 1142 2972 
Q 928 2841 928 2578 
Q 928 2378 1081 2264 
Q 1234 2150 1697 2047 
L 1894 2003 
Q 2506 1872 2764 1633 
Q 3022 1394 3022 966 
Q 3022 478 2636 193 
Q 2250 -91 1575 -91 
Q 1294 -91 989 -36 
Q 684 19 347 128 
L 347 722 
Q 666 556 975 473 
Q 1284 391 1588 391 
Q 1994 391 2212 530 
Q 2431 669 2431 922 
Q 2431 1156 2273 1281 
Q 2116 1406 1581 1522 
L 1381 1569 
Q 847 1681 609 1914 
Q 372 2147 372 2553 
Q 372 3047 722 3315 
Q 1072 3584 1716 3584 
Q 2034 3584 2315 3537 
Q 2597 3491 2834 3397 
z
" transform="scale(0.015625)"/>
       <path id="DejaVuSans-74" d="M 1172 4494 
L 1172 3500 
L 2356 3500 
L 2356 3053 
L 1172 3053 
L 1172 1153 
Q 1172 725 1289 603 
Q 1406 481 1766 481 
L 2356 481 
L 2356 0 
L 1766 0 
Q 1100 0 847 248 
Q 594 497 594 1153 
L 594 3053 
L 172 3053 
L 172 3500 
L 594 3500 
L 594 4494 
L 1172 4494 
z
" transform="scale(0.015625)"/>
       <path id="DejaVuSans-61" d="M 2194 1759 
Q 1497 1759 1228 1600 
Q 959 1441 959 1056 
Q 959 750 1161 570 
Q 1363 391 1709 391 
Q 2188 391 2477 730 
Q 2766 1069 2766 1631 
L 2766 1759 
L 2194 1759 
z
M 3341 1997 
L 3341 0 
L 2766 0 
L 2766 531 
Q 2569 213 2275 61 
Q 1981 -91 1556 -91 
Q 1019 -91 701 211 
Q 384 513 384 1019 
Q 384 1609 779 1909 
Q 1175 2209 1959 2209 
L 2766 2209 
L 2766 2266 
Q 2766 2663 2505 2880 
Q 2244 3097 1772 3097 
Q 1472 3097 1187 3025 
Q 903 2953 641 2809 
L 641 3341 
Q 956 3463 1253 3523 
Q 1550 3584 1831 3584 
Q 2591 3584 2966 3190 
Q 3341 2797 3341 1997 
z
" transform="scale(0.015625)"/>
       <path id="DejaVuSans-6e" d="M 3513 2113 
L 3513 0 
L 2938 0 
L 2938 2094 
Q 2938 2591 2744 2837 
Q 2550 3084 2163 3084 
Q 1697 3084 1428 2787 
Q 1159 2491 1159 1978 
L 1159 0 
L 581 0 
L 581 3500 
L 1159 3500 
L 1159 2956 
Q 1366 3272 1645 3428 
Q 1925 3584 2291 3584 
Q 2894 3584 3203 3211 
Q 3513 2838 3513 2113 
z
" transform="scale(0.015625)"/>
       <path id="DejaVuSans-64" d="M 2906 2969 
L 2906 4863 
L 3481 4863 
L 3481 0 
L 2906 0 
L 2906 525 
Q 2725 213 2448 61 
Q 2172 -91 1784 -91 
Q 1150 -91 751 415 
Q 353 922 353 1747 
Q 353 2572 751 3078 
Q 1150 3584 1784 3584 
Q 2172 3584 2448 3432 
Q 2725 3281 2906 2969 
z
M 947 1747 
Q 947 1113 1208 752 
Q 1469 391 1925 391 
Q 2381 391 2643 752 
Q 2906 1113 2906 1747 
Q 2906 2381 2643 2742 
Q 2381 3103 1925 3103 
Q 1469 3103 1208 2742 
Q 947 2381 947 1747 
z
" transform="scale(0.015625)"/>
       <path id="DejaVuSans-72" d="M 2631 2963 
Q 2534 3019 2420 3045 
Q 2306 3072 2169 3072 
Q 1681 3072 1420 2755 
Q 1159 2438 1159 1844 
L 1159 0 
L 581 0 
L 581 3500 
L 1159 3500 
L 1159 2956 
Q 1341 3275 1631 3429 
Q 1922 3584 2338 3584 
Q 2397 3584 2469 3576 
Q 2541 3569 2628 3553 
L 2631 2963 
z
" transform="scale(0.015625)"/>
       <path id="DejaVuSans-69" d="M 603 3500 
L 1178 3500 
L 1178 0 
L 603 0 
L 603 3500 
z
M 603 4863 
L 1178 4863 
L 1178 4134 
L 603 4134 
L 603 4863 
z
" transform="scale(0.015625)"/>
       <path id="DejaVuSans-7a" d="M 353 3500 
L 3084 3500 
L 3084 2975 
L 922 459 
L 3084 459 
L 3084 0 
L 275 0 
L 275 525 
L 2438 3041 
L 353 3041 
L 353 3500 
z
" transform="scale(0.015625)"/>
       <path id="DejaVuSans-65" d="M 3597 1894 
L 3597 1613 
L 953 1613 
Q 991 1019 1311 708 
Q 1631 397 2203 397 
Q 2534 397 2845 478 
Q 3156 559 3463 722 
L 3463 178 
Q 3153 47 2828 -22 
Q 2503 -91 2169 -91 
Q 1331 -91 842 396 
Q 353 884 353 1716 
Q 353 2575 817 3079 
Q 1281 3584 2069 3584 
Q 2775 3584 3186 3129 
Q 3597 2675 3597 1894 
z
M 3022 2063 
Q 3016 2534 2758 2815 
Q 2500 3097 2075 3097 
Q 1594 3097 1305 2825 
Q 1016 2553 972 2059 
L 3022 2063 
z
" transform="scale(0.015625)"/>
       <path id="DejaVuSans-29" d="M 513 4856 
L 1013 4856 
Q 1481 4119 1714 3412 
Q 1947 2706 1947 2009 
Q 1947 1309 1714 600 
Q 1481 -109 1013 -844 
L 513 -844 
Q 928 -128 1133 580 
Q 1338 1288 1338 2009 
Q 1338 2731 1133 3434 
Q 928 4138 513 4856 
z
" transform="scale(0.015625)"/>
      </defs>
      <use xlink:href="#DejaVuSans-4d"/>
      <use xlink:href="#DejaVuSans-53" x="86.279297"/>
      <use xlink:href="#DejaVuSans-45" x="149.755859"/>
      <use xlink:href="#DejaVuSans-20" x="212.939453"/>
      <use xlink:href="#DejaVuSans-28" x="244.726562"/>
      <use xlink:href="#DejaVuSans-73" x="283.740234"/>
      <use xlink:href="#DejaVuSans-74" x="335.839844"/>
      <use xlink:href="#DejaVuSans-61" x="375.048828"/>
      <use xlink:href="#DejaVuSans-6e" x="436.328125"/>
      <use xlink:href="#DejaVuSans-64" x="499.707031"/>
      <use xlink:href="#DejaVuSans-61" x="563.183594"/>
      <use xlink:href="#DejaVuSans-72" x="624.462891"/>
      <use xlink:href="#DejaVuSans-64" x="663.826172"/>
      <use xlink:href="#DejaVuSans-69" x="727.302734"/>
      <use xlink:href="#DejaVuSans-7a" x="755.085938"/>
      <use xlink:href="#DejaVuSans-65" x="807.576172"/>
      <use xlink:href="#DejaVuSans-64" x="869.099609"/>
      <use xlink:href="#DejaVuSans-29" x="932.576172"/>
     </g>
    </g>
   </g>
   <g id="line2d_31">
    <path d="M 126.811538 56.689261 
L 127.536957 119.718976 
L 128.262377 154.484992 
L 128.987797 177.856518 
L 129.713217 197.595531 
L 130.438636 212.956077 
L 131.164056 224.77557 
L 132.614896 242.239266 
L 134.791155 258.88416 
L 136.241995 266.775079 
L 137.692834 273.42621 
L 138.418254 276.028813 
L 139.143674 278.080824 
L 139.869094 281.234979 
L 141.319933 284.629573 
L 142.045353 287.235568 
L 142.770773 288.17059 
L 143.496193 290.422923 
L 144.221613 291.775808 
L 144.947032 292.617081 
L 145.672452 294.8394 
L 146.397872 295.323621 
L 147.123292 297.756259 
L 147.848712 297.504 
L 148.574131 268.815139 
L 149.299551 273.110895 
L 150.024971 273.261095 
L 150.750391 271.274801 
L 151.475811 268.304253 
L 152.20123 269.654216 
L 153.65207 268.417551 
L 154.37749 267.364865 
L 155.10291 265.592197 
L 155.828329 267.240952 
L 156.553749 267.119564 
L 157.279169 268.202823 
L 158.004589 266.75788 
L 158.730009 266.232608 
L 159.455428 268.176969 
L 160.180848 286.545014 
L 160.906268 286.29769 
L 161.631688 286.699064 
L 162.357108 285.805997 
L 163.082527 285.979384 
L 163.807947 287.697257 
L 164.533367 287.73089 
L 165.258787 288.941841 
L 165.984207 288.141256 
L 166.709626 288.448588 
L 168.160466 289.998796 
L 168.885886 290.211329 
L 169.611305 291.230807 
L 170.336725 291.078386 
L 171.062145 291.294302 
L 171.787565 303.489805 
L 172.512985 305.374385 
L 173.238404 305.709563 
L 173.963824 306.391386 
L 174.689244 307.374599 
L 175.414664 307.255667 
L 176.140084 307.57515 
L 176.865503 307.545447 
L 177.590923 307.067042 
L 178.316343 307.718304 
L 179.767183 308.024321 
L 180.492602 308.417352 
L 181.218022 308.182584 
L 181.943442 309.281065 
L 182.668862 309.550075 
L 183.394282 310.063343 
L 184.119701 310.236849 
L 184.845121 310.583981 
L 185.570541 311.405629 
L 186.295961 311.951388 
L 187.021381 313.183854 
L 187.7468 313.680438 
L 188.47222 313.540665 
L 189.92306 313.915577 
L 190.64848 315.472748 
L 191.373899 315.574386 
L 192.099319 315.868746 
L 194.275579 315.402444 
L 195.000998 315.658123 
L 195.726418 315.474228 
L 196.451838 316.289163 
L 197.902678 317.32277 
L 198.628097 316.158564 
L 199.353517 316.907461 
L 200.078937 316.695781 
L 201.529777 315.561933 
L 202.255196 315.999248 
L 203.706036 317.348387 
L 204.431456 317.287859 
L 205.156876 316.241707 
L 205.882295 314.708234 
L 206.607715 314.327218 
L 207.333135 315.408337 
L 208.058555 315.065459 
L 208.783975 315.409533 
L 209.509394 316.273872 
L 210.234814 315.957569 
L 211.685654 316.512851 
L 212.411073 317.060051 
L 213.136493 316.641588 
L 213.861913 317.702738 
L 214.587333 317.896942 
L 215.312753 318.249765 
L 216.038172 319.035995 
L 216.763592 318.153795 
L 217.489012 317.726449 
L 218.214432 317.925495 
L 218.939852 318.565678 
L 219.665271 317.961708 
L 220.390691 318.00051 
L 221.116111 317.252259 
L 223.29237 317.986733 
L 224.01779 318.841296 
L 224.74321 318.145374 
L 225.46863 317.09562 
L 226.19405 318.169187 
L 226.919469 318.584307 
L 227.644889 328.431703 
L 228.370309 329.393286 
L 229.095729 329.792429 
L 230.546568 330.171177 
L 231.271988 330.258514 
L 231.997408 330.846314 
L 233.448248 331.593377 
L 234.173667 332.248615 
L 235.624507 332.886199 
L 236.349927 332.952433 
L 237.075347 332.36123 
L 237.800766 333.386429 
L 238.526186 333.724999 
L 239.251606 333.903741 
L 239.977026 334.756472 
L 240.702446 334.816972 
L 242.153285 335.875685 
L 242.878705 335.965923 
L 243.604125 336.364129 
L 244.329545 337.075719 
L 245.054964 337.372464 
L 245.780384 337.262065 
L 246.505804 338.022578 
L 247.231224 338.512095 
L 247.956644 338.066473 
L 248.682063 338.707893 
L 249.407483 339.005376 
L 250.132903 338.958 
L 250.858323 339.272651 
L 251.583743 339.002908 
L 252.309162 339.565086 
L 253.034582 339.796683 
L 253.760002 339.630043 
L 255.210841 339.012735 
L 255.936261 339.555777 
L 257.387101 339.74886 
L 258.112521 340.399655 
L 258.83794 340.608571 
L 259.56336 340.961372 
L 261.73962 340.882093 
L 262.465039 341.483767 
L 263.190459 341.718888 
L 263.915879 342.201506 
L 268.268398 344.068792 
L 268.993818 343.951246 
L 269.719237 344.352049 
L 270.444657 344.487535 
L 271.170077 344.264143 
L 271.895497 345.054872 
L 272.620917 345.530853 
L 273.346336 345.28221 
L 274.797176 346.531328 
L 275.522596 346.573094 
L 276.248016 346.200829 
L 277.698855 346.66222 
L 279.149695 347.546913 
L 279.875115 347.222181 
L 280.600534 347.724278 
L 281.325954 347.304807 
L 282.051374 347.218568 
L 282.776794 347.38445 
L 283.502214 347.220497 
L 284.227633 347.792575 
L 285.678473 347.714215 
L 286.403893 348.002285 
L 287.129313 348.687135 
L 287.854732 348.400315 
L 288.580152 348.830269 
L 290.030992 347.781381 
L 290.756412 348.567848 
L 292.207251 348.215089 
L 292.932671 348.956104 
L 293.658091 348.799548 
L 294.383511 348.468069 
L 295.10893 348.480682 
L 296.55977 348.048235 
L 298.736029 348.952367 
L 299.461449 349.090992 
L 303.088548 350.539305 
L 303.813968 350.435647 
L 304.539388 350.794712 
L 305.264807 350.897492 
L 305.990227 350.329826 
L 306.715647 350.54555 
L 308.166487 350.240076 
L 308.891906 350.480425 
L 309.617326 350.559688 
L 311.068166 349.804372 
L 311.793586 349.591567 
L 312.519005 349.804933 
L 313.244425 349.890974 
L 313.969845 349.567082 
L 314.695265 348.933982 
L 315.420685 348.868168 
L 316.146104 354.343794 
L 318.322364 354.701995 
L 319.047784 355.057175 
L 319.773203 354.798815 
L 321.224043 355.095177 
L 322.674883 355.771945 
L 323.400302 356.137175 
L 324.125722 356.659453 
L 324.851142 357.415681 
L 325.576562 357.214779 
L 327.027401 357.887707 
L 327.752821 357.589436 
L 328.478241 357.670505 
L 329.203661 358.207869 
L 329.929081 358.090272 
L 330.6545 358.5901 
L 331.37992 358.660885 
L 332.10534 359.243399 
L 332.83076 358.961509 
L 335.732439 359.486384 
L 337.183279 359.409861 
L 337.908698 359.789133 
L 339.359538 360.152193 
L 340.084958 359.969996 
L 340.810377 360.003951 
L 342.261217 360.577829 
L 342.986637 360.965713 
L 344.437476 361.261161 
L 345.162896 360.958479 
L 345.888316 361.676173 
L 346.613736 361.912624 
L 347.339156 362.442863 
L 348.064575 362.442672 
L 348.789995 362.910066 
L 349.515415 363.174596 
L 350.240835 362.94989 
L 350.966255 363.301748 
L 352.417094 362.838273 
L 353.142514 363.206909 
L 353.867934 363.194383 
L 354.593354 363.651089 
L 356.044193 363.982175 
L 356.769613 364.050353 
L 357.495033 363.553557 
L 358.220453 363.500753 
L 358.945872 363.666808 
L 359.671292 363.963355 
L 360.396712 364.100291 
L 361.122132 363.738189 
L 361.847552 363.981897 
L 363.298391 364.101499 
L 364.023811 363.935186 
L 364.749231 363.559621 
L 365.474651 363.667117 
L 366.20007 363.128248 
L 367.65091 363.825424 
L 368.37633 367.548193 
L 369.827169 367.918821 
L 370.552589 367.882043 
L 371.278009 368.33995 
L 372.003429 368.599938 
L 373.454268 368.63774 
L 374.905108 369.129217 
L 376.355948 369.796993 
L 377.806787 370.177024 
L 378.532207 369.8872 
L 379.257627 370.139691 
L 379.983046 370.097641 
L 380.708466 370.502493 
L 381.433886 370.66721 
L 382.159306 370.618986 
L 382.884726 370.787316 
L 383.610145 371.203416 
L 386.511825 371.791623 
L 387.237244 372.175592 
L 387.962664 372.073026 
L 389.413504 372.743706 
L 390.864343 373.018588 
L 391.589763 372.923205 
L 392.315183 372.991554 
L 393.040603 372.844244 
L 393.766023 372.993135 
L 395.216862 373.1019 
L 396.667702 373.456137 
L 398.118541 373.46687 
L 398.843961 373.733573 
L 401.020221 374.231579 
L 401.74564 374.53291 
L 403.19648 374.632615 
L 403.9219 374.717897 
L 404.64732 374.650228 
L 405.372739 374.779832 
L 407.548999 374.904436 
L 412.626937 376.086559 
L 415.528617 376.065836 
L 416.979456 376.18959 
L 417.704876 376.184618 
L 418.430296 376.389022 
L 419.881135 376.394497 
L 422.057395 376.458652 
L 423.508234 376.689958 
L 425.684494 376.6468 
L 427.135333 376.427178 
L 427.860753 376.316085 
L 428.586173 376.671157 
L 430.037012 376.775233 
L 430.762432 376.972343 
L 432.213272 377.05627 
L 432.938692 376.986503 
L 434.389531 377.113138 
L 437.29121 376.89417 
L 438.01663 377.026496 
L 438.74205 376.983238 
L 442.369149 377.374575 
L 443.094569 377.266709 
L 443.819989 377.368293 
L 444.545408 377.331926 
L 446.721668 377.626368 
L 448.172507 377.534505 
L 449.623347 377.519619 
L 451.799606 377.948223 
L 458.328385 379.041151 
L 461.230064 379.428588 
L 462.680903 379.856781 
L 463.406323 379.907309 
L 464.131743 380.114345 
L 467.033422 380.215432 
L 467.758842 380.066811 
L 468.484262 380.107638 
L 469.209681 379.900927 
L 469.935101 380.021979 
L 470.660521 379.991939 
L 472.111361 380.235749 
L 473.5622 380.03418 
L 475.01304 380.315102 
L 476.463879 380.420629 
L 477.189299 379.976861 
L 478.640139 380.189218 
L 479.365559 380.141667 
L 480.090978 380.258244 
L 480.816398 380.193501 
L 482.267238 380.400452 
L 482.992658 382.210872 
L 483.718077 382.303339 
L 484.443497 382.639608 
L 487.345176 382.718613 
L 488.070596 382.873218 
L 489.521436 382.853164 
L 490.972275 383.207939 
L 491.697695 383.16713 
L 492.423115 383.291015 
L 493.148535 383.286753 
L 493.873955 383.478571 
L 498.951893 383.904185 
L 504.029832 384.16715 
L 504.755252 384.306836 
L 506.206091 384.306203 
L 508.38235 384.373103 
L 510.55861 384.812286 
L 516.361968 385.103078 
L 517.087388 385.323742 
L 517.812808 385.283613 
L 518.538228 385.404876 
L 520.714487 385.319428 
L 521.439907 385.506899 
L 523.616166 385.686156 
L 524.341586 385.812753 
L 527.243265 385.859504 
L 527.968685 386.007712 
L 529.419525 385.9148 
L 531.595784 386.224361 
L 537.399142 386.54654 
L 538.124562 386.41433 
L 541.026241 386.489133 
L 543.927921 386.645658 
L 546.8296 386.566917 
L 547.55502 386.673352 
L 549.005859 386.607501 
L 549.731279 386.780973 
L 555.534637 386.938175 
L 557.710897 387.100057 
L 559.161736 387.137031 
L 561.337996 387.365833 
L 566.415934 387.315565 
L 570.768453 387.599159 
L 571.493873 387.626021 
L 572.219293 387.522276 
L 575.846392 387.845295 
L 577.297231 387.821279 
L 580.92433 388.015202 
L 581.64975 387.837715 
L 583.10059 388.11196 
L 586.002269 388.109586 
L 588.178528 388.244588 
L 590.354787 388.361989 
L 590.354787 388.361989 
" clip-path="url(#p4945a9a2d7)" style="fill: none; stroke: #2563eb; stroke-width: 3; stroke-linecap: square"/>
   </g>
   <g id="line2d_32">
    <path d="M 126.811538 100.431917 
L 127.536957 140.930588 
L 128.987797 190.231191 
L 129.713217 207.301492 
L 130.438636 218.944017 
L 131.164056 232.794849 
L 132.614896 247.852845 
L 133.340316 251.146517 
L 134.065735 253.122986 
L 134.791155 262.554479 
L 135.516575 261.811812 
L 136.967415 274.627551 
L 137.692834 274.738304 
L 138.418254 277.696738 
L 139.143674 284.035749 
L 139.869094 286.167212 
L 140.594514 286.339969 
L 141.319933 286.85808 
L 142.045353 288.037227 
L 142.770773 288.17289 
L 143.496193 289.636008 
L 144.221613 296.009875 
L 144.947032 292.176763 
L 145.672452 298.053344 
L 146.397872 294.077303 
L 147.123292 298.211407 
L 147.848712 300.314864 
L 148.574131 274.00385 
L 149.299551 271.822071 
L 150.024971 270.198781 
L 151.475811 272.841006 
L 152.20123 271.966009 
L 152.92665 266.636952 
L 153.65207 268.690763 
L 154.37749 265.661061 
L 155.10291 270.449446 
L 155.828329 270.496501 
L 156.553749 269.334505 
L 157.279169 269.631077 
L 158.004589 270.532611 
L 158.730009 272.953396 
L 159.455428 268.949914 
L 160.180848 290.52795 
L 160.906268 289.749322 
L 161.631688 281.158608 
L 162.357108 288.030806 
L 163.082527 290.045474 
L 163.807947 285.332672 
L 164.533367 290.461591 
L 165.258787 287.800637 
L 165.984207 290.29004 
L 166.709626 290.663893 
L 167.435046 294.56769 
L 168.160466 293.546952 
L 168.885886 294.121416 
L 169.611305 291.865071 
L 170.336725 290.949232 
L 171.062145 292.760166 
L 171.787565 305.223103 
L 172.512985 307.321234 
L 173.238404 307.735527 
L 173.963824 307.942928 
L 174.689244 310.673844 
L 175.414664 309.638053 
L 176.140084 308.206076 
L 176.865503 304.251307 
L 177.590923 305.909493 
L 178.316343 306.328518 
L 179.041763 308.737252 
L 180.492602 310.785589 
L 181.218022 311.290032 
L 181.943442 309.846658 
L 182.668862 311.232059 
L 183.394282 311.609511 
L 184.119701 311.435094 
L 184.845121 313.82846 
L 185.570541 313.292738 
L 186.295961 315.324954 
L 187.7468 312.724758 
L 188.47222 313.352422 
L 189.19764 312.72941 
L 189.92306 313.911224 
L 190.64848 315.505759 
L 191.373899 315.611936 
L 192.099319 313.431487 
L 192.824739 316.126626 
L 193.550159 316.413147 
L 194.275579 315.56408 
L 195.000998 319.435519 
L 195.726418 315.646612 
L 196.451838 316.861238 
L 197.177258 317.338849 
L 197.902678 314.458358 
L 198.628097 317.52387 
L 199.353517 314.69188 
L 200.078937 316.291338 
L 200.804357 316.142388 
L 202.255196 319.555401 
L 202.980616 318.156906 
L 203.706036 315.305331 
L 204.431456 315.49038 
L 205.156876 317.537125 
L 205.882295 316.768757 
L 206.607715 318.821396 
L 207.333135 313.076156 
L 208.058555 312.00521 
L 208.783975 317.647403 
L 209.509394 316.652989 
L 210.234814 317.481155 
L 210.960234 314.908513 
L 211.685654 314.464054 
L 212.411073 318.012326 
L 213.136493 320.374556 
L 213.861913 318.67741 
L 214.587333 318.949661 
L 215.312753 321.432317 
L 216.038172 319.863743 
L 217.489012 314.692029 
L 218.214432 318.332525 
L 218.939852 315.314146 
L 219.665271 320.680489 
L 220.390691 318.677723 
L 221.116111 319.978883 
L 221.841531 317.50517 
L 223.29237 320.159662 
L 224.01779 314.872343 
L 224.74321 315.372146 
L 225.46863 320.284877 
L 226.19405 315.9098 
L 226.919469 315.987786 
L 227.644889 328.741038 
L 228.370309 329.829069 
L 229.095729 329.536573 
L 229.821149 330.011718 
L 230.546568 329.870173 
L 231.271988 328.184629 
L 231.997408 331.105613 
L 232.722828 329.399562 
L 233.448248 330.691918 
L 234.173667 334.592359 
L 234.899087 330.4205 
L 235.624507 332.192773 
L 236.349927 330.893278 
L 237.075347 330.108357 
L 237.800766 333.249235 
L 238.526186 334.290378 
L 239.251606 333.107514 
L 239.977026 334.462578 
L 240.702446 333.808675 
L 241.427865 334.50372 
L 242.153285 334.857219 
L 242.878705 336.840787 
L 243.604125 336.444463 
L 244.329545 335.850869 
L 245.054964 336.49801 
L 246.505804 338.425746 
L 247.231224 337.455653 
L 247.956644 337.435881 
L 248.682063 338.086211 
L 249.407483 339.053133 
L 250.132903 338.012003 
L 250.858323 340.170199 
L 251.583743 338.915178 
L 252.309162 337.986762 
L 253.034582 337.265854 
L 253.760002 337.953194 
L 255.210841 338.111111 
L 255.936261 338.689304 
L 256.661681 337.733396 
L 257.387101 340.174958 
L 258.112521 338.925743 
L 258.83794 339.621581 
L 259.56336 339.225223 
L 260.28878 340.030579 
L 261.0142 340.433337 
L 261.73962 341.13145 
L 262.465039 340.410152 
L 263.190459 341.749984 
L 263.915879 340.684906 
L 264.641299 341.285579 
L 265.366719 339.9998 
L 266.092138 343.070668 
L 266.817558 342.100863 
L 267.542978 343.253099 
L 268.268398 343.731148 
L 268.993818 341.614272 
L 269.719237 343.022168 
L 270.444657 343.454594 
L 271.170077 344.364209 
L 272.620917 345.502619 
L 273.346336 346.063988 
L 274.071756 346.11795 
L 274.797176 346.639052 
L 275.522596 346.657991 
L 276.248016 346.135709 
L 276.973435 346.311732 
L 277.698855 346.714685 
L 278.424275 346.605735 
L 279.149695 346.919772 
L 279.875115 347.523108 
L 280.600534 347.182778 
L 281.325954 346.58122 
L 282.051374 348.015508 
L 282.776794 346.015242 
L 283.502214 346.101468 
L 284.227633 347.662171 
L 284.953053 347.605928 
L 285.678473 346.884257 
L 286.403893 347.951065 
L 287.129313 347.521592 
L 287.854732 348.929276 
L 288.580152 347.042332 
L 289.305572 347.987007 
L 290.030992 346.256931 
L 290.756412 349.937745 
L 291.481831 347.741718 
L 292.207251 349.42627 
L 292.932671 347.972284 
L 293.658091 347.182848 
L 295.10893 349.495293 
L 295.83435 349.568481 
L 296.55977 349.82505 
L 297.28519 348.79279 
L 298.010609 348.691638 
L 298.736029 347.339985 
L 299.461449 350.766433 
L 300.186869 350.511014 
L 300.912289 351.231435 
L 301.637708 348.355218 
L 302.363128 351.419299 
L 303.088548 350.71547 
L 303.813968 351.486164 
L 305.264807 349.26611 
L 305.990227 350.214086 
L 306.715647 350.170254 
L 307.441067 349.010266 
L 308.166487 350.032108 
L 308.891906 349.137259 
L 309.617326 347.281749 
L 310.342746 349.961532 
L 311.068166 349.077336 
L 311.793586 346.35373 
L 312.519005 349.145031 
L 313.244425 348.175294 
L 313.969845 350.117859 
L 314.695265 347.986535 
L 315.420685 346.757088 
L 316.146104 352.478617 
L 316.871524 352.608765 
L 317.596944 351.963245 
L 318.322364 352.783364 
L 319.047784 352.397713 
L 319.773203 352.677027 
L 320.498623 352.639392 
L 321.224043 354.877343 
L 321.949463 354.463754 
L 322.674883 353.620287 
L 323.400302 355.32375 
L 324.125722 355.668767 
L 324.851142 356.541744 
L 325.576562 356.673207 
L 326.301982 356.359459 
L 327.027401 355.181847 
L 327.752821 355.785504 
L 328.478241 357.063839 
L 329.203661 358.035443 
L 329.929081 358.237299 
L 330.6545 357.707723 
L 331.37992 359.295582 
L 332.10534 357.012336 
L 332.83076 357.604583 
L 333.55618 357.194837 
L 334.281599 359.117018 
L 335.007019 356.778106 
L 335.732439 359.244099 
L 336.457859 358.393612 
L 337.183279 358.215534 
L 337.908698 358.227708 
L 338.634118 356.937271 
L 339.359538 358.528194 
L 340.084958 358.021203 
L 340.810377 359.304115 
L 341.535797 359.188698 
L 342.261217 359.910631 
L 342.986637 360.188517 
L 344.437476 359.163471 
L 345.162896 361.416781 
L 345.888316 360.881926 
L 346.613736 360.200309 
L 347.339156 361.059919 
L 348.789995 362.402843 
L 349.515415 360.9012 
L 350.240835 361.128052 
L 350.966255 360.974038 
L 351.691674 361.422021 
L 352.417094 360.990988 
L 353.867934 363.008408 
L 354.593354 362.370476 
L 355.318773 362.180185 
L 356.044193 363.21562 
L 356.769613 362.723147 
L 357.495033 361.723236 
L 358.220453 362.652498 
L 358.945872 362.433246 
L 359.671292 361.188219 
L 360.396712 362.125945 
L 361.847552 363.134714 
L 362.572971 362.414805 
L 363.298391 362.129915 
L 364.023811 360.647405 
L 364.749231 361.564596 
L 365.474651 361.228999 
L 366.20007 361.882813 
L 366.92549 362.310812 
L 367.65091 361.142572 
L 368.37633 365.479339 
L 369.10175 365.304366 
L 369.827169 366.429866 
L 370.552589 366.187866 
L 371.278009 366.725697 
L 372.003429 365.336059 
L 372.728849 366.468537 
L 373.454268 366.607259 
L 374.179688 366.594062 
L 374.905108 367.120945 
L 375.630528 366.749935 
L 376.355948 368.264272 
L 377.081367 368.446979 
L 377.806787 368.437843 
L 378.532207 369.020502 
L 379.257627 368.599986 
L 379.983046 367.974803 
L 380.708466 367.545183 
L 381.433886 368.297699 
L 382.159306 368.491761 
L 382.884726 370.501738 
L 383.610145 369.03083 
L 384.335565 369.867113 
L 385.060985 370.147366 
L 385.786405 368.312757 
L 386.511825 370.794376 
L 387.237244 371.303298 
L 387.962664 370.431946 
L 388.688084 370.757092 
L 389.413504 371.546192 
L 390.138924 372.039743 
L 391.589763 371.265523 
L 392.315183 371.105463 
L 393.040603 371.572448 
L 393.766023 370.889371 
L 394.491442 371.275537 
L 395.216862 372.192961 
L 395.942282 371.425151 
L 396.667702 371.330815 
L 397.393122 372.062546 
L 398.118541 371.089678 
L 398.843961 371.572642 
L 399.569381 372.257291 
L 400.294801 372.026247 
L 401.020221 372.729572 
L 401.74564 372.597092 
L 403.19648 372.60443 
L 403.9219 373.318551 
L 404.64732 373.097553 
L 405.372739 373.1929 
L 406.098159 373.599477 
L 406.823579 373.470561 
L 407.548999 372.485023 
L 408.274419 372.583759 
L 408.999838 373.069672 
L 409.725258 373.18996 
L 410.450678 373.812774 
L 411.176098 374.634285 
L 411.901518 373.898338 
L 412.626937 374.01365 
L 413.352357 373.915005 
L 414.077777 372.806873 
L 414.803197 373.701558 
L 416.254036 374.240747 
L 417.704876 374.375213 
L 418.430296 375.064036 
L 419.881135 374.373786 
L 420.606555 373.303136 
L 421.331975 374.543876 
L 422.057395 373.789645 
L 422.782814 375.053011 
L 423.508234 374.377996 
L 424.233654 373.48728 
L 424.959074 374.498625 
L 425.684494 374.02282 
L 426.409913 375.010339 
L 427.135333 374.497742 
L 427.860753 375.642287 
L 428.586173 374.639285 
L 429.311593 375.121668 
L 430.037012 375.341938 
L 430.762432 375.727154 
L 431.487852 374.779468 
L 432.213272 374.652981 
L 432.938692 375.238473 
L 433.664111 374.926294 
L 434.389531 375.564961 
L 435.114951 375.471016 
L 435.840371 374.243941 
L 436.565791 374.613402 
L 437.29121 374.842797 
L 438.01663 374.460762 
L 438.74205 373.916949 
L 439.46747 374.912083 
L 440.19289 375.363451 
L 440.918309 374.713025 
L 441.643729 376.202667 
L 442.369149 375.325316 
L 443.094569 375.928002 
L 444.545408 375.298866 
L 445.270828 375.43718 
L 445.996248 374.854923 
L 446.721668 375.515038 
L 447.447088 375.725455 
L 448.172507 376.32011 
L 448.897927 376.315953 
L 449.623347 375.628764 
L 450.348767 375.954057 
L 451.074187 375.589414 
L 451.799606 375.411375 
L 452.525026 376.764332 
L 453.250446 375.649455 
L 453.975866 376.802554 
L 454.701286 375.379763 
L 455.426705 376.843788 
L 456.152125 376.65345 
L 456.877545 377.389023 
L 457.602965 377.463878 
L 458.328385 377.398586 
L 459.053804 376.713455 
L 459.779224 376.383117 
L 460.504644 377.450512 
L 461.230064 377.466121 
L 461.955484 378.430705 
L 462.680903 378.209063 
L 463.406323 378.195799 
L 464.131743 378.443504 
L 464.857163 378.29178 
L 465.582582 378.625563 
L 466.308002 377.645718 
L 467.033422 377.529745 
L 467.758842 378.827443 
L 468.484262 378.123386 
L 469.209681 378.135469 
L 469.935101 378.839951 
L 470.660521 379.232253 
L 471.385941 378.311713 
L 472.111361 378.819158 
L 472.83678 378.852883 
L 473.5622 378.236938 
L 474.28762 379.1084 
L 475.01304 377.902316 
L 475.73846 378.584156 
L 476.463879 378.507147 
L 477.189299 377.572618 
L 477.914719 378.605138 
L 478.640139 378.722716 
L 479.365559 378.194181 
L 480.090978 378.41014 
L 481.541818 379.203259 
L 482.267238 377.759592 
L 482.992658 380.061248 
L 483.718077 380.193407 
L 484.443497 381.074347 
L 485.168917 380.163615 
L 485.894337 380.349841 
L 486.619757 379.933659 
L 487.345176 381.122639 
L 488.070596 380.653299 
L 488.796016 381.432309 
L 489.521436 380.787114 
L 490.246856 381.199759 
L 490.972275 380.444463 
L 491.697695 380.560305 
L 492.423115 380.849124 
L 493.148535 381.657243 
L 493.873955 381.686882 
L 495.324794 381.328508 
L 496.050214 381.957903 
L 496.775634 381.85831 
L 497.501054 382.016353 
L 498.226473 381.597203 
L 498.951893 381.486457 
L 499.677313 382.068133 
L 501.853572 381.820462 
L 502.578992 381.821833 
L 503.304412 382.501677 
L 504.029832 382.308014 
L 504.755252 381.99621 
L 505.480671 382.535751 
L 506.206091 382.064266 
L 506.931511 382.329589 
L 507.656931 382.140792 
L 508.38235 382.603024 
L 509.10777 382.855855 
L 509.83319 382.549978 
L 510.55861 382.825767 
L 512.009449 382.770153 
L 512.734869 382.569115 
L 513.460289 383.326219 
L 514.185709 383.141419 
L 514.911129 382.761601 
L 515.636548 382.656232 
L 516.361968 383.189234 
L 517.087388 383.542017 
L 517.812808 383.626203 
L 519.989067 383.361235 
L 520.714487 383.580082 
L 521.439907 383.054214 
L 522.165327 383.51788 
L 523.616166 383.851019 
L 524.341586 384.240895 
L 525.067006 383.303435 
L 525.792426 383.740748 
L 526.517845 383.453246 
L 527.243265 384.497994 
L 527.968685 383.260529 
L 528.694105 383.917869 
L 529.419525 384.099948 
L 530.144944 384.463547 
L 530.870364 384.059754 
L 531.595784 384.482087 
L 533.046624 384.241661 
L 533.772043 384.457429 
L 534.497463 384.3244 
L 535.222883 383.88846 
L 535.948303 384.463633 
L 536.673723 384.354153 
L 537.399142 384.082233 
L 538.124562 384.730188 
L 538.849982 384.570763 
L 539.575402 384.525457 
L 540.300822 384.271451 
L 541.026241 384.302651 
L 541.751661 385.029645 
L 543.202501 384.532768 
L 543.927921 385.053868 
L 544.65334 384.173536 
L 545.37876 384.18743 
L 546.10418 384.895976 
L 546.8296 384.851303 
L 547.55502 384.050775 
L 548.280439 384.953354 
L 550.456699 384.773149 
L 551.182118 384.832473 
L 551.907538 384.67502 
L 552.632958 385.075037 
L 553.358378 384.372068 
L 554.083798 385.533356 
L 554.809217 384.511182 
L 555.534637 385.118406 
L 556.260057 384.793657 
L 556.985477 385.134219 
L 557.710897 385.292796 
L 558.436316 384.963221 
L 559.161736 385.336933 
L 560.612576 385.664106 
L 561.337996 384.89796 
L 562.063415 385.271459 
L 562.788835 385.501931 
L 564.239675 385.187277 
L 564.965095 385.205387 
L 565.690514 385.345453 
L 566.415934 385.633091 
L 567.141354 385.789016 
L 567.866774 385.059236 
L 568.592194 385.384051 
L 570.043033 385.668965 
L 570.768453 385.323821 
L 571.493873 385.149743 
L 572.219293 385.691606 
L 572.944712 385.364594 
L 575.120972 385.915647 
L 575.846392 385.833201 
L 576.571811 386.075928 
L 577.297231 385.851983 
L 578.022651 385.859566 
L 578.748071 386.275337 
L 579.473491 385.643761 
L 580.19891 385.918764 
L 581.64975 385.530533 
L 582.37517 386.586136 
L 583.10059 385.925908 
L 583.826009 386.192608 
L 584.551429 386.274181 
L 585.276849 385.748056 
L 586.002269 386.062271 
L 586.727689 385.713581 
L 587.453108 386.219862 
L 588.178528 386.556794 
L 588.903948 385.778093 
L 589.629368 386.605119 
L 590.354787 386.501553 
L 590.354787 386.501553 
" clip-path="url(#p4945a9a2d7)" style="fill: none; stroke: #d97706; stroke-width: 3; stroke-linecap: square"/>
   </g>
   <g id="line2d_33">
    <path d="M 147.848712 404.945625 
L 147.848712 40.105625 
" clip-path="url(#p4945a9a2d7)" style="fill: none; stroke-dasharray: 2,3.3; stroke-dashoffset: 0; stroke: #dc2626; stroke-width: 2"/>
   </g>
   <g id="patch_3">
    <path d="M 103.634375 404.945625 
L 103.634375 40.105625 
" style="fill: none; stroke: #212529; stroke-width: 1.4; stroke-linejoin: miter; stroke-linecap: square"/>
   </g>
   <g id="patch_4">
    <path d="M 613.53195 404.945625 
L 613.53195 40.105625 
" style="fill: none; stroke: #212529; stroke-width: 1.4; stroke-linejoin: miter; stroke-linecap: square"/>
   </g>
   <g id="patch_5">
    <path d="M 103.634375 404.945625 
L 613.53195 404.945625 
" style="fill: none; stroke: #212529; stroke-width: 1.4; stroke-linejoin: miter; stroke-linecap: square"/>
   </g>
   <g id="patch_6">
    <path d="M 103.634375 40.105625 
L 613.53195 40.105625 
" style="fill: none; stroke: #212529; stroke-width: 1.4; stroke-linejoin: miter; stroke-linecap: square"/>
   </g>
   <g id="text_10">
    <!-- Data loss -->
    <g style="fill: #212529" transform="translate(279.753631 33.034687) scale(0.34 -0.34)">
     <defs>
      <path id="DejaVuSans-44" d="M 1259 4147 
L 1259 519 
L 2022 519 
Q 2988 519 3436 956 
Q 3884 1394 3884 2338 
Q 3884 3275 3436 3711 
Q 2988 4147 2022 4147 
L 1259 4147 
z
M 628 4666 
L 1925 4666 
Q 3281 4666 3915 4102 
Q 4550 3538 4550 2338 
Q 4550 1131 3912 565 
Q 3275 0 1925 0 
L 628 0 
L 628 4666 
z
" transform="scale(0.015625)"/>
      <path id="DejaVuSans-6c" d="M 603 4863 
L 1178 4863 
L 1178 0 
L 603 0 
L 603 4863 
z
" transform="scale(0.015625)"/>
     </defs>
     <use xlink:href="#DejaVuSans-44"/>
     <use xlink:href="#DejaVuSans-61" x="77.001953"/>
     <use xlink:href="#DejaVuSans-74" x="138.28125"/>
     <use xlink:href="#DejaVuSans-61" x="177.490234"/>
     <use xlink:href="#DejaVuSans-20" x="238.769531"/>
     <use xlink:href="#DejaVuSans-6c" x="270.556641"/>
     <use xlink:href="#DejaVuSans-6f" x="298.339844"/>
     <use xlink:href="#DejaVuSans-73" x="359.521484"/>
     <use xlink:href="#DejaVuSans-73" x="411.621094"/>
    </g>
   </g>
   <g id="legend_1">
    <g id="line2d_34">
     <path d="M 397.68945 71.541875 
L 421.68945 71.541875 
L 445.68945 71.541875 
" style="fill: none; stroke: #2563eb; stroke-width: 3; stroke-linecap: square"/>
    </g>
    <g id="text_11">
     <!-- Train -->
     <g transform="translate(464.88945 79.941875) scale(0.24 -0.24)">
      <defs>
       <path id="DejaVuSans-54" d="M -19 4666 
L 3928 4666 
L 3928 4134 
L 2272 4134 
L 2272 0 
L 1638 0 
L 1638 4134 
L -19 4134 
L -19 4666 
z
" transform="scale(0.015625)"/>
      </defs>
      <use xlink:href="#DejaVuSans-54"/>
      <use xlink:href="#DejaVuSans-72" x="46.333984"/>
      <use xlink:href="#DejaVuSans-61" x="87.447266"/>
      <use xlink:href="#DejaVuSans-69" x="148.726562"/>
      <use xlink:href="#DejaVuSans-6e" x="176.509766"/>
     </g>
    </g>
    <g id="line2d_35">
     <path d="M 397.68945 106.769375 
L 421.68945 106.769375 
L 445.68945 106.769375 
" style="fill: none; stroke: #d97706; stroke-width: 3; stroke-linecap: square"/>
    </g>
    <g id="text_12">
     <!-- Validation -->
     <g transform="translate(464.88945 115.169375) scale(0.24 -0.24)">
      <defs>
       <path id="DejaVuSans-56" d="M 1831 0 
L 50 4666 
L 709 4666 
L 2188 738 
L 3669 4666 
L 4325 4666 
L 2547 0 
L 1831 0 
z
" transform="scale(0.015625)"/>
      </defs>
      <use xlink:href="#DejaVuSans-56"/>
      <use xlink:href="#DejaVuSans-61" x="60.658203"/>
      <use xlink:href="#DejaVuSans-6c" x="121.9375"/>
      <use xlink:href="#DejaVuSans-69" x="149.720703"/>
      <use xlink:href="#DejaVuSans-64" x="177.503906"/>
      <use xlink:href="#DejaVuSans-61" x="240.980469"/>
      <use xlink:href="#DejaVuSans-74" x="302.259766"/>
      <use xlink:href="#DejaVuSans-69" x="341.46875"/>
      <use xlink:href="#DejaVuSans-6f" x="369.251953"/>
      <use xlink:href="#DejaVuSans-6e" x="430.433594"/>
     </g>
    </g>
    <g id="line2d_36">
     <path d="M 397.68945 141.996875 
L 421.68945 141.996875 
L 445.68945 141.996875 
" style="fill: none; stroke-dasharray: 2,3.3; stroke-dashoffset: 0; stroke: #dc2626; stroke-width: 2"/>
    </g>
    <g id="text_13">
     <!-- physics on -->
     <g transform="translate(464.88945 150.396875) scale(0.24 -0.24)">
      <defs>
       <path id="DejaVuSans-79" d="M 2059 -325 
Q 1816 -950 1584 -1140 
Q 1353 -1331 966 -1331 
L 506 -1331 
L 506 -850 
L 844 -850 
Q 1081 -850 1212 -737 
Q 1344 -625 1503 -206 
L 1606 56 
L 191 3500 
L 800 3500 
L 1894 763 
L 2988 3500 
L 3597 3500 
L 2059 -325 
z
" transform="scale(0.015625)"/>
      </defs>
      <use xlink:href="#DejaVuSans-70"/>
      <use xlink:href="#DejaVuSans-68" x="63.476562"/>
      <use xlink:href="#DejaVuSans-79" x="126.855469"/>
      <use xlink:href="#DejaVuSans-73" x="186.035156"/>
      <use xlink:href="#DejaVuSans-69" x="238.134766"/>
      <use xlink:href="#DejaVuSans-63" x="265.917969"/>
      <use xlink:href="#DejaVuSans-73" x="320.898438"/>
      <use xlink:href="#DejaVuSans-20" x="372.998047"/>
      <use xlink:href="#DejaVuSans-6f" x="404.785156"/>
      <use xlink:href="#DejaVuSans-6e" x="465.966797"/>
     </g>
    </g>
   </g>
  </g>
 </g>
 <defs>
  <clipPath id="p4945a9a2d7">
   <rect x="103.634375" y="40.105625" width="509.897575" height="364.84"/>
  </clipPath>
 </defs>
</svg>
