<?xml version="1.0" encoding="utf-8" standalone="no"?>
<!DOCTYPE svg PUBLIC "-//W3C//DTD SVG 1.1//EN"
  "http://www.w3.org/Graphics/SVG/1.1/DTD/svg11.dtd">
<svg xmlns:xlink="http://www.w3.org/1999/xlink" width="620.85195pt" height="475.4075pt" viewBox="0 0 620.85195 475.4075" xmlns="http://www.w3.org/2000/svg" version="1.1">
 <metadata>
  <rdf:RDF xmlns:dc="http://purl.org/dc/elements/1.1/" xmlns:cc="http://creativecommons.org/ns#" xmlns:rdf="http://www.w3.org/1999/02/22-rdf-syntax-ns#">
   <cc:Work>
    <dc:type rdf:resource="http://purl.org/dc/dcmitype/StillImage"/>
    <dc:date>2026-06-21T05:01:39.986014</dc:date>
    <dc:format>image/svg+xml</dc:format>
    <dc:creator>
     <cc:Agent>
      <dc:title>Matplotlib v3.8.0, https://matplotlib.org/</dc:title>
     </cc:Agent>
    </dc:creator>
   </cc:Work>
  </rdf:RDF>
 </metadata>
 <defs>
  <style type="text/css">*{stroke-linejoin: round; stroke-linecap: butt}</style>
 </defs>
 <g id="figure_1">
  <g id="patch_1">
   <path d="M 0 475.4075 
L 620.85195 475.4075 
L 620.85195 0 
L 0 0 
z
" style="fill: #ffffff"/>
  </g>
  <g id="axes_1">
   <g id="patch_2">
    <path d="M 103.634375 404.945625 
L 613.65195 404.945625 
L 613.65195 40.105625 
L 103.634375 40.105625 
z
" style="fill: #ffffff"/>
   </g>
   <g id="matplotlib.axis_1">
    <g id="xtick_1">
     <g id="line2d_1">
      <defs>
       <path id="m420d735695" d="M 0 0 
L 0 3.5 
" style="stroke: #212529; stroke-width: 0.8"/>
      </defs>
      <g>
       <use xlink:href="#m420d735695" x="126.091402" y="404.945625" style="fill: #212529; stroke: #212529; stroke-width: 0.8"/>
      </g>
     </g>
     <g id="text_1">
      <!-- 0 -->
      <g style="fill: #212529" transform="translate(118.456402 430.181875) scale(0.24 -0.24)">
       <defs>
        <path id="DejaVuSans-30" d="M 2034 4250 
Q 1547 4250 1301 3770 
Q 1056 3291 1056 2328 
Q 1056 1369 1301 889 
Q 1547 409 2034 409 
Q 2525 409 2770 889 
Q 3016 1369 3016 2328 
Q 3016 3291 2770 3770 
Q 2525 4250 2034 4250 
z
M 2034 4750 
Q 2819 4750 3233 4129 
Q 3647 3509 3647 2328 
Q 3647 1150 3233 529 
Q 2819 -91 2034 -91 
Q 1250 -91 836 529 
Q 422 1150 422 2328 
Q 422 3509 836 4129 
Q 1250 4750 2034 4750 
z
" transform="scale(0.015625)"/>
       </defs>
       <use xlink:href="#DejaVuSans-30"/>
      </g>
     </g>
    </g>
    <g id="xtick_2">
     <g id="line2d_2">
      <g>
       <use xlink:href="#m420d735695" x="271.209505" y="404.945625" style="fill: #212529; stroke: #212529; stroke-width: 0.8"/>
      </g>
     </g>
     <g id="text_2">
      <!-- 200 -->
      <g style="fill: #212529" transform="translate(248.304505 430.181875) scale(0.24 -0.24)">
       <defs>
        <path id="DejaVuSans-32" d="M 1228 531 
L 3431 531 
L 3431 0 
L 469 0 
L 469 531 
Q 828 903 1448 1529 
Q 2069 2156 2228 2338 
Q 2531 2678 2651 2914 
Q 2772 3150 2772 3378 
Q 2772 3750 2511 3984 
Q 2250 4219 1831 4219 
Q 1534 4219 1204 4116 
Q 875 4013 500 3803 
L 500 4441 
Q 881 4594 1212 4672 
Q 1544 4750 1819 4750 
Q 2544 4750 2975 4387 
Q 3406 4025 3406 3419 
Q 3406 3131 3298 2873 
Q 3191 2616 2906 2266 
Q 2828 2175 2409 1742 
Q 1991 1309 1228 531 
z
" transform="scale(0.015625)"/>
       </defs>
       <use xlink:href="#DejaVuSans-32"/>
       <use xlink:href="#DejaVuSans-30" x="63.623047"/>
       <use xlink:href="#DejaVuSans-30" x="127.246094"/>
      </g>
     </g>
    </g>
    <g id="xtick_3">
     <g id="line2d_3">
      <g>
       <use xlink:href="#m420d735695" x="416.327609" y="404.945625" style="fill: #212529; stroke: #212529; stroke-width: 0.8"/>
      </g>
     </g>
     <g id="text_3">
      <!-- 400 -->
      <g style="fill: #212529" transform="translate(393.422609 430.181875) scale(0.24 -0.24)">
       <defs>
        <path id="DejaVuSans-34" d="M 2419 4116 
L 825 1625 
L 2419 1625 
L 2419 4116 
z
M 2253 4666 
L 3047 4666 
L 3047 1625 
L 3713 1625 
L 3713 1100 
L 3047 1100 
L 3047 0 
L 2419 0 
L 2419 1100 
L 313 1100 
L 313 1709 
L 2253 4666 
z
" transform="scale(0.015625)"/>
       </defs>
       <use xlink:href="#DejaVuSans-34"/>
       <use xlink:href="#DejaVuSans-30" x="63.623047"/>
       <use xlink:href="#DejaVuSans-30" x="127.246094"/>
      </g>
     </g>
    </g>
    <g id="xtick_4">
     <g id="line2d_4">
      <g>
       <use xlink:href="#m420d735695" x="561.445712" y="404.945625" style="fill: #212529; stroke: #212529; stroke-width: 0.8"/>
      </g>
     </g>
     <g id="text_4">
      <!-- 600 -->
      <g style="fill: #212529" transform="translate(538.540712 430.181875) scale(0.24 -0.24)">
       <defs>
        <path id="DejaVuSans-36" d="M 2113 2584 
Q 1688 2584 1439 2293 
Q 1191 2003 1191 1497 
Q 1191 994 1439 701 
Q 1688 409 2113 409 
Q 2538 409 2786 701 
Q 3034 994 3034 1497 
Q 3034 2003 2786 2293 
Q 2538 2584 2113 2584 
z
M 3366 4563 
L 3366 3988 
Q 3128 4100 2886 4159 
Q 2644 4219 2406 4219 
Q 1781 4219 1451 3797 
Q 1122 3375 1075 2522 
Q 1259 2794 1537 2939 
Q 1816 3084 2150 3084 
Q 2853 3084 3261 2657 
Q 3669 2231 3669 1497 
Q 3669 778 3244 343 
Q 2819 -91 2113 -91 
Q 1303 -91 875 529 
Q 447 1150 447 2328 
Q 447 3434 972 4092 
Q 1497 4750 2381 4750 
Q 2619 4750 2861 4703 
Q 3103 4656 3366 4563 
z
" transform="scale(0.015625)"/>
       </defs>
       <use xlink:href="#DejaVuSans-36"/>
       <use xlink:href="#DejaVuSans-30" x="63.623047"/>
       <use xlink:href="#DejaVuSans-30" x="127.246094"/>
      </g>
     </g>
    </g>
    <g id="text_5">
     <!-- Epoch -->
     <g style="fill: #212529" transform="translate(312.71035 461.968438) scale(0.3 -0.3)">
      <defs>
       <path id="DejaVuSans-45" d="M 628 4666 
L 3578 4666 
L 3578 4134 
L 1259 4134 
L 1259 2753 
L 3481 2753 
L 3481 2222 
L 1259 2222 
L 1259 531 
L 3634 531 
L 3634 0 
L 628 0 
L 628 4666 
z
" transform="scale(0.015625)"/>
       <path id="DejaVuSans-70" d="M 1159 525 
L 1159 -1331 
L 581 -1331 
L 581 3500 
L 1159 3500 
L 1159 2969 
Q 1341 3281 1617 3432 
Q 1894 3584 2278 3584 
Q 2916 3584 3314 3078 
Q 3713 2572 3713 1747 
Q 3713 922 3314 415 
Q 2916 -91 2278 -91 
Q 1894 -91 1617 61 
Q 1341 213 1159 525 
z
M 3116 1747 
Q 3116 2381 2855 2742 
Q 2594 3103 2138 3103 
Q 1681 3103 1420 2742 
Q 1159 2381 1159 1747 
Q 1159 1113 1420 752 
Q 1681 391 2138 391 
Q 2594 391 2855 752 
Q 3116 1113 3116 1747 
z
" transform="scale(0.015625)"/>
       <path id="DejaVuSans-6f" d="M 1959 3097 
Q 1497 3097 1228 2736 
Q 959 2375 959 1747 
Q 959 1119 1226 758 
Q 1494 397 1959 397 
Q 2419 397 2687 759 
Q 2956 1122 2956 1747 
Q 2956 2369 2687 2733 
Q 2419 3097 1959 3097 
z
M 1959 3584 
Q 2709 3584 3137 3096 
Q 3566 2609 3566 1747 
Q 3566 888 3137 398 
Q 2709 -91 1959 -91 
Q 1206 -91 779 398 
Q 353 888 353 1747 
Q 353 2609 779 3096 
Q 1206 3584 1959 3584 
z
" transform="scale(0.015625)"/>
       <path id="DejaVuSans-63" d="M 3122 3366 
L 3122 2828 
Q 2878 2963 2633 3030 
Q 2388 3097 2138 3097 
Q 1578 3097 1268 2742 
Q 959 2388 959 1747 
Q 959 1106 1268 751 
Q 1578 397 2138 397 
Q 2388 397 2633 464 
Q 2878 531 3122 666 
L 3122 134 
Q 2881 22 2623 -34 
Q 2366 -91 2075 -91 
Q 1284 -91 818 406 
Q 353 903 353 1747 
Q 353 2603 823 3093 
Q 1294 3584 2113 3584 
Q 2378 3584 2631 3529 
Q 2884 3475 3122 3366 
z
" transform="scale(0.015625)"/>
       <path id="DejaVuSans-68" d="M 3513 2113 
L 3513 0 
L 2938 0 
L 2938 2094 
Q 2938 2591 2744 2837 
Q 2550 3084 2163 3084 
Q 1697 3084 1428 2787 
Q 1159 2491 1159 1978 
L 1159 0 
L 581 0 
L 581 4863 
L 1159 4863 
L 1159 2956 
Q 1366 3272 1645 3428 
Q 1925 3584 2291 3584 
Q 2894 3584 3203 3211 
Q 3513 2838 3513 2113 
z
" transform="scale(0.015625)"/>
      </defs>
      <use xlink:href="#DejaVuSans-45"/>
      <use xlink:href="#DejaVuSans-70" x="63.183594"/>
      <use xlink:href="#DejaVuSans-6f" x="126.660156"/>
      <use xlink:href="#DejaVuSans-63" x="187.841797"/>
      <use xlink:href="#DejaVuSans-68" x="242.822266"/>
     </g>
    </g>
   </g>
   <g id="matplotlib.axis_2">
    <g id="ytick_1">
     <g id="line2d_5">
      <defs>
       <path id="m4be96802cc" d="M 0 0 
L -3.5 0 
" style="stroke: #212529; stroke-width: 0.8"/>
      </defs>
      <g>
       <use xlink:href="#m4be96802cc" x="103.634375" y="309.637774" style="fill: #212529; stroke: #212529; stroke-width: 0.8"/>
      </g>
     </g>
     <g id="text_6">
      <!-- $\mathdefault{10^{-1}}$ -->
      <g style="fill: #212529" transform="translate(40.234375 318.755899) scale(0.24 -0.24)">
       <defs>
        <path id="DejaVuSans-31" d="M 794 531 
L 1825 531 
L 1825 4091 
L 703 3866 
L 703 4441 
L 1819 4666 
L 2450 4666 
L 2450 531 
L 3481 531 
L 3481 0 
L 794 0 
L 794 531 
z
" transform="scale(0.015625)"/>
        <path id="DejaVuSans-2212" d="M 678 2272 
L 4684 2272 
L 4684 1741 
L 678 1741 
L 678 2272 
z
" transform="scale(0.015625)"/>
       </defs>
       <use xlink:href="#DejaVuSans-31" transform="translate(0 0.684375)"/>
       <use xlink:href="#DejaVuSans-30" transform="translate(63.623047 0.684375)"/>
       <use xlink:href="#DejaVuSans-2212" transform="translate(128.203125 38.965625) scale(0.7)"/>
       <use xlink:href="#DejaVuSans-31" transform="translate(186.855469 38.965625) scale(0.7)"/>
      </g>
     </g>
    </g>
    <g id="ytick_2">
     <g id="line2d_6">
      <g>
       <use xlink:href="#m4be96802cc" x="103.634375" y="87.659061" style="fill: #212529; stroke: #212529; stroke-width: 0.8"/>
      </g>
     </g>
     <g id="text_7">
      <!-- $\mathdefault{10^{0}}$ -->
      <g style="fill: #212529" transform="translate(54.394375 96.777186) scale(0.24 -0.24)">
       <use xlink:href="#DejaVuSans-31" transform="translate(0 0.765625)"/>
       <use xlink:href="#DejaVuSans-30" transform="translate(63.623047 0.765625)"/>
       <use xlink:href="#DejaVuSans-30" transform="translate(128.203125 39.046875) scale(0.7)"/>
      </g>
     </g>
    </g>
    <g id="ytick_3">
     <g id="line2d_7">
      <defs>
       <path id="mf3376ac98a" d="M 0 0 
L -2 0 
" style="stroke: #212529; stroke-width: 0.6"/>
      </defs>
      <g>
       <use xlink:href="#mf3376ac98a" x="103.634375" y="397.971984" style="fill: #212529; stroke: #212529; stroke-width: 0.6"/>
      </g>
     </g>
    </g>
    <g id="ytick_4">
     <g id="line2d_8">
      <g>
       <use xlink:href="#mf3376ac98a" x="103.634375" y="376.460024" style="fill: #212529; stroke: #212529; stroke-width: 0.6"/>
      </g>
     </g>
    </g>
    <g id="ytick_5">
     <g id="line2d_9">
      <g>
       <use xlink:href="#mf3376ac98a" x="103.634375" y="358.883473" style="fill: #212529; stroke: #212529; stroke-width: 0.6"/>
      </g>
     </g>
    </g>
    <g id="ytick_6">
     <g id="line2d_10">
      <g>
       <use xlink:href="#mf3376ac98a" x="103.634375" y="344.022711" style="fill: #212529; stroke: #212529; stroke-width: 0.6"/>
      </g>
     </g>
    </g>
    <g id="ytick_7">
     <g id="line2d_11">
      <g>
       <use xlink:href="#mf3376ac98a" x="103.634375" y="331.149734" style="fill: #212529; stroke: #212529; stroke-width: 0.6"/>
      </g>
     </g>
    </g>
    <g id="ytick_8">
     <g id="line2d_12">
      <g>
       <use xlink:href="#mf3376ac98a" x="103.634375" y="319.794962" style="fill: #212529; stroke: #212529; stroke-width: 0.6"/>
      </g>
     </g>
    </g>
    <g id="ytick_9">
     <g id="line2d_13">
      <g>
       <use xlink:href="#mf3376ac98a" x="103.634375" y="242.815523" style="fill: #212529; stroke: #212529; stroke-width: 0.6"/>
      </g>
     </g>
    </g>
    <g id="ytick_10">
     <g id="line2d_14">
      <g>
       <use xlink:href="#mf3376ac98a" x="103.634375" y="203.727012" style="fill: #212529; stroke: #212529; stroke-width: 0.6"/>
      </g>
     </g>
    </g>
    <g id="ytick_11">
     <g id="line2d_15">
      <g>
       <use xlink:href="#mf3376ac98a" x="103.634375" y="175.993272" style="fill: #212529; stroke: #212529; stroke-width: 0.6"/>
      </g>
     </g>
    </g>
    <g id="ytick_12">
     <g id="line2d_16">
      <g>
       <use xlink:href="#mf3376ac98a" x="103.634375" y="154.481312" style="fill: #212529; stroke: #212529; stroke-width: 0.6"/>
      </g>
     </g>
    </g>
    <g id="ytick_13">
     <g id="line2d_17">
      <g>
       <use xlink:href="#mf3376ac98a" x="103.634375" y="136.904761" style="fill: #212529; stroke: #212529; stroke-width: 0.6"/>
      </g>
     </g>
    </g>
    <g id="ytick_14">
     <g id="line2d_18">
      <g>
       <use xlink:href="#mf3376ac98a" x="103.634375" y="122.043999" style="fill: #212529; stroke: #212529; stroke-width: 0.6"/>
      </g>
     </g>
    </g>
    <g id="ytick_15">
     <g id="line2d_19">
      <g>
       <use xlink:href="#mf3376ac98a" x="103.634375" y="109.171021" style="fill: #212529; stroke: #212529; stroke-width: 0.6"/>
      </g>
     </g>
    </g>
    <g id="ytick_16">
     <g id="line2d_20">
      <g>
       <use xlink:href="#mf3376ac98a" x="103.634375" y="97.81625" style="fill: #212529; stroke: #212529; stroke-width: 0.6"/>
      </g>
     </g>
    </g>
    <g id="text_8">
     <!-- MSE (standardized) -->
     <g style="fill: #212529" transform="translate(29.995312 368.267031) rotate(-90) scale(0.3 -0.3)">
      <defs>
       <path id="DejaVuSans-4d" d="M 628 4666 
L 1569 4666 
L 2759 1491 
L 3956 4666 
L 4897 4666 
L 4897 0 
L 4281 0 
L 4281 4097 
L 3078 897 
L 2444 897 
L 1241 4097 
L 1241 0 
L 628 0 
L 628 4666 
z
" transform="scale(0.015625)"/>
       <path id="DejaVuSans-53" d="M 3425 4513 
L 3425 3897 
Q 3066 4069 2747 4153 
Q 2428 4238 2131 4238 
Q 1616 4238 1336 4038 
Q 1056 3838 1056 3469 
Q 1056 3159 1242 3001 
Q 1428 2844 1947 2747 
L 2328 2669 
Q 3034 2534 3370 2195 
Q 3706 1856 3706 1288 
Q 3706 609 3251 259 
Q 2797 -91 1919 -91 
Q 1588 -91 1214 -16 
Q 841 59 441 206 
L 441 856 
Q 825 641 1194 531 
Q 1563 422 1919 422 
Q 2459 422 2753 634 
Q 3047 847 3047 1241 
Q 3047 1584 2836 1778 
Q 2625 1972 2144 2069 
L 1759 2144 
Q 1053 2284 737 2584 
Q 422 2884 422 3419 
Q 422 4038 858 4394 
Q 1294 4750 2059 4750 
Q 2388 4750 2728 4690 
Q 3069 4631 3425 4513 
z
" transform="scale(0.015625)"/>
       <path id="DejaVuSans-20" transform="scale(0.015625)"/>
       <path id="DejaVuSans-28" d="M 1984 4856 
Q 1566 4138 1362 3434 
Q 1159 2731 1159 2009 
Q 1159 1288 1364 580 
Q 1569 -128 1984 -844 
L 1484 -844 
Q 1016 -109 783 600 
Q 550 1309 550 2009 
Q 550 2706 781 3412 
Q 1013 4119 1484 4856 
L 1984 4856 
z
" transform="scale(0.015625)"/>
       <path id="DejaVuSans-73" d="M 2834 3397 
L 2834 2853 
Q 2591 2978 2328 3040 
Q 2066 3103 1784 3103 
Q 1356 3103 1142 2972 
Q 928 2841 928 2578 
Q 928 2378 1081 2264 
Q 1234 2150 1697 2047 
L 1894 2003 
Q 2506 1872 2764 1633 
Q 3022 1394 3022 966 
Q 3022 478 2636 193 
Q 2250 -91 1575 -91 
Q 1294 -91 989 -36 
Q 684 19 347 128 
L 347 722 
Q 666 556 975 473 
Q 1284 391 1588 391 
Q 1994 391 2212 530 
Q 2431 669 2431 922 
Q 2431 1156 2273 1281 
Q 2116 1406 1581 1522 
L 1381 1569 
Q 847 1681 609 1914 
Q 372 2147 372 2553 
Q 372 3047 722 3315 
Q 1072 3584 1716 3584 
Q 2034 3584 2315 3537 
Q 2597 3491 2834 3397 
z
" transform="scale(0.015625)"/>
       <path id="DejaVuSans-74" d="M 1172 4494 
L 1172 3500 
L 2356 3500 
L 2356 3053 
L 1172 3053 
L 1172 1153 
Q 1172 725 1289 603 
Q 1406 481 1766 481 
L 2356 481 
L 2356 0 
L 1766 0 
Q 1100 0 847 248 
Q 594 497 594 1153 
L 594 3053 
L 172 3053 
L 172 3500 
L 594 3500 
L 594 4494 
L 1172 4494 
z
" transform="scale(0.015625)"/>
       <path id="DejaVuSans-61" d="M 2194 1759 
Q 1497 1759 1228 1600 
Q 959 1441 959 1056 
Q 959 750 1161 570 
Q 1363 391 1709 391 
Q 2188 391 2477 730 
Q 2766 1069 2766 1631 
L 2766 1759 
L 2194 1759 
z
M 3341 1997 
L 3341 0 
L 2766 0 
L 2766 531 
Q 2569 213 2275 61 
Q 1981 -91 1556 -91 
Q 1019 -91 701 211 
Q 384 513 384 1019 
Q 384 1609 779 1909 
Q 1175 2209 1959 2209 
L 2766 2209 
L 2766 2266 
Q 2766 2663 2505 2880 
Q 2244 3097 1772 3097 
Q 1472 3097 1187 3025 
Q 903 2953 641 2809 
L 641 3341 
Q 956 3463 1253 3523 
Q 1550 3584 1831 3584 
Q 2591 3584 2966 3190 
Q 3341 2797 3341 1997 
z
" transform="scale(0.015625)"/>
       <path id="DejaVuSans-6e" d="M 3513 2113 
L 3513 0 
L 2938 0 
L 2938 2094 
Q 2938 2591 2744 2837 
Q 2550 3084 2163 3084 
Q 1697 3084 1428 2787 
Q 1159 2491 1159 1978 
L 1159 0 
L 581 0 
L 581 3500 
L 1159 3500 
L 1159 2956 
Q 1366 3272 1645 3428 
Q 1925 3584 2291 3584 
Q 2894 3584 3203 3211 
Q 3513 2838 3513 2113 
z
" transform="scale(0.015625)"/>
       <path id="DejaVuSans-64" d="M 2906 2969 
L 2906 4863 
L 3481 4863 
L 3481 0 
L 2906 0 
L 2906 525 
Q 2725 213 2448 61 
Q 2172 -91 1784 -91 
Q 1150 -91 751 415 
Q 353 922 353 1747 
Q 353 2572 751 3078 
Q 1150 3584 1784 3584 
Q 2172 3584 2448 3432 
Q 2725 3281 2906 2969 
z
M 947 1747 
Q 947 1113 1208 752 
Q 1469 391 1925 391 
Q 2381 391 2643 752 
Q 2906 1113 2906 1747 
Q 2906 2381 2643 2742 
Q 2381 3103 1925 3103 
Q 1469 3103 1208 2742 
Q 947 2381 947 1747 
z
" transform="scale(0.015625)"/>
       <path id="DejaVuSans-72" d="M 2631 2963 
Q 2534 3019 2420 3045 
Q 2306 3072 2169 3072 
Q 1681 3072 1420 2755 
Q 1159 2438 1159 1844 
L 1159 0 
L 581 0 
L 581 3500 
L 1159 3500 
L 1159 2956 
Q 1341 3275 1631 3429 
Q 1922 3584 2338 3584 
Q 2397 3584 2469 3576 
Q 2541 3569 2628 3553 
L 2631 2963 
z
" transform="scale(0.015625)"/>
       <path id="DejaVuSans-69" d="M 603 3500 
L 1178 3500 
L 1178 0 
L 603 0 
L 603 3500 
z
M 603 4863 
L 1178 4863 
L 1178 4134 
L 603 4134 
L 603 4863 
z
" transform="scale(0.015625)"/>
       <path id="DejaVuSans-7a" d="M 353 3500 
L 3084 3500 
L 3084 2975 
L 922 459 
L 3084 459 
L 3084 0 
L 275 0 
L 275 525 
L 2438 3041 
L 353 3041 
L 353 3500 
z
" transform="scale(0.015625)"/>
       <path id="DejaVuSans-65" d="M 3597 1894 
L 3597 1613 
L 953 1613 
Q 991 1019 1311 708 
Q 1631 397 2203 397 
Q 2534 397 2845 478 
Q 3156 559 3463 722 
L 3463 178 
Q 3153 47 2828 -22 
Q 2503 -91 2169 -91 
Q 1331 -91 842 396 
Q 353 884 353 1716 
Q 353 2575 817 3079 
Q 1281 3584 2069 3584 
Q 2775 3584 3186 3129 
Q 3597 2675 3597 1894 
z
M 3022 2063 
Q 3016 2534 2758 2815 
Q 2500 3097 2075 3097 
Q 1594 3097 1305 2825 
Q 1016 2553 972 2059 
L 3022 2063 
z
" transform="scale(0.015625)"/>
       <path id="DejaVuSans-29" d="M 513 4856 
L 1013 4856 
Q 1481 4119 1714 3412 
Q 1947 2706 1947 2009 
Q 1947 1309 1714 600 
Q 1481 -109 1013 -844 
L 513 -844 
Q 928 -128 1133 580 
Q 1338 1288 1338 2009 
Q 1338 2731 1133 3434 
Q 928 4138 513 4856 
z
" transform="scale(0.015625)"/>
      </defs>
      <use xlink:href="#DejaVuSans-4d"/>
      <use xlink:href="#DejaVuSans-53" x="86.279297"/>
      <use xlink:href="#DejaVuSans-45" x="149.755859"/>
      <use xlink:href="#DejaVuSans-20" x="212.939453"/>
      <use xlink:href="#DejaVuSans-28" x="244.726562"/>
      <use xlink:href="#DejaVuSans-73" x="283.740234"/>
      <use xlink:href="#DejaVuSans-74" x="335.839844"/>
      <use xlink:href="#DejaVuSans-61" x="375.048828"/>
      <use xlink:href="#DejaVuSans-6e" x="436.328125"/>
      <use xlink:href="#DejaVuSans-64" x="499.707031"/>
      <use xlink:href="#DejaVuSans-61" x="563.183594"/>
      <use xlink:href="#DejaVuSans-72" x="624.462891"/>
      <use xlink:href="#DejaVuSans-64" x="663.826172"/>
      <use xlink:href="#DejaVuSans-69" x="727.302734"/>
      <use xlink:href="#DejaVuSans-7a" x="755.085938"/>
      <use xlink:href="#DejaVuSans-65" x="807.576172"/>
      <use xlink:href="#DejaVuSans-64" x="869.099609"/>
      <use xlink:href="#DejaVuSans-29" x="932.576172"/>
     </g>
    </g>
   </g>
   <g id="line2d_21">
    <path d="M 126.816992 87.436617 
L 128.993764 140.065003 
L 129.719354 162.846017 
L 131.170535 198.428898 
L 131.896126 208.034769 
L 132.621716 219.604264 
L 133.347307 228.536355 
L 134.072897 232.246781 
L 134.798488 239.229761 
L 135.524078 235.032993 
L 136.249669 247.575516 
L 136.975259 252.651892 
L 137.70085 253.626713 
L 138.42644 264.401304 
L 139.152031 270.390539 
L 139.877621 267.863374 
L 140.603212 275.610896 
L 141.328802 269.351337 
L 142.054393 277.110789 
L 142.779983 280.419735 
L 143.505574 285.588759 
L 144.231164 284.764233 
L 144.956755 291.711656 
L 145.682346 295.468988 
L 146.407936 301.041313 
L 147.133527 304.271694 
L 147.859117 295.376525 
L 148.584708 319.700573 
L 149.310298 339.457239 
L 150.035889 338.422433 
L 150.761479 323.113664 
L 151.48707 328.988634 
L 152.21266 349.638888 
L 152.938251 354.287054 
L 153.663841 360.00521 
L 154.389432 367.279205 
L 155.115022 348.264451 
L 155.840613 367.018762 
L 156.566203 344.676049 
L 157.291794 338.435435 
L 158.017384 371.881209 
L 158.742975 362.942533 
L 159.468565 334.218732 
L 160.194156 367.985076 
L 161.645337 354.489312 
L 162.370927 352.774212 
L 163.096518 342.248859 
L 163.822108 355.556682 
L 164.547699 340.557693 
L 165.273289 345.439986 
L 165.99888 372.334909 
L 166.724471 370.877796 
L 168.175652 360.547141 
L 168.901242 353.7834 
L 169.626833 370.22004 
L 170.352423 367.489152 
L 171.078014 374.161492 
L 171.803604 375.618096 
L 172.529195 381.028271 
L 173.254785 377.617995 
L 173.980376 366.800973 
L 174.705966 362.453046 
L 175.431557 365.365145 
L 176.157147 376.69564 
L 176.882738 380.665432 
L 177.608328 380.138354 
L 178.333919 374.327965 
L 179.059509 381.644577 
L 179.7851 384.109844 
L 180.51069 380.743593 
L 181.236281 375.985457 
L 181.961871 369.320943 
L 182.687462 357.471218 
L 183.413052 370.715894 
L 184.138643 375.841694 
L 184.864233 374.614899 
L 185.589824 367.230916 
L 186.315415 377.18203 
L 187.041005 382.73099 
L 187.766596 386.067568 
L 188.492186 381.958943 
L 189.217777 380.697571 
L 189.943367 376.472956 
L 191.394548 369.803588 
L 192.120139 380.399792 
L 192.845729 360.53025 
L 193.57132 364.961283 
L 194.29691 372.368844 
L 195.022501 373.784807 
L 196.473682 366.947978 
L 197.199272 365.374189 
L 197.924863 376.368961 
L 198.650453 355.403425 
L 199.376044 375.831094 
L 200.101634 371.799744 
L 200.827225 377.264506 
L 201.552815 377.833578 
L 202.278406 367.849277 
L 203.003996 367.329731 
L 203.729587 365.217528 
L 204.455177 381.951139 
L 205.180768 370.73688 
L 205.906358 361.494091 
L 206.631949 365.896248 
L 207.35754 368.809027 
L 208.808721 357.999232 
L 209.534311 349.664629 
L 210.259902 360.467292 
L 210.985492 367.114961 
L 211.711083 362.422499 
L 212.436673 361.289901 
L 213.162264 348.865359 
L 213.887854 377.805815 
L 214.613445 366.779197 
L 215.339035 369.543561 
L 216.064626 371.749473 
L 216.790216 374.810236 
L 217.515807 378.727512 
L 218.966988 365.67675 
L 219.692578 367.861141 
L 220.418169 369.279737 
L 221.143759 381.351413 
L 221.86935 373.601057 
L 222.59494 378.735652 
L 223.320531 365.671618 
L 224.046121 386.470326 
L 226.222893 374.167597 
L 226.948484 373.097765 
L 227.674074 384.362347 
L 228.399665 382.578389 
L 229.125255 386.106565 
L 229.850846 386.333446 
L 230.576436 385.638371 
L 231.302027 388.361989 
L 232.027617 387.063535 
L 232.753208 385.354158 
L 233.478798 382.764927 
L 234.204389 381.904832 
L 234.929979 378.794999 
L 235.65557 380.925723 
L 236.38116 380.408001 
L 237.106751 375.388923 
L 237.832341 379.446963 
L 238.557932 378.781431 
L 239.283522 376.002262 
L 240.009113 379.794394 
L 240.734703 375.894041 
L 241.460294 379.985838 
L 242.185884 369.705857 
L 242.911475 376.962388 
L 243.637065 370.335609 
L 244.362656 376.856492 
L 245.088246 379.098753 
L 245.813837 380.591574 
L 246.539427 380.65972 
L 247.265018 380.430615 
L 247.990609 381.783062 
L 248.716199 381.138877 
L 249.44179 380.217752 
L 250.16738 378.976217 
L 250.892971 374.007275 
L 251.618561 375.820161 
L 252.344152 375.270343 
L 253.069742 382.252164 
L 253.795333 384.341994 
L 254.520923 384.657669 
L 255.246514 378.653772 
L 255.972104 382.110765 
L 256.697695 375.209918 
L 257.423285 380.111183 
L 258.148876 373.681453 
L 258.874466 378.994097 
L 259.600057 378.918622 
L 260.325647 379.924914 
L 261.051238 375.779948 
L 261.776828 375.426791 
L 262.502419 378.348195 
L 263.228009 373.628162 
L 264.67919 379.895868 
L 265.404781 380.833307 
L 266.130371 379.461061 
L 266.855962 378.771196 
L 267.581553 384.209028 
L 268.307143 376.865917 
L 269.032734 380.28405 
L 269.758324 375.805532 
L 270.483915 377.715186 
L 271.209505 378.365528 
L 271.935096 380.187011 
L 272.660686 382.889707 
L 273.386277 377.885048 
L 274.111867 381.944375 
L 274.837458 379.33762 
L 275.563048 380.016887 
L 276.288639 384.790249 
L 277.014229 382.359941 
L 277.73982 379.118671 
L 278.46541 379.559373 
L 279.191001 380.667 
L 279.916591 378.478556 
L 280.642182 372.216584 
L 281.367772 376.519703 
L 282.093363 379.500903 
L 282.818953 377.905554 
L 283.544544 373.297601 
L 284.270134 384.598869 
L 284.995725 383.450491 
L 285.721315 377.98958 
L 286.446906 381.846833 
L 287.172496 380.836355 
L 287.898087 379.217683 
L 288.623678 381.478727 
L 289.349268 377.35072 
L 290.074859 383.261867 
L 290.800449 379.980273 
L 291.52604 378.334479 
L 292.25163 377.613883 
L 292.977221 378.129045 
L 293.702811 381.853299 
L 294.428402 381.099578 
L 295.153992 377.646204 
L 295.879583 378.648312 
L 296.605173 378.913133 
L 297.330764 372.190209 
L 298.056354 373.798638 
L 298.781945 378.564352 
L 299.507535 379.298353 
L 300.233126 378.696712 
L 300.958716 371.115766 
L 301.684307 374.828114 
L 302.409897 370.655632 
L 303.861078 377.559253 
L 304.586669 373.432097 
L 305.312259 371.069435 
L 306.03785 378.01816 
L 306.76344 373.197279 
L 307.489031 374.311691 
L 308.214622 377.935321 
L 308.940212 380.648555 
L 309.665803 379.841005 
L 310.391393 377.27293 
L 311.116984 382.260883 
L 311.842574 379.717951 
L 312.568165 378.762811 
L 313.293755 375.115853 
L 314.019346 380.02347 
L 314.744936 382.045013 
L 315.470527 375.018403 
L 316.196117 377.706729 
L 316.921708 376.483245 
L 317.647298 374.501825 
L 318.372889 371.335409 
L 319.098479 374.313306 
L 319.82407 374.361462 
L 320.54966 375.119984 
L 321.275251 377.849055 
L 322.000841 378.674868 
L 322.726432 376.21663 
L 323.452022 378.812072 
L 324.177613 377.5184 
L 324.903203 375.95145 
L 325.628794 378.204344 
L 326.354384 375.531159 
L 327.079975 377.886965 
L 327.805565 373.049219 
L 328.531156 371.534784 
L 329.256747 377.570145 
L 329.982337 374.942311 
L 330.707928 374.063287 
L 331.433518 372.587048 
L 332.159109 369.803636 
L 332.884699 373.99068 
L 333.61029 368.484822 
L 334.33588 372.433504 
L 335.061471 366.898386 
L 335.787061 368.677047 
L 336.512652 370.082674 
L 337.238242 368.554106 
L 337.963833 369.455325 
L 338.689423 373.079213 
L 339.415014 376.042923 
L 340.140604 370.830402 
L 340.866195 369.801814 
L 341.591785 369.41742 
L 342.317376 375.641267 
L 343.042966 371.046813 
L 343.768557 370.413727 
L 344.494147 371.816214 
L 345.219738 373.990116 
L 345.945328 374.208859 
L 346.670919 369.490786 
L 347.396509 371.512321 
L 348.1221 367.787681 
L 348.847691 366.578072 
L 349.573281 370.703757 
L 350.298872 369.822905 
L 351.750053 368.886034 
L 352.475643 366.638193 
L 353.201234 370.144017 
L 353.926824 368.604661 
L 354.652415 365.667598 
L 355.378005 366.888398 
L 356.103596 369.970596 
L 356.829186 364.490516 
L 357.554777 371.83535 
L 358.280367 370.179499 
L 359.005958 368.865122 
L 359.731548 371.568028 
L 360.457139 364.715589 
L 361.90832 371.95502 
L 362.63391 370.473988 
L 363.359501 374.924908 
L 364.085091 371.960417 
L 364.810682 373.034187 
L 365.536272 373.486433 
L 366.261863 369.638974 
L 366.987453 368.271001 
L 367.713044 367.384061 
L 368.438634 367.912563 
L 369.164225 370.378929 
L 369.889816 368.870365 
L 370.615406 369.796487 
L 371.340997 367.133675 
L 372.066587 369.253378 
L 372.792178 370.737938 
L 373.517768 369.128045 
L 374.968949 367.611707 
L 375.69454 369.420565 
L 376.42013 369.164061 
L 377.145721 369.695965 
L 377.871311 370.843883 
L 378.596902 369.977046 
L 379.322492 371.182688 
L 380.773673 369.240338 
L 381.499264 369.604991 
L 382.224854 370.394829 
L 383.676035 366.145371 
L 384.401626 366.072733 
L 385.127216 366.756429 
L 385.852807 364.02873 
L 386.578397 367.706803 
L 387.303988 366.931468 
L 388.029578 366.753813 
L 388.755169 368.059212 
L 389.48076 370.54926 
L 390.931941 370.401525 
L 391.657531 370.169999 
L 392.383122 370.640568 
L 393.108712 369.16227 
L 393.834303 369.335784 
L 394.559893 367.124355 
L 395.285484 367.807238 
L 396.011074 367.666479 
L 396.736665 369.007059 
L 397.462255 369.408932 
L 398.187846 368.189879 
L 398.913436 367.891741 
L 399.639027 369.602903 
L 400.364617 367.287502 
L 401.090208 368.298241 
L 401.815798 368.368777 
L 402.541389 369.010836 
L 403.266979 369.182523 
L 403.99257 366.766041 
L 404.71816 367.452161 
L 405.443751 367.027853 
L 406.169341 366.328609 
L 406.894932 368.691046 
L 407.620522 366.632385 
L 408.346113 366.896327 
L 409.071703 364.28884 
L 409.797294 367.405569 
L 410.522885 367.144226 
L 411.248475 366.490988 
L 411.974066 367.098732 
L 412.699656 365.891237 
L 413.425247 366.856966 
L 414.150837 365.961121 
L 414.876428 366.303394 
L 415.602018 367.813547 
L 416.327609 367.325812 
L 417.053199 367.550344 
L 417.77879 368.446816 
L 418.50438 365.197983 
L 419.229971 365.219423 
L 419.955561 362.791626 
L 420.681152 366.375075 
L 421.406742 363.405144 
L 422.132333 364.394218 
L 422.857923 364.770462 
L 423.583514 363.929562 
L 424.309104 364.436675 
L 425.034695 364.712968 
L 425.760285 364.718872 
L 426.485876 365.994379 
L 427.211466 368.063249 
L 427.937057 366.04206 
L 428.662647 368.24501 
L 429.388238 366.524597 
L 430.113829 366.125251 
L 430.839419 365.51126 
L 431.56501 366.889693 
L 432.2906 364.636124 
L 433.016191 364.600631 
L 433.741781 365.227164 
L 434.467372 366.039185 
L 435.192962 367.457167 
L 435.918553 368.153585 
L 436.644143 370.302151 
L 437.369734 368.731136 
L 438.095324 366.471651 
L 438.820915 369.039182 
L 439.546505 369.231863 
L 440.272096 368.661986 
L 440.997686 370.162861 
L 441.723277 368.848648 
L 442.448867 368.02525 
L 443.174458 366.74563 
L 444.625639 366.757201 
L 445.351229 368.591097 
L 446.07682 367.581225 
L 446.80241 367.100996 
L 447.528001 365.489083 
L 448.253591 367.007703 
L 448.979182 367.366856 
L 449.704772 367.01225 
L 450.430363 367.461705 
L 451.155954 368.335743 
L 451.881544 367.488474 
L 452.607135 366.445207 
L 453.332725 366.684622 
L 454.058316 366.048613 
L 454.783906 365.254658 
L 455.509497 364.681763 
L 456.235087 365.892219 
L 456.960678 364.676168 
L 457.686268 365.149564 
L 459.137449 365.759038 
L 459.86304 365.638215 
L 460.58863 364.843997 
L 461.314221 366.30288 
L 462.039811 363.153047 
L 462.765402 363.63371 
L 463.490992 363.113042 
L 464.216583 364.21515 
L 464.942173 362.591036 
L 465.667764 363.864884 
L 466.393354 365.590629 
L 467.118945 364.493884 
L 467.844535 363.639141 
L 468.570126 366.175904 
L 469.295716 363.976463 
L 470.021307 363.716373 
L 470.746898 366.26107 
L 471.472488 365.09664 
L 472.923669 365.148441 
L 473.64926 363.212654 
L 474.37485 363.478845 
L 475.100441 363.939195 
L 475.826031 365.093557 
L 476.551622 363.108233 
L 477.277212 363.943827 
L 478.002803 363.105275 
L 478.728393 361.101891 
L 479.453984 362.235371 
L 480.179574 364.921433 
L 480.905165 362.59271 
L 482.356346 361.83889 
L 483.081936 361.35093 
L 483.807527 362.309603 
L 484.533117 361.325012 
L 485.258708 360.653153 
L 485.984298 360.498781 
L 486.709889 361.287963 
L 487.435479 361.811408 
L 488.16107 361.69127 
L 488.88666 361.151822 
L 489.612251 362.099026 
L 490.337841 361.104317 
L 491.063432 361.024889 
L 491.789023 361.269659 
L 492.514613 362.735169 
L 493.240204 361.380059 
L 493.965794 360.741714 
L 494.691385 361.270336 
L 495.416975 361.633583 
L 496.142566 360.532954 
L 496.868156 361.128923 
L 497.593747 360.647556 
L 498.319337 360.388288 
L 499.044928 360.793904 
L 499.770518 360.894011 
L 500.496109 360.770146 
L 501.221699 360.785761 
L 501.94729 361.396822 
L 502.67288 361.729789 
L 503.398471 360.993637 
L 504.124061 362.50039 
L 504.849652 362.006228 
L 505.575242 361.843338 
L 506.300833 362.137128 
L 507.026423 360.596292 
L 507.752014 361.635222 
L 508.477604 360.512475 
L 509.203195 360.550597 
L 510.654376 361.223213 
L 511.379967 360.928613 
L 512.105557 361.790547 
L 512.831148 360.535699 
L 513.556738 358.374355 
L 514.282329 360.167338 
L 515.007919 359.792359 
L 515.73351 360.897534 
L 516.4591 361.555395 
L 517.184691 361.838346 
L 517.910281 361.719457 
L 518.635872 359.267954 
L 520.087053 361.051216 
L 520.812643 360.650828 
L 521.538234 361.270124 
L 522.263824 360.057159 
L 522.989415 360.203949 
L 523.715005 360.703728 
L 524.440596 360.658582 
L 525.166186 361.423341 
L 525.891777 361.274012 
L 526.617367 360.313079 
L 527.342958 360.732387 
L 528.794139 361.97109 
L 529.519729 362.173875 
L 530.24532 360.652763 
L 530.97091 360.976859 
L 531.696501 361.528415 
L 532.422092 360.45968 
L 533.147682 360.836649 
L 533.873273 359.926811 
L 534.598863 360.959251 
L 535.324454 361.360813 
L 536.050044 361.479729 
L 536.775635 361.331287 
L 537.501225 362.255709 
L 538.226816 362.107004 
L 538.952406 361.654527 
L 539.677997 359.471681 
L 540.403587 361.605547 
L 541.129178 362.207376 
L 541.854768 362.275166 
L 542.580359 360.674239 
L 543.305949 361.546563 
L 544.75713 362.312091 
L 545.482721 362.074997 
L 546.208311 361.217745 
L 546.933902 360.884273 
L 548.385083 362.61298 
L 549.110673 361.169002 
L 549.836264 362.197302 
L 550.561854 361.87009 
L 551.287445 360.736765 
L 552.013036 361.399427 
L 552.738626 360.592907 
L 553.464217 360.111506 
L 554.189807 360.074167 
L 554.915398 360.892398 
L 555.640988 361.381989 
L 556.366579 360.400293 
L 557.092169 361.11398 
L 559.268941 359.655665 
L 559.994531 359.745165 
L 560.720122 359.712851 
L 562.171303 359.820018 
L 563.622484 359.799082 
L 564.348074 360.265589 
L 565.073665 360.440172 
L 565.799255 358.468226 
L 566.524846 359.48868 
L 567.250436 359.779108 
L 567.976027 359.05955 
L 568.701617 359.549039 
L 569.427208 359.247509 
L 570.152798 359.498588 
L 570.878389 358.726944 
L 571.603979 360.015645 
L 572.32957 358.618256 
L 573.055161 359.140953 
L 573.780751 359.287031 
L 574.506342 358.910273 
L 575.231932 359.347713 
L 576.683113 358.75341 
L 577.408704 358.122199 
L 578.134294 358.810411 
L 578.859885 357.794274 
L 579.585475 358.668375 
L 580.311066 358.641955 
L 581.036656 359.225626 
L 581.762247 358.542966 
L 582.487837 358.98721 
L 583.213428 358.820171 
L 583.939018 359.171061 
L 584.664609 358.590656 
L 585.390199 358.82481 
L 586.11579 359.575705 
L 586.84138 359.481932 
L 587.566971 359.119255 
L 588.292561 359.513042 
L 589.018152 358.806901 
L 589.743742 358.422827 
L 590.469333 358.849521 
L 590.469333 358.849521 
" clip-path="url(#p24670f327c)" style="fill: none; stroke: #2563eb; stroke-width: 3; stroke-linecap: square"/>
   </g>
   <g id="line2d_22">
    <path d="M 126.816992 56.689261 
L 127.542583 78.90349 
L 128.268173 78.65081 
L 128.993764 98.434848 
L 130.444945 152.49617 
L 131.170535 164.578943 
L 131.896126 182.74725 
L 132.621716 205.114502 
L 133.347307 205.156012 
L 134.072897 217.400873 
L 134.798488 227.694701 
L 135.524078 224.666548 
L 136.249669 241.006234 
L 136.975259 247.185701 
L 137.70085 248.769295 
L 139.152031 254.049946 
L 139.877621 250.858702 
L 140.603212 262.091378 
L 141.328802 258.04225 
L 142.054393 266.028523 
L 142.779983 266.622282 
L 143.505574 275.78942 
L 144.231164 274.523714 
L 144.956755 279.621894 
L 145.682346 276.856401 
L 146.407936 286.447321 
L 147.133527 285.702045 
L 147.859117 289.955977 
L 148.584708 329.949489 
L 149.310298 329.01165 
L 150.035889 351.88568 
L 150.761479 326.476945 
L 151.48707 363.426479 
L 152.21266 334.809825 
L 152.938251 336.800172 
L 153.663841 343.789457 
L 154.389432 338.840824 
L 155.115022 343.598709 
L 155.840613 337.425488 
L 156.566203 338.919381 
L 157.291794 361.535453 
L 158.017384 351.255469 
L 158.742975 336.302599 
L 160.194156 349.573492 
L 160.919746 359.522922 
L 161.645337 351.954193 
L 162.370927 357.23567 
L 163.096518 354.181487 
L 163.822108 358.289713 
L 164.547699 331.95992 
L 165.273289 354.706648 
L 165.99888 342.959261 
L 166.724471 336.796283 
L 167.450061 351.539875 
L 168.175652 359.164766 
L 169.626833 335.961217 
L 170.352423 350.721976 
L 171.078014 334.602181 
L 171.803604 349.025979 
L 172.529195 356.175454 
L 173.254785 355.65882 
L 173.980376 364.64499 
L 174.705966 358.418318 
L 175.431557 342.802899 
L 176.157147 371.798707 
L 176.882738 363.049104 
L 177.608328 357.792422 
L 178.333919 361.473851 
L 179.059509 356.098809 
L 179.7851 368.922417 
L 180.51069 361.347759 
L 181.236281 356.766477 
L 181.961871 362.446449 
L 182.687462 374.921805 
L 183.413052 373.609109 
L 184.138643 350.551809 
L 184.864233 357.956519 
L 186.315415 353.786994 
L 187.041005 358.49096 
L 187.766596 368.852848 
L 188.492186 352.728458 
L 189.217777 361.634214 
L 189.943367 362.523854 
L 190.668958 353.737184 
L 191.394548 351.203571 
L 192.120139 359.124904 
L 192.845729 345.012055 
L 193.57132 346.506951 
L 194.29691 352.649759 
L 195.022501 349.598813 
L 195.748091 351.948427 
L 196.473682 344.388508 
L 197.924863 360.879324 
L 198.650453 349.625841 
L 199.376044 351.030608 
L 200.101634 350.609641 
L 200.827225 349.079694 
L 201.552815 357.857977 
L 202.278406 357.09806 
L 203.003996 360.037017 
L 203.729587 357.428356 
L 204.455177 350.420338 
L 205.180768 357.208195 
L 205.906358 354.82572 
L 206.631949 351.129526 
L 207.35754 353.537536 
L 208.08313 345.979757 
L 208.808721 343.931944 
L 209.534311 345.844855 
L 210.259902 339.942216 
L 210.985492 352.104013 
L 211.711083 358.346716 
L 213.162264 342.328192 
L 213.887854 345.74523 
L 214.613445 352.349373 
L 215.339035 357.164857 
L 216.064626 350.131718 
L 216.790216 351.354223 
L 217.515807 350.277723 
L 218.241397 340.323237 
L 218.966988 361.451458 
L 219.692578 336.968686 
L 220.418169 350.040642 
L 221.143759 353.40376 
L 221.86935 347.437015 
L 222.59494 338.079489 
L 223.320531 334.300268 
L 224.046121 327.356094 
L 224.771712 345.161605 
L 225.497302 336.66688 
L 226.222893 347.261169 
L 226.948484 344.904767 
L 227.674074 348.393702 
L 228.399665 340.981672 
L 229.125255 342.072913 
L 229.850846 341.297563 
L 230.576436 342.22914 
L 231.302027 340.623059 
L 232.753208 347.496384 
L 233.478798 346.922001 
L 234.204389 337.391276 
L 234.929979 348.652457 
L 235.65557 345.82805 
L 236.38116 350.004668 
L 237.106751 349.855653 
L 237.832341 347.714005 
L 238.557932 332.787608 
L 239.283522 336.898116 
L 240.009113 340.115965 
L 240.734703 347.254589 
L 241.460294 345.531303 
L 242.911475 337.431589 
L 243.637065 328.537074 
L 244.362656 328.838474 
L 245.088246 330.74054 
L 245.813837 330.456125 
L 247.265018 338.39673 
L 247.990609 329.003399 
L 248.716199 331.569261 
L 249.44179 329.533526 
L 250.892971 335.533369 
L 251.618561 335.884422 
L 252.344152 332.908256 
L 253.069742 331.647118 
L 253.795333 346.496776 
L 254.520923 340.713646 
L 255.246514 333.612325 
L 255.972104 338.485394 
L 256.697695 339.021172 
L 257.423285 337.714898 
L 258.148876 348.096268 
L 258.874466 347.123943 
L 259.600057 343.387214 
L 260.325647 348.103012 
L 261.051238 334.917612 
L 261.776828 339.907481 
L 262.502419 345.93025 
L 263.228009 346.14057 
L 263.9536 334.456366 
L 264.67919 347.670124 
L 265.404781 346.232181 
L 266.130371 340.273495 
L 266.855962 338.313186 
L 267.581553 332.450141 
L 268.307143 337.106477 
L 269.032734 337.172633 
L 269.758324 338.326317 
L 270.483915 335.477205 
L 271.209505 352.681689 
L 271.935096 351.491444 
L 272.660686 352.101465 
L 273.386277 352.550503 
L 274.111867 345.462264 
L 274.837458 346.523172 
L 275.563048 345.803477 
L 276.288639 346.228953 
L 277.014229 348.860158 
L 277.73982 349.76742 
L 278.46541 348.211286 
L 279.191001 349.247757 
L 279.916591 346.837411 
L 280.642182 345.890372 
L 281.367772 343.259097 
L 282.093363 344.323861 
L 282.818953 347.957961 
L 283.544544 347.604709 
L 284.270134 349.294035 
L 284.995725 344.035984 
L 285.721315 350.381656 
L 286.446906 348.168808 
L 287.172496 346.818345 
L 287.898087 341.900828 
L 288.623678 342.098466 
L 289.349268 340.827539 
L 290.074859 343.585921 
L 290.800449 347.922528 
L 291.52604 350.012695 
L 292.25163 342.761892 
L 292.977221 347.015144 
L 293.702811 353.701929 
L 294.428402 347.247162 
L 295.153992 345.413404 
L 295.879583 341.722019 
L 296.605173 348.063542 
L 297.330764 348.61008 
L 298.056354 350.696936 
L 298.781945 346.164441 
L 299.507535 339.307436 
L 300.233126 349.922288 
L 300.958716 352.558868 
L 301.684307 344.145135 
L 302.409897 344.045549 
L 303.135488 342.771216 
L 303.861078 346.634612 
L 304.586669 342.549388 
L 305.312259 345.12923 
L 306.03785 345.81149 
L 306.76344 346.101768 
L 307.489031 340.6909 
L 308.214622 339.296985 
L 308.940212 340.176353 
L 309.665803 343.038093 
L 310.391393 341.87296 
L 311.116984 343.814503 
L 311.842574 343.887729 
L 312.568165 343.259236 
L 313.293755 344.347351 
L 314.019346 347.717927 
L 314.744936 345.200222 
L 315.470527 342.062333 
L 316.196117 345.9702 
L 316.921708 345.323316 
L 317.647298 347.163606 
L 318.372889 346.93307 
L 319.098479 346.878681 
L 319.82407 343.882909 
L 320.54966 342.65479 
L 321.275251 346.365697 
L 322.000841 345.554023 
L 322.726432 342.479268 
L 323.452022 343.670529 
L 324.177613 344.333876 
L 324.903203 346.2684 
L 326.354384 342.481045 
L 327.079975 341.832816 
L 327.805565 345.595177 
L 328.531156 341.671748 
L 329.256747 339.376442 
L 329.982337 339.953943 
L 330.707928 344.068783 
L 331.433518 340.558341 
L 332.159109 341.993912 
L 332.884699 344.586053 
L 333.61029 345.450344 
L 334.33588 343.634051 
L 335.061471 343.732932 
L 335.787061 340.587452 
L 336.512652 342.028669 
L 337.238242 343.117052 
L 337.963833 339.86002 
L 338.689423 341.945844 
L 339.415014 340.212031 
L 340.140604 343.132146 
L 340.866195 342.677777 
L 341.591785 341.059341 
L 342.317376 340.903003 
L 343.042966 344.796012 
L 343.768557 342.27527 
L 344.494147 344.720257 
L 345.219738 340.126748 
L 345.945328 345.9327 
L 346.670919 342.141036 
L 347.396509 342.150398 
L 348.1221 343.45653 
L 348.847691 343.138358 
L 350.298872 348.667256 
L 351.024462 344.226631 
L 351.750053 346.01301 
L 352.475643 345.239377 
L 353.201234 343.719784 
L 353.926824 346.098902 
L 354.652415 343.044888 
L 355.378005 343.529526 
L 356.103596 345.014538 
L 356.829186 341.311909 
L 357.554777 339.24833 
L 358.280367 344.832533 
L 359.005958 343.232837 
L 359.731548 343.172828 
L 360.457139 342.600681 
L 361.182729 340.488185 
L 361.90832 343.154588 
L 362.63391 341.988539 
L 363.359501 344.280404 
L 364.085091 345.668513 
L 364.810682 344.503152 
L 365.536272 343.716681 
L 366.261863 344.56706 
L 366.987453 344.351662 
L 367.713044 340.153833 
L 368.438634 342.243192 
L 369.164225 343.248426 
L 369.889816 345.879039 
L 370.615406 344.373127 
L 371.340997 343.787271 
L 372.066587 343.454691 
L 372.792178 344.471665 
L 373.517768 344.910721 
L 374.243359 344.565236 
L 374.968949 343.987488 
L 375.69454 342.3279 
L 376.42013 342.864249 
L 377.145721 344.156796 
L 377.871311 342.793336 
L 378.596902 342.287242 
L 379.322492 343.240314 
L 380.048083 343.378219 
L 380.773673 344.579443 
L 381.499264 342.704018 
L 382.224854 342.988017 
L 382.950445 343.081873 
L 383.676035 342.000012 
L 384.401626 343.865084 
L 385.127216 343.304245 
L 385.852807 342.251495 
L 386.578397 343.137902 
L 387.303988 343.61316 
L 388.029578 343.804209 
L 388.755169 344.706711 
L 389.48076 344.733024 
L 390.20635 346.2521 
L 390.931941 344.482129 
L 392.383122 345.437633 
L 393.108712 344.841162 
L 393.834303 344.696467 
L 394.559893 342.351308 
L 395.285484 342.825114 
L 396.011074 344.338082 
L 396.736665 346.520871 
L 397.462255 345.018784 
L 398.187846 345.012814 
L 398.913436 344.506059 
L 399.639027 346.225714 
L 400.364617 344.383967 
L 401.090208 346.019678 
L 401.815798 346.453649 
L 402.541389 345.039089 
L 403.266979 344.554506 
L 403.99257 344.553732 
L 404.71816 345.108124 
L 405.443751 347.037042 
L 406.169341 345.112623 
L 406.894932 346.829812 
L 407.620522 345.852722 
L 408.346113 346.001822 
L 409.071703 343.90125 
L 409.797294 345.838244 
L 410.522885 346.168141 
L 411.248475 346.70896 
L 411.974066 346.983057 
L 412.699656 347.770954 
L 413.425247 347.62992 
L 414.150837 346.542434 
L 414.876428 348.251906 
L 415.602018 347.135523 
L 416.327609 347.524583 
L 417.053199 345.901725 
L 417.77879 345.966007 
L 418.50438 346.749239 
L 419.229971 346.351165 
L 419.955561 346.30212 
L 420.681152 346.660956 
L 421.406742 344.700322 
L 422.132333 345.969996 
L 422.857923 346.713112 
L 423.583514 344.586435 
L 424.309104 344.047324 
L 425.034695 345.989315 
L 425.760285 344.52375 
L 426.485876 346.529498 
L 427.211466 344.590758 
L 427.937057 343.956856 
L 428.662647 346.439632 
L 429.388238 345.853893 
L 430.113829 347.262949 
L 430.839419 344.904678 
L 432.2906 347.317918 
L 433.016191 347.380518 
L 433.741781 346.788622 
L 434.467372 348.977506 
L 435.192962 347.755455 
L 436.644143 347.252096 
L 437.369734 346.707931 
L 438.095324 347.535863 
L 438.820915 347.252701 
L 440.272096 345.047891 
L 440.997686 345.506413 
L 441.723277 344.460764 
L 442.448867 345.743449 
L 443.174458 345.825564 
L 443.900048 343.497327 
L 444.625639 345.070866 
L 445.351229 343.680949 
L 446.07682 343.814855 
L 446.80241 343.770595 
L 447.528001 344.110616 
L 448.253591 342.352795 
L 448.979182 344.257933 
L 449.704772 343.099862 
L 450.430363 343.236492 
L 451.155954 342.764873 
L 451.881544 343.734636 
L 452.607135 341.908322 
L 453.332725 343.393651 
L 454.058316 341.984127 
L 454.783906 343.139732 
L 455.509497 342.830615 
L 456.235087 342.22495 
L 456.960678 341.854452 
L 457.686268 341.720131 
L 458.411859 342.895415 
L 459.137449 339.198501 
L 459.86304 340.953453 
L 460.58863 341.598219 
L 461.314221 340.6047 
L 462.039811 341.709535 
L 462.765402 340.609227 
L 463.490992 341.785151 
L 464.216583 342.671921 
L 464.942173 341.705048 
L 465.667764 342.053335 
L 466.393354 344.675115 
L 467.118945 341.759649 
L 468.570126 342.993163 
L 469.295716 340.855685 
L 470.021307 342.316102 
L 470.746898 344.045112 
L 471.472488 344.909554 
L 472.198079 346.588852 
L 472.923669 341.744719 
L 473.64926 344.477366 
L 474.37485 342.932943 
L 475.100441 346.565136 
L 475.826031 344.047331 
L 476.551622 343.960519 
L 477.277212 347.736774 
L 478.002803 347.16719 
L 478.728393 346.005642 
L 479.453984 345.884487 
L 480.179574 345.960555 
L 480.905165 346.582273 
L 481.630755 345.641249 
L 482.356346 345.612649 
L 483.081936 344.470221 
L 483.807527 344.968478 
L 484.533117 344.609425 
L 485.258708 344.698194 
L 485.984298 343.626559 
L 486.709889 343.732152 
L 487.435479 343.345944 
L 488.16107 344.272624 
L 488.88666 344.755784 
L 489.612251 344.303029 
L 490.337841 343.291478 
L 491.063432 344.769153 
L 491.789023 343.423761 
L 492.514613 343.336888 
L 493.240204 343.710901 
L 493.965794 344.721175 
L 494.691385 343.881052 
L 495.416975 343.483515 
L 496.142566 342.899487 
L 496.868156 343.218199 
L 497.593747 342.540067 
L 498.319337 342.936344 
L 499.044928 343.732752 
L 499.770518 343.210244 
L 500.496109 342.5085 
L 501.94729 343.387631 
L 502.67288 343.284527 
L 503.398471 341.342055 
L 504.124061 343.149631 
L 504.849652 343.384534 
L 505.575242 343.260236 
L 506.300833 344.176004 
L 507.026423 343.24023 
L 507.752014 344.156583 
L 508.477604 343.399993 
L 509.203195 342.890572 
L 509.928785 343.035818 
L 510.654376 343.447181 
L 511.379967 343.102462 
L 512.105557 342.281763 
L 512.831148 343.099896 
L 513.556738 343.535571 
L 514.282329 343.243853 
L 515.007919 343.36351 
L 515.73351 342.13875 
L 516.4591 343.196512 
L 517.184691 342.171284 
L 517.910281 342.129396 
L 519.361462 343.614099 
L 520.087053 343.084314 
L 520.812643 344.422446 
L 521.538234 344.343434 
L 522.263824 343.487815 
L 522.989415 343.076453 
L 523.715005 343.654992 
L 524.440596 342.810656 
L 525.166186 343.687933 
L 525.891777 344.047538 
L 526.617367 343.147855 
L 527.342958 343.262561 
L 528.068548 343.16074 
L 528.794139 343.747439 
L 529.519729 342.09764 
L 530.24532 342.716707 
L 530.97091 344.141981 
L 531.696501 342.89403 
L 532.422092 343.10849 
L 533.147682 344.053461 
L 534.598863 342.379249 
L 535.324454 342.191071 
L 536.050044 343.392249 
L 536.775635 342.787429 
L 537.501225 342.770123 
L 538.226816 342.402126 
L 539.677997 342.476063 
L 540.403587 341.323534 
L 541.854768 342.543613 
L 542.580359 343.516779 
L 543.305949 343.050578 
L 544.03154 343.969347 
L 544.75713 343.748629 
L 545.482721 344.034073 
L 546.208311 344.680179 
L 546.933902 343.225885 
L 547.659492 343.465021 
L 548.385083 343.299959 
L 549.110673 344.055447 
L 549.836264 344.07918 
L 550.561854 344.915208 
L 551.287445 343.020165 
L 552.013036 342.338938 
L 552.738626 342.902115 
L 553.464217 343.965359 
L 554.189807 343.55387 
L 554.915398 343.638416 
L 555.640988 344.318689 
L 556.366579 345.375769 
L 557.092169 345.237383 
L 557.81776 344.484928 
L 558.54335 345.295525 
L 559.268941 344.839521 
L 559.994531 343.970848 
L 560.720122 345.208675 
L 561.445712 344.240795 
L 562.171303 343.497483 
L 562.896893 344.293659 
L 563.622484 344.06261 
L 564.348074 341.928344 
L 565.073665 343.843921 
L 565.799255 342.473226 
L 566.524846 344.825616 
L 567.250436 344.295788 
L 567.976027 344.850297 
L 568.701617 343.672245 
L 569.427208 344.222288 
L 570.152798 346.015781 
L 570.878389 343.27804 
L 571.603979 344.409337 
L 572.32957 343.960176 
L 573.055161 344.121642 
L 573.780751 342.411065 
L 574.506342 343.116299 
L 575.231932 344.730132 
L 575.957523 344.504027 
L 576.683113 342.820094 
L 577.408704 344.188078 
L 578.134294 344.478958 
L 578.859885 345.321467 
L 579.585475 345.195282 
L 580.311066 344.075093 
L 581.036656 345.107688 
L 581.762247 343.403053 
L 582.487837 343.557142 
L 583.213428 344.465174 
L 583.939018 343.488079 
L 584.664609 344.788671 
L 585.390199 344.640024 
L 586.11579 344.224391 
L 586.84138 344.092779 
L 587.566971 344.526118 
L 588.292561 344.488091 
L 589.018152 344.031046 
L 589.743742 344.549827 
L 590.469333 344.786961 
L 590.469333 344.786961 
" clip-path="url(#p24670f327c)" style="fill: none; stroke: #d97706; stroke-width: 3; stroke-linecap: square"/>
   </g>
   <g id="line2d_23">
    <path d="M 147.859117 404.945625 
L 147.859117 40.105625 
" clip-path="url(#p24670f327c)" style="fill: none; stroke-dasharray: 2,3.3; stroke-dashoffset: 0; stroke: #dc2626; stroke-width: 2"/>
   </g>
   <g id="patch_3">
    <path d="M 103.634375 404.945625 
L 103.634375 40.105625 
" style="fill: none; stroke: #212529; stroke-width: 1.4; stroke-linejoin: miter; stroke-linecap: square"/>
   </g>
   <g id="patch_4">
    <path d="M 613.65195 404.945625 
L 613.65195 40.105625 
" style="fill: none; stroke: #212529; stroke-width: 1.4; stroke-linejoin: miter; stroke-linecap: square"/>
   </g>
   <g id="patch_5">
    <path d="M 103.634375 404.945625 
L 613.65195 404.945625 
" style="fill: none; stroke: #212529; stroke-width: 1.4; stroke-linejoin: miter; stroke-linecap: square"/>
   </g>
   <g id="patch_6">
    <path d="M 103.634375 40.105625 
L 613.65195 40.105625 
" style="fill: none; stroke: #212529; stroke-width: 1.4; stroke-linejoin: miter; stroke-linecap: square"/>
   </g>
   <g id="text_9">
    <!-- Gauge div(psi) -->
    <g style="fill: #212529" transform="translate(234.41035 33.034687) scale(0.34 -0.34)">
     <defs>
      <path id="DejaVuSans-47" d="M 3809 666 
L 3809 1919 
L 2778 1919 
L 2778 2438 
L 4434 2438 
L 4434 434 
Q 4069 175 3628 42 
Q 3188 -91 2688 -91 
Q 1594 -91 976 548 
Q 359 1188 359 2328 
Q 359 3472 976 4111 
Q 1594 4750 2688 4750 
Q 3144 4750 3555 4637 
Q 3966 4525 4313 4306 
L 4313 3634 
Q 3963 3931 3569 4081 
Q 3175 4231 2741 4231 
Q 1884 4231 1454 3753 
Q 1025 3275 1025 2328 
Q 1025 1384 1454 906 
Q 1884 428 2741 428 
Q 3075 428 3337 486 
Q 3600 544 3809 666 
z
" transform="scale(0.015625)"/>
      <path id="DejaVuSans-75" d="M 544 1381 
L 544 3500 
L 1119 3500 
L 1119 1403 
Q 1119 906 1312 657 
Q 1506 409 1894 409 
Q 2359 409 2629 706 
Q 2900 1003 2900 1516 
L 2900 3500 
L 3475 3500 
L 3475 0 
L 2900 0 
L 2900 538 
Q 2691 219 2414 64 
Q 2138 -91 1772 -91 
Q 1169 -91 856 284 
Q 544 659 544 1381 
z
M 1991 3584 
L 1991 3584 
z
" transform="scale(0.015625)"/>
      <path id="DejaVuSans-67" d="M 2906 1791 
Q 2906 2416 2648 2759 
Q 2391 3103 1925 3103 
Q 1463 3103 1205 2759 
Q 947 2416 947 1791 
Q 947 1169 1205 825 
Q 1463 481 1925 481 
Q 2391 481 2648 825 
Q 2906 1169 2906 1791 
z
M 3481 434 
Q 3481 -459 3084 -895 
Q 2688 -1331 1869 -1331 
Q 1566 -1331 1297 -1286 
Q 1028 -1241 775 -1147 
L 775 -588 
Q 1028 -725 1275 -790 
Q 1522 -856 1778 -856 
Q 2344 -856 2625 -561 
Q 2906 -266 2906 331 
L 2906 616 
Q 2728 306 2450 153 
Q 2172 0 1784 0 
Q 1141 0 747 490 
Q 353 981 353 1791 
Q 353 2603 747 3093 
Q 1141 3584 1784 3584 
Q 2172 3584 2450 3431 
Q 2728 3278 2906 2969 
L 2906 3500 
L 3481 3500 
L 3481 434 
z
" transform="scale(0.015625)"/>
      <path id="DejaVuSans-76" d="M 191 3500 
L 800 3500 
L 1894 563 
L 2988 3500 
L 3597 3500 
L 2284 0 
L 1503 0 
L 191 3500 
z
" transform="scale(0.015625)"/>
     </defs>
     <use xlink:href="#DejaVuSans-47"/>
     <use xlink:href="#DejaVuSans-61" x="77.490234"/>
     <use xlink:href="#DejaVuSans-75" x="138.769531"/>
     <use xlink:href="#DejaVuSans-67" x="202.148438"/>
     <use xlink:href="#DejaVuSans-65" x="265.625"/>
     <use xlink:href="#DejaVuSans-20" x="327.148438"/>
     <use xlink:href="#DejaVuSans-64" x="358.935547"/>
     <use xlink:href="#DejaVuSans-69" x="422.412109"/>
     <use xlink:href="#DejaVuSans-76" x="450.195312"/>
     <use xlink:href="#DejaVuSans-28" x="509.375"/>
     <use xlink:href="#DejaVuSans-70" x="548.388672"/>
     <use xlink:href="#DejaVuSans-73" x="611.865234"/>
     <use xlink:href="#DejaVuSans-69" x="663.964844"/>
     <use xlink:href="#DejaVuSans-29" x="691.748047"/>
    </g>
   </g>
   <g id="legend_1">
    <g id="line2d_24">
     <path d="M 397.80945 71.541875 
L 421.80945 71.541875 
L 445.80945 71.541875 
" style="fill: none; stroke: #2563eb; stroke-width: 3; stroke-linecap: square"/>
    </g>
    <g id="text_10">
     <!-- Train -->
     <g transform="translate(465.00945 79.941875) scale(0.24 -0.24)">
      <defs>
       <path id="DejaVuSans-54" d="M -19 4666 
L 3928 4666 
L 3928 4134 
L 2272 4134 
L 2272 0 
L 1638 0 
L 1638 4134 
L -19 4134 
L -19 4666 
z
" transform="scale(0.015625)"/>
      </defs>
      <use xlink:href="#DejaVuSans-54"/>
      <use xlink:href="#DejaVuSans-72" x="46.333984"/>
      <use xlink:href="#DejaVuSans-61" x="87.447266"/>
      <use xlink:href="#DejaVuSans-69" x="148.726562"/>
      <use xlink:href="#DejaVuSans-6e" x="176.509766"/>
     </g>
    </g>
    <g id="line2d_25">
     <path d="M 397.80945 106.769375 
L 421.80945 106.769375 
L 445.80945 106.769375 
" style="fill: none; stroke: #d97706; stroke-width: 3; stroke-linecap: square"/>
    </g>
    <g id="text_11">
     <!-- Validation -->
     <g transform="translate(465.00945 115.169375) scale(0.24 -0.24)">
      <defs>
       <path id="DejaVuSans-56" d="M 1831 0 
L 50 4666 
L 709 4666 
L 2188 738 
L 3669 4666 
L 4325 4666 
L 2547 0 
L 1831 0 
z
" transform="scale(0.015625)"/>
       <path id="DejaVuSans-6c" d="M 603 4863 
L 1178 4863 
L 1178 0 
L 603 0 
L 603 4863 
z
" transform="scale(0.015625)"/>
      </defs>
      <use xlink:href="#DejaVuSans-56"/>
      <use xlink:href="#DejaVuSans-61" x="60.658203"/>
      <use xlink:href="#DejaVuSans-6c" x="121.9375"/>
      <use xlink:href="#DejaVuSans-69" x="149.720703"/>
      <use xlink:href="#DejaVuSans-64" x="177.503906"/>
      <use xlink:href="#DejaVuSans-61" x="240.980469"/>
      <use xlink:href="#DejaVuSans-74" x="302.259766"/>
      <use xlink:href="#DejaVuSans-69" x="341.46875"/>
      <use xlink:href="#DejaVuSans-6f" x="369.251953"/>
      <use xlink:href="#DejaVuSans-6e" x="430.433594"/>
     </g>
    </g>
    <g id="line2d_26">
     <path d="M 397.80945 141.996875 
L 421.80945 141.996875 
L 445.80945 141.996875 
" style="fill: none; stroke-dasharray: 2,3.3; stroke-dashoffset: 0; stroke: #dc2626; stroke-width: 2"/>
    </g>
    <g id="text_12">
     <!-- physics on -->
     <g transform="translate(465.00945 150.396875) scale(0.24 -0.24)">
      <defs>
       <path id="DejaVuSans-79" d="M 2059 -325 
Q 1816 -950 1584 -1140 
Q 1353 -1331 966 -1331 
L 506 -1331 
L 506 -850 
L 844 -850 
Q 1081 -850 1212 -737 
Q 1344 -625 1503 -206 
L 1606 56 
L 191 3500 
L 800 3500 
L 1894 763 
L 2988 3500 
L 3597 3500 
L 2059 -325 
z
" transform="scale(0.015625)"/>
      </defs>
      <use xlink:href="#DejaVuSans-70"/>
      <use xlink:href="#DejaVuSans-68" x="63.476562"/>
      <use xlink:href="#DejaVuSans-79" x="126.855469"/>
      <use xlink:href="#DejaVuSans-73" x="186.035156"/>
      <use xlink:href="#DejaVuSans-69" x="238.134766"/>
      <use xlink:href="#DejaVuSans-63" x="265.917969"/>
      <use xlink:href="#DejaVuSans-73" x="320.898438"/>
      <use xlink:href="#DejaVuSans-20" x="372.998047"/>
      <use xlink:href="#DejaVuSans-6f" x="404.785156"/>
      <use xlink:href="#DejaVuSans-6e" x="465.966797"/>
     </g>
    </g>
   </g>
  </g>
 </g>
 <defs>
  <clipPath id="p24670f327c">
   <rect x="103.634375" y="40.105625" width="510.017575" height="364.84"/>
  </clipPath>
 </defs>
</svg>
