<?xml version="1.0" encoding="utf-8" standalone="no"?>
<!DOCTYPE svg PUBLIC "-//W3C//DTD SVG 1.1//EN"
  "http://www.w3.org/Graphics/SVG/1.1/DTD/svg11.dtd">
<svg xmlns:xlink="http://www.w3.org/1999/xlink" width="620.85195pt" height="475.4075pt" viewBox="0 0 620.85195 475.4075" xmlns="http://www.w3.org/2000/svg" version="1.1">
 <metadata>
  <rdf:RDF xmlns:dc="http://purl.org/dc/elements/1.1/" xmlns:cc="http://creativecommons.org/ns#" xmlns:rdf="http://www.w3.org/1999/02/22-rdf-syntax-ns#">
   <cc:Work>
    <dc:type rdf:resource="http://purl.org/dc/dcmitype/StillImage"/>
    <dc:date>2026-06-21T05:01:41.910315</dc:date>
    <dc:format>image/svg+xml</dc:format>
    <dc:creator>
     <cc:Agent>
      <dc:title>Matplotlib v3.8.0, https://matplotlib.org/</dc:title>
     </cc:Agent>
    </dc:creator>
   </cc:Work>
  </rdf:RDF>
 </metadata>
 <defs>
  <style type="text/css">*{stroke-linejoin: round; stroke-linecap: butt}</style>
 </defs>
 <g id="figure_1">
  <g id="patch_1">
   <path d="M 0 475.4075 
L 620.85195 475.4075 
L 620.85195 0 
L 0 0 
z
" style="fill: #ffffff"/>
  </g>
  <g id="axes_1">
   <g id="patch_2">
    <path d="M 103.634375 404.945625 
L 613.65195 404.945625 
L 613.65195 40.105625 
L 103.634375 40.105625 
z
" style="fill: #ffffff"/>
   </g>
   <g id="matplotlib.axis_1">
    <g id="xtick_1">
     <g id="line2d_1">
      <defs>
       <path id="m34c59c0009" d="M 0 0 
L 0 3.5 
" style="stroke: #212529; stroke-width: 0.8"/>
      </defs>
      <g>
       <use xlink:href="#m34c59c0009" x="126.091402" y="404.945625" style="fill: #212529; stroke: #212529; stroke-width: 0.8"/>
      </g>
     </g>
     <g id="text_1">
      <!-- 0 -->
      <g style="fill: #212529" transform="translate(118.456402 430.181875) scale(0.24 -0.24)">
       <defs>
        <path id="DejaVuSans-30" d="M 2034 4250 
Q 1547 4250 1301 3770 
Q 1056 3291 1056 2328 
Q 1056 1369 1301 889 
Q 1547 409 2034 409 
Q 2525 409 2770 889 
Q 3016 1369 3016 2328 
Q 3016 3291 2770 3770 
Q 2525 4250 2034 4250 
z
M 2034 4750 
Q 2819 4750 3233 4129 
Q 3647 3509 3647 2328 
Q 3647 1150 3233 529 
Q 2819 -91 2034 -91 
Q 1250 -91 836 529 
Q 422 1150 422 2328 
Q 422 3509 836 4129 
Q 1250 4750 2034 4750 
z
" transform="scale(0.015625)"/>
       </defs>
       <use xlink:href="#DejaVuSans-30"/>
      </g>
     </g>
    </g>
    <g id="xtick_2">
     <g id="line2d_2">
      <g>
       <use xlink:href="#m34c59c0009" x="271.209505" y="404.945625" style="fill: #212529; stroke: #212529; stroke-width: 0.8"/>
      </g>
     </g>
     <g id="text_2">
      <!-- 200 -->
      <g style="fill: #212529" transform="translate(248.304505 430.181875) scale(0.24 -0.24)">
       <defs>
        <path id="DejaVuSans-32" d="M 1228 531 
L 3431 531 
L 3431 0 
L 469 0 
L 469 531 
Q 828 903 1448 1529 
Q 2069 2156 2228 2338 
Q 2531 2678 2651 2914 
Q 2772 3150 2772 3378 
Q 2772 3750 2511 3984 
Q 2250 4219 1831 4219 
Q 1534 4219 1204 4116 
Q 875 4013 500 3803 
L 500 4441 
Q 881 4594 1212 4672 
Q 1544 4750 1819 4750 
Q 2544 4750 2975 4387 
Q 3406 4025 3406 3419 
Q 3406 3131 3298 2873 
Q 3191 2616 2906 2266 
Q 2828 2175 2409 1742 
Q 1991 1309 1228 531 
z
" transform="scale(0.015625)"/>
       </defs>
       <use xlink:href="#DejaVuSans-32"/>
       <use xlink:href="#DejaVuSans-30" x="63.623047"/>
       <use xlink:href="#DejaVuSans-30" x="127.246094"/>
      </g>
     </g>
    </g>
    <g id="xtick_3">
     <g id="line2d_3">
      <g>
       <use xlink:href="#m34c59c0009" x="416.327609" y="404.945625" style="fill: #212529; stroke: #212529; stroke-width: 0.8"/>
      </g>
     </g>
     <g id="text_3">
      <!-- 400 -->
      <g style="fill: #212529" transform="translate(393.422609 430.181875) scale(0.24 -0.24)">
       <defs>
        <path id="DejaVuSans-34" d="M 2419 4116 
L 825 1625 
L 2419 1625 
L 2419 4116 
z
M 2253 4666 
L 3047 4666 
L 3047 1625 
L 3713 1625 
L 3713 1100 
L 3047 1100 
L 3047 0 
L 2419 0 
L 2419 1100 
L 313 1100 
L 313 1709 
L 2253 4666 
z
" transform="scale(0.015625)"/>
       </defs>
       <use xlink:href="#DejaVuSans-34"/>
       <use xlink:href="#DejaVuSans-30" x="63.623047"/>
       <use xlink:href="#DejaVuSans-30" x="127.246094"/>
      </g>
     </g>
    </g>
    <g id="xtick_4">
     <g id="line2d_4">
      <g>
       <use xlink:href="#m34c59c0009" x="561.445712" y="404.945625" style="fill: #212529; stroke: #212529; stroke-width: 0.8"/>
      </g>
     </g>
     <g id="text_4">
      <!-- 600 -->
      <g style="fill: #212529" transform="translate(538.540712 430.181875) scale(0.24 -0.24)">
       <defs>
        <path id="DejaVuSans-36" d="M 2113 2584 
Q 1688 2584 1439 2293 
Q 1191 2003 1191 1497 
Q 1191 994 1439 701 
Q 1688 409 2113 409 
Q 2538 409 2786 701 
Q 3034 994 3034 1497 
Q 3034 2003 2786 2293 
Q 2538 2584 2113 2584 
z
M 3366 4563 
L 3366 3988 
Q 3128 4100 2886 4159 
Q 2644 4219 2406 4219 
Q 1781 4219 1451 3797 
Q 1122 3375 1075 2522 
Q 1259 2794 1537 2939 
Q 1816 3084 2150 3084 
Q 2853 3084 3261 2657 
Q 3669 2231 3669 1497 
Q 3669 778 3244 343 
Q 2819 -91 2113 -91 
Q 1303 -91 875 529 
Q 447 1150 447 2328 
Q 447 3434 972 4092 
Q 1497 4750 2381 4750 
Q 2619 4750 2861 4703 
Q 3103 4656 3366 4563 
z
" transform="scale(0.015625)"/>
       </defs>
       <use xlink:href="#DejaVuSans-36"/>
       <use xlink:href="#DejaVuSans-30" x="63.623047"/>
       <use xlink:href="#DejaVuSans-30" x="127.246094"/>
      </g>
     </g>
    </g>
    <g id="text_5">
     <!-- Epoch -->
     <g style="fill: #212529" transform="translate(312.71035 461.968438) scale(0.3 -0.3)">
      <defs>
       <path id="DejaVuSans-45" d="M 628 4666 
L 3578 4666 
L 3578 4134 
L 1259 4134 
L 1259 2753 
L 3481 2753 
L 3481 2222 
L 1259 2222 
L 1259 531 
L 3634 531 
L 3634 0 
L 628 0 
L 628 4666 
z
" transform="scale(0.015625)"/>
       <path id="DejaVuSans-70" d="M 1159 525 
L 1159 -1331 
L 581 -1331 
L 581 3500 
L 1159 3500 
L 1159 2969 
Q 1341 3281 1617 3432 
Q 1894 3584 2278 3584 
Q 2916 3584 3314 3078 
Q 3713 2572 3713 1747 
Q 3713 922 3314 415 
Q 2916 -91 2278 -91 
Q 1894 -91 1617 61 
Q 1341 213 1159 525 
z
M 3116 1747 
Q 3116 2381 2855 2742 
Q 2594 3103 2138 3103 
Q 1681 3103 1420 2742 
Q 1159 2381 1159 1747 
Q 1159 1113 1420 752 
Q 1681 391 2138 391 
Q 2594 391 2855 752 
Q 3116 1113 3116 1747 
z
" transform="scale(0.015625)"/>
       <path id="DejaVuSans-6f" d="M 1959 3097 
Q 1497 3097 1228 2736 
Q 959 2375 959 1747 
Q 959 1119 1226 758 
Q 1494 397 1959 397 
Q 2419 397 2687 759 
Q 2956 1122 2956 1747 
Q 2956 2369 2687 2733 
Q 2419 3097 1959 3097 
z
M 1959 3584 
Q 2709 3584 3137 3096 
Q 3566 2609 3566 1747 
Q 3566 888 3137 398 
Q 2709 -91 1959 -91 
Q 1206 -91 779 398 
Q 353 888 353 1747 
Q 353 2609 779 3096 
Q 1206 3584 1959 3584 
z
" transform="scale(0.015625)"/>
       <path id="DejaVuSans-63" d="M 3122 3366 
L 3122 2828 
Q 2878 2963 2633 3030 
Q 2388 3097 2138 3097 
Q 1578 3097 1268 2742 
Q 959 2388 959 1747 
Q 959 1106 1268 751 
Q 1578 397 2138 397 
Q 2388 397 2633 464 
Q 2878 531 3122 666 
L 3122 134 
Q 2881 22 2623 -34 
Q 2366 -91 2075 -91 
Q 1284 -91 818 406 
Q 353 903 353 1747 
Q 353 2603 823 3093 
Q 1294 3584 2113 3584 
Q 2378 3584 2631 3529 
Q 2884 3475 3122 3366 
z
" transform="scale(0.015625)"/>
       <path id="DejaVuSans-68" d="M 3513 2113 
L 3513 0 
L 2938 0 
L 2938 2094 
Q 2938 2591 2744 2837 
Q 2550 3084 2163 3084 
Q 1697 3084 1428 2787 
Q 1159 2491 1159 1978 
L 1159 0 
L 581 0 
L 581 4863 
L 1159 4863 
L 1159 2956 
Q 1366 3272 1645 3428 
Q 1925 3584 2291 3584 
Q 2894 3584 3203 3211 
Q 3513 2838 3513 2113 
z
" transform="scale(0.015625)"/>
      </defs>
      <use xlink:href="#DejaVuSans-45"/>
      <use xlink:href="#DejaVuSans-70" x="63.183594"/>
      <use xlink:href="#DejaVuSans-6f" x="126.660156"/>
      <use xlink:href="#DejaVuSans-63" x="187.841797"/>
      <use xlink:href="#DejaVuSans-68" x="242.822266"/>
     </g>
    </g>
   </g>
   <g id="matplotlib.axis_2">
    <g id="ytick_1">
     <g id="line2d_5">
      <defs>
       <path id="m18c37929c1" d="M 0 0 
L -3.5 0 
" style="stroke: #212529; stroke-width: 0.8"/>
      </defs>
      <g>
       <use xlink:href="#m18c37929c1" x="103.634375" y="335.615227" style="fill: #212529; stroke: #212529; stroke-width: 0.8"/>
      </g>
     </g>
     <g id="text_6">
      <!-- $\mathdefault{10^{-2}}$ -->
      <g style="fill: #212529" transform="translate(40.234375 344.733352) scale(0.24 -0.24)">
       <defs>
        <path id="DejaVuSans-31" d="M 794 531 
L 1825 531 
L 1825 4091 
L 703 3866 
L 703 4441 
L 1819 4666 
L 2450 4666 
L 2450 531 
L 3481 531 
L 3481 0 
L 794 0 
L 794 531 
z
" transform="scale(0.015625)"/>
        <path id="DejaVuSans-2212" d="M 678 2272 
L 4684 2272 
L 4684 1741 
L 678 1741 
L 678 2272 
z
" transform="scale(0.015625)"/>
       </defs>
       <use xlink:href="#DejaVuSans-31" transform="translate(0 0.765625)"/>
       <use xlink:href="#DejaVuSans-30" transform="translate(63.623047 0.765625)"/>
       <use xlink:href="#DejaVuSans-2212" transform="translate(128.203125 39.046875) scale(0.7)"/>
       <use xlink:href="#DejaVuSans-32" transform="translate(186.855469 39.046875) scale(0.7)"/>
      </g>
     </g>
    </g>
    <g id="ytick_2">
     <g id="line2d_6">
      <g>
       <use xlink:href="#m18c37929c1" x="103.634375" y="178.21078" style="fill: #212529; stroke: #212529; stroke-width: 0.8"/>
      </g>
     </g>
     <g id="text_7">
      <!-- $\mathdefault{10^{-1}}$ -->
      <g style="fill: #212529" transform="translate(40.234375 187.328905) scale(0.24 -0.24)">
       <use xlink:href="#DejaVuSans-31" transform="translate(0 0.684375)"/>
       <use xlink:href="#DejaVuSans-30" transform="translate(63.623047 0.684375)"/>
       <use xlink:href="#DejaVuSans-2212" transform="translate(128.203125 38.965625) scale(0.7)"/>
       <use xlink:href="#DejaVuSans-31" transform="translate(186.855469 38.965625) scale(0.7)"/>
      </g>
     </g>
    </g>
    <g id="ytick_3">
     <g id="line2d_7">
      <defs>
       <path id="meb2ee31787" d="M 0 0 
L -2 0 
" style="stroke: #212529; stroke-width: 0.6"/>
      </defs>
      <g>
       <use xlink:href="#meb2ee31787" x="103.634375" y="398.252754" style="fill: #212529; stroke: #212529; stroke-width: 0.6"/>
      </g>
     </g>
    </g>
    <g id="ytick_4">
     <g id="line2d_8">
      <g>
       <use xlink:href="#meb2ee31787" x="103.634375" y="382.998687" style="fill: #212529; stroke: #212529; stroke-width: 0.6"/>
      </g>
     </g>
    </g>
    <g id="ytick_5">
     <g id="line2d_9">
      <g>
       <use xlink:href="#meb2ee31787" x="103.634375" y="370.535206" style="fill: #212529; stroke: #212529; stroke-width: 0.6"/>
      </g>
     </g>
    </g>
    <g id="ytick_6">
     <g id="line2d_10">
      <g>
       <use xlink:href="#meb2ee31787" x="103.634375" y="359.997484" style="fill: #212529; stroke: #212529; stroke-width: 0.6"/>
      </g>
     </g>
    </g>
    <g id="ytick_7">
     <g id="line2d_11">
      <g>
       <use xlink:href="#meb2ee31787" x="103.634375" y="350.869294" style="fill: #212529; stroke: #212529; stroke-width: 0.6"/>
      </g>
     </g>
    </g>
    <g id="ytick_8">
     <g id="line2d_12">
      <g>
       <use xlink:href="#meb2ee31787" x="103.634375" y="342.817659" style="fill: #212529; stroke: #212529; stroke-width: 0.6"/>
      </g>
     </g>
    </g>
    <g id="ytick_9">
     <g id="line2d_13">
      <g>
       <use xlink:href="#meb2ee31787" x="103.634375" y="288.231767" style="fill: #212529; stroke: #212529; stroke-width: 0.6"/>
      </g>
     </g>
    </g>
    <g id="ytick_10">
     <g id="line2d_14">
      <g>
       <use xlink:href="#meb2ee31787" x="103.634375" y="260.51422" style="fill: #212529; stroke: #212529; stroke-width: 0.6"/>
      </g>
     </g>
    </g>
    <g id="ytick_11">
     <g id="line2d_15">
      <g>
       <use xlink:href="#meb2ee31787" x="103.634375" y="240.848307" style="fill: #212529; stroke: #212529; stroke-width: 0.6"/>
      </g>
     </g>
    </g>
    <g id="ytick_12">
     <g id="line2d_16">
      <g>
       <use xlink:href="#meb2ee31787" x="103.634375" y="225.59424" style="fill: #212529; stroke: #212529; stroke-width: 0.6"/>
      </g>
     </g>
    </g>
    <g id="ytick_13">
     <g id="line2d_17">
      <g>
       <use xlink:href="#meb2ee31787" x="103.634375" y="213.13076" style="fill: #212529; stroke: #212529; stroke-width: 0.6"/>
      </g>
     </g>
    </g>
    <g id="ytick_14">
     <g id="line2d_18">
      <g>
       <use xlink:href="#meb2ee31787" x="103.634375" y="202.593037" style="fill: #212529; stroke: #212529; stroke-width: 0.6"/>
      </g>
     </g>
    </g>
    <g id="ytick_15">
     <g id="line2d_19">
      <g>
       <use xlink:href="#meb2ee31787" x="103.634375" y="193.464847" style="fill: #212529; stroke: #212529; stroke-width: 0.6"/>
      </g>
     </g>
    </g>
    <g id="ytick_16">
     <g id="line2d_20">
      <g>
       <use xlink:href="#meb2ee31787" x="103.634375" y="185.413212" style="fill: #212529; stroke: #212529; stroke-width: 0.6"/>
      </g>
     </g>
    </g>
    <g id="ytick_17">
     <g id="line2d_21">
      <g>
       <use xlink:href="#meb2ee31787" x="103.634375" y="130.82732" style="fill: #212529; stroke: #212529; stroke-width: 0.6"/>
      </g>
     </g>
    </g>
    <g id="ytick_18">
     <g id="line2d_22">
      <g>
       <use xlink:href="#meb2ee31787" x="103.634375" y="103.109773" style="fill: #212529; stroke: #212529; stroke-width: 0.6"/>
      </g>
     </g>
    </g>
    <g id="ytick_19">
     <g id="line2d_23">
      <g>
       <use xlink:href="#meb2ee31787" x="103.634375" y="83.44386" style="fill: #212529; stroke: #212529; stroke-width: 0.6"/>
      </g>
     </g>
    </g>
    <g id="ytick_20">
     <g id="line2d_24">
      <g>
       <use xlink:href="#meb2ee31787" x="103.634375" y="68.189793" style="fill: #212529; stroke: #212529; stroke-width: 0.6"/>
      </g>
     </g>
    </g>
    <g id="ytick_21">
     <g id="line2d_25">
      <g>
       <use xlink:href="#meb2ee31787" x="103.634375" y="55.726313" style="fill: #212529; stroke: #212529; stroke-width: 0.6"/>
      </g>
     </g>
    </g>
    <g id="ytick_22">
     <g id="line2d_26">
      <g>
       <use xlink:href="#meb2ee31787" x="103.634375" y="45.188591" style="fill: #212529; stroke: #212529; stroke-width: 0.6"/>
      </g>
     </g>
    </g>
    <g id="text_8">
     <!-- MSE (standardized) -->
     <g style="fill: #212529" transform="translate(29.995312 368.267031) rotate(-90) scale(0.3 -0.3)">
      <defs>
       <path id="DejaVuSans-4d" d="M 628 4666 
L 1569 4666 
L 2759 1491 
L 3956 4666 
L 4897 4666 
L 4897 0 
L 4281 0 
L 4281 4097 
L 3078 897 
L 2444 897 
L 1241 4097 
L 1241 0 
L 628 0 
L 628 4666 
z
" transform="scale(0.015625)"/>
       <path id="DejaVuSans-53" d="M 3425 4513 
L 3425 3897 
Q 3066 4069 2747 4153 
Q 2428 4238 2131 4238 
Q 1616 4238 1336 4038 
Q 1056 3838 1056 3469 
Q 1056 3159 1242 3001 
Q 1428 2844 1947 2747 
L 2328 2669 
Q 3034 2534 3370 2195 
Q 3706 1856 3706 1288 
Q 3706 609 3251 259 
Q 2797 -91 1919 -91 
Q 1588 -91 1214 -16 
Q 841 59 441 206 
L 441 856 
Q 825 641 1194 531 
Q 1563 422 1919 422 
Q 2459 422 2753 634 
Q 3047 847 3047 1241 
Q 3047 1584 2836 1778 
Q 2625 1972 2144 2069 
L 1759 2144 
Q 1053 2284 737 2584 
Q 422 2884 422 3419 
Q 422 4038 858 4394 
Q 1294 4750 2059 4750 
Q 2388 4750 2728 4690 
Q 3069 4631 3425 4513 
z
" transform="scale(0.015625)"/>
       <path id="DejaVuSans-20" transform="scale(0.015625)"/>
       <path id="DejaVuSans-28" d="M 1984 4856 
Q 1566 4138 1362 3434 
Q 1159 2731 1159 2009 
Q 1159 1288 1364 580 
Q 1569 -128 1984 -844 
L 1484 -844 
Q 1016 -109 783 600 
Q 550 1309 550 2009 
Q 550 2706 781 3412 
Q 1013 4119 1484 4856 
L 1984 4856 
z
" transform="scale(0.015625)"/>
       <path id="DejaVuSans-73" d="M 2834 3397 
L 2834 2853 
Q 2591 2978 2328 3040 
Q 2066 3103 1784 3103 
Q 1356 3103 1142 2972 
Q 928 2841 928 2578 
Q 928 2378 1081 2264 
Q 1234 2150 1697 2047 
L 1894 2003 
Q 2506 1872 2764 1633 
Q 3022 1394 3022 966 
Q 3022 478 2636 193 
Q 2250 -91 1575 -91 
Q 1294 -91 989 -36 
Q 684 19 347 128 
L 347 722 
Q 666 556 975 473 
Q 1284 391 1588 391 
Q 1994 391 2212 530 
Q 2431 669 2431 922 
Q 2431 1156 2273 1281 
Q 2116 1406 1581 1522 
L 1381 1569 
Q 847 1681 609 1914 
Q 372 2147 372 2553 
Q 372 3047 722 3315 
Q 1072 3584 1716 3584 
Q 2034 3584 2315 3537 
Q 2597 3491 2834 3397 
z
" transform="scale(0.015625)"/>
       <path id="DejaVuSans-74" d="M 1172 4494 
L 1172 3500 
L 2356 3500 
L 2356 3053 
L 1172 3053 
L 1172 1153 
Q 1172 725 1289 603 
Q 1406 481 1766 481 
L 2356 481 
L 2356 0 
L 1766 0 
Q 1100 0 847 248 
Q 594 497 594 1153 
L 594 3053 
L 172 3053 
L 172 3500 
L 594 3500 
L 594 4494 
L 1172 4494 
z
" transform="scale(0.015625)"/>
       <path id="DejaVuSans-61" d="M 2194 1759 
Q 1497 1759 1228 1600 
Q 959 1441 959 1056 
Q 959 750 1161 570 
Q 1363 391 1709 391 
Q 2188 391 2477 730 
Q 2766 1069 2766 1631 
L 2766 1759 
L 2194 1759 
z
M 3341 1997 
L 3341 0 
L 2766 0 
L 2766 531 
Q 2569 213 2275 61 
Q 1981 -91 1556 -91 
Q 1019 -91 701 211 
Q 384 513 384 1019 
Q 384 1609 779 1909 
Q 1175 2209 1959 2209 
L 2766 2209 
L 2766 2266 
Q 2766 2663 2505 2880 
Q 2244 3097 1772 3097 
Q 1472 3097 1187 3025 
Q 903 2953 641 2809 
L 641 3341 
Q 956 3463 1253 3523 
Q 1550 3584 1831 3584 
Q 2591 3584 2966 3190 
Q 3341 2797 3341 1997 
z
" transform="scale(0.015625)"/>
       <path id="DejaVuSans-6e" d="M 3513 2113 
L 3513 0 
L 2938 0 
L 2938 2094 
Q 2938 2591 2744 2837 
Q 2550 3084 2163 3084 
Q 1697 3084 1428 2787 
Q 1159 2491 1159 1978 
L 1159 0 
L 581 0 
L 581 3500 
L 1159 3500 
L 1159 2956 
Q 1366 3272 1645 3428 
Q 1925 3584 2291 3584 
Q 2894 3584 3203 3211 
Q 3513 2838 3513 2113 
z
" transform="scale(0.015625)"/>
       <path id="DejaVuSans-64" d="M 2906 2969 
L 2906 4863 
L 3481 4863 
L 3481 0 
L 2906 0 
L 2906 525 
Q 2725 213 2448 61 
Q 2172 -91 1784 -91 
Q 1150 -91 751 415 
Q 353 922 353 1747 
Q 353 2572 751 3078 
Q 1150 3584 1784 3584 
Q 2172 3584 2448 3432 
Q 2725 3281 2906 2969 
z
M 947 1747 
Q 947 1113 1208 752 
Q 1469 391 1925 391 
Q 2381 391 2643 752 
Q 2906 1113 2906 1747 
Q 2906 2381 2643 2742 
Q 2381 3103 1925 3103 
Q 1469 3103 1208 2742 
Q 947 2381 947 1747 
z
" transform="scale(0.015625)"/>
       <path id="DejaVuSans-72" d="M 2631 2963 
Q 2534 3019 2420 3045 
Q 2306 3072 2169 3072 
Q 1681 3072 1420 2755 
Q 1159 2438 1159 1844 
L 1159 0 
L 581 0 
L 581 3500 
L 1159 3500 
L 1159 2956 
Q 1341 3275 1631 3429 
Q 1922 3584 2338 3584 
Q 2397 3584 2469 3576 
Q 2541 3569 2628 3553 
L 2631 2963 
z
" transform="scale(0.015625)"/>
       <path id="DejaVuSans-69" d="M 603 3500 
L 1178 3500 
L 1178 0 
L 603 0 
L 603 3500 
z
M 603 4863 
L 1178 4863 
L 1178 4134 
L 603 4134 
L 603 4863 
z
" transform="scale(0.015625)"/>
       <path id="DejaVuSans-7a" d="M 353 3500 
L 3084 3500 
L 3084 2975 
L 922 459 
L 3084 459 
L 3084 0 
L 275 0 
L 275 525 
L 2438 3041 
L 353 3041 
L 353 3500 
z
" transform="scale(0.015625)"/>
       <path id="DejaVuSans-65" d="M 3597 1894 
L 3597 1613 
L 953 1613 
Q 991 1019 1311 708 
Q 1631 397 2203 397 
Q 2534 397 2845 478 
Q 3156 559 3463 722 
L 3463 178 
Q 3153 47 2828 -22 
Q 2503 -91 2169 -91 
Q 1331 -91 842 396 
Q 353 884 353 1716 
Q 353 2575 817 3079 
Q 1281 3584 2069 3584 
Q 2775 3584 3186 3129 
Q 3597 2675 3597 1894 
z
M 3022 2063 
Q 3016 2534 2758 2815 
Q 2500 3097 2075 3097 
Q 1594 3097 1305 2825 
Q 1016 2553 972 2059 
L 3022 2063 
z
" transform="scale(0.015625)"/>
       <path id="DejaVuSans-29" d="M 513 4856 
L 1013 4856 
Q 1481 4119 1714 3412 
Q 1947 2706 1947 2009 
Q 1947 1309 1714 600 
Q 1481 -109 1013 -844 
L 513 -844 
Q 928 -128 1133 580 
Q 1338 1288 1338 2009 
Q 1338 2731 1133 3434 
Q 928 4138 513 4856 
z
" transform="scale(0.015625)"/>
      </defs>
      <use xlink:href="#DejaVuSans-4d"/>
      <use xlink:href="#DejaVuSans-53" x="86.279297"/>
      <use xlink:href="#DejaVuSans-45" x="149.755859"/>
      <use xlink:href="#DejaVuSans-20" x="212.939453"/>
      <use xlink:href="#DejaVuSans-28" x="244.726562"/>
      <use xlink:href="#DejaVuSans-73" x="283.740234"/>
      <use xlink:href="#DejaVuSans-74" x="335.839844"/>
      <use xlink:href="#DejaVuSans-61" x="375.048828"/>
      <use xlink:href="#DejaVuSans-6e" x="436.328125"/>
      <use xlink:href="#DejaVuSans-64" x="499.707031"/>
      <use xlink:href="#DejaVuSans-61" x="563.183594"/>
      <use xlink:href="#DejaVuSans-72" x="624.462891"/>
      <use xlink:href="#DejaVuSans-64" x="663.826172"/>
      <use xlink:href="#DejaVuSans-69" x="727.302734"/>
      <use xlink:href="#DejaVuSans-7a" x="755.085938"/>
      <use xlink:href="#DejaVuSans-65" x="807.576172"/>
      <use xlink:href="#DejaVuSans-64" x="869.099609"/>
      <use xlink:href="#DejaVuSans-29" x="932.576172"/>
     </g>
    </g>
   </g>
   <g id="line2d_27">
    <path d="M 126.816992 56.689261 
L 127.542583 136.239721 
L 128.268173 180.118274 
L 128.993764 209.61572 
L 129.719354 234.528535 
L 130.444945 253.91524 
L 131.170535 268.832746 
L 132.621716 290.873858 
L 134.798488 311.881554 
L 136.249669 321.840764 
L 137.70085 330.235226 
L 138.42644 333.519999 
L 139.152031 336.109864 
L 139.877621 340.090755 
L 141.328802 344.375108 
L 142.054393 347.664161 
L 142.779983 348.844262 
L 143.505574 351.686955 
L 144.231164 353.394445 
L 144.956755 354.456224 
L 145.682346 357.261037 
L 146.407936 357.872178 
L 147.133527 360.942435 
L 147.859117 360.624057 
L 148.584708 275.446172 
L 149.310298 275.667967 
L 150.035889 274.923625 
L 150.761479 271.555253 
L 151.48707 265.275247 
L 152.938251 262.835359 
L 153.663841 261.497501 
L 154.389432 259.792476 
L 155.115022 256.711715 
L 155.840613 256.238512 
L 156.566203 257.826743 
L 157.291794 257.620299 
L 158.017384 258.261137 
L 158.742975 258.011195 
L 159.468565 262.221265 
L 160.194156 267.399745 
L 160.919746 267.755096 
L 161.645337 268.46033 
L 162.370927 267.86005 
L 163.096518 265.939183 
L 163.822108 269.605157 
L 164.547699 266.597674 
L 165.273289 271.709334 
L 165.99888 266.923485 
L 166.724471 270.002991 
L 167.450061 268.58168 
L 168.175652 269.198701 
L 168.901242 269.553968 
L 169.626833 273.805843 
L 170.352423 271.506773 
L 171.078014 271.976445 
L 171.803604 274.503506 
L 172.529195 274.976447 
L 173.980376 280.753741 
L 174.705966 281.378422 
L 175.431557 278.041855 
L 176.157147 278.400548 
L 176.882738 281.274901 
L 177.608328 279.122431 
L 178.333919 278.945754 
L 179.059509 278.921326 
L 179.7851 281.199013 
L 180.51069 279.7445 
L 181.236281 278.69111 
L 181.961871 280.554121 
L 182.687462 280.652226 
L 183.413052 282.902812 
L 184.138643 282.163933 
L 184.864233 280.673785 
L 185.589824 283.402544 
L 186.315415 283.232392 
L 187.041005 286.616697 
L 187.766596 286.128995 
L 188.492186 285.38987 
L 189.217777 286.657792 
L 189.943367 284.59703 
L 190.668958 287.775504 
L 191.394548 287.791867 
L 192.120139 289.946805 
L 192.845729 290.598263 
L 193.57132 289.796093 
L 194.29691 289.702279 
L 195.022501 286.0485 
L 195.748091 286.500005 
L 196.473682 287.704302 
L 197.199272 290.726047 
L 197.924863 292.268114 
L 198.650453 286.913025 
L 199.376044 291.676908 
L 200.101634 289.050294 
L 200.827225 288.61471 
L 201.552815 288.971289 
L 202.278406 287.387911 
L 203.003996 289.911565 
L 203.729587 290.199408 
L 204.455177 291.336203 
L 205.906358 285.189043 
L 206.631949 284.193808 
L 207.35754 285.917862 
L 208.08313 285.743014 
L 208.808721 285.269807 
L 209.534311 287.690824 
L 210.259902 289.011659 
L 210.985492 288.047954 
L 211.711083 293.172122 
L 212.436673 292.904978 
L 213.162264 292.072552 
L 213.887854 292.810817 
L 214.613445 292.229896 
L 215.339035 291.426047 
L 216.064626 294.596923 
L 216.790216 293.220848 
L 217.515807 294.511547 
L 218.241397 291.91202 
L 218.966988 295.222382 
L 219.692578 292.778122 
L 220.418169 292.622691 
L 221.143759 289.821925 
L 221.86935 291.985773 
L 222.59494 292.418264 
L 223.320531 291.856309 
L 224.046121 293.865353 
L 224.771712 293.495322 
L 225.497302 290.584292 
L 226.222893 290.223398 
L 226.948484 295.247354 
L 228.399665 298.798626 
L 229.125255 299.229461 
L 229.850846 298.994197 
L 230.576436 299.921075 
L 231.302027 300.031291 
L 232.027617 301.835629 
L 232.753208 304.240823 
L 233.478798 302.501882 
L 234.204389 302.806603 
L 235.65557 305.359213 
L 236.38116 304.811714 
L 237.106751 302.783599 
L 237.832341 305.124929 
L 238.557932 305.436149 
L 239.283522 305.517613 
L 240.734703 307.403877 
L 241.460294 308.147879 
L 242.185884 308.453305 
L 242.911475 308.883295 
L 243.637065 308.106946 
L 244.362656 310.701255 
L 245.088246 309.963007 
L 245.813837 309.994128 
L 246.539427 311.920622 
L 247.265018 312.330984 
L 248.716199 312.514765 
L 249.44179 311.82889 
L 250.16738 312.532864 
L 250.892971 312.806763 
L 251.618561 313.415872 
L 252.344152 313.5519 
L 253.069742 316.089606 
L 253.795333 315.159 
L 254.520923 312.45511 
L 255.246514 313.578429 
L 255.972104 315.210704 
L 256.697695 313.822815 
L 257.423285 314.430087 
L 258.148876 315.423256 
L 258.874466 315.046161 
L 259.600057 316.552683 
L 260.325647 315.12411 
L 261.776828 316.346044 
L 262.502419 316.310485 
L 263.228009 316.924676 
L 263.9536 318.12074 
L 264.67919 317.94821 
L 265.404781 319.641032 
L 266.130371 319.082116 
L 266.855962 320.179538 
L 267.581553 321.590649 
L 268.307143 322.106798 
L 269.032734 322.109147 
L 269.758324 322.957121 
L 270.483915 321.46528 
L 271.209505 321.051812 
L 271.935096 324.055043 
L 272.660686 322.669537 
L 273.386277 322.731681 
L 274.837458 327.961308 
L 276.288639 328.710843 
L 277.014229 328.11425 
L 277.73982 326.138516 
L 278.46541 328.295985 
L 279.191001 326.85442 
L 279.916591 326.60541 
L 280.642182 327.286163 
L 281.367772 325.907301 
L 282.818953 325.203946 
L 284.270134 327.973353 
L 284.995725 326.58692 
L 286.446906 325.882754 
L 287.172496 329.073363 
L 287.898087 329.611967 
L 288.623678 330.979722 
L 289.349268 328.211882 
L 290.074859 325.905898 
L 290.800449 329.218953 
L 291.52604 327.255986 
L 292.25163 327.035509 
L 292.977221 328.407845 
L 293.702811 327.584297 
L 294.428402 327.428772 
L 295.153992 327.081642 
L 295.879583 326.067225 
L 296.605173 326.362056 
L 297.330764 326.927062 
L 298.056354 327.142417 
L 298.781945 328.672132 
L 299.507535 327.716067 
L 300.233126 328.147574 
L 300.958716 329.378438 
L 301.684307 330.958271 
L 302.409897 331.095059 
L 303.135488 331.671771 
L 303.861078 330.814001 
L 304.586669 331.913565 
L 305.312259 332.77893 
L 306.76344 331.155859 
L 307.489031 330.791679 
L 308.214622 329.384431 
L 308.940212 329.618605 
L 309.665803 331.865253 
L 310.391393 328.796668 
L 311.842574 328.199976 
L 312.568165 330.110988 
L 313.293755 329.632834 
L 314.019346 330.710677 
L 315.470527 325.911814 
L 316.196117 326.70446 
L 316.921708 326.312934 
L 317.647298 326.115316 
L 318.372889 326.3721 
L 319.098479 327.200888 
L 320.54966 326.76631 
L 321.275251 327.72563 
L 322.000841 328.396688 
L 322.726432 328.129819 
L 323.452022 329.247213 
L 324.177613 331.401911 
L 324.903203 331.962931 
L 325.628794 332.037192 
L 326.354384 331.966563 
L 327.079975 332.774714 
L 327.805565 331.916508 
L 328.531156 332.245953 
L 329.256747 334.302384 
L 329.982337 334.236803 
L 330.707928 335.532724 
L 331.433518 335.31937 
L 332.159109 337.298881 
L 332.884699 336.235564 
L 333.61029 338.02365 
L 334.33588 337.281051 
L 335.061471 338.523174 
L 335.787061 337.610996 
L 336.512652 337.302331 
L 337.238242 336.671037 
L 338.689423 338.939006 
L 339.415014 340.082082 
L 340.140604 338.436098 
L 340.866195 338.349182 
L 341.591785 338.461852 
L 342.317376 340.107671 
L 343.042966 341.162924 
L 343.768557 340.557598 
L 344.494147 341.330884 
L 345.219738 340.511085 
L 345.945328 342.587424 
L 347.396509 344.672641 
L 348.1221 344.452727 
L 348.847691 345.204647 
L 349.573281 347.092887 
L 350.298872 345.363238 
L 351.024462 346.484555 
L 352.475643 344.763135 
L 353.201234 345.174348 
L 353.926824 344.910918 
L 354.652415 346.66131 
L 355.378005 347.798368 
L 356.103596 347.242614 
L 356.829186 347.245361 
L 357.554777 344.0556 
L 358.280367 344.0303 
L 359.005958 344.393126 
L 359.731548 346.384568 
L 360.457139 345.797485 
L 361.182729 345.033774 
L 362.63391 346.102906 
L 363.359501 346.377007 
L 364.085091 345.317629 
L 364.810682 343.473739 
L 365.536272 343.742862 
L 366.261863 342.26543 
L 366.987453 342.180528 
L 367.713044 342.888755 
L 368.438634 345.816031 
L 369.164225 346.659708 
L 370.615406 346.893447 
L 371.340997 348.445508 
L 372.066587 348.871745 
L 372.792178 348.033646 
L 373.517768 348.732268 
L 374.243359 350.398913 
L 374.968949 351.409579 
L 375.69454 352.644676 
L 376.42013 353.105082 
L 377.145721 354.309937 
L 377.871311 354.645692 
L 378.596902 352.242862 
L 379.322492 353.938241 
L 380.048083 352.98591 
L 380.773673 354.822718 
L 381.499264 355.457268 
L 382.224854 354.652109 
L 382.950445 355.216376 
L 383.676035 357.089162 
L 385.852807 357.839112 
L 386.578397 358.497097 
L 387.303988 359.873543 
L 388.029578 358.68487 
L 388.755169 360.723992 
L 389.48076 361.729441 
L 390.20635 362.259462 
L 390.931941 362.592635 
L 392.383122 360.910499 
L 393.108712 359.322203 
L 393.834303 360.405377 
L 394.559893 360.329642 
L 395.285484 360.625865 
L 396.011074 361.947438 
L 396.736665 361.995398 
L 397.462255 361.332613 
L 398.187846 361.475275 
L 398.913436 362.817024 
L 399.639027 363.112013 
L 400.364617 364.231874 
L 401.090208 364.330196 
L 401.815798 366.464827 
L 402.541389 365.685464 
L 403.266979 365.856439 
L 403.99257 366.186406 
L 404.71816 365.227084 
L 406.169341 365.084988 
L 406.894932 365.981873 
L 407.620522 365.615574 
L 408.346113 366.346872 
L 409.071703 366.034016 
L 409.797294 367.580898 
L 410.522885 368.206206 
L 411.248475 369.319763 
L 411.974066 370.046033 
L 412.699656 370.59484 
L 414.150837 367.914501 
L 414.876428 367.253575 
L 415.602018 368.307438 
L 417.053199 368.490527 
L 417.77879 367.16507 
L 418.50438 368.515142 
L 419.229971 367.977912 
L 419.955561 367.581982 
L 420.681152 367.923356 
L 421.406742 367.788664 
L 422.132333 367.844368 
L 422.857923 368.517566 
L 423.583514 368.364923 
L 424.309104 368.478749 
L 425.034695 367.475059 
L 425.760285 367.894476 
L 426.485876 367.086768 
L 427.937057 364.865727 
L 428.662647 366.435727 
L 429.388238 366.101232 
L 430.113829 367.42327 
L 430.839419 368.416814 
L 431.56501 368.461775 
L 432.2906 367.869799 
L 433.016191 366.8279 
L 433.741781 367.551178 
L 434.467372 366.99373 
L 435.918553 365.490285 
L 436.644143 365.980705 
L 437.369734 364.809432 
L 438.095324 365.828724 
L 438.820915 365.272046 
L 439.546505 365.57864 
L 440.272096 365.672631 
L 441.723277 367.151257 
L 442.448867 367.108835 
L 443.174458 366.27872 
L 443.900048 366.601308 
L 444.625639 366.12836 
L 445.351229 367.111783 
L 446.07682 367.103909 
L 446.80241 366.845737 
L 447.528001 365.650662 
L 448.253591 366.031001 
L 448.979182 365.324135 
L 450.430363 366.20329 
L 451.155954 365.92992 
L 451.881544 367.582073 
L 452.607135 367.716499 
L 453.332725 368.595892 
L 454.058316 368.317503 
L 454.783906 369.787399 
L 456.235087 371.405015 
L 456.960678 371.053116 
L 457.686268 371.186306 
L 458.411859 371.615679 
L 459.137449 371.739494 
L 459.86304 371.619876 
L 461.314221 373.096345 
L 462.039811 374.238801 
L 462.765402 375.085823 
L 463.490992 375.15673 
L 464.216583 376.78117 
L 464.942173 375.900927 
L 465.667764 376.527177 
L 466.393354 375.562747 
L 467.118945 375.101129 
L 467.844535 373.684615 
L 468.570126 373.52897 
L 469.295716 371.963383 
L 470.021307 372.750778 
L 470.746898 371.913377 
L 471.472488 373.75205 
L 472.198079 373.314991 
L 473.64926 371.580727 
L 475.100441 373.310599 
L 475.826031 373.504633 
L 476.551622 373.180374 
L 477.277212 370.689058 
L 478.002803 370.241734 
L 478.728393 370.621019 
L 479.453984 370.69208 
L 480.179574 371.178347 
L 480.905165 370.462591 
L 481.630755 370.941815 
L 482.356346 371.656876 
L 483.081936 371.822462 
L 483.807527 372.936503 
L 484.533117 374.800794 
L 485.258708 374.950195 
L 485.984298 375.615965 
L 486.709889 375.319001 
L 487.435479 374.209183 
L 488.16107 375.979216 
L 488.88666 375.757138 
L 489.612251 375.310742 
L 490.337841 377.090591 
L 491.063432 378.103267 
L 491.789023 377.493894 
L 492.514613 377.586545 
L 493.240204 377.254537 
L 493.965794 378.675126 
L 494.691385 379.079603 
L 495.416975 380.287236 
L 496.142566 380.567282 
L 496.868156 380.363455 
L 497.593747 381.100931 
L 498.319337 380.490818 
L 499.044928 380.628952 
L 499.770518 379.467474 
L 500.496109 380.561472 
L 501.221699 378.665935 
L 501.94729 380.214345 
L 502.67288 380.822871 
L 503.398471 379.820318 
L 504.124061 380.310732 
L 504.849652 381.330539 
L 505.575242 380.702232 
L 507.026423 380.405138 
L 507.752014 380.568399 
L 508.477604 380.460299 
L 509.928785 383.432642 
L 510.654376 384.330625 
L 511.379967 384.169092 
L 512.105557 383.234956 
L 512.831148 383.883842 
L 513.556738 384.836446 
L 514.282329 384.049931 
L 515.007919 383.992868 
L 516.4591 383.43752 
L 517.184691 385.145191 
L 517.910281 384.750808 
L 518.635872 385.72223 
L 520.087053 383.741201 
L 520.812643 383.827152 
L 521.538234 385.269698 
L 522.263824 385.09676 
L 522.989415 386.010642 
L 523.715005 385.909196 
L 524.440596 386.957359 
L 525.166186 386.497774 
L 525.891777 385.528058 
L 526.617367 385.497716 
L 527.342958 385.849517 
L 528.068548 386.829233 
L 528.794139 386.314529 
L 529.519729 384.990745 
L 530.24532 386.257864 
L 531.696501 387.980359 
L 532.422092 387.911098 
L 533.147682 388.029605 
L 533.873273 387.436393 
L 534.598863 387.700337 
L 535.324454 387.185044 
L 536.050044 386.986159 
L 536.775635 387.613741 
L 537.501225 387.693984 
L 538.226816 386.399237 
L 538.952406 386.241717 
L 539.677997 386.370871 
L 540.403587 385.661862 
L 541.129178 385.397437 
L 541.854768 385.968187 
L 542.580359 387.232199 
L 543.305949 386.356859 
L 545.482721 384.884357 
L 546.208311 383.769355 
L 546.933902 384.238076 
L 547.659492 385.349917 
L 548.385083 384.275238 
L 549.110673 384.085002 
L 549.836264 384.99187 
L 550.561854 385.337942 
L 551.287445 385.471039 
L 552.738626 384.614828 
L 553.464217 385.446573 
L 554.915398 385.714321 
L 555.640988 385.460958 
L 557.092169 385.530989 
L 557.81776 386.084118 
L 558.54335 385.789339 
L 559.268941 386.078955 
L 559.994531 387.037608 
L 560.720122 386.726146 
L 561.445712 387.457463 
L 562.896893 386.589646 
L 563.622484 386.360155 
L 564.348074 384.938641 
L 565.073665 384.96455 
L 565.799255 383.966498 
L 566.524846 385.04549 
L 567.250436 385.320408 
L 567.976027 385.047045 
L 568.701617 386.016918 
L 569.427208 386.2732 
L 570.878389 387.153015 
L 571.603979 386.777635 
L 572.32957 385.442268 
L 573.780751 386.870962 
L 574.506342 387.971759 
L 575.231932 388.361989 
L 575.957523 387.422637 
L 576.683113 386.674743 
L 577.408704 387.018103 
L 578.134294 386.739178 
L 578.859885 386.982877 
L 579.585475 387.656137 
L 580.311066 387.983892 
L 581.036656 387.360802 
L 581.762247 385.51572 
L 582.487837 386.440112 
L 583.213428 387.668264 
L 583.939018 386.808173 
L 584.664609 386.48653 
L 586.11579 386.460358 
L 588.292561 387.174296 
L 589.018152 388.058105 
L 589.743742 387.797902 
L 590.469333 387.970787 
L 590.469333 387.970787 
" clip-path="url(#pb2fd421114)" style="fill: none; stroke: #2563eb; stroke-width: 3; stroke-linecap: square"/>
   </g>
   <g id="line2d_28">
    <path d="M 126.816992 111.897324 
L 127.542583 163.011119 
L 128.993764 225.233924 
L 129.719354 246.77853 
L 130.444945 261.472682 
L 131.170535 278.953961 
L 132.621716 297.958816 
L 133.347307 302.115793 
L 134.072897 304.610316 
L 134.798488 316.513901 
L 135.524078 315.576574 
L 136.975259 331.751451 
L 137.70085 331.891234 
L 138.42644 335.625104 
L 139.152031 343.625637 
L 139.877621 346.315778 
L 140.603212 346.533816 
L 141.328802 347.18773 
L 142.054393 348.675943 
L 142.779983 348.847165 
L 143.505574 350.693781 
L 144.231164 358.738306 
L 144.956755 353.900495 
L 145.682346 361.317389 
L 146.407936 356.299186 
L 147.133527 361.516882 
L 147.859117 364.171678 
L 148.584708 275.453016 
L 149.310298 269.639418 
L 150.035889 267.921457 
L 150.761479 264.025191 
L 151.48707 261.173617 
L 152.21266 261.091178 
L 152.938251 256.987452 
L 154.389432 254.266324 
L 155.115022 252.302793 
L 155.840613 250.939201 
L 156.566203 252.786225 
L 157.291794 252.045264 
L 158.017384 251.708458 
L 158.742975 247.623318 
L 159.468565 251.500219 
L 160.194156 258.494967 
L 160.919746 254.505419 
L 161.645337 255.70622 
L 162.370927 256.187511 
L 163.096518 254.407748 
L 163.822108 257.443519 
L 164.547699 257.584738 
L 165.273289 259.618667 
L 165.99888 256.775112 
L 166.724471 253.087635 
L 167.450061 257.11179 
L 168.175652 260.304452 
L 168.901242 260.07462 
L 169.626833 261.463634 
L 170.352423 259.087034 
L 171.078014 261.443594 
L 172.529195 267.679572 
L 173.254785 265.35751 
L 173.980376 268.671657 
L 174.705966 270.247186 
L 175.431557 268.85356 
L 176.157147 269.58137 
L 176.882738 266.733746 
L 177.608328 264.915589 
L 178.333919 267.378456 
L 179.059509 267.043506 
L 179.7851 269.035409 
L 180.51069 267.264387 
L 181.236281 270.268932 
L 181.961871 269.228682 
L 182.687462 271.195096 
L 183.413052 271.464299 
L 184.864233 270.050621 
L 185.589824 272.576869 
L 186.315415 274.199122 
L 187.041005 275.428499 
L 187.766596 276.372339 
L 188.492186 276.008057 
L 189.217777 275.413682 
L 189.943367 276.718754 
L 190.668958 277.094976 
L 191.394548 277.632358 
L 192.845729 279.524415 
L 193.57132 279.06214 
L 194.29691 279.335365 
L 195.022501 282.366078 
L 195.748091 278.23154 
L 196.473682 280.198595 
L 197.199272 280.779656 
L 197.924863 281.975865 
L 198.650453 279.949129 
L 199.376044 279.926304 
L 200.101634 279.541145 
L 200.827225 278.460674 
L 201.552815 280.023705 
L 202.278406 279.253526 
L 203.003996 281.975148 
L 203.729587 280.354436 
L 204.455177 280.789619 
L 206.631949 275.346297 
L 207.35754 277.862599 
L 208.08313 273.106842 
L 208.808721 276.778869 
L 209.534311 277.448632 
L 210.259902 277.875402 
L 210.985492 277.569027 
L 211.711083 278.533855 
L 212.436673 278.702334 
L 213.162264 279.408948 
L 213.887854 280.473695 
L 214.613445 279.070964 
L 215.339035 282.393069 
L 216.064626 283.674903 
L 216.790216 280.67699 
L 217.515807 279.683019 
L 218.241397 279.988159 
L 218.966988 280.995399 
L 220.418169 278.938223 
L 221.143759 279.384986 
L 221.86935 281.037388 
L 222.59494 279.194638 
L 223.320531 279.52525 
L 224.046121 279.423542 
L 224.771712 277.853843 
L 225.497302 276.877989 
L 226.222893 279.218518 
L 226.948484 280.254101 
L 227.674074 284.223007 
L 228.399665 286.011973 
L 229.850846 287.127092 
L 230.576436 287.076108 
L 231.302027 285.380357 
L 232.027617 285.846327 
L 232.753208 288.028561 
L 233.478798 289.734586 
L 234.204389 289.529279 
L 234.929979 290.090546 
L 235.65557 290.853215 
L 236.38116 290.222405 
L 237.106751 289.313615 
L 237.832341 291.628321 
L 238.557932 291.702168 
L 239.283522 292.106795 
L 240.009113 295.089733 
L 240.734703 293.028076 
L 241.460294 293.810341 
L 242.185884 296.939515 
L 242.911475 295.741455 
L 243.637065 295.403838 
L 244.362656 299.314161 
L 245.088246 298.736163 
L 245.813837 296.907295 
L 246.539427 300.915425 
L 247.265018 299.771963 
L 247.990609 300.47784 
L 248.716199 299.283694 
L 249.44179 299.825775 
L 250.16738 299.782376 
L 250.892971 300.825138 
L 252.344152 299.941794 
L 253.069742 298.911691 
L 253.795333 300.232525 
L 254.520923 298.746867 
L 255.246514 296.539262 
L 255.972104 298.516906 
L 256.697695 299.358246 
L 257.423285 300.028864 
L 258.148876 302.289986 
L 258.874466 300.85659 
L 259.600057 302.104625 
L 260.325647 302.191924 
L 261.051238 301.941117 
L 261.776828 303.173871 
L 262.502419 302.498716 
L 263.228009 303.482176 
L 263.9536 304.121305 
L 264.67919 305.971245 
L 265.404781 306.53111 
L 266.130371 305.868897 
L 266.855962 306.972667 
L 267.581553 307.798251 
L 268.307143 308.20693 
L 269.032734 307.38923 
L 269.758324 307.442194 
L 270.483915 307.832808 
L 271.209505 307.951835 
L 271.935096 308.722299 
L 272.660686 310.254755 
L 273.386277 310.210889 
L 274.111867 310.607885 
L 274.837458 311.830991 
L 275.563048 312.303395 
L 276.288639 311.744088 
L 277.014229 310.998838 
L 277.73982 311.632282 
L 278.46541 313.179025 
L 279.191001 314.077941 
L 279.916591 312.432517 
L 280.642182 313.286368 
L 281.367772 312.710176 
L 282.093363 312.817309 
L 282.818953 312.450395 
L 283.544544 311.264002 
L 284.270134 313.915999 
L 284.995725 313.862512 
L 285.721315 312.812982 
L 286.446906 313.751972 
L 287.172496 315.137211 
L 287.898087 313.618524 
L 288.623678 316.123839 
L 290.074859 312.98073 
L 290.800449 315.053906 
L 291.52604 314.049702 
L 292.25163 314.595718 
L 292.977221 314.422582 
L 293.702811 313.941997 
L 294.428402 312.754508 
L 295.153992 313.392971 
L 295.879583 312.110149 
L 296.605173 309.991881 
L 297.330764 311.844277 
L 298.056354 311.214263 
L 298.781945 312.32756 
L 299.507535 312.576679 
L 300.233126 313.311487 
L 300.958716 314.814793 
L 303.135488 317.361029 
L 303.861078 316.544519 
L 304.586669 318.014642 
L 305.312259 318.420787 
L 306.03785 315.84129 
L 306.76344 315.852212 
L 308.214622 314.465038 
L 308.940212 314.032259 
L 309.665803 314.897734 
L 310.391393 314.802813 
L 311.116984 313.977179 
L 311.842574 312.454757 
L 312.568165 313.459987 
L 313.293755 313.36362 
L 315.470527 310.370167 
L 316.196117 308.619033 
L 317.647298 308.318092 
L 318.372889 309.309793 
L 319.098479 310.631771 
L 319.82407 309.88465 
L 320.54966 309.52941 
L 321.275251 311.209905 
L 322.000841 311.893699 
L 322.726432 311.949828 
L 323.452022 314.244772 
L 324.903203 316.439342 
L 325.628794 315.918303 
L 327.079975 317.181171 
L 327.805565 316.309346 
L 328.531156 316.741097 
L 329.256747 318.675915 
L 329.982337 318.330447 
L 330.707928 319.252124 
L 331.433518 318.670425 
L 332.159109 320.281183 
L 332.884699 319.646032 
L 333.61029 319.559008 
L 334.33588 318.817871 
L 335.061471 319.943373 
L 335.787061 319.955464 
L 336.512652 320.363061 
L 337.238242 319.573129 
L 337.963833 319.643509 
L 338.689423 320.345591 
L 339.415014 321.83303 
L 340.140604 320.373319 
L 340.866195 321.247735 
L 341.591785 321.170214 
L 342.317376 323.052598 
L 343.042966 324.509901 
L 343.768557 324.213355 
L 344.494147 323.764489 
L 345.219738 323.522722 
L 345.945328 324.550174 
L 346.670919 325.933241 
L 347.396509 326.8448 
L 348.1221 327.3311 
L 348.847691 328.886728 
L 349.573281 330.164256 
L 350.298872 328.960708 
L 351.024462 328.875573 
L 351.750053 327.449175 
L 352.475643 326.984883 
L 353.201234 328.076314 
L 354.652415 329.576874 
L 355.378005 330.963639 
L 356.103596 330.850859 
L 356.829186 331.131955 
L 357.554777 328.493511 
L 358.280367 327.024052 
L 359.005958 327.728512 
L 359.731548 328.63437 
L 360.457139 328.111923 
L 361.182729 327.406429 
L 361.90832 327.58847 
L 362.63391 328.037132 
L 363.359501 327.801735 
L 366.261863 325.613145 
L 366.987453 325.364579 
L 367.713044 327.416999 
L 368.438634 329.075216 
L 369.164225 329.506491 
L 369.889816 330.079329 
L 370.615406 330.064543 
L 371.340997 331.856985 
L 372.066587 332.392538 
L 372.792178 332.372057 
L 374.243359 333.309536 
L 374.968949 334.736835 
L 377.871311 338.215187 
L 378.596902 336.342334 
L 379.322492 337.617061 
L 380.048083 337.049458 
L 380.773673 338.657889 
L 381.499264 339.027731 
L 382.224854 338.317268 
L 382.950445 339.932675 
L 383.676035 340.731272 
L 384.401626 341.817721 
L 385.127216 341.68259 
L 385.852807 342.587915 
L 386.578397 343.140862 
L 387.303988 345.084493 
L 388.029578 344.234212 
L 388.755169 345.237243 
L 389.48076 346.852488 
L 390.20635 347.575375 
L 390.931941 347.919306 
L 391.657531 346.633446 
L 393.108712 344.393269 
L 393.834303 344.676757 
L 394.559893 344.399983 
L 395.285484 345.1167 
L 396.011074 345.583642 
L 396.736665 346.287183 
L 397.462255 345.531928 
L 398.187846 345.792428 
L 398.913436 347.228953 
L 399.639027 347.720619 
L 401.090208 348.912882 
L 401.815798 349.807775 
L 402.541389 350.160264 
L 403.266979 349.933304 
L 403.99257 350.328036 
L 404.71816 349.943554 
L 405.443751 349.960487 
L 406.169341 349.470619 
L 406.894932 350.369266 
L 407.620522 349.67716 
L 408.346113 350.49938 
L 409.071703 350.642642 
L 409.797294 351.605456 
L 411.248475 354.078275 
L 411.974066 353.728851 
L 412.699656 354.696172 
L 414.150837 352.478698 
L 414.876428 351.61894 
L 415.602018 352.294242 
L 416.327609 352.324892 
L 417.053199 352.869384 
L 417.77879 352.141184 
L 418.50438 352.563658 
L 419.229971 352.107936 
L 419.955561 352.275723 
L 420.681152 351.790523 
L 421.406742 352.390101 
L 422.132333 351.61138 
L 422.857923 352.642459 
L 423.583514 352.752658 
L 425.034695 351.967412 
L 425.760285 351.313325 
L 426.485876 350.829859 
L 427.211466 349.720483 
L 427.937057 349.398273 
L 428.662647 350.678242 
L 429.388238 350.681568 
L 430.113829 351.80679 
L 430.839419 352.247938 
L 431.56501 351.999528 
L 432.2906 352.534485 
L 433.016191 351.906439 
L 433.741781 351.806051 
L 434.467372 351.980772 
L 435.192962 350.911934 
L 435.918553 350.089847 
L 436.644143 349.919425 
L 437.369734 349.362296 
L 438.095324 349.984485 
L 438.820915 349.182696 
L 439.546505 349.813618 
L 440.272096 350.236536 
L 441.723277 350.899507 
L 442.448867 351.283778 
L 443.174458 350.664214 
L 444.625639 350.569136 
L 445.351229 351.418295 
L 446.07682 350.96516 
L 446.80241 351.388145 
L 447.528001 350.755867 
L 448.253591 350.767799 
L 449.704772 349.772802 
L 450.430363 351.496326 
L 451.155954 351.120981 
L 451.881544 352.076674 
L 453.332725 353.563219 
L 454.058316 353.299331 
L 454.783906 353.780894 
L 456.235087 356.234405 
L 456.960678 356.185545 
L 457.686268 356.794298 
L 458.411859 356.873249 
L 459.137449 356.770256 
L 460.58863 357.278979 
L 461.314221 358.39637 
L 462.039811 359.090405 
L 462.765402 360.208552 
L 463.490992 360.278636 
L 464.216583 361.701127 
L 464.942173 360.801985 
L 465.667764 361.428312 
L 466.393354 360.237234 
L 467.844535 358.556803 
L 468.570126 358.335759 
L 469.295716 356.666968 
L 470.021307 357.240579 
L 470.746898 357.39697 
L 471.472488 358.661232 
L 472.198079 358.473363 
L 472.923669 357.112738 
L 473.64926 356.294057 
L 474.37485 357.808675 
L 475.100441 357.677875 
L 475.826031 358.369473 
L 476.551622 357.834778 
L 477.277212 354.940529 
L 478.002803 355.417964 
L 478.728393 356.044928 
L 479.453984 355.385665 
L 480.179574 356.225768 
L 480.905165 355.345335 
L 481.630755 355.757779 
L 482.356346 356.352731 
L 483.081936 356.378117 
L 483.807527 357.190181 
L 484.533117 359.61646 
L 485.258708 359.784085 
L 485.984298 360.255834 
L 486.709889 360.127028 
L 487.435479 359.286604 
L 488.16107 360.528647 
L 488.88666 360.088592 
L 489.612251 359.505265 
L 490.337841 361.327065 
L 491.063432 362.35437 
L 491.789023 361.989858 
L 492.514613 362.245928 
L 493.240204 362.147685 
L 493.965794 363.866396 
L 494.691385 363.78269 
L 496.142566 365.645943 
L 496.868156 365.20921 
L 497.593747 365.883805 
L 498.319337 365.095278 
L 499.044928 365.156589 
L 499.770518 364.771269 
L 500.496109 365.400709 
L 501.221699 363.873314 
L 501.94729 365.184824 
L 502.67288 365.984531 
L 503.398471 365.117316 
L 504.124061 365.26227 
L 504.849652 366.222231 
L 505.575242 365.756574 
L 506.300833 365.698124 
L 507.026423 365.434577 
L 507.752014 365.973921 
L 508.477604 365.65262 
L 509.928785 368.212109 
L 510.654376 369.382873 
L 511.379967 369.322748 
L 512.105557 368.369618 
L 512.831148 368.952965 
L 513.556738 370.097342 
L 514.282329 369.215902 
L 515.007919 369.074344 
L 515.73351 369.246636 
L 516.4591 368.979477 
L 517.184691 370.733504 
L 517.910281 370.155004 
L 518.635872 370.864602 
L 519.361462 370.09984 
L 520.087053 368.688112 
L 520.812643 369.227372 
L 521.538234 370.056719 
L 522.263824 370.332475 
L 522.989415 371.094931 
L 523.715005 371.320479 
L 524.440596 372.514476 
L 526.617367 370.648737 
L 528.068548 372.116547 
L 528.794139 371.529828 
L 529.519729 370.354265 
L 530.24532 371.736948 
L 531.696501 373.212574 
L 532.422092 373.070568 
L 533.147682 373.36818 
L 533.873273 372.828526 
L 534.598863 373.011477 
L 535.324454 371.971818 
L 536.775635 373.343807 
L 537.501225 372.895001 
L 538.226816 371.602222 
L 538.952406 371.354369 
L 539.677997 371.556171 
L 540.403587 370.824475 
L 541.129178 370.696889 
L 541.854768 371.417112 
L 542.580359 372.633593 
L 543.305949 371.377477 
L 544.03154 371.234612 
L 544.75713 370.300282 
L 546.208311 368.701811 
L 546.933902 369.253035 
L 547.659492 370.376156 
L 548.385083 369.675327 
L 549.110673 369.590516 
L 549.836264 370.547785 
L 550.561854 370.412453 
L 551.287445 370.886874 
L 552.013036 370.138769 
L 552.738626 370.163811 
L 553.464217 370.984724 
L 554.189807 370.97588 
L 554.915398 370.529768 
L 555.640988 371.01559 
L 556.366579 370.729965 
L 557.092169 370.608353 
L 557.81776 371.291255 
L 558.54335 370.779072 
L 559.268941 371.113803 
L 559.994531 371.900236 
L 561.445712 372.521001 
L 562.171303 372.647603 
L 562.896893 371.971716 
L 563.622484 372.380959 
L 564.348074 370.362205 
L 565.073665 370.258493 
L 565.799255 369.471897 
L 566.524846 370.498145 
L 567.250436 370.831715 
L 567.976027 370.263344 
L 568.701617 371.222209 
L 570.152798 371.628293 
L 570.878389 372.33368 
L 571.603979 371.952478 
L 572.32957 370.480724 
L 573.780751 371.881837 
L 574.506342 372.597195 
L 575.231932 373.557537 
L 575.957523 372.288418 
L 576.683113 371.503338 
L 578.859885 372.213693 
L 579.585475 372.162303 
L 580.311066 372.82641 
L 581.036656 372.38596 
L 581.762247 369.947813 
L 582.487837 371.775756 
L 583.213428 372.995033 
L 583.939018 371.810327 
L 584.664609 371.105241 
L 586.11579 371.300425 
L 587.566971 372.56126 
L 588.292561 372.653107 
L 589.018152 373.30157 
L 589.743742 373.190454 
L 590.469333 373.694734 
L 590.469333 373.694734 
" clip-path="url(#pb2fd421114)" style="fill: none; stroke: #d97706; stroke-width: 3; stroke-linecap: square"/>
   </g>
   <g id="line2d_29">
    <path d="M 147.859117 404.945625 
L 147.859117 40.105625 
" clip-path="url(#pb2fd421114)" style="fill: none; stroke-dasharray: 2,3.3; stroke-dashoffset: 0; stroke: #dc2626; stroke-width: 2"/>
   </g>
   <g id="patch_3">
    <path d="M 103.634375 404.945625 
L 103.634375 40.105625 
" style="fill: none; stroke: #212529; stroke-width: 1.4; stroke-linejoin: miter; stroke-linecap: square"/>
   </g>
   <g id="patch_4">
    <path d="M 613.65195 404.945625 
L 613.65195 40.105625 
" style="fill: none; stroke: #212529; stroke-width: 1.4; stroke-linejoin: miter; stroke-linecap: square"/>
   </g>
   <g id="patch_5">
    <path d="M 103.634375 404.945625 
L 613.65195 404.945625 
" style="fill: none; stroke: #212529; stroke-width: 1.4; stroke-linejoin: miter; stroke-linecap: square"/>
   </g>
   <g id="patch_6">
    <path d="M 103.634375 40.105625 
L 613.65195 40.105625 
" style="fill: none; stroke: #212529; stroke-width: 1.4; stroke-linejoin: miter; stroke-linecap: square"/>
   </g>
   <g id="text_9">
    <!-- Total loss -->
    <g style="fill: #212529" transform="translate(280.703475 33.034687) scale(0.34 -0.34)">
     <defs>
      <path id="DejaVuSans-54" d="M -19 4666 
L 3928 4666 
L 3928 4134 
L 2272 4134 
L 2272 0 
L 1638 0 
L 1638 4134 
L -19 4134 
L -19 4666 
z
" transform="scale(0.015625)"/>
      <path id="DejaVuSans-6c" d="M 603 4863 
L 1178 4863 
L 1178 0 
L 603 0 
L 603 4863 
z
" transform="scale(0.015625)"/>
     </defs>
     <use xlink:href="#DejaVuSans-54"/>
     <use xlink:href="#DejaVuSans-6f" x="44.083984"/>
     <use xlink:href="#DejaVuSans-74" x="105.265625"/>
     <use xlink:href="#DejaVuSans-61" x="144.474609"/>
     <use xlink:href="#DejaVuSans-6c" x="205.753906"/>
     <use xlink:href="#DejaVuSans-20" x="233.537109"/>
     <use xlink:href="#DejaVuSans-6c" x="265.324219"/>
     <use xlink:href="#DejaVuSans-6f" x="293.107422"/>
     <use xlink:href="#DejaVuSans-73" x="354.289062"/>
     <use xlink:href="#DejaVuSans-73" x="406.388672"/>
    </g>
   </g>
   <g id="legend_1">
    <g id="line2d_30">
     <path d="M 397.80945 71.541875 
L 421.80945 71.541875 
L 445.80945 71.541875 
" style="fill: none; stroke: #2563eb; stroke-width: 3; stroke-linecap: square"/>
    </g>
    <g id="text_10">
     <!-- Train -->
     <g transform="translate(465.00945 79.941875) scale(0.24 -0.24)">
      <use xlink:href="#DejaVuSans-54"/>
      <use xlink:href="#DejaVuSans-72" x="46.333984"/>
      <use xlink:href="#DejaVuSans-61" x="87.447266"/>
      <use xlink:href="#DejaVuSans-69" x="148.726562"/>
      <use xlink:href="#DejaVuSans-6e" x="176.509766"/>
     </g>
    </g>
    <g id="line2d_31">
     <path d="M 397.80945 106.769375 
L 421.80945 106.769375 
L 445.80945 106.769375 
" style="fill: none; stroke: #d97706; stroke-width: 3; stroke-linecap: square"/>
    </g>
    <g id="text_11">
     <!-- Validation -->
     <g transform="translate(465.00945 115.169375) scale(0.24 -0.24)">
      <defs>
       <path id="DejaVuSans-56" d="M 1831 0 
L 50 4666 
L 709 4666 
L 2188 738 
L 3669 4666 
L 4325 4666 
L 2547 0 
L 1831 0 
z
" transform="scale(0.015625)"/>
      </defs>
      <use xlink:href="#DejaVuSans-56"/>
      <use xlink:href="#DejaVuSans-61" x="60.658203"/>
      <use xlink:href="#DejaVuSans-6c" x="121.9375"/>
      <use xlink:href="#DejaVuSans-69" x="149.720703"/>
      <use xlink:href="#DejaVuSans-64" x="177.503906"/>
      <use xlink:href="#DejaVuSans-61" x="240.980469"/>
      <use xlink:href="#DejaVuSans-74" x="302.259766"/>
      <use xlink:href="#DejaVuSans-69" x="341.46875"/>
      <use xlink:href="#DejaVuSans-6f" x="369.251953"/>
      <use xlink:href="#DejaVuSans-6e" x="430.433594"/>
     </g>
    </g>
    <g id="line2d_32">
     <path d="M 397.80945 141.996875 
L 421.80945 141.996875 
L 445.80945 141.996875 
" style="fill: none; stroke-dasharray: 2,3.3; stroke-dashoffset: 0; stroke: #dc2626; stroke-width: 2"/>
    </g>
    <g id="text_12">
     <!-- physics on -->
     <g transform="translate(465.00945 150.396875) scale(0.24 -0.24)">
      <defs>
       <path id="DejaVuSans-79" d="M 2059 -325 
Q 1816 -950 1584 -1140 
Q 1353 -1331 966 -1331 
L 506 -1331 
L 506 -850 
L 844 -850 
Q 1081 -850 1212 -737 
Q 1344 -625 1503 -206 
L 1606 56 
L 191 3500 
L 800 3500 
L 1894 763 
L 2988 3500 
L 3597 3500 
L 2059 -325 
z
" transform="scale(0.015625)"/>
      </defs>
      <use xlink:href="#DejaVuSans-70"/>
      <use xlink:href="#DejaVuSans-68" x="63.476562"/>
      <use xlink:href="#DejaVuSans-79" x="126.855469"/>
      <use xlink:href="#DejaVuSans-73" x="186.035156"/>
      <use xlink:href="#DejaVuSans-69" x="238.134766"/>
      <use xlink:href="#DejaVuSans-63" x="265.917969"/>
      <use xlink:href="#DejaVuSans-73" x="320.898438"/>
      <use xlink:href="#DejaVuSans-20" x="372.998047"/>
      <use xlink:href="#DejaVuSans-6f" x="404.785156"/>
      <use xlink:href="#DejaVuSans-6e" x="465.966797"/>
     </g>
    </g>
   </g>
  </g>
 </g>
 <defs>
  <clipPath id="pb2fd421114">
   <rect x="103.634375" y="40.105625" width="510.017575" height="364.84"/>
  </clipPath>
 </defs>
</svg>
