<?xml version="1.0" encoding="utf-8" standalone="no"?>
<!DOCTYPE svg PUBLIC "-//W3C//DTD SVG 1.1//EN"
  "http://www.w3.org/Graphics/SVG/1.1/DTD/svg11.dtd">
<svg xmlns:xlink="http://www.w3.org/1999/xlink" width="620.28195pt" height="475.4075pt" viewBox="0 0 620.28195 475.4075" xmlns="http://www.w3.org/2000/svg" version="1.1">
 <metadata>
  <rdf:RDF xmlns:dc="http://purl.org/dc/elements/1.1/" xmlns:cc="http://creativecommons.org/ns#" xmlns:rdf="http://www.w3.org/1999/02/22-rdf-syntax-ns#">
   <cc:Work>
    <dc:type rdf:resource="http://purl.org/dc/dcmitype/StillImage"/>
    <dc:date>2026-06-21T05:01:40.595910</dc:date>
    <dc:format>image/svg+xml</dc:format>
    <dc:creator>
     <cc:Agent>
      <dc:title>Matplotlib v3.8.0, https://matplotlib.org/</dc:title>
     </cc:Agent>
    </dc:creator>
   </cc:Work>
  </rdf:RDF>
 </metadata>
 <defs>
  <style type="text/css">*{stroke-linejoin: round; stroke-linecap: butt}</style>
 </defs>
 <g id="figure_1">
  <g id="patch_1">
   <path d="M 0 475.4075 
L 620.28195 475.4075 
L 620.28195 0 
L 0 0 
z
" style="fill: #ffffff"/>
  </g>
  <g id="axes_1">
   <g id="patch_2">
    <path d="M 103.634375 404.945625 
L 613.08195 404.945625 
L 613.08195 40.105625 
L 103.634375 40.105625 
z
" style="fill: #ffffff"/>
   </g>
   <g id="matplotlib.axis_1">
    <g id="xtick_1">
     <g id="line2d_1">
      <defs>
       <path id="m404cb0a5b8" d="M 0 0 
L 0 3.5 
" style="stroke: #212529; stroke-width: 0.8"/>
      </defs>
      <g>
       <use xlink:href="#m404cb0a5b8" x="126.066303" y="404.945625" style="fill: #212529; stroke: #212529; stroke-width: 0.8"/>
      </g>
     </g>
     <g id="text_1">
      <!-- 0 -->
      <g style="fill: #212529" transform="translate(118.431303 430.181875) scale(0.24 -0.24)">
       <defs>
        <path id="DejaVuSans-30" d="M 2034 4250 
Q 1547 4250 1301 3770 
Q 1056 3291 1056 2328 
Q 1056 1369 1301 889 
Q 1547 409 2034 409 
Q 2525 409 2770 889 
Q 3016 1369 3016 2328 
Q 3016 3291 2770 3770 
Q 2525 4250 2034 4250 
z
M 2034 4750 
Q 2819 4750 3233 4129 
Q 3647 3509 3647 2328 
Q 3647 1150 3233 529 
Q 2819 -91 2034 -91 
Q 1250 -91 836 529 
Q 422 1150 422 2328 
Q 422 3509 836 4129 
Q 1250 4750 2034 4750 
z
" transform="scale(0.015625)"/>
       </defs>
       <use xlink:href="#DejaVuSans-30"/>
      </g>
     </g>
    </g>
    <g id="xtick_2">
     <g id="line2d_2">
      <g>
       <use xlink:href="#m404cb0a5b8" x="271.022222" y="404.945625" style="fill: #212529; stroke: #212529; stroke-width: 0.8"/>
      </g>
     </g>
     <g id="text_2">
      <!-- 200 -->
      <g style="fill: #212529" transform="translate(248.117222 430.181875) scale(0.24 -0.24)">
       <defs>
        <path id="DejaVuSans-32" d="M 1228 531 
L 3431 531 
L 3431 0 
L 469 0 
L 469 531 
Q 828 903 1448 1529 
Q 2069 2156 2228 2338 
Q 2531 2678 2651 2914 
Q 2772 3150 2772 3378 
Q 2772 3750 2511 3984 
Q 2250 4219 1831 4219 
Q 1534 4219 1204 4116 
Q 875 4013 500 3803 
L 500 4441 
Q 881 4594 1212 4672 
Q 1544 4750 1819 4750 
Q 2544 4750 2975 4387 
Q 3406 4025 3406 3419 
Q 3406 3131 3298 2873 
Q 3191 2616 2906 2266 
Q 2828 2175 2409 1742 
Q 1991 1309 1228 531 
z
" transform="scale(0.015625)"/>
       </defs>
       <use xlink:href="#DejaVuSans-32"/>
       <use xlink:href="#DejaVuSans-30" x="63.623047"/>
       <use xlink:href="#DejaVuSans-30" x="127.246094"/>
      </g>
     </g>
    </g>
    <g id="xtick_3">
     <g id="line2d_3">
      <g>
       <use xlink:href="#m404cb0a5b8" x="415.97814" y="404.945625" style="fill: #212529; stroke: #212529; stroke-width: 0.8"/>
      </g>
     </g>
     <g id="text_3">
      <!-- 400 -->
      <g style="fill: #212529" transform="translate(393.07314 430.181875) scale(0.24 -0.24)">
       <defs>
        <path id="DejaVuSans-34" d="M 2419 4116 
L 825 1625 
L 2419 1625 
L 2419 4116 
z
M 2253 4666 
L 3047 4666 
L 3047 1625 
L 3713 1625 
L 3713 1100 
L 3047 1100 
L 3047 0 
L 2419 0 
L 2419 1100 
L 313 1100 
L 313 1709 
L 2253 4666 
z
" transform="scale(0.015625)"/>
       </defs>
       <use xlink:href="#DejaVuSans-34"/>
       <use xlink:href="#DejaVuSans-30" x="63.623047"/>
       <use xlink:href="#DejaVuSans-30" x="127.246094"/>
      </g>
     </g>
    </g>
    <g id="xtick_4">
     <g id="line2d_4">
      <g>
       <use xlink:href="#m404cb0a5b8" x="560.934058" y="404.945625" style="fill: #212529; stroke: #212529; stroke-width: 0.8"/>
      </g>
     </g>
     <g id="text_4">
      <!-- 600 -->
      <g style="fill: #212529" transform="translate(538.029058 430.181875) scale(0.24 -0.24)">
       <defs>
        <path id="DejaVuSans-36" d="M 2113 2584 
Q 1688 2584 1439 2293 
Q 1191 2003 1191 1497 
Q 1191 994 1439 701 
Q 1688 409 2113 409 
Q 2538 409 2786 701 
Q 3034 994 3034 1497 
Q 3034 2003 2786 2293 
Q 2538 2584 2113 2584 
z
M 3366 4563 
L 3366 3988 
Q 3128 4100 2886 4159 
Q 2644 4219 2406 4219 
Q 1781 4219 1451 3797 
Q 1122 3375 1075 2522 
Q 1259 2794 1537 2939 
Q 1816 3084 2150 3084 
Q 2853 3084 3261 2657 
Q 3669 2231 3669 1497 
Q 3669 778 3244 343 
Q 2819 -91 2113 -91 
Q 1303 -91 875 529 
Q 447 1150 447 2328 
Q 447 3434 972 4092 
Q 1497 4750 2381 4750 
Q 2619 4750 2861 4703 
Q 3103 4656 3366 4563 
z
" transform="scale(0.015625)"/>
       </defs>
       <use xlink:href="#DejaVuSans-36"/>
       <use xlink:href="#DejaVuSans-30" x="63.623047"/>
       <use xlink:href="#DejaVuSans-30" x="127.246094"/>
      </g>
     </g>
    </g>
    <g id="text_5">
     <!-- Epoch -->
     <g style="fill: #212529" transform="translate(312.42535 461.968438) scale(0.3 -0.3)">
      <defs>
       <path id="DejaVuSans-45" d="M 628 4666 
L 3578 4666 
L 3578 4134 
L 1259 4134 
L 1259 2753 
L 3481 2753 
L 3481 2222 
L 1259 2222 
L 1259 531 
L 3634 531 
L 3634 0 
L 628 0 
L 628 4666 
z
" transform="scale(0.015625)"/>
       <path id="DejaVuSans-70" d="M 1159 525 
L 1159 -1331 
L 581 -1331 
L 581 3500 
L 1159 3500 
L 1159 2969 
Q 1341 3281 1617 3432 
Q 1894 3584 2278 3584 
Q 2916 3584 3314 3078 
Q 3713 2572 3713 1747 
Q 3713 922 3314 415 
Q 2916 -91 2278 -91 
Q 1894 -91 1617 61 
Q 1341 213 1159 525 
z
M 3116 1747 
Q 3116 2381 2855 2742 
Q 2594 3103 2138 3103 
Q 1681 3103 1420 2742 
Q 1159 2381 1159 1747 
Q 1159 1113 1420 752 
Q 1681 391 2138 391 
Q 2594 391 2855 752 
Q 3116 1113 3116 1747 
z
" transform="scale(0.015625)"/>
       <path id="DejaVuSans-6f" d="M 1959 3097 
Q 1497 3097 1228 2736 
Q 959 2375 959 1747 
Q 959 1119 1226 758 
Q 1494 397 1959 397 
Q 2419 397 2687 759 
Q 2956 1122 2956 1747 
Q 2956 2369 2687 2733 
Q 2419 3097 1959 3097 
z
M 1959 3584 
Q 2709 3584 3137 3096 
Q 3566 2609 3566 1747 
Q 3566 888 3137 398 
Q 2709 -91 1959 -91 
Q 1206 -91 779 398 
Q 353 888 353 1747 
Q 353 2609 779 3096 
Q 1206 3584 1959 3584 
z
" transform="scale(0.015625)"/>
       <path id="DejaVuSans-63" d="M 3122 3366 
L 3122 2828 
Q 2878 2963 2633 3030 
Q 2388 3097 2138 3097 
Q 1578 3097 1268 2742 
Q 959 2388 959 1747 
Q 959 1106 1268 751 
Q 1578 397 2138 397 
Q 2388 397 2633 464 
Q 2878 531 3122 666 
L 3122 134 
Q 2881 22 2623 -34 
Q 2366 -91 2075 -91 
Q 1284 -91 818 406 
Q 353 903 353 1747 
Q 353 2603 823 3093 
Q 1294 3584 2113 3584 
Q 2378 3584 2631 3529 
Q 2884 3475 3122 3366 
z
" transform="scale(0.015625)"/>
       <path id="DejaVuSans-68" d="M 3513 2113 
L 3513 0 
L 2938 0 
L 2938 2094 
Q 2938 2591 2744 2837 
Q 2550 3084 2163 3084 
Q 1697 3084 1428 2787 
Q 1159 2491 1159 1978 
L 1159 0 
L 581 0 
L 581 4863 
L 1159 4863 
L 1159 2956 
Q 1366 3272 1645 3428 
Q 1925 3584 2291 3584 
Q 2894 3584 3203 3211 
Q 3513 2838 3513 2113 
z
" transform="scale(0.015625)"/>
      </defs>
      <use xlink:href="#DejaVuSans-45"/>
      <use xlink:href="#DejaVuSans-70" x="63.183594"/>
      <use xlink:href="#DejaVuSans-6f" x="126.660156"/>
      <use xlink:href="#DejaVuSans-63" x="187.841797"/>
      <use xlink:href="#DejaVuSans-68" x="242.822266"/>
     </g>
    </g>
   </g>
   <g id="matplotlib.axis_2">
    <g id="ytick_1">
     <g id="line2d_5">
      <defs>
       <path id="m8b370e511b" d="M 0 0 
L -3.5 0 
" style="stroke: #212529; stroke-width: 0.8"/>
      </defs>
      <g>
       <use xlink:href="#m8b370e511b" x="103.634375" y="293.316685" style="fill: #212529; stroke: #212529; stroke-width: 0.8"/>
      </g>
     </g>
     <g id="text_6">
      <!-- $\mathdefault{10^{-5}}$ -->
      <g style="fill: #212529" transform="translate(40.234375 302.43481) scale(0.24 -0.24)">
       <defs>
        <path id="DejaVuSans-31" d="M 794 531 
L 1825 531 
L 1825 4091 
L 703 3866 
L 703 4441 
L 1819 4666 
L 2450 4666 
L 2450 531 
L 3481 531 
L 3481 0 
L 794 0 
L 794 531 
z
" transform="scale(0.015625)"/>
        <path id="DejaVuSans-2212" d="M 678 2272 
L 4684 2272 
L 4684 1741 
L 678 1741 
L 678 2272 
z
" transform="scale(0.015625)"/>
        <path id="DejaVuSans-35" d="M 691 4666 
L 3169 4666 
L 3169 4134 
L 1269 4134 
L 1269 2991 
Q 1406 3038 1543 3061 
Q 1681 3084 1819 3084 
Q 2600 3084 3056 2656 
Q 3513 2228 3513 1497 
Q 3513 744 3044 326 
Q 2575 -91 1722 -91 
Q 1428 -91 1123 -41 
Q 819 9 494 109 
L 494 744 
Q 775 591 1075 516 
Q 1375 441 1709 441 
Q 2250 441 2565 725 
Q 2881 1009 2881 1497 
Q 2881 1984 2565 2268 
Q 2250 2553 1709 2553 
Q 1456 2553 1204 2497 
Q 953 2441 691 2322 
L 691 4666 
z
" transform="scale(0.015625)"/>
       </defs>
       <use xlink:href="#DejaVuSans-31" transform="translate(0 0.684375)"/>
       <use xlink:href="#DejaVuSans-30" transform="translate(63.623047 0.684375)"/>
       <use xlink:href="#DejaVuSans-2212" transform="translate(128.203125 38.965625) scale(0.7)"/>
       <use xlink:href="#DejaVuSans-35" transform="translate(186.855469 38.965625) scale(0.7)"/>
      </g>
     </g>
    </g>
    <g id="ytick_2">
     <g id="line2d_6">
      <g>
       <use xlink:href="#m8b370e511b" x="103.634375" y="137.5258" style="fill: #212529; stroke: #212529; stroke-width: 0.8"/>
      </g>
     </g>
     <g id="text_7">
      <!-- $\mathdefault{10^{-4}}$ -->
      <g style="fill: #212529" transform="translate(40.234375 146.643925) scale(0.24 -0.24)">
       <use xlink:href="#DejaVuSans-31" transform="translate(0 0.684375)"/>
       <use xlink:href="#DejaVuSans-30" transform="translate(63.623047 0.684375)"/>
       <use xlink:href="#DejaVuSans-2212" transform="translate(128.203125 38.965625) scale(0.7)"/>
       <use xlink:href="#DejaVuSans-34" transform="translate(186.855469 38.965625) scale(0.7)"/>
      </g>
     </g>
    </g>
    <g id="ytick_3">
     <g id="line2d_7">
      <defs>
       <path id="m56639b9e76" d="M 0 0 
L -2 0 
" style="stroke: #212529; stroke-width: 0.6"/>
      </defs>
      <g>
       <use xlink:href="#m56639b9e76" x="103.634375" y="402.209841" style="fill: #212529; stroke: #212529; stroke-width: 0.6"/>
      </g>
     </g>
    </g>
    <g id="ytick_4">
     <g id="line2d_8">
      <g>
       <use xlink:href="#m56639b9e76" x="103.634375" y="374.776428" style="fill: #212529; stroke: #212529; stroke-width: 0.6"/>
      </g>
     </g>
    </g>
    <g id="ytick_5">
     <g id="line2d_9">
      <g>
       <use xlink:href="#m56639b9e76" x="103.634375" y="355.312111" style="fill: #212529; stroke: #212529; stroke-width: 0.6"/>
      </g>
     </g>
    </g>
    <g id="ytick_6">
     <g id="line2d_10">
      <g>
       <use xlink:href="#m56639b9e76" x="103.634375" y="340.214415" style="fill: #212529; stroke: #212529; stroke-width: 0.6"/>
      </g>
     </g>
    </g>
    <g id="ytick_7">
     <g id="line2d_11">
      <g>
       <use xlink:href="#m56639b9e76" x="103.634375" y="327.878698" style="fill: #212529; stroke: #212529; stroke-width: 0.6"/>
      </g>
     </g>
    </g>
    <g id="ytick_8">
     <g id="line2d_12">
      <g>
       <use xlink:href="#m56639b9e76" x="103.634375" y="317.448999" style="fill: #212529; stroke: #212529; stroke-width: 0.6"/>
      </g>
     </g>
    </g>
    <g id="ytick_9">
     <g id="line2d_13">
      <g>
       <use xlink:href="#m56639b9e76" x="103.634375" y="308.414382" style="fill: #212529; stroke: #212529; stroke-width: 0.6"/>
      </g>
     </g>
    </g>
    <g id="ytick_10">
     <g id="line2d_14">
      <g>
       <use xlink:href="#m56639b9e76" x="103.634375" y="300.445285" style="fill: #212529; stroke: #212529; stroke-width: 0.6"/>
      </g>
     </g>
    </g>
    <g id="ytick_11">
     <g id="line2d_15">
      <g>
       <use xlink:href="#m56639b9e76" x="103.634375" y="246.418956" style="fill: #212529; stroke: #212529; stroke-width: 0.6"/>
      </g>
     </g>
    </g>
    <g id="ytick_12">
     <g id="line2d_16">
      <g>
       <use xlink:href="#m56639b9e76" x="103.634375" y="218.985543" style="fill: #212529; stroke: #212529; stroke-width: 0.6"/>
      </g>
     </g>
    </g>
    <g id="ytick_13">
     <g id="line2d_17">
      <g>
       <use xlink:href="#m56639b9e76" x="103.634375" y="199.521226" style="fill: #212529; stroke: #212529; stroke-width: 0.6"/>
      </g>
     </g>
    </g>
    <g id="ytick_14">
     <g id="line2d_18">
      <g>
       <use xlink:href="#m56639b9e76" x="103.634375" y="184.42353" style="fill: #212529; stroke: #212529; stroke-width: 0.6"/>
      </g>
     </g>
    </g>
    <g id="ytick_15">
     <g id="line2d_19">
      <g>
       <use xlink:href="#m56639b9e76" x="103.634375" y="172.087813" style="fill: #212529; stroke: #212529; stroke-width: 0.6"/>
      </g>
     </g>
    </g>
    <g id="ytick_16">
     <g id="line2d_20">
      <g>
       <use xlink:href="#m56639b9e76" x="103.634375" y="161.658114" style="fill: #212529; stroke: #212529; stroke-width: 0.6"/>
      </g>
     </g>
    </g>
    <g id="ytick_17">
     <g id="line2d_21">
      <g>
       <use xlink:href="#m56639b9e76" x="103.634375" y="152.623497" style="fill: #212529; stroke: #212529; stroke-width: 0.6"/>
      </g>
     </g>
    </g>
    <g id="ytick_18">
     <g id="line2d_22">
      <g>
       <use xlink:href="#m56639b9e76" x="103.634375" y="144.6544" style="fill: #212529; stroke: #212529; stroke-width: 0.6"/>
      </g>
     </g>
    </g>
    <g id="ytick_19">
     <g id="line2d_23">
      <g>
       <use xlink:href="#m56639b9e76" x="103.634375" y="90.628071" style="fill: #212529; stroke: #212529; stroke-width: 0.6"/>
      </g>
     </g>
    </g>
    <g id="ytick_20">
     <g id="line2d_24">
      <g>
       <use xlink:href="#m56639b9e76" x="103.634375" y="63.194658" style="fill: #212529; stroke: #212529; stroke-width: 0.6"/>
      </g>
     </g>
    </g>
    <g id="ytick_21">
     <g id="line2d_25">
      <g>
       <use xlink:href="#m56639b9e76" x="103.634375" y="43.730341" style="fill: #212529; stroke: #212529; stroke-width: 0.6"/>
      </g>
     </g>
    </g>
    <g id="text_8">
     <!-- MSE (standardized) -->
     <g style="fill: #212529" transform="translate(29.995312 368.267031) rotate(-90) scale(0.3 -0.3)">
      <defs>
       <path id="DejaVuSans-4d" d="M 628 4666 
L 1569 4666 
L 2759 1491 
L 3956 4666 
L 4897 4666 
L 4897 0 
L 4281 0 
L 4281 4097 
L 3078 897 
L 2444 897 
L 1241 4097 
L 1241 0 
L 628 0 
L 628 4666 
z
" transform="scale(0.015625)"/>
       <path id="DejaVuSans-53" d="M 3425 4513 
L 3425 3897 
Q 3066 4069 2747 4153 
Q 2428 4238 2131 4238 
Q 1616 4238 1336 4038 
Q 1056 3838 1056 3469 
Q 1056 3159 1242 3001 
Q 1428 2844 1947 2747 
L 2328 2669 
Q 3034 2534 3370 2195 
Q 3706 1856 3706 1288 
Q 3706 609 3251 259 
Q 2797 -91 1919 -91 
Q 1588 -91 1214 -16 
Q 841 59 441 206 
L 441 856 
Q 825 641 1194 531 
Q 1563 422 1919 422 
Q 2459 422 2753 634 
Q 3047 847 3047 1241 
Q 3047 1584 2836 1778 
Q 2625 1972 2144 2069 
L 1759 2144 
Q 1053 2284 737 2584 
Q 422 2884 422 3419 
Q 422 4038 858 4394 
Q 1294 4750 2059 4750 
Q 2388 4750 2728 4690 
Q 3069 4631 3425 4513 
z
" transform="scale(0.015625)"/>
       <path id="DejaVuSans-20" transform="scale(0.015625)"/>
       <path id="DejaVuSans-28" d="M 1984 4856 
Q 1566 4138 1362 3434 
Q 1159 2731 1159 2009 
Q 1159 1288 1364 580 
Q 1569 -128 1984 -844 
L 1484 -844 
Q 1016 -109 783 600 
Q 550 1309 550 2009 
Q 550 2706 781 3412 
Q 1013 4119 1484 4856 
L 1984 4856 
z
" transform="scale(0.015625)"/>
       <path id="DejaVuSans-73" d="M 2834 3397 
L 2834 2853 
Q 2591 2978 2328 3040 
Q 2066 3103 1784 3103 
Q 1356 3103 1142 2972 
Q 928 2841 928 2578 
Q 928 2378 1081 2264 
Q 1234 2150 1697 2047 
L 1894 2003 
Q 2506 1872 2764 1633 
Q 3022 1394 3022 966 
Q 3022 478 2636 193 
Q 2250 -91 1575 -91 
Q 1294 -91 989 -36 
Q 684 19 347 128 
L 347 722 
Q 666 556 975 473 
Q 1284 391 1588 391 
Q 1994 391 2212 530 
Q 2431 669 2431 922 
Q 2431 1156 2273 1281 
Q 2116 1406 1581 1522 
L 1381 1569 
Q 847 1681 609 1914 
Q 372 2147 372 2553 
Q 372 3047 722 3315 
Q 1072 3584 1716 3584 
Q 2034 3584 2315 3537 
Q 2597 3491 2834 3397 
z
" transform="scale(0.015625)"/>
       <path id="DejaVuSans-74" d="M 1172 4494 
L 1172 3500 
L 2356 3500 
L 2356 3053 
L 1172 3053 
L 1172 1153 
Q 1172 725 1289 603 
Q 1406 481 1766 481 
L 2356 481 
L 2356 0 
L 1766 0 
Q 1100 0 847 248 
Q 594 497 594 1153 
L 594 3053 
L 172 3053 
L 172 3500 
L 594 3500 
L 594 4494 
L 1172 4494 
z
" transform="scale(0.015625)"/>
       <path id="DejaVuSans-61" d="M 2194 1759 
Q 1497 1759 1228 1600 
Q 959 1441 959 1056 
Q 959 750 1161 570 
Q 1363 391 1709 391 
Q 2188 391 2477 730 
Q 2766 1069 2766 1631 
L 2766 1759 
L 2194 1759 
z
M 3341 1997 
L 3341 0 
L 2766 0 
L 2766 531 
Q 2569 213 2275 61 
Q 1981 -91 1556 -91 
Q 1019 -91 701 211 
Q 384 513 384 1019 
Q 384 1609 779 1909 
Q 1175 2209 1959 2209 
L 2766 2209 
L 2766 2266 
Q 2766 2663 2505 2880 
Q 2244 3097 1772 3097 
Q 1472 3097 1187 3025 
Q 903 2953 641 2809 
L 641 3341 
Q 956 3463 1253 3523 
Q 1550 3584 1831 3584 
Q 2591 3584 2966 3190 
Q 3341 2797 3341 1997 
z
" transform="scale(0.015625)"/>
       <path id="DejaVuSans-6e" d="M 3513 2113 
L 3513 0 
L 2938 0 
L 2938 2094 
Q 2938 2591 2744 2837 
Q 2550 3084 2163 3084 
Q 1697 3084 1428 2787 
Q 1159 2491 1159 1978 
L 1159 0 
L 581 0 
L 581 3500 
L 1159 3500 
L 1159 2956 
Q 1366 3272 1645 3428 
Q 1925 3584 2291 3584 
Q 2894 3584 3203 3211 
Q 3513 2838 3513 2113 
z
" transform="scale(0.015625)"/>
       <path id="DejaVuSans-64" d="M 2906 2969 
L 2906 4863 
L 3481 4863 
L 3481 0 
L 2906 0 
L 2906 525 
Q 2725 213 2448 61 
Q 2172 -91 1784 -91 
Q 1150 -91 751 415 
Q 353 922 353 1747 
Q 353 2572 751 3078 
Q 1150 3584 1784 3584 
Q 2172 3584 2448 3432 
Q 2725 3281 2906 2969 
z
M 947 1747 
Q 947 1113 1208 752 
Q 1469 391 1925 391 
Q 2381 391 2643 752 
Q 2906 1113 2906 1747 
Q 2906 2381 2643 2742 
Q 2381 3103 1925 3103 
Q 1469 3103 1208 2742 
Q 947 2381 947 1747 
z
" transform="scale(0.015625)"/>
       <path id="DejaVuSans-72" d="M 2631 2963 
Q 2534 3019 2420 3045 
Q 2306 3072 2169 3072 
Q 1681 3072 1420 2755 
Q 1159 2438 1159 1844 
L 1159 0 
L 581 0 
L 581 3500 
L 1159 3500 
L 1159 2956 
Q 1341 3275 1631 3429 
Q 1922 3584 2338 3584 
Q 2397 3584 2469 3576 
Q 2541 3569 2628 3553 
L 2631 2963 
z
" transform="scale(0.015625)"/>
       <path id="DejaVuSans-69" d="M 603 3500 
L 1178 3500 
L 1178 0 
L 603 0 
L 603 3500 
z
M 603 4863 
L 1178 4863 
L 1178 4134 
L 603 4134 
L 603 4863 
z
" transform="scale(0.015625)"/>
       <path id="DejaVuSans-7a" d="M 353 3500 
L 3084 3500 
L 3084 2975 
L 922 459 
L 3084 459 
L 3084 0 
L 275 0 
L 275 525 
L 2438 3041 
L 353 3041 
L 353 3500 
z
" transform="scale(0.015625)"/>
       <path id="DejaVuSans-65" d="M 3597 1894 
L 3597 1613 
L 953 1613 
Q 991 1019 1311 708 
Q 1631 397 2203 397 
Q 2534 397 2845 478 
Q 3156 559 3463 722 
L 3463 178 
Q 3153 47 2828 -22 
Q 2503 -91 2169 -91 
Q 1331 -91 842 396 
Q 353 884 353 1716 
Q 353 2575 817 3079 
Q 1281 3584 2069 3584 
Q 2775 3584 3186 3129 
Q 3597 2675 3597 1894 
z
M 3022 2063 
Q 3016 2534 2758 2815 
Q 2500 3097 2075 3097 
Q 1594 3097 1305 2825 
Q 1016 2553 972 2059 
L 3022 2063 
z
" transform="scale(0.015625)"/>
       <path id="DejaVuSans-29" d="M 513 4856 
L 1013 4856 
Q 1481 4119 1714 3412 
Q 1947 2706 1947 2009 
Q 1947 1309 1714 600 
Q 1481 -109 1013 -844 
L 513 -844 
Q 928 -128 1133 580 
Q 1338 1288 1338 2009 
Q 1338 2731 1133 3434 
Q 928 4138 513 4856 
z
" transform="scale(0.015625)"/>
      </defs>
      <use xlink:href="#DejaVuSans-4d"/>
      <use xlink:href="#DejaVuSans-53" x="86.279297"/>
      <use xlink:href="#DejaVuSans-45" x="149.755859"/>
      <use xlink:href="#DejaVuSans-20" x="212.939453"/>
      <use xlink:href="#DejaVuSans-28" x="244.726562"/>
      <use xlink:href="#DejaVuSans-73" x="283.740234"/>
      <use xlink:href="#DejaVuSans-74" x="335.839844"/>
      <use xlink:href="#DejaVuSans-61" x="375.048828"/>
      <use xlink:href="#DejaVuSans-6e" x="436.328125"/>
      <use xlink:href="#DejaVuSans-64" x="499.707031"/>
      <use xlink:href="#DejaVuSans-61" x="563.183594"/>
      <use xlink:href="#DejaVuSans-72" x="624.462891"/>
      <use xlink:href="#DejaVuSans-64" x="663.826172"/>
      <use xlink:href="#DejaVuSans-69" x="727.302734"/>
      <use xlink:href="#DejaVuSans-7a" x="755.085938"/>
      <use xlink:href="#DejaVuSans-65" x="807.576172"/>
      <use xlink:href="#DejaVuSans-64" x="869.099609"/>
      <use xlink:href="#DejaVuSans-29" x="932.576172"/>
     </g>
    </g>
   </g>
   <g id="line2d_26">
    <path d="M 126.791083 67.719075 
L 127.515863 62.156807 
L 128.240642 62.716827 
L 129.690201 61.400096 
L 130.414981 57.283023 
L 131.139761 59.921696 
L 132.58932 64.348164 
L 133.314099 61.655581 
L 134.038879 61.541359 
L 134.763658 63.12971 
L 135.488438 59.75095 
L 136.213218 65.616992 
L 136.937997 64.029051 
L 137.662777 64.056575 
L 138.387556 62.615715 
L 139.112336 62.990413 
L 139.837116 70.054963 
L 140.561895 61.966084 
L 141.286675 62.359953 
L 142.011454 62.475676 
L 142.736234 64.127329 
L 143.461014 61.769544 
L 144.185793 62.624406 
L 144.910573 61.326643 
L 145.635352 63.258193 
L 146.360132 61.244327 
L 147.084912 63.180695 
L 147.809691 63.521545 
L 148.534471 312.722757 
L 149.25925 326.854946 
L 149.98403 317.262029 
L 150.708809 326.901011 
L 151.433589 307.497748 
L 152.158369 302.190804 
L 152.883148 303.068896 
L 153.607928 299.482053 
L 154.332707 306.475864 
L 155.057487 300.499725 
L 155.782267 302.18673 
L 156.507046 307.70037 
L 157.231826 281.164756 
L 157.956605 289.299319 
L 158.681385 303.651391 
L 159.406165 315.094211 
L 160.130944 300.60945 
L 160.855724 309.947248 
L 161.580503 290.265694 
L 162.305283 286.396214 
L 163.030063 309.653383 
L 163.754842 303.815656 
L 164.479622 299.003335 
L 165.204401 315.938276 
L 165.929181 312.610055 
L 166.65396 304.769114 
L 167.37874 315.365117 
L 168.10352 311.805972 
L 168.828299 310.383203 
L 169.553079 330.678915 
L 170.277858 322.076875 
L 171.002638 329.171587 
L 171.727418 328.593704 
L 172.452197 327.37132 
L 173.176977 328.586599 
L 173.901756 333.022235 
L 174.626536 330.84766 
L 175.351316 325.676157 
L 176.076095 333.706769 
L 177.525654 325.170871 
L 178.250434 335.263582 
L 178.975214 335.468799 
L 179.699993 336.715679 
L 180.424773 340.226003 
L 181.149552 339.414264 
L 182.599112 338.969918 
L 183.323891 346.876142 
L 184.048671 333.639936 
L 184.77345 335.13748 
L 185.49823 336.098619 
L 186.223009 337.675293 
L 187.672569 333.298752 
L 188.397348 339.239856 
L 189.122128 332.222169 
L 189.846907 342.102695 
L 190.571687 348.823771 
L 191.296467 338.735512 
L 192.021246 337.739172 
L 192.746026 351.679872 
L 193.470805 347.861064 
L 194.920365 354.806442 
L 195.645144 355.566557 
L 196.369924 354.562184 
L 197.094703 349.273447 
L 197.819483 340.396713 
L 198.544263 348.280876 
L 199.269042 352.281725 
L 199.993822 349.609164 
L 200.718601 356.468993 
L 201.443381 352.264637 
L 202.16816 356.360796 
L 202.89294 344.94901 
L 203.61772 350.018774 
L 204.342499 350.156529 
L 205.067279 353.8687 
L 205.792058 354.249762 
L 206.516838 357.257102 
L 207.241618 359.133209 
L 207.966397 342.336059 
L 208.691177 354.820108 
L 210.140736 351.093571 
L 210.865516 355.26052 
L 211.590295 360.972544 
L 212.315075 357.081347 
L 213.039854 355.328785 
L 213.764634 353.063825 
L 214.489414 356.667661 
L 215.214193 366.400852 
L 215.938973 362.493507 
L 216.663752 348.891251 
L 217.388532 359.101304 
L 218.113312 360.568692 
L 218.838091 362.543643 
L 219.562871 349.50639 
L 220.28765 351.22221 
L 221.01243 362.388855 
L 221.737209 350.704542 
L 222.461989 356.052004 
L 223.186769 362.880221 
L 223.911548 355.178985 
L 224.636328 372.657994 
L 225.361107 343.004421 
L 226.085887 364.438118 
L 226.810667 355.968618 
L 227.535446 355.979684 
L 228.260226 356.185734 
L 228.985005 360.396304 
L 229.709785 359.617081 
L 230.434565 356.013967 
L 231.159344 357.049336 
L 231.884124 358.428937 
L 232.608903 354.075451 
L 233.333683 347.365272 
L 234.058463 352.230142 
L 234.783242 354.155061 
L 235.508022 360.818906 
L 236.232801 360.01668 
L 236.957581 358.641657 
L 237.68236 365.463342 
L 238.40714 360.274163 
L 239.13192 369.342877 
L 239.856699 357.529423 
L 240.581479 356.179273 
L 241.306258 357.775352 
L 242.031038 364.321718 
L 242.755818 363.950672 
L 243.480597 351.553555 
L 244.205377 357.782748 
L 244.930156 354.762012 
L 245.654936 353.630227 
L 246.379716 353.512512 
L 247.104495 352.873325 
L 247.829275 358.601727 
L 248.554054 350.233448 
L 249.278834 354.149089 
L 250.003614 349.398317 
L 250.728393 349.74812 
L 251.453173 355.300821 
L 252.902732 351.316046 
L 253.627512 355.848832 
L 254.352291 359.160788 
L 255.077071 353.596466 
L 255.80185 354.514623 
L 256.52663 350.175993 
L 257.251409 352.820505 
L 257.976189 356.024345 
L 258.700969 367.389221 
L 259.425748 361.924244 
L 260.150528 358.529728 
L 260.875307 356.847743 
L 261.600087 370.126855 
L 262.324867 352.315888 
L 263.049646 353.763478 
L 263.774426 354.853902 
L 264.499205 352.196871 
L 265.223985 350.957412 
L 265.948765 357.010746 
L 266.673544 351.609695 
L 267.398324 356.679138 
L 268.123103 359.001965 
L 268.847883 359.331106 
L 269.572663 360.125315 
L 270.297442 360.510224 
L 271.022222 357.774869 
L 271.747001 363.152586 
L 272.471781 361.651142 
L 273.19656 352.346909 
L 273.92134 354.626955 
L 274.64612 357.336932 
L 275.370899 350.539933 
L 276.095679 353.51937 
L 276.820458 360.151264 
L 277.545238 355.661559 
L 278.270018 359.1764 
L 278.994797 358.920541 
L 279.719577 358.065998 
L 280.444356 360.790708 
L 281.169136 360.868786 
L 281.893916 347.587183 
L 282.618695 365.646741 
L 283.343475 364.57199 
L 284.068254 353.374176 
L 284.793034 361.336618 
L 285.517814 355.046142 
L 286.242593 357.254255 
L 286.967373 360.056852 
L 287.692152 356.479999 
L 288.416932 370.502076 
L 289.141711 358.303711 
L 289.866491 353.767681 
L 290.591271 358.864792 
L 291.31605 352.340861 
L 292.04083 362.3902 
L 292.765609 352.949141 
L 293.490389 353.497221 
L 294.215169 365.518271 
L 294.939948 358.527108 
L 295.664728 367.49081 
L 296.389507 359.339468 
L 297.114287 359.034391 
L 297.839067 362.170666 
L 298.563846 372.378808 
L 299.288626 350.253765 
L 300.738185 367.493565 
L 301.462965 355.072701 
L 302.187744 360.274738 
L 303.637303 353.575046 
L 304.362083 359.789267 
L 305.086863 359.771754 
L 305.811642 358.914532 
L 306.536422 351.752972 
L 307.261201 356.843295 
L 307.985981 354.42071 
L 308.71076 360.334176 
L 309.43554 356.852664 
L 310.16032 366.521029 
L 310.885099 355.892191 
L 311.609879 360.211368 
L 312.334658 363.05952 
L 313.059438 355.910864 
L 313.784218 366.474414 
L 315.958556 356.73534 
L 316.683336 361.175987 
L 317.408116 363.162975 
L 318.132895 363.495425 
L 318.857675 359.425552 
L 319.582454 362.537405 
L 320.307234 359.037429 
L 321.032014 357.763756 
L 321.756793 360.632163 
L 322.481573 364.339825 
L 323.206352 360.576549 
L 323.931132 363.70856 
L 324.655911 361.110033 
L 325.380691 360.940705 
L 326.105471 363.355943 
L 326.83025 364.246677 
L 327.55503 364.902666 
L 328.279809 362.01993 
L 329.004589 367.591908 
L 330.454148 367.268613 
L 331.178928 363.609324 
L 331.903707 370.041219 
L 332.628487 371.478952 
L 333.353267 362.481935 
L 334.078046 363.589262 
L 334.802826 368.221019 
L 335.527605 367.330976 
L 336.252385 367.231741 
L 336.977165 366.325167 
L 337.701944 363.689038 
L 338.426724 364.994014 
L 339.151503 364.910177 
L 339.876283 368.357818 
L 340.601063 362.669178 
L 341.325842 371.034093 
L 342.050622 372.180411 
L 342.775401 363.580086 
L 343.500181 366.44068 
L 344.22496 362.497267 
L 344.94974 367.689153 
L 345.67452 362.819788 
L 346.399299 367.991622 
L 347.124079 367.489675 
L 347.848858 364.868253 
L 348.573638 364.69679 
L 349.298418 361.721562 
L 350.023197 365.521234 
L 350.747977 366.168549 
L 351.472756 358.021808 
L 352.197536 367.020591 
L 352.922316 366.969157 
L 353.647095 365.1402 
L 354.371875 359.419282 
L 355.096654 368.187289 
L 355.821434 369.680255 
L 356.546214 360.209416 
L 357.270993 366.269539 
L 359.445332 365.892977 
L 360.170111 363.221919 
L 360.894891 362.408066 
L 361.619671 363.162903 
L 362.34445 361.990771 
L 363.06923 364.156703 
L 363.794009 367.76232 
L 364.518789 359.443785 
L 365.243569 363.379572 
L 365.968348 366.046075 
L 366.693128 366.401329 
L 367.417907 364.795052 
L 368.142687 364.847152 
L 368.867467 364.148543 
L 369.592246 370.142414 
L 370.317026 361.355202 
L 371.041805 360.786249 
L 371.766585 364.700443 
L 372.491365 363.422978 
L 373.216144 364.496167 
L 373.940924 366.938992 
L 374.665703 363.56086 
L 375.390483 363.696311 
L 376.115262 367.527394 
L 377.564822 362.110802 
L 378.289601 366.755183 
L 379.014381 364.754569 
L 379.73916 365.571797 
L 380.46394 364.504167 
L 381.18872 364.745044 
L 382.638279 367.572591 
L 383.363058 367.862932 
L 384.087838 366.05248 
L 384.812618 366.51221 
L 385.537397 367.525745 
L 386.262177 363.365187 
L 386.986956 360.925366 
L 387.711736 364.27558 
L 388.436516 361.650593 
L 389.886075 365.601135 
L 390.610854 365.892759 
L 391.335634 367.068115 
L 392.060414 365.799817 
L 392.785193 364.237396 
L 393.509973 365.082392 
L 394.234752 364.757551 
L 394.959532 365.549033 
L 395.684311 367.07232 
L 396.409091 364.292537 
L 397.133871 367.785277 
L 397.85865 363.344971 
L 398.58343 362.21732 
L 399.308209 365.201604 
L 400.032989 363.980401 
L 400.757769 365.855384 
L 401.482548 365.517777 
L 402.207328 363.101599 
L 402.932107 365.718377 
L 403.656887 364.270777 
L 404.381667 364.740237 
L 405.106446 364.292016 
L 405.831226 366.31306 
L 406.556005 366.723047 
L 408.005565 362.476288 
L 408.730344 363.339037 
L 409.455124 365.673077 
L 410.179903 371.565788 
L 410.904683 364.31814 
L 411.629462 365.249943 
L 412.354242 364.782332 
L 413.079022 364.143362 
L 413.803801 363.917302 
L 414.528581 362.743454 
L 415.25336 367.120568 
L 415.97814 364.47445 
L 416.70292 366.143027 
L 417.427699 366.843568 
L 418.152479 364.121278 
L 418.877258 366.787281 
L 419.602038 368.348548 
L 420.326818 362.066802 
L 421.051597 360.34575 
L 421.776377 362.605263 
L 422.501156 367.211341 
L 423.225936 364.062134 
L 423.950716 361.63991 
L 424.675495 364.240696 
L 425.400275 361.782697 
L 426.125054 363.054239 
L 426.849834 362.279962 
L 428.299393 365.42787 
L 429.024173 364.038963 
L 429.748952 365.044852 
L 430.473732 360.558774 
L 431.198511 364.130156 
L 431.923291 363.385759 
L 432.648071 366.124418 
L 433.37285 365.086402 
L 434.09763 361.668851 
L 434.822409 365.374567 
L 435.547189 364.986973 
L 436.271969 363.444769 
L 436.996748 364.125011 
L 437.721528 364.437609 
L 438.446307 361.195592 
L 439.171087 364.068606 
L 439.895867 365.383552 
L 440.620646 365.0735 
L 441.345426 367.258251 
L 442.794985 366.060185 
L 443.519765 363.963044 
L 444.244544 369.072188 
L 444.969324 364.650737 
L 445.694103 362.166303 
L 446.418883 360.387416 
L 447.143662 367.082172 
L 447.868442 363.309765 
L 448.593222 365.054278 
L 449.318001 364.600637 
L 450.042781 363.226994 
L 450.76756 362.892079 
L 451.49234 365.013893 
L 452.21712 358.961307 
L 452.941899 364.418485 
L 453.666679 362.243381 
L 454.391458 365.157916 
L 455.116238 363.150334 
L 455.841018 365.673893 
L 456.565797 364.284357 
L 457.290577 365.639492 
L 458.015356 363.256751 
L 458.740136 363.927975 
L 459.464916 365.641359 
L 460.189695 363.396706 
L 460.914475 365.191024 
L 461.639254 364.976057 
L 462.364034 362.507758 
L 463.088813 364.70483 
L 463.813593 365.93086 
L 464.538373 360.838289 
L 465.263152 362.944438 
L 465.987932 363.879288 
L 466.712711 361.667831 
L 467.437491 362.164435 
L 468.162271 364.976764 
L 468.88705 365.108188 
L 469.61183 363.849039 
L 470.336609 363.479235 
L 471.061389 362.855275 
L 471.786169 363.309459 
L 472.510948 362.370556 
L 473.235728 367.785764 
L 473.960507 361.583745 
L 474.685287 363.803996 
L 475.410067 363.742799 
L 476.134846 362.607882 
L 476.859626 363.609971 
L 479.033965 365.850112 
L 479.758744 363.181441 
L 480.483524 364.56497 
L 481.208303 364.615436 
L 481.933083 362.516882 
L 482.657862 364.447922 
L 483.382642 363.148793 
L 484.107422 365.252456 
L 484.832201 363.413403 
L 485.556981 363.328909 
L 486.28176 365.457711 
L 487.00654 362.337722 
L 487.73132 363.79507 
L 488.456099 364.298932 
L 489.180879 363.381832 
L 489.905658 366.457315 
L 490.630438 364.310368 
L 491.355218 364.44657 
L 492.079997 364.342299 
L 492.804777 363.274581 
L 493.529556 363.408488 
L 494.254336 366.229684 
L 494.979116 362.836309 
L 495.703895 363.721491 
L 496.428675 360.073568 
L 497.153454 365.154588 
L 497.878234 364.418991 
L 498.603013 361.560416 
L 499.327793 362.430692 
L 500.052573 364.407365 
L 501.502132 362.484022 
L 502.226911 363.385852 
L 502.951691 364.619295 
L 503.676471 364.843295 
L 504.40125 366.081227 
L 505.12603 364.285279 
L 505.850809 364.862468 
L 506.575589 366.561066 
L 507.300369 363.181126 
L 508.025148 365.177167 
L 508.749928 362.552457 
L 509.474707 364.159097 
L 510.199487 365.184225 
L 512.373826 362.967254 
L 513.098605 362.812895 
L 513.823385 362.189359 
L 514.548165 365.507803 
L 515.272944 366.522572 
L 515.997724 364.698375 
L 516.722503 363.530462 
L 517.447283 364.048705 
L 518.172062 364.41132 
L 518.896842 363.078425 
L 519.621622 362.697717 
L 520.346401 363.77062 
L 521.071181 364.205736 
L 522.52074 362.639185 
L 523.24552 365.260324 
L 523.970299 362.387395 
L 524.695079 362.925713 
L 525.419858 362.917503 
L 526.144638 364.566866 
L 526.869418 363.111152 
L 527.594197 362.650961 
L 528.318977 362.63826 
L 529.043756 363.35818 
L 529.768536 364.410038 
L 531.218095 362.409966 
L 531.942875 364.367745 
L 532.667654 363.913381 
L 533.392434 362.849129 
L 534.117213 364.179695 
L 534.841993 364.7582 
L 535.566773 364.557498 
L 536.291552 362.553819 
L 537.016332 362.965518 
L 537.741111 363.219994 
L 538.465891 364.0672 
L 539.190671 362.579892 
L 539.91545 363.01476 
L 540.64023 365.100773 
L 541.365009 362.988825 
L 542.089789 363.095513 
L 542.814569 364.228268 
L 543.539348 365.903728 
L 544.264128 364.227584 
L 544.988907 362.961932 
L 545.713687 363.319849 
L 546.438467 365.407332 
L 547.163246 363.379277 
L 547.888026 362.467463 
L 548.612805 362.946497 
L 549.337585 363.282155 
L 550.062365 364.09284 
L 550.787144 362.437482 
L 551.511924 364.01401 
L 552.236703 363.277996 
L 552.961483 364.270345 
L 553.686262 363.64463 
L 554.411042 364.00134 
L 555.135822 366.017245 
L 556.585381 363.82831 
L 557.31016 362.692427 
L 558.03494 362.313493 
L 558.75972 363.538752 
L 559.484499 363.172862 
L 560.209279 365.241949 
L 560.934058 364.798532 
L 561.658838 363.494537 
L 562.383618 362.836442 
L 563.108397 363.906109 
L 563.833177 364.566054 
L 564.557956 364.924316 
L 565.282736 363.751667 
L 566.007516 365.5063 
L 566.732295 365.381995 
L 567.457075 364.208906 
L 568.181854 365.109645 
L 568.906634 364.406473 
L 569.631413 365.407141 
L 570.356193 364.904557 
L 571.080973 364.889464 
L 571.805752 364.533244 
L 572.530532 365.068782 
L 573.255311 363.351771 
L 573.980091 364.383977 
L 574.704871 364.697317 
L 575.42965 365.528695 
L 576.15443 363.712934 
L 576.879209 364.817283 
L 577.603989 363.35926 
L 578.328769 364.904868 
L 579.053548 365.173391 
L 579.778328 365.775185 
L 580.503107 365.026449 
L 581.227887 364.852012 
L 581.952667 364.407586 
L 582.677446 365.039415 
L 583.402226 363.347674 
L 584.127005 362.625551 
L 584.851785 366.627417 
L 585.576564 364.399607 
L 586.301344 362.853152 
L 587.026124 364.674715 
L 588.475683 365.700308 
L 589.200462 362.877684 
L 589.925242 362.943524 
L 589.925242 362.943524 
" clip-path="url(#p50eb775873)" style="fill: none; stroke: #2563eb; stroke-width: 3; stroke-linecap: square"/>
   </g>
   <g id="line2d_27">
    <path d="M 126.791083 67.810874 
L 127.515863 61.982859 
L 128.240642 62.686936 
L 128.965422 61.067676 
L 129.690201 61.193795 
L 130.414981 56.689261 
L 132.58932 63.523939 
L 133.314099 61.305653 
L 134.038879 61.027808 
L 134.763658 62.642913 
L 135.488438 59.142439 
L 136.213218 65.0333 
L 136.937997 63.355099 
L 137.662777 63.563291 
L 138.387556 61.948679 
L 139.112336 62.515413 
L 139.837116 69.642282 
L 140.561895 61.507745 
L 142.011454 62.248732 
L 142.736234 63.978704 
L 143.461014 61.350313 
L 144.185793 62.040545 
L 144.910573 60.972791 
L 145.635352 62.933801 
L 146.360132 61.046383 
L 147.084912 62.89445 
L 147.809691 63.542131 
L 148.534471 311.285803 
L 149.25925 326.207103 
L 149.98403 323.134153 
L 150.708809 322.037812 
L 151.433589 309.184825 
L 152.158369 313.720977 
L 152.883148 305.263554 
L 153.607928 318.689301 
L 154.332707 327.501329 
L 155.057487 330.020814 
L 155.782267 319.68205 
L 156.507046 315.847204 
L 157.231826 321.301366 
L 157.956605 328.766208 
L 158.681385 333.95744 
L 159.406165 329.060688 
L 160.130944 342.163525 
L 160.855724 348.99751 
L 161.580503 333.27253 
L 162.305283 342.56875 
L 163.030063 347.435069 
L 163.754842 339.538458 
L 164.479622 338.266093 
L 165.204401 341.410242 
L 165.929181 342.348276 
L 166.65396 350.375419 
L 167.37874 341.200309 
L 168.10352 346.002964 
L 168.828299 347.776315 
L 169.553079 355.159433 
L 170.277858 346.941214 
L 171.727418 357.67938 
L 172.452197 359.032405 
L 173.176977 359.197323 
L 173.901756 357.231385 
L 174.626536 360.165481 
L 175.351316 358.458896 
L 176.076095 364.732188 
L 176.800875 358.818823 
L 177.525654 359.465384 
L 178.250434 367.656797 
L 178.975214 364.530269 
L 179.699993 368.97499 
L 180.424773 362.971285 
L 181.149552 366.127212 
L 181.874332 362.761713 
L 182.599112 365.583344 
L 183.323891 375.986638 
L 184.048671 366.629016 
L 184.77345 372.466144 
L 185.49823 370.177326 
L 186.223009 362.147276 
L 186.947789 360.70159 
L 188.397348 368.154821 
L 189.122128 372.776258 
L 189.846907 372.583801 
L 190.571687 378.565191 
L 191.296467 367.442294 
L 192.021246 364.860825 
L 192.746026 374.460748 
L 194.195585 375.040777 
L 194.920365 376.019893 
L 195.645144 380.865506 
L 196.369924 372.235781 
L 197.094703 372.867361 
L 197.819483 367.170365 
L 198.544263 370.391834 
L 199.269042 384.854601 
L 199.993822 371.772647 
L 200.718601 372.122686 
L 201.443381 382.598877 
L 202.16816 375.620551 
L 202.89294 377.229761 
L 203.61772 384.665673 
L 204.342499 380.295871 
L 205.067279 381.175614 
L 205.792058 385.229204 
L 206.516838 386.529949 
L 207.241618 380.65418 
L 207.966397 375.733624 
L 208.691177 376.686612 
L 209.415956 371.749071 
L 210.140736 377.950403 
L 210.865516 377.461487 
L 211.590295 378.825776 
L 212.315075 374.166672 
L 213.039854 377.310776 
L 213.764634 375.816236 
L 214.489414 375.873373 
L 215.214193 377.611333 
L 215.938973 377.50462 
L 216.663752 362.955385 
L 217.388532 383.131692 
L 218.113312 369.979089 
L 218.838091 376.810032 
L 219.562871 376.048463 
L 220.28765 373.276523 
L 221.01243 388.361989 
L 221.737209 375.304082 
L 222.461989 384.723187 
L 223.186769 376.695083 
L 223.911548 380.897482 
L 224.636328 382.132955 
L 225.361107 374.830527 
L 226.085887 384.415083 
L 226.810667 369.774811 
L 227.535446 374.481348 
L 228.260226 383.083648 
L 228.985005 384.038352 
L 229.709785 373.914451 
L 230.434565 373.465764 
L 231.159344 370.343284 
L 231.884124 376.872195 
L 232.608903 380.142577 
L 233.333683 368.756457 
L 234.058463 378.299119 
L 234.783242 376.123297 
L 235.508022 380.267691 
L 236.232801 380.653674 
L 236.957581 371.575852 
L 237.68236 385.153576 
L 238.40714 381.410766 
L 239.13192 382.589732 
L 239.856699 377.766236 
L 240.581479 375.931112 
L 241.306258 373.0794 
L 242.031038 373.914825 
L 242.755818 379.748738 
L 243.480597 372.345769 
L 244.205377 377.048167 
L 244.930156 369.228151 
L 245.654936 370.94406 
L 246.379716 372.215283 
L 247.104495 373.165973 
L 247.829275 375.465687 
L 248.554054 368.790222 
L 249.278834 375.562293 
L 250.003614 364.529118 
L 250.728393 369.243002 
L 251.453173 371.893675 
L 252.177952 370.479574 
L 252.902732 373.782332 
L 253.627512 372.178454 
L 254.352291 377.691054 
L 255.077071 370.812636 
L 255.80185 370.126641 
L 256.52663 366.668073 
L 257.251409 377.238119 
L 257.976189 370.335262 
L 258.700969 375.605174 
L 259.425748 373.513574 
L 260.150528 382.674737 
L 260.875307 373.493549 
L 261.600087 377.032934 
L 262.324867 371.546117 
L 263.049646 373.402902 
L 263.774426 368.512811 
L 264.499205 370.130274 
L 265.223985 368.472733 
L 265.948765 376.395914 
L 266.673544 372.998568 
L 267.398324 372.078175 
L 268.847883 374.17021 
L 269.572663 374.400916 
L 270.297442 374.22549 
L 271.747001 377.411028 
L 272.471781 376.816162 
L 273.19656 372.062573 
L 273.92134 375.649818 
L 274.64612 374.72757 
L 275.370899 373.545185 
L 276.095679 376.002391 
L 276.820458 380.091052 
L 277.545238 370.187699 
L 278.270018 372.390102 
L 278.994797 376.33088 
L 279.719577 379.235451 
L 280.444356 378.225025 
L 281.169136 379.813489 
L 281.893916 365.630529 
L 282.618695 377.857407 
L 283.343475 374.549427 
L 284.068254 369.797263 
L 284.793034 374.804828 
L 285.517814 370.773663 
L 286.242593 377.664606 
L 286.967373 376.034402 
L 287.692152 381.267689 
L 288.416932 382.492569 
L 289.141711 376.342471 
L 289.866491 374.490999 
L 290.591271 374.465414 
L 291.31605 368.914834 
L 292.04083 373.905507 
L 292.765609 373.479508 
L 293.490389 366.946926 
L 294.215169 377.826746 
L 294.939948 374.731332 
L 295.664728 383.013758 
L 296.389507 370.106909 
L 297.114287 372.488315 
L 297.839067 373.486173 
L 298.563846 381.874311 
L 299.288626 370.325074 
L 300.013405 376.755501 
L 300.738185 380.189873 
L 301.462965 380.078892 
L 302.187744 374.034059 
L 302.912524 377.032967 
L 303.637303 383.588058 
L 304.362083 382.298769 
L 305.086863 377.037847 
L 305.811642 376.677462 
L 306.536422 371.032337 
L 307.261201 378.187556 
L 307.985981 372.04142 
L 308.71076 381.461364 
L 309.43554 373.08481 
L 310.16032 379.280795 
L 310.885099 376.552751 
L 311.609879 372.313985 
L 312.334658 374.945004 
L 313.059438 379.440472 
L 313.784218 379.263673 
L 314.508997 379.66874 
L 315.233777 374.698312 
L 315.958556 376.920573 
L 316.683336 377.245845 
L 317.408116 379.1288 
L 318.132895 378.571194 
L 318.857675 372.056135 
L 319.582454 377.779797 
L 320.307234 374.791717 
L 321.032014 375.28814 
L 321.756793 379.954374 
L 322.481573 377.260434 
L 323.206352 372.739059 
L 323.931132 377.399382 
L 324.655911 373.52248 
L 325.380691 372.629832 
L 326.105471 377.202291 
L 326.83025 378.591988 
L 327.55503 376.743446 
L 328.279809 377.38072 
L 329.004589 377.030117 
L 329.729369 375.179572 
L 331.178928 372.558455 
L 331.903707 373.437953 
L 332.628487 377.005426 
L 333.353267 371.166674 
L 334.078046 372.878306 
L 334.802826 375.108122 
L 335.527605 375.136247 
L 336.252385 376.339252 
L 336.977165 374.936161 
L 337.701944 378.227095 
L 338.426724 376.207351 
L 339.151503 371.548392 
L 339.876283 375.88547 
L 340.601063 371.997787 
L 341.325842 374.62808 
L 342.050622 373.911745 
L 342.775401 374.663522 
L 343.500181 376.253133 
L 344.22496 371.805712 
L 344.94974 371.825881 
L 345.67452 370.252099 
L 346.399299 373.251488 
L 347.124079 373.098669 
L 347.848858 370.184733 
L 348.573638 371.969888 
L 349.298418 374.231289 
L 350.023197 372.485579 
L 350.747977 372.232323 
L 351.472756 371.130745 
L 352.197536 373.427633 
L 352.922316 378.49793 
L 353.647095 372.200032 
L 354.371875 370.36562 
L 355.096654 376.443585 
L 355.821434 370.664156 
L 356.546214 369.659539 
L 357.270993 372.649591 
L 357.995773 373.48215 
L 358.720552 375.892445 
L 359.445332 372.837245 
L 360.894891 368.621702 
L 361.619671 373.250814 
L 362.34445 372.712595 
L 363.06923 374.260901 
L 363.794009 373.829641 
L 364.518789 371.404131 
L 365.243569 372.441257 
L 365.968348 374.216695 
L 367.417907 374.532533 
L 368.142687 371.050304 
L 368.867467 371.606325 
L 369.592246 370.493687 
L 370.317026 370.115436 
L 371.041805 370.306112 
L 371.766585 370.073631 
L 372.491365 368.94245 
L 373.216144 371.618635 
L 373.940924 370.814287 
L 374.665703 371.622504 
L 375.390483 371.450552 
L 376.115262 372.998157 
L 376.840042 370.800243 
L 377.564822 371.311449 
L 378.289601 368.77457 
L 379.014381 372.460576 
L 379.73916 370.81508 
L 380.46394 372.541379 
L 381.18872 368.516556 
L 381.913499 371.702607 
L 382.638279 369.588747 
L 383.363058 371.485075 
L 384.087838 369.716779 
L 384.812618 372.392785 
L 385.537397 371.160634 
L 386.986956 370.944147 
L 387.711736 366.693347 
L 388.436516 367.953694 
L 389.161295 371.429732 
L 389.886075 371.211802 
L 390.610854 369.573487 
L 392.060414 372.101286 
L 392.785193 369.601349 
L 393.509973 371.109712 
L 394.234752 367.196652 
L 394.959532 369.210899 
L 395.684311 370.277324 
L 396.409091 369.565298 
L 397.133871 367.495437 
L 397.85865 369.12153 
L 398.58343 369.040981 
L 399.308209 368.355154 
L 400.032989 369.103435 
L 400.757769 368.468151 
L 401.482548 369.613487 
L 402.207328 367.239499 
L 402.932107 367.103078 
L 403.656887 366.226651 
L 404.381667 367.99836 
L 405.106446 366.411463 
L 405.831226 371.770907 
L 406.556005 368.878851 
L 407.280785 368.898042 
L 408.005565 367.623847 
L 408.730344 367.930733 
L 409.455124 368.363936 
L 410.179903 370.740999 
L 410.904683 371.067647 
L 411.629462 369.89063 
L 412.354242 369.185695 
L 413.079022 366.435667 
L 413.803801 368.010716 
L 414.528581 367.139578 
L 415.25336 370.89062 
L 415.97814 369.351362 
L 416.70292 370.504178 
L 417.427699 370.889058 
L 418.152479 368.372292 
L 418.877258 369.261468 
L 419.602038 371.483564 
L 420.326818 367.589792 
L 421.051597 367.790668 
L 421.776377 366.176627 
L 422.501156 370.299827 
L 423.225936 370.413949 
L 424.675495 370.278382 
L 425.400275 369.885185 
L 426.125054 369.747966 
L 426.849834 370.588132 
L 427.574614 368.687742 
L 428.299393 370.808634 
L 429.748952 367.8725 
L 430.473732 368.589977 
L 431.198511 367.302072 
L 431.923291 367.358409 
L 432.648071 369.317868 
L 433.37285 367.806043 
L 434.09763 368.387543 
L 434.822409 371.389751 
L 435.547189 368.532377 
L 436.271969 369.113665 
L 438.446307 367.420674 
L 439.171087 367.93358 
L 439.895867 369.344454 
L 440.620646 370.190594 
L 441.345426 369.444883 
L 442.070205 367.592999 
L 442.794985 367.035091 
L 443.519765 366.94562 
L 444.244544 368.421202 
L 444.969324 369.353545 
L 445.694103 365.95749 
L 446.418883 367.967532 
L 447.143662 366.309407 
L 447.868442 366.150351 
L 448.593222 366.2258 
L 449.318001 367.854492 
L 450.042781 367.528992 
L 450.76756 368.689311 
L 451.49234 367.88776 
L 452.21712 366.207843 
L 452.941899 369.047331 
L 453.666679 366.812403 
L 454.391458 366.101694 
L 455.116238 366.196034 
L 455.841018 367.414644 
L 456.565797 367.36317 
L 457.290577 366.98066 
L 458.015356 371.015559 
L 458.740136 366.162159 
L 459.464916 368.616621 
L 460.189695 366.785804 
L 460.914475 366.478121 
L 461.639254 365.24696 
L 462.364034 365.161229 
L 463.813593 368.471754 
L 464.538373 366.451087 
L 465.263152 366.248933 
L 465.987932 366.657218 
L 466.712711 365.945871 
L 467.437491 366.953693 
L 468.162271 364.91963 
L 468.88705 367.333695 
L 469.61183 365.192062 
L 470.336609 367.025093 
L 471.061389 366.869169 
L 471.786169 366.576815 
L 472.510948 364.640798 
L 473.235728 367.88952 
L 473.960507 366.525152 
L 474.685287 367.496935 
L 475.410067 366.343403 
L 476.134846 366.718613 
L 476.859626 368.446433 
L 477.584405 367.054687 
L 478.309185 367.742637 
L 479.033965 369.369917 
L 479.758744 366.279231 
L 480.483524 368.542003 
L 481.208303 368.980903 
L 481.933083 367.50692 
L 482.657862 367.696689 
L 483.382642 365.588097 
L 484.107422 368.058094 
L 484.832201 366.923223 
L 485.556981 367.859151 
L 486.28176 367.858691 
L 487.00654 366.770833 
L 487.73132 366.970944 
L 488.456099 366.286013 
L 489.180879 368.015112 
L 490.630438 367.550495 
L 491.355218 367.602456 
L 492.079997 367.249097 
L 492.804777 367.832678 
L 493.529556 366.70222 
L 494.254336 366.416272 
L 494.979116 367.854309 
L 495.703895 365.851449 
L 496.428675 366.58121 
L 497.153454 367.99701 
L 497.878234 367.169938 
L 498.603013 365.837854 
L 499.327793 367.159334 
L 500.052573 368.205915 
L 500.777352 365.568973 
L 501.502132 365.547398 
L 502.226911 367.693836 
L 502.951691 367.479475 
L 503.676471 368.29713 
L 504.40125 366.413275 
L 505.12603 367.998829 
L 505.850809 368.316157 
L 506.575589 367.293408 
L 507.300369 368.822449 
L 508.025148 367.826309 
L 508.749928 367.305311 
L 509.474707 367.246036 
L 510.199487 367.932634 
L 510.924267 367.186258 
L 511.649046 368.551321 
L 512.373826 367.902188 
L 513.098605 366.135177 
L 514.548165 368.376625 
L 515.272944 366.927891 
L 515.997724 368.24957 
L 516.722503 367.758429 
L 518.172062 368.113451 
L 518.896842 367.824947 
L 519.621622 368.317485 
L 520.346401 367.84586 
L 521.071181 368.860631 
L 521.79596 367.665842 
L 522.52074 367.33697 
L 523.24552 367.567979 
L 523.970299 368.081812 
L 524.695079 368.413725 
L 525.419858 368.588901 
L 526.144638 368.095748 
L 526.869418 368.570229 
L 527.594197 367.836806 
L 528.318977 367.975952 
L 529.043756 367.160915 
L 529.768536 368.551036 
L 530.493316 367.830275 
L 531.218095 367.36578 
L 531.942875 368.79632 
L 533.392434 366.880309 
L 534.117213 368.617491 
L 534.841993 369.130599 
L 535.566773 366.80476 
L 536.291552 367.948251 
L 537.016332 365.862537 
L 537.741111 367.712981 
L 538.465891 367.757857 
L 539.190671 367.439111 
L 539.91545 366.909757 
L 540.64023 366.801253 
L 541.365009 367.543211 
L 542.089789 367.106218 
L 542.814569 367.488199 
L 543.539348 367.996659 
L 544.264128 366.489911 
L 544.988907 366.867015 
L 545.713687 365.347506 
L 546.438467 366.757069 
L 547.163246 367.628216 
L 547.888026 365.512095 
L 548.612805 366.894284 
L 550.062365 367.154333 
L 550.787144 368.033299 
L 551.511924 366.617332 
L 552.236703 368.171031 
L 552.961483 367.96587 
L 553.686262 368.062842 
L 554.411042 367.583953 
L 555.135822 366.680294 
L 555.860601 368.002781 
L 556.585381 368.524748 
L 557.31016 367.923683 
L 558.03494 365.833827 
L 558.75972 367.963646 
L 559.484499 366.814128 
L 560.209279 367.86239 
L 560.934058 367.143544 
L 561.658838 367.184706 
L 562.383618 366.949348 
L 563.108397 366.896036 
L 563.833177 366.955171 
L 564.557956 365.409113 
L 565.282736 366.767817 
L 566.007516 366.079559 
L 566.732295 366.158583 
L 567.457075 365.646815 
L 568.181854 368.344653 
L 568.906634 368.803729 
L 569.631413 367.115206 
L 570.356193 367.821289 
L 571.080973 366.225546 
L 571.805752 367.771613 
L 572.530532 367.574612 
L 573.255311 366.923687 
L 573.980091 367.160052 
L 574.704871 366.917764 
L 575.42965 365.906784 
L 576.15443 367.487685 
L 576.879209 368.558692 
L 578.328769 367.361134 
L 579.778328 367.642527 
L 580.503107 366.490283 
L 581.227887 367.94414 
L 581.952667 368.979057 
L 582.677446 366.506835 
L 583.402226 367.255719 
L 584.127005 366.436282 
L 584.851785 367.378938 
L 585.576564 366.89424 
L 586.301344 368.196549 
L 587.026124 368.438617 
L 587.750903 365.567911 
L 588.475683 367.351355 
L 589.200462 366.900196 
L 589.925242 367.910879 
L 589.925242 367.910879 
" clip-path="url(#p50eb775873)" style="fill: none; stroke: #d97706; stroke-width: 3; stroke-linecap: square"/>
   </g>
   <g id="line2d_28">
    <path d="M 147.809691 404.945625 
L 147.809691 40.105625 
" clip-path="url(#p50eb775873)" style="fill: none; stroke-dasharray: 2,3.3; stroke-dashoffset: 0; stroke: #dc2626; stroke-width: 2"/>
   </g>
   <g id="patch_3">
    <path d="M 103.634375 404.945625 
L 103.634375 40.105625 
" style="fill: none; stroke: #212529; stroke-width: 1.4; stroke-linejoin: miter; stroke-linecap: square"/>
   </g>
   <g id="patch_4">
    <path d="M 613.08195 404.945625 
L 613.08195 40.105625 
" style="fill: none; stroke: #212529; stroke-width: 1.4; stroke-linejoin: miter; stroke-linecap: square"/>
   </g>
   <g id="patch_5">
    <path d="M 103.634375 404.945625 
L 613.08195 404.945625 
" style="fill: none; stroke: #212529; stroke-width: 1.4; stroke-linejoin: miter; stroke-linecap: square"/>
   </g>
   <g id="patch_6">
    <path d="M 103.634375 40.105625 
L 613.08195 40.105625 
" style="fill: none; stroke: #212529; stroke-width: 1.4; stroke-linejoin: miter; stroke-linecap: square"/>
   </g>
   <g id="text_9">
    <!-- Initial condition -->
    <g style="fill: #212529" transform="translate(227.314725 33.034687) scale(0.34 -0.34)">
     <defs>
      <path id="DejaVuSans-49" d="M 628 4666 
L 1259 4666 
L 1259 0 
L 628 0 
L 628 4666 
z
" transform="scale(0.015625)"/>
      <path id="DejaVuSans-6c" d="M 603 4863 
L 1178 4863 
L 1178 0 
L 603 0 
L 603 4863 
z
" transform="scale(0.015625)"/>
     </defs>
     <use xlink:href="#DejaVuSans-49"/>
     <use xlink:href="#DejaVuSans-6e" x="29.492188"/>
     <use xlink:href="#DejaVuSans-69" x="92.871094"/>
     <use xlink:href="#DejaVuSans-74" x="120.654297"/>
     <use xlink:href="#DejaVuSans-69" x="159.863281"/>
     <use xlink:href="#DejaVuSans-61" x="187.646484"/>
     <use xlink:href="#DejaVuSans-6c" x="248.925781"/>
     <use xlink:href="#DejaVuSans-20" x="276.708984"/>
     <use xlink:href="#DejaVuSans-63" x="308.496094"/>
     <use xlink:href="#DejaVuSans-6f" x="363.476562"/>
     <use xlink:href="#DejaVuSans-6e" x="424.658203"/>
     <use xlink:href="#DejaVuSans-64" x="488.037109"/>
     <use xlink:href="#DejaVuSans-69" x="551.513672"/>
     <use xlink:href="#DejaVuSans-74" x="579.296875"/>
     <use xlink:href="#DejaVuSans-69" x="618.505859"/>
     <use xlink:href="#DejaVuSans-6f" x="646.289062"/>
     <use xlink:href="#DejaVuSans-6e" x="707.470703"/>
    </g>
   </g>
   <g id="legend_1">
    <g id="line2d_29">
     <path d="M 397.23945 71.541875 
L 421.23945 71.541875 
L 445.23945 71.541875 
" style="fill: none; stroke: #2563eb; stroke-width: 3; stroke-linecap: square"/>
    </g>
    <g id="text_10">
     <!-- Train -->
     <g transform="translate(464.43945 79.941875) scale(0.24 -0.24)">
      <defs>
       <path id="DejaVuSans-54" d="M -19 4666 
L 3928 4666 
L 3928 4134 
L 2272 4134 
L 2272 0 
L 1638 0 
L 1638 4134 
L -19 4134 
L -19 4666 
z
" transform="scale(0.015625)"/>
      </defs>
      <use xlink:href="#DejaVuSans-54"/>
      <use xlink:href="#DejaVuSans-72" x="46.333984"/>
      <use xlink:href="#DejaVuSans-61" x="87.447266"/>
      <use xlink:href="#DejaVuSans-69" x="148.726562"/>
      <use xlink:href="#DejaVuSans-6e" x="176.509766"/>
     </g>
    </g>
    <g id="line2d_30">
     <path d="M 397.23945 106.769375 
L 421.23945 106.769375 
L 445.23945 106.769375 
" style="fill: none; stroke: #d97706; stroke-width: 3; stroke-linecap: square"/>
    </g>
    <g id="text_11">
     <!-- Validation -->
     <g transform="translate(464.43945 115.169375) scale(0.24 -0.24)">
      <defs>
       <path id="DejaVuSans-56" d="M 1831 0 
L 50 4666 
L 709 4666 
L 2188 738 
L 3669 4666 
L 4325 4666 
L 2547 0 
L 1831 0 
z
" transform="scale(0.015625)"/>
      </defs>
      <use xlink:href="#DejaVuSans-56"/>
      <use xlink:href="#DejaVuSans-61" x="60.658203"/>
      <use xlink:href="#DejaVuSans-6c" x="121.9375"/>
      <use xlink:href="#DejaVuSans-69" x="149.720703"/>
      <use xlink:href="#DejaVuSans-64" x="177.503906"/>
      <use xlink:href="#DejaVuSans-61" x="240.980469"/>
      <use xlink:href="#DejaVuSans-74" x="302.259766"/>
      <use xlink:href="#DejaVuSans-69" x="341.46875"/>
      <use xlink:href="#DejaVuSans-6f" x="369.251953"/>
      <use xlink:href="#DejaVuSans-6e" x="430.433594"/>
     </g>
    </g>
    <g id="line2d_31">
     <path d="M 397.23945 141.996875 
L 421.23945 141.996875 
L 445.23945 141.996875 
" style="fill: none; stroke-dasharray: 2,3.3; stroke-dashoffset: 0; stroke: #dc2626; stroke-width: 2"/>
    </g>
    <g id="text_12">
     <!-- physics on -->
     <g transform="translate(464.43945 150.396875) scale(0.24 -0.24)">
      <defs>
       <path id="DejaVuSans-79" d="M 2059 -325 
Q 1816 -950 1584 -1140 
Q 1353 -1331 966 -1331 
L 506 -1331 
L 506 -850 
L 844 -850 
Q 1081 -850 1212 -737 
Q 1344 -625 1503 -206 
L 1606 56 
L 191 3500 
L 800 3500 
L 1894 763 
L 2988 3500 
L 3597 3500 
L 2059 -325 
z
" transform="scale(0.015625)"/>
      </defs>
      <use xlink:href="#DejaVuSans-70"/>
      <use xlink:href="#DejaVuSans-68" x="63.476562"/>
      <use xlink:href="#DejaVuSans-79" x="126.855469"/>
      <use xlink:href="#DejaVuSans-73" x="186.035156"/>
      <use xlink:href="#DejaVuSans-69" x="238.134766"/>
      <use xlink:href="#DejaVuSans-63" x="265.917969"/>
      <use xlink:href="#DejaVuSans-73" x="320.898438"/>
      <use xlink:href="#DejaVuSans-20" x="372.998047"/>
      <use xlink:href="#DejaVuSans-6f" x="404.785156"/>
      <use xlink:href="#DejaVuSans-6e" x="465.966797"/>
     </g>
    </g>
   </g>
  </g>
 </g>
 <defs>
  <clipPath id="p50eb775873">
   <rect x="103.634375" y="40.105625" width="509.447575" height="364.84"/>
  </clipPath>
 </defs>
</svg>
