<?xml version="1.0" encoding="utf-8" standalone="no"?>
<!DOCTYPE svg PUBLIC "-//W3C//DTD SVG 1.1//EN"
  "http://www.w3.org/Graphics/SVG/1.1/DTD/svg11.dtd">
<svg xmlns:xlink="http://www.w3.org/1999/xlink" width="620.648512pt" height="475.4075pt" viewBox="0 0 620.648512 475.4075" xmlns="http://www.w3.org/2000/svg" version="1.1">
 <metadata>
  <rdf:RDF xmlns:dc="http://purl.org/dc/elements/1.1/" xmlns:cc="http://creativecommons.org/ns#" xmlns:rdf="http://www.w3.org/1999/02/22-rdf-syntax-ns#">
   <cc:Work>
    <dc:type rdf:resource="http://purl.org/dc/dcmitype/StillImage"/>
    <dc:date>2026-06-21T05:01:39.395156</dc:date>
    <dc:format>image/svg+xml</dc:format>
    <dc:creator>
     <cc:Agent>
      <dc:title>Matplotlib v3.8.0, https://matplotlib.org/</dc:title>
     </cc:Agent>
    </dc:creator>
   </cc:Work>
  </rdf:RDF>
 </metadata>
 <defs>
  <style type="text/css">*{stroke-linejoin: round; stroke-linecap: butt}</style>
 </defs>
 <g id="figure_1">
  <g id="patch_1">
   <path d="M 0 475.4075 
L 620.648512 475.4075 
L 620.648512 0 
L 0 0 
z
" style="fill: #ffffff"/>
  </g>
  <g id="axes_1">
   <g id="patch_2">
    <path d="M 89.474375 404.945625 
L 613.448512 404.945625 
L 613.448512 40.105625 
L 89.474375 40.105625 
z
" style="fill: #ffffff"/>
   </g>
   <g id="matplotlib.axis_1">
    <g id="xtick_1">
     <g id="line2d_1">
      <defs>
       <path id="m902777b337" d="M 0 0 
L 0 3.5 
" style="stroke: #212529; stroke-width: 0.8"/>
      </defs>
      <g>
       <use xlink:href="#m902777b337" x="112.545935" y="404.945625" style="fill: #212529; stroke: #212529; stroke-width: 0.8"/>
      </g>
     </g>
     <g id="text_1">
      <!-- 0 -->
      <g style="fill: #212529" transform="translate(104.910935 430.181875) scale(0.24 -0.24)">
       <defs>
        <path id="DejaVuSans-30" d="M 2034 4250 
Q 1547 4250 1301 3770 
Q 1056 3291 1056 2328 
Q 1056 1369 1301 889 
Q 1547 409 2034 409 
Q 2525 409 2770 889 
Q 3016 1369 3016 2328 
Q 3016 3291 2770 3770 
Q 2525 4250 2034 4250 
z
M 2034 4750 
Q 2819 4750 3233 4129 
Q 3647 3509 3647 2328 
Q 3647 1150 3233 529 
Q 2819 -91 2034 -91 
Q 1250 -91 836 529 
Q 422 1150 422 2328 
Q 422 3509 836 4129 
Q 1250 4750 2034 4750 
z
" transform="scale(0.015625)"/>
       </defs>
       <use xlink:href="#DejaVuSans-30"/>
      </g>
     </g>
    </g>
    <g id="xtick_2">
     <g id="line2d_2">
      <g>
       <use xlink:href="#m902777b337" x="261.635176" y="404.945625" style="fill: #212529; stroke: #212529; stroke-width: 0.8"/>
      </g>
     </g>
     <g id="text_2">
      <!-- 200 -->
      <g style="fill: #212529" transform="translate(238.730176 430.181875) scale(0.24 -0.24)">
       <defs>
        <path id="DejaVuSans-32" d="M 1228 531 
L 3431 531 
L 3431 0 
L 469 0 
L 469 531 
Q 828 903 1448 1529 
Q 2069 2156 2228 2338 
Q 2531 2678 2651 2914 
Q 2772 3150 2772 3378 
Q 2772 3750 2511 3984 
Q 2250 4219 1831 4219 
Q 1534 4219 1204 4116 
Q 875 4013 500 3803 
L 500 4441 
Q 881 4594 1212 4672 
Q 1544 4750 1819 4750 
Q 2544 4750 2975 4387 
Q 3406 4025 3406 3419 
Q 3406 3131 3298 2873 
Q 3191 2616 2906 2266 
Q 2828 2175 2409 1742 
Q 1991 1309 1228 531 
z
" transform="scale(0.015625)"/>
       </defs>
       <use xlink:href="#DejaVuSans-32"/>
       <use xlink:href="#DejaVuSans-30" x="63.623047"/>
       <use xlink:href="#DejaVuSans-30" x="127.246094"/>
      </g>
     </g>
    </g>
    <g id="xtick_3">
     <g id="line2d_3">
      <g>
       <use xlink:href="#m902777b337" x="410.724417" y="404.945625" style="fill: #212529; stroke: #212529; stroke-width: 0.8"/>
      </g>
     </g>
     <g id="text_3">
      <!-- 400 -->
      <g style="fill: #212529" transform="translate(387.819417 430.181875) scale(0.24 -0.24)">
       <defs>
        <path id="DejaVuSans-34" d="M 2419 4116 
L 825 1625 
L 2419 1625 
L 2419 4116 
z
M 2253 4666 
L 3047 4666 
L 3047 1625 
L 3713 1625 
L 3713 1100 
L 3047 1100 
L 3047 0 
L 2419 0 
L 2419 1100 
L 313 1100 
L 313 1709 
L 2253 4666 
z
" transform="scale(0.015625)"/>
       </defs>
       <use xlink:href="#DejaVuSans-34"/>
       <use xlink:href="#DejaVuSans-30" x="63.623047"/>
       <use xlink:href="#DejaVuSans-30" x="127.246094"/>
      </g>
     </g>
    </g>
    <g id="xtick_4">
     <g id="line2d_4">
      <g>
       <use xlink:href="#m902777b337" x="559.813658" y="404.945625" style="fill: #212529; stroke: #212529; stroke-width: 0.8"/>
      </g>
     </g>
     <g id="text_4">
      <!-- 600 -->
      <g style="fill: #212529" transform="translate(536.908658 430.181875) scale(0.24 -0.24)">
       <defs>
        <path id="DejaVuSans-36" d="M 2113 2584 
Q 1688 2584 1439 2293 
Q 1191 2003 1191 1497 
Q 1191 994 1439 701 
Q 1688 409 2113 409 
Q 2538 409 2786 701 
Q 3034 994 3034 1497 
Q 3034 2003 2786 2293 
Q 2538 2584 2113 2584 
z
M 3366 4563 
L 3366 3988 
Q 3128 4100 2886 4159 
Q 2644 4219 2406 4219 
Q 1781 4219 1451 3797 
Q 1122 3375 1075 2522 
Q 1259 2794 1537 2939 
Q 1816 3084 2150 3084 
Q 2853 3084 3261 2657 
Q 3669 2231 3669 1497 
Q 3669 778 3244 343 
Q 2819 -91 2113 -91 
Q 1303 -91 875 529 
Q 447 1150 447 2328 
Q 447 3434 972 4092 
Q 1497 4750 2381 4750 
Q 2619 4750 2861 4703 
Q 3103 4656 3366 4563 
z
" transform="scale(0.015625)"/>
       </defs>
       <use xlink:href="#DejaVuSans-36"/>
       <use xlink:href="#DejaVuSans-30" x="63.623047"/>
       <use xlink:href="#DejaVuSans-30" x="127.246094"/>
      </g>
     </g>
    </g>
    <g id="text_5">
     <!-- Epoch -->
     <g style="fill: #212529" transform="translate(305.528631 461.968438) scale(0.3 -0.3)">
      <defs>
       <path id="DejaVuSans-45" d="M 628 4666 
L 3578 4666 
L 3578 4134 
L 1259 4134 
L 1259 2753 
L 3481 2753 
L 3481 2222 
L 1259 2222 
L 1259 531 
L 3634 531 
L 3634 0 
L 628 0 
L 628 4666 
z
" transform="scale(0.015625)"/>
       <path id="DejaVuSans-70" d="M 1159 525 
L 1159 -1331 
L 581 -1331 
L 581 3500 
L 1159 3500 
L 1159 2969 
Q 1341 3281 1617 3432 
Q 1894 3584 2278 3584 
Q 2916 3584 3314 3078 
Q 3713 2572 3713 1747 
Q 3713 922 3314 415 
Q 2916 -91 2278 -91 
Q 1894 -91 1617 61 
Q 1341 213 1159 525 
z
M 3116 1747 
Q 3116 2381 2855 2742 
Q 2594 3103 2138 3103 
Q 1681 3103 1420 2742 
Q 1159 2381 1159 1747 
Q 1159 1113 1420 752 
Q 1681 391 2138 391 
Q 2594 391 2855 752 
Q 3116 1113 3116 1747 
z
" transform="scale(0.015625)"/>
       <path id="DejaVuSans-6f" d="M 1959 3097 
Q 1497 3097 1228 2736 
Q 959 2375 959 1747 
Q 959 1119 1226 758 
Q 1494 397 1959 397 
Q 2419 397 2687 759 
Q 2956 1122 2956 1747 
Q 2956 2369 2687 2733 
Q 2419 3097 1959 3097 
z
M 1959 3584 
Q 2709 3584 3137 3096 
Q 3566 2609 3566 1747 
Q 3566 888 3137 398 
Q 2709 -91 1959 -91 
Q 1206 -91 779 398 
Q 353 888 353 1747 
Q 353 2609 779 3096 
Q 1206 3584 1959 3584 
z
" transform="scale(0.015625)"/>
       <path id="DejaVuSans-63" d="M 3122 3366 
L 3122 2828 
Q 2878 2963 2633 3030 
Q 2388 3097 2138 3097 
Q 1578 3097 1268 2742 
Q 959 2388 959 1747 
Q 959 1106 1268 751 
Q 1578 397 2138 397 
Q 2388 397 2633 464 
Q 2878 531 3122 666 
L 3122 134 
Q 2881 22 2623 -34 
Q 2366 -91 2075 -91 
Q 1284 -91 818 406 
Q 353 903 353 1747 
Q 353 2603 823 3093 
Q 1294 3584 2113 3584 
Q 2378 3584 2631 3529 
Q 2884 3475 3122 3366 
z
" transform="scale(0.015625)"/>
       <path id="DejaVuSans-68" d="M 3513 2113 
L 3513 0 
L 2938 0 
L 2938 2094 
Q 2938 2591 2744 2837 
Q 2550 3084 2163 3084 
Q 1697 3084 1428 2787 
Q 1159 2491 1159 1978 
L 1159 0 
L 581 0 
L 581 4863 
L 1159 4863 
L 1159 2956 
Q 1366 3272 1645 3428 
Q 1925 3584 2291 3584 
Q 2894 3584 3203 3211 
Q 3513 2838 3513 2113 
z
" transform="scale(0.015625)"/>
      </defs>
      <use xlink:href="#DejaVuSans-45"/>
      <use xlink:href="#DejaVuSans-70" x="63.183594"/>
      <use xlink:href="#DejaVuSans-6f" x="126.660156"/>
      <use xlink:href="#DejaVuSans-63" x="187.841797"/>
      <use xlink:href="#DejaVuSans-68" x="242.822266"/>
     </g>
    </g>
   </g>
   <g id="matplotlib.axis_2">
    <g id="ytick_1">
     <g id="line2d_5">
      <defs>
       <path id="m319b305d31" d="M 0 0 
L -3.5 0 
" style="stroke: #212529; stroke-width: 0.8"/>
      </defs>
      <g>
       <use xlink:href="#m319b305d31" x="89.474375" y="185.82636" style="fill: #212529; stroke: #212529; stroke-width: 0.8"/>
      </g>
     </g>
     <g id="text_6">
      <!-- $\mathdefault{10^{3}}$ -->
      <g style="fill: #212529" transform="translate(40.234375 194.944485) scale(0.24 -0.24)">
       <defs>
        <path id="DejaVuSans-31" d="M 794 531 
L 1825 531 
L 1825 4091 
L 703 3866 
L 703 4441 
L 1819 4666 
L 2450 4666 
L 2450 531 
L 3481 531 
L 3481 0 
L 794 0 
L 794 531 
z
" transform="scale(0.015625)"/>
        <path id="DejaVuSans-33" d="M 2597 2516 
Q 3050 2419 3304 2112 
Q 3559 1806 3559 1356 
Q 3559 666 3084 287 
Q 2609 -91 1734 -91 
Q 1441 -91 1130 -33 
Q 819 25 488 141 
L 488 750 
Q 750 597 1062 519 
Q 1375 441 1716 441 
Q 2309 441 2620 675 
Q 2931 909 2931 1356 
Q 2931 1769 2642 2001 
Q 2353 2234 1838 2234 
L 1294 2234 
L 1294 2753 
L 1863 2753 
Q 2328 2753 2575 2939 
Q 2822 3125 2822 3475 
Q 2822 3834 2567 4026 
Q 2313 4219 1838 4219 
Q 1578 4219 1281 4162 
Q 984 4106 628 3988 
L 628 4550 
Q 988 4650 1302 4700 
Q 1616 4750 1894 4750 
Q 2613 4750 3031 4423 
Q 3450 4097 3450 3541 
Q 3450 3153 3228 2886 
Q 3006 2619 2597 2516 
z
" transform="scale(0.015625)"/>
       </defs>
       <use xlink:href="#DejaVuSans-31" transform="translate(0 0.765625)"/>
       <use xlink:href="#DejaVuSans-30" transform="translate(63.623047 0.765625)"/>
       <use xlink:href="#DejaVuSans-33" transform="translate(128.203125 39.046875) scale(0.7)"/>
      </g>
     </g>
    </g>
    <g id="ytick_2">
     <g id="line2d_6">
      <defs>
       <path id="m00893b17c8" d="M 0 0 
L -2 0 
" style="stroke: #212529; stroke-width: 0.6"/>
      </defs>
      <g>
       <use xlink:href="#m00893b17c8" x="89.474375" y="367.14177" style="fill: #212529; stroke: #212529; stroke-width: 0.6"/>
      </g>
     </g>
    </g>
    <g id="ytick_3">
     <g id="line2d_7">
      <g>
       <use xlink:href="#m00893b17c8" x="89.474375" y="323.817541" style="fill: #212529; stroke: #212529; stroke-width: 0.6"/>
      </g>
     </g>
    </g>
    <g id="ytick_4">
     <g id="line2d_8">
      <g>
       <use xlink:href="#m00893b17c8" x="89.474375" y="290.212659" style="fill: #212529; stroke: #212529; stroke-width: 0.6"/>
      </g>
     </g>
    </g>
    <g id="ytick_5">
     <g id="line2d_9">
      <g>
       <use xlink:href="#m00893b17c8" x="89.474375" y="262.755471" style="fill: #212529; stroke: #212529; stroke-width: 0.6"/>
      </g>
     </g>
    </g>
    <g id="ytick_6">
     <g id="line2d_10">
      <g>
       <use xlink:href="#m00893b17c8" x="89.474375" y="239.540749" style="fill: #212529; stroke: #212529; stroke-width: 0.6"/>
      </g>
     </g>
    </g>
    <g id="ytick_7">
     <g id="line2d_11">
      <g>
       <use xlink:href="#m00893b17c8" x="89.474375" y="219.431243" style="fill: #212529; stroke: #212529; stroke-width: 0.6"/>
      </g>
     </g>
    </g>
    <g id="ytick_8">
     <g id="line2d_12">
      <g>
       <use xlink:href="#m00893b17c8" x="89.474375" y="201.693401" style="fill: #212529; stroke: #212529; stroke-width: 0.6"/>
      </g>
     </g>
    </g>
    <g id="ytick_9">
     <g id="line2d_13">
      <g>
       <use xlink:href="#m00893b17c8" x="89.474375" y="81.440062" style="fill: #212529; stroke: #212529; stroke-width: 0.6"/>
      </g>
     </g>
    </g>
    <g id="text_7">
     <!-- MSE (standardized) -->
     <g style="fill: #212529" transform="translate(29.995313 368.267031) rotate(-90) scale(0.3 -0.3)">
      <defs>
       <path id="DejaVuSans-4d" d="M 628 4666 
L 1569 4666 
L 2759 1491 
L 3956 4666 
L 4897 4666 
L 4897 0 
L 4281 0 
L 4281 4097 
L 3078 897 
L 2444 897 
L 1241 4097 
L 1241 0 
L 628 0 
L 628 4666 
z
" transform="scale(0.015625)"/>
       <path id="DejaVuSans-53" d="M 3425 4513 
L 3425 3897 
Q 3066 4069 2747 4153 
Q 2428 4238 2131 4238 
Q 1616 4238 1336 4038 
Q 1056 3838 1056 3469 
Q 1056 3159 1242 3001 
Q 1428 2844 1947 2747 
L 2328 2669 
Q 3034 2534 3370 2195 
Q 3706 1856 3706 1288 
Q 3706 609 3251 259 
Q 2797 -91 1919 -91 
Q 1588 -91 1214 -16 
Q 841 59 441 206 
L 441 856 
Q 825 641 1194 531 
Q 1563 422 1919 422 
Q 2459 422 2753 634 
Q 3047 847 3047 1241 
Q 3047 1584 2836 1778 
Q 2625 1972 2144 2069 
L 1759 2144 
Q 1053 2284 737 2584 
Q 422 2884 422 3419 
Q 422 4038 858 4394 
Q 1294 4750 2059 4750 
Q 2388 4750 2728 4690 
Q 3069 4631 3425 4513 
z
" transform="scale(0.015625)"/>
       <path id="DejaVuSans-20" transform="scale(0.015625)"/>
       <path id="DejaVuSans-28" d="M 1984 4856 
Q 1566 4138 1362 3434 
Q 1159 2731 1159 2009 
Q 1159 1288 1364 580 
Q 1569 -128 1984 -844 
L 1484 -844 
Q 1016 -109 783 600 
Q 550 1309 550 2009 
Q 550 2706 781 3412 
Q 1013 4119 1484 4856 
L 1984 4856 
z
" transform="scale(0.015625)"/>
       <path id="DejaVuSans-73" d="M 2834 3397 
L 2834 2853 
Q 2591 2978 2328 3040 
Q 2066 3103 1784 3103 
Q 1356 3103 1142 2972 
Q 928 2841 928 2578 
Q 928 2378 1081 2264 
Q 1234 2150 1697 2047 
L 1894 2003 
Q 2506 1872 2764 1633 
Q 3022 1394 3022 966 
Q 3022 478 2636 193 
Q 2250 -91 1575 -91 
Q 1294 -91 989 -36 
Q 684 19 347 128 
L 347 722 
Q 666 556 975 473 
Q 1284 391 1588 391 
Q 1994 391 2212 530 
Q 2431 669 2431 922 
Q 2431 1156 2273 1281 
Q 2116 1406 1581 1522 
L 1381 1569 
Q 847 1681 609 1914 
Q 372 2147 372 2553 
Q 372 3047 722 3315 
Q 1072 3584 1716 3584 
Q 2034 3584 2315 3537 
Q 2597 3491 2834 3397 
z
" transform="scale(0.015625)"/>
       <path id="DejaVuSans-74" d="M 1172 4494 
L 1172 3500 
L 2356 3500 
L 2356 3053 
L 1172 3053 
L 1172 1153 
Q 1172 725 1289 603 
Q 1406 481 1766 481 
L 2356 481 
L 2356 0 
L 1766 0 
Q 1100 0 847 248 
Q 594 497 594 1153 
L 594 3053 
L 172 3053 
L 172 3500 
L 594 3500 
L 594 4494 
L 1172 4494 
z
" transform="scale(0.015625)"/>
       <path id="DejaVuSans-61" d="M 2194 1759 
Q 1497 1759 1228 1600 
Q 959 1441 959 1056 
Q 959 750 1161 570 
Q 1363 391 1709 391 
Q 2188 391 2477 730 
Q 2766 1069 2766 1631 
L 2766 1759 
L 2194 1759 
z
M 3341 1997 
L 3341 0 
L 2766 0 
L 2766 531 
Q 2569 213 2275 61 
Q 1981 -91 1556 -91 
Q 1019 -91 701 211 
Q 384 513 384 1019 
Q 384 1609 779 1909 
Q 1175 2209 1959 2209 
L 2766 2209 
L 2766 2266 
Q 2766 2663 2505 2880 
Q 2244 3097 1772 3097 
Q 1472 3097 1187 3025 
Q 903 2953 641 2809 
L 641 3341 
Q 956 3463 1253 3523 
Q 1550 3584 1831 3584 
Q 2591 3584 2966 3190 
Q 3341 2797 3341 1997 
z
" transform="scale(0.015625)"/>
       <path id="DejaVuSans-6e" d="M 3513 2113 
L 3513 0 
L 2938 0 
L 2938 2094 
Q 2938 2591 2744 2837 
Q 2550 3084 2163 3084 
Q 1697 3084 1428 2787 
Q 1159 2491 1159 1978 
L 1159 0 
L 581 0 
L 581 3500 
L 1159 3500 
L 1159 2956 
Q 1366 3272 1645 3428 
Q 1925 3584 2291 3584 
Q 2894 3584 3203 3211 
Q 3513 2838 3513 2113 
z
" transform="scale(0.015625)"/>
       <path id="DejaVuSans-64" d="M 2906 2969 
L 2906 4863 
L 3481 4863 
L 3481 0 
L 2906 0 
L 2906 525 
Q 2725 213 2448 61 
Q 2172 -91 1784 -91 
Q 1150 -91 751 415 
Q 353 922 353 1747 
Q 353 2572 751 3078 
Q 1150 3584 1784 3584 
Q 2172 3584 2448 3432 
Q 2725 3281 2906 2969 
z
M 947 1747 
Q 947 1113 1208 752 
Q 1469 391 1925 391 
Q 2381 391 2643 752 
Q 2906 1113 2906 1747 
Q 2906 2381 2643 2742 
Q 2381 3103 1925 3103 
Q 1469 3103 1208 2742 
Q 947 2381 947 1747 
z
" transform="scale(0.015625)"/>
       <path id="DejaVuSans-72" d="M 2631 2963 
Q 2534 3019 2420 3045 
Q 2306 3072 2169 3072 
Q 1681 3072 1420 2755 
Q 1159 2438 1159 1844 
L 1159 0 
L 581 0 
L 581 3500 
L 1159 3500 
L 1159 2956 
Q 1341 3275 1631 3429 
Q 1922 3584 2338 3584 
Q 2397 3584 2469 3576 
Q 2541 3569 2628 3553 
L 2631 2963 
z
" transform="scale(0.015625)"/>
       <path id="DejaVuSans-69" d="M 603 3500 
L 1178 3500 
L 1178 0 
L 603 0 
L 603 3500 
z
M 603 4863 
L 1178 4863 
L 1178 4134 
L 603 4134 
L 603 4863 
z
" transform="scale(0.015625)"/>
       <path id="DejaVuSans-7a" d="M 353 3500 
L 3084 3500 
L 3084 2975 
L 922 459 
L 3084 459 
L 3084 0 
L 275 0 
L 275 525 
L 2438 3041 
L 353 3041 
L 353 3500 
z
" transform="scale(0.015625)"/>
       <path id="DejaVuSans-65" d="M 3597 1894 
L 3597 1613 
L 953 1613 
Q 991 1019 1311 708 
Q 1631 397 2203 397 
Q 2534 397 2845 478 
Q 3156 559 3463 722 
L 3463 178 
Q 3153 47 2828 -22 
Q 2503 -91 2169 -91 
Q 1331 -91 842 396 
Q 353 884 353 1716 
Q 353 2575 817 3079 
Q 1281 3584 2069 3584 
Q 2775 3584 3186 3129 
Q 3597 2675 3597 1894 
z
M 3022 2063 
Q 3016 2534 2758 2815 
Q 2500 3097 2075 3097 
Q 1594 3097 1305 2825 
Q 1016 2553 972 2059 
L 3022 2063 
z
" transform="scale(0.015625)"/>
       <path id="DejaVuSans-29" d="M 513 4856 
L 1013 4856 
Q 1481 4119 1714 3412 
Q 1947 2706 1947 2009 
Q 1947 1309 1714 600 
Q 1481 -109 1013 -844 
L 513 -844 
Q 928 -128 1133 580 
Q 1338 1288 1338 2009 
Q 1338 2731 1133 3434 
Q 928 4138 513 4856 
z
" transform="scale(0.015625)"/>
      </defs>
      <use xlink:href="#DejaVuSans-4d"/>
      <use xlink:href="#DejaVuSans-53" x="86.279297"/>
      <use xlink:href="#DejaVuSans-45" x="149.755859"/>
      <use xlink:href="#DejaVuSans-20" x="212.939453"/>
      <use xlink:href="#DejaVuSans-28" x="244.726562"/>
      <use xlink:href="#DejaVuSans-73" x="283.740234"/>
      <use xlink:href="#DejaVuSans-74" x="335.839844"/>
      <use xlink:href="#DejaVuSans-61" x="375.048828"/>
      <use xlink:href="#DejaVuSans-6e" x="436.328125"/>
      <use xlink:href="#DejaVuSans-64" x="499.707031"/>
      <use xlink:href="#DejaVuSans-61" x="563.183594"/>
      <use xlink:href="#DejaVuSans-72" x="624.462891"/>
      <use xlink:href="#DejaVuSans-64" x="663.826172"/>
      <use xlink:href="#DejaVuSans-69" x="727.302734"/>
      <use xlink:href="#DejaVuSans-7a" x="755.085938"/>
      <use xlink:href="#DejaVuSans-65" x="807.576172"/>
      <use xlink:href="#DejaVuSans-64" x="869.099609"/>
      <use xlink:href="#DejaVuSans-29" x="932.576172"/>
     </g>
    </g>
   </g>
   <g id="line2d_14">
    <path d="M 113.291381 97.25203 
L 114.036827 56.689261 
L 115.52772 165.228024 
L 116.273166 212.750618 
L 117.018612 227.922082 
L 117.764058 248.473781 
L 118.509505 272.098211 
L 119.254951 282.946163 
L 120.000397 272.12209 
L 120.745843 284.286189 
L 121.49129 293.626146 
L 122.236736 288.768556 
L 122.982182 290.872648 
L 123.727628 291.365624 
L 124.473074 295.173957 
L 125.218521 296.093983 
L 125.963967 298.540491 
L 126.709413 287.465976 
L 127.454859 295.261414 
L 128.200305 301.240491 
L 128.945752 300.220994 
L 129.691198 306.742712 
L 130.436644 305.050809 
L 131.18209 299.068694 
L 131.927536 305.879647 
L 132.672983 302.418294 
L 133.418429 306.600479 
L 134.163875 307.02749 
L 134.909321 309.87891 
L 135.654767 334.14544 
L 136.400214 343.454948 
L 137.14566 349.300782 
L 137.891106 353.304683 
L 138.636552 351.713199 
L 139.381998 346.177714 
L 140.127445 348.452478 
L 142.363783 356.228618 
L 143.109229 351.768905 
L 143.854676 358.053886 
L 144.600122 354.844294 
L 145.345568 366.8075 
L 146.091014 370.209391 
L 146.83646 378.67641 
L 147.581907 372.704846 
L 148.327353 375.38871 
L 149.072799 376.514246 
L 149.818245 380.494273 
L 150.563692 375.428746 
L 151.309138 379.580917 
L 152.054584 370.284551 
L 152.80003 381.100897 
L 153.545476 370.682347 
L 154.290923 379.373683 
L 155.036369 373.040453 
L 155.781815 371.910919 
L 156.527261 371.386016 
L 157.272707 379.580698 
L 158.018154 375.416117 
L 158.7636 375.592799 
L 159.509046 373.897186 
L 160.254492 367.593479 
L 160.999938 375.352985 
L 161.745385 380.492045 
L 162.490831 378.662388 
L 163.236277 370.594198 
L 163.981723 370.297441 
L 164.727169 379.933496 
L 165.472616 376.44052 
L 166.218062 373.891654 
L 166.963508 373.161069 
L 167.708954 379.295605 
L 168.4544 374.239987 
L 169.199847 371.991951 
L 169.945293 372.059125 
L 170.690739 371.055935 
L 171.436185 375.582828 
L 172.181631 373.447138 
L 172.927078 367.733655 
L 173.672524 371.58265 
L 174.41797 367.935171 
L 175.163416 372.309053 
L 175.908862 368.665425 
L 176.654309 367.444231 
L 177.399755 370.707921 
L 178.145201 364.291203 
L 178.890647 366.858172 
L 179.636093 365.688638 
L 180.38154 371.068319 
L 181.126986 374.014287 
L 181.872432 373.085574 
L 182.617878 374.847755 
L 183.363325 363.63746 
L 184.108771 366.281462 
L 184.854217 366.278421 
L 185.599663 371.396051 
L 186.345109 373.732034 
L 187.090556 364.652163 
L 187.836002 374.946337 
L 188.581448 369.649767 
L 189.326894 371.652437 
L 190.07234 375.637922 
L 190.817787 369.511776 
L 191.563233 372.72444 
L 192.308679 370.92262 
L 193.054125 374.761589 
L 193.799571 371.411646 
L 194.545018 369.750792 
L 195.290464 370.490815 
L 196.03591 370.0741 
L 196.781356 371.827466 
L 197.526802 367.94507 
L 198.272249 370.949213 
L 199.017695 375.76519 
L 199.763141 372.524835 
L 200.508587 384.88737 
L 201.254033 382.853894 
L 201.99948 381.853398 
L 202.744926 379.161288 
L 203.490372 376.959401 
L 204.235818 372.370299 
L 204.981264 377.268297 
L 205.726711 379.014653 
L 206.472157 385.750604 
L 207.217603 377.398334 
L 207.963049 383.301271 
L 208.708495 379.111695 
L 209.453942 379.453525 
L 210.199388 375.228784 
L 210.944834 380.183686 
L 211.69028 379.931216 
L 212.435727 378.573285 
L 213.181173 379.717738 
L 213.926619 382.148536 
L 214.672065 379.869578 
L 215.417511 373.335937 
L 216.162958 386.571856 
L 216.908404 379.54628 
L 217.65385 380.115011 
L 218.399296 380.489277 
L 219.144742 378.172691 
L 219.890189 380.5932 
L 220.635635 380.364815 
L 221.381081 383.690349 
L 222.126527 388.361989 
L 222.871973 381.271129 
L 223.61742 378.31725 
L 225.108312 382.590643 
L 225.853758 380.773071 
L 226.599204 379.572849 
L 227.344651 381.000986 
L 228.090097 379.5667 
L 228.835543 378.718846 
L 229.580989 377.140498 
L 230.326435 379.814738 
L 231.071882 378.901174 
L 231.817328 377.020016 
L 232.562774 377.463187 
L 233.30822 374.28059 
L 234.053666 376.371948 
L 234.799113 372.664138 
L 235.544559 373.910976 
L 236.290005 373.649445 
L 237.035451 374.29619 
L 237.780897 376.653011 
L 238.526344 375.110776 
L 239.27179 371.158492 
L 240.017236 373.993012 
L 240.762682 372.868646 
L 241.508129 376.868073 
L 242.253575 374.511083 
L 242.999021 380.21105 
L 243.744467 379.992454 
L 244.489913 374.711728 
L 245.23536 380.196549 
L 245.980806 381.678393 
L 246.726252 377.73539 
L 247.471698 377.948673 
L 248.217144 376.937375 
L 248.962591 375.577022 
L 249.708037 377.307313 
L 250.453483 374.330014 
L 251.198929 376.108861 
L 251.944375 378.563991 
L 252.689822 375.072981 
L 253.435268 375.630145 
L 254.180714 377.113433 
L 254.92616 372.459292 
L 255.671606 377.030207 
L 256.417053 374.005481 
L 257.162499 375.127273 
L 257.907945 376.611412 
L 258.653391 376.748668 
L 259.398837 377.637553 
L 260.144284 378.820038 
L 260.88973 375.296942 
L 261.635176 375.650461 
L 262.380622 378.64535 
L 263.126068 372.398346 
L 263.871515 373.288601 
L 264.616961 377.722553 
L 265.362407 380.627154 
L 266.107853 381.642486 
L 266.853299 385.534662 
L 267.598746 383.886667 
L 268.344192 376.770278 
L 269.089638 378.790499 
L 269.835084 372.636564 
L 270.580531 375.042911 
L 271.325977 374.444017 
L 272.071423 373.21453 
L 272.816869 373.683519 
L 273.562315 372.427579 
L 274.307762 377.578968 
L 275.053208 377.530743 
L 275.798654 375.155935 
L 276.5441 374.266992 
L 277.289546 371.940803 
L 278.034993 377.007694 
L 278.780439 379.838497 
L 279.525885 381.536828 
L 280.271331 377.353136 
L 281.016777 374.801581 
L 281.762224 379.921958 
L 282.50767 376.849427 
L 283.253116 375.819614 
L 283.998562 375.632867 
L 284.744008 375.659378 
L 285.489455 377.424843 
L 286.234901 376.889532 
L 286.980347 375.257703 
L 287.725793 377.993421 
L 288.471239 377.624571 
L 289.216686 376.74943 
L 289.962132 378.393913 
L 290.707578 374.609811 
L 291.453024 374.685119 
L 292.19847 376.424549 
L 292.943917 378.8509 
L 293.689363 377.243247 
L 294.434809 376.470467 
L 295.180255 376.156514 
L 295.925701 377.51195 
L 296.671148 378.147703 
L 297.416594 379.5505 
L 298.16204 378.644455 
L 298.907486 379.18185 
L 299.652933 376.41661 
L 300.398379 375.795783 
L 301.143825 380.049072 
L 301.889271 374.878724 
L 303.380164 379.923114 
L 304.12561 383.21789 
L 304.871056 381.810179 
L 305.616502 386.109636 
L 306.361948 385.057837 
L 307.107395 379.697613 
L 307.852841 384.116919 
L 308.598287 383.509174 
L 309.343733 380.776491 
L 310.834626 380.400421 
L 311.580072 380.76609 
L 312.325518 380.818067 
L 313.070964 381.431224 
L 313.81641 379.971124 
L 314.561857 377.921877 
L 315.307303 377.561817 
L 316.052749 378.572808 
L 316.798195 375.191541 
L 317.543641 377.508826 
L 318.289088 375.224058 
L 319.034534 374.711496 
L 319.77998 374.733845 
L 320.525426 376.01564 
L 321.270872 376.818456 
L 322.016319 377.865705 
L 322.761765 377.939501 
L 323.507211 377.548383 
L 324.252657 378.43474 
L 324.998103 377.430297 
L 325.74355 382.590168 
L 326.488996 379.800109 
L 327.234442 381.692605 
L 327.979888 379.125927 
L 328.725334 379.223798 
L 329.470781 378.808697 
L 330.216227 379.296905 
L 330.961673 380.335023 
L 331.707119 381.617716 
L 332.452566 380.725195 
L 333.943458 379.329985 
L 335.43435 378.993933 
L 336.179797 376.672138 
L 336.925243 379.573648 
L 337.670689 378.707383 
L 338.416135 379.870648 
L 339.161581 379.208234 
L 339.907028 377.890903 
L 340.652474 377.726689 
L 341.39792 375.347039 
L 342.143366 378.336631 
L 342.888812 377.863384 
L 343.634259 378.990104 
L 344.379705 379.771377 
L 345.125151 379.783337 
L 345.870597 377.703094 
L 346.616043 377.392097 
L 347.36149 377.754132 
L 348.106936 379.821241 
L 348.852382 377.64409 
L 349.597828 377.531354 
L 350.343274 374.262139 
L 351.088721 376.622337 
L 351.834167 375.986248 
L 352.579613 378.074266 
L 353.325059 377.003207 
L 354.070505 378.300873 
L 354.815952 378.409881 
L 356.306844 380.232843 
L 357.05229 379.235625 
L 357.797736 377.937863 
L 358.543183 378.711354 
L 359.288629 379.017824 
L 360.779521 374.613266 
L 361.524968 377.062338 
L 362.270414 378.090987 
L 363.01586 376.860076 
L 364.506752 377.923875 
L 365.252199 376.167253 
L 365.997645 375.612066 
L 366.743091 375.84982 
L 367.488537 377.81102 
L 368.233983 377.737608 
L 368.97943 378.284539 
L 369.724876 375.690211 
L 370.470322 376.198547 
L 371.215768 376.203269 
L 371.961214 374.696572 
L 372.706661 377.090707 
L 373.452107 375.320009 
L 374.197553 375.830612 
L 374.942999 376.132341 
L 375.688445 375.717662 
L 376.433892 374.986092 
L 377.179338 375.750236 
L 377.924784 374.501112 
L 378.67023 374.797839 
L 379.415676 373.294834 
L 380.161123 373.435075 
L 380.906569 373.307589 
L 381.652015 371.792536 
L 382.397461 373.555617 
L 383.142907 371.935372 
L 383.888354 371.790753 
L 384.6338 371.404241 
L 385.379246 372.425686 
L 386.124692 371.99946 
L 386.870138 370.864413 
L 387.615585 372.344393 
L 388.361031 372.657286 
L 389.851923 374.421488 
L 390.59737 373.274293 
L 391.342816 372.844579 
L 392.833708 373.070318 
L 393.579154 372.606991 
L 394.324601 372.937928 
L 395.070047 372.344449 
L 395.815493 375.267539 
L 396.560939 373.467058 
L 397.306385 374.088749 
L 398.051832 374.453858 
L 399.542724 372.371018 
L 401.033616 374.373765 
L 401.779063 374.584609 
L 402.524509 374.148943 
L 403.269955 373.172306 
L 404.015401 374.694342 
L 405.506294 373.562644 
L 406.25174 375.045029 
L 407.742632 373.297502 
L 408.488078 372.049673 
L 409.233525 373.17427 
L 409.978971 374.009183 
L 411.469863 373.589399 
L 412.215309 371.889441 
L 412.960756 372.884008 
L 413.706202 372.903223 
L 414.451648 372.219586 
L 415.197094 373.833462 
L 415.94254 372.328697 
L 416.687987 373.323823 
L 418.924325 373.413938 
L 419.669772 372.737912 
L 420.415218 375.114745 
L 421.160664 375.503592 
L 421.90611 374.989492 
L 422.651556 372.831635 
L 423.397003 374.56967 
L 424.142449 373.326723 
L 424.887895 373.7735 
L 425.633341 374.033462 
L 426.378787 374.696442 
L 427.86968 371.734944 
L 428.615126 373.714171 
L 429.360572 372.645894 
L 430.106018 372.515202 
L 430.851465 372.616936 
L 431.596911 374.196815 
L 432.342357 372.369511 
L 433.087803 373.939477 
L 433.833249 373.761125 
L 434.578696 373.747258 
L 435.324142 371.88137 
L 436.069588 373.800235 
L 436.815034 374.36633 
L 437.56048 373.252497 
L 438.305927 373.651016 
L 439.051373 373.712866 
L 439.796819 372.865045 
L 440.542265 373.301841 
L 441.287711 374.266212 
L 442.778604 371.647199 
L 443.52405 372.534413 
L 444.269496 371.268372 
L 445.014942 372.807705 
L 445.760389 371.366309 
L 446.505835 370.521714 
L 447.251281 372.120177 
L 447.996727 370.558866 
L 448.742174 371.155074 
L 449.48762 370.867721 
L 450.233066 372.087275 
L 450.978512 371.876928 
L 451.723958 372.095196 
L 452.469405 370.895069 
L 454.705743 370.691932 
L 455.451189 369.955922 
L 456.196636 370.447581 
L 456.942082 370.098515 
L 457.687528 370.950801 
L 458.432974 371.261757 
L 459.17842 370.826445 
L 459.923867 371.538046 
L 460.669313 370.599065 
L 461.414759 371.226679 
L 462.160205 371.361673 
L 462.905651 371.368996 
L 463.651098 371.820372 
L 464.396544 370.714695 
L 465.14199 370.963264 
L 465.887436 372.398078 
L 466.632882 370.070903 
L 467.378329 371.817703 
L 468.123775 370.844017 
L 468.869221 371.435175 
L 469.614667 371.760782 
L 470.360113 371.792768 
L 471.10556 372.732068 
L 471.851006 372.680367 
L 472.596452 371.412935 
L 473.341898 372.829744 
L 474.087344 370.719106 
L 474.832791 370.577463 
L 475.578237 371.698751 
L 477.069129 371.222499 
L 477.814575 372.162675 
L 478.560022 371.716266 
L 479.305468 371.546112 
L 480.050914 372.713637 
L 480.79636 371.610161 
L 481.541807 371.683766 
L 482.287253 372.534462 
L 483.032699 371.590693 
L 483.778145 371.010505 
L 484.523591 372.336935 
L 485.269038 372.436463 
L 486.014484 372.137459 
L 486.75993 372.951518 
L 487.505376 372.629295 
L 488.250822 372.025038 
L 488.996269 371.234706 
L 489.741715 370.750214 
L 490.487161 370.833661 
L 491.232607 371.546855 
L 491.978053 372.029212 
L 492.7235 371.006812 
L 494.214392 370.961314 
L 495.705284 371.93783 
L 496.450731 370.092983 
L 497.196177 371.07098 
L 497.941623 369.919451 
L 498.687069 370.657905 
L 499.432515 370.614522 
L 500.177962 370.032496 
L 500.923408 370.944034 
L 501.668854 371.162661 
L 502.4143 371.111369 
L 503.905193 370.705263 
L 504.650639 370.182298 
L 505.396085 370.471181 
L 506.141531 370.604597 
L 506.886977 371.87471 
L 507.632424 371.702861 
L 508.37787 371.408999 
L 509.123316 370.986491 
L 509.868762 370.912455 
L 510.614209 371.613888 
L 511.359655 370.408149 
L 512.105101 370.544844 
L 512.850547 369.463327 
L 513.595993 369.193388 
L 514.34144 369.775243 
L 515.086886 369.872152 
L 515.832332 370.676481 
L 516.577778 369.520341 
L 517.323224 370.532156 
L 518.068671 370.053406 
L 518.814117 370.874554 
L 519.559563 370.338714 
L 520.305009 370.172087 
L 521.050455 369.742385 
L 521.795902 370.231042 
L 522.541348 369.298593 
L 523.286794 369.037384 
L 524.03224 370.181624 
L 524.777686 369.373787 
L 526.268579 369.892697 
L 527.014025 368.98812 
L 527.759471 370.154574 
L 528.504917 369.895291 
L 529.250364 370.153592 
L 529.99581 370.257611 
L 530.741256 369.508672 
L 532.232148 369.466676 
L 532.977595 369.70534 
L 533.723041 368.457311 
L 534.468487 368.520643 
L 535.213933 369.552153 
L 535.959379 370.145055 
L 536.704826 369.959488 
L 537.450272 370.263011 
L 538.195718 369.249873 
L 538.941164 368.964597 
L 539.686611 368.512791 
L 541.177503 369.467064 
L 541.922949 368.934112 
L 542.668395 369.320752 
L 543.413842 369.832963 
L 544.159288 368.902074 
L 544.904734 368.959164 
L 545.65018 369.329241 
L 546.395626 368.920585 
L 547.141073 368.956111 
L 547.886519 368.077526 
L 549.377411 369.066058 
L 550.122857 368.930378 
L 550.868304 367.994153 
L 551.61375 368.499091 
L 552.359196 369.360382 
L 553.104642 369.69251 
L 553.850088 368.913794 
L 555.340981 369.188288 
L 556.086427 369.148271 
L 558.322766 369.619588 
L 559.068212 367.742696 
L 559.813658 368.672368 
L 560.559104 368.14079 
L 561.30455 368.281931 
L 562.049997 367.249829 
L 562.795443 367.98455 
L 563.540889 368.404002 
L 564.286335 367.700532 
L 565.777228 368.021417 
L 566.522674 368.21893 
L 567.26812 368.670294 
L 568.013566 368.658493 
L 568.759013 369.491482 
L 569.504459 368.733373 
L 570.249905 368.926038 
L 570.995351 368.274372 
L 571.740797 369.10822 
L 572.486244 368.59087 
L 573.23169 370.35382 
L 573.977136 369.379216 
L 574.722582 369.575793 
L 576.213475 369.088143 
L 576.958921 367.947239 
L 577.704367 368.592577 
L 578.449813 369.586657 
L 579.195259 368.708034 
L 579.940706 368.634557 
L 580.686152 368.877501 
L 581.431598 367.822305 
L 582.92249 368.201475 
L 583.667937 369.205975 
L 584.413383 369.204775 
L 585.158829 368.723893 
L 585.904275 367.873516 
L 586.649721 367.625939 
L 588.140614 367.879457 
L 588.88606 367.524864 
L 589.631506 367.304191 
L 589.631506 367.304191 
" clip-path="url(#pc844b428a5)" style="fill: none; stroke: #2563eb; stroke-width: 3; stroke-linecap: square"/>
   </g>
   <g id="line2d_15">
    <path d="M 113.291381 88.374369 
L 114.036827 81.069768 
L 114.782274 118.36896 
L 115.52772 148.830581 
L 117.018612 190.022687 
L 117.764058 209.166723 
L 118.509505 223.219707 
L 119.254951 230.194722 
L 120.000397 247.219516 
L 120.745843 255.794045 
L 121.49129 258.021397 
L 122.236736 269.224271 
L 122.982182 276.998181 
L 123.727628 266.838831 
L 124.473074 271.010941 
L 125.218521 285.340881 
L 125.963967 280.803818 
L 126.709413 277.940511 
L 127.454859 282.683732 
L 128.200305 277.491922 
L 128.945752 278.090496 
L 130.436644 285.490702 
L 131.18209 281.038737 
L 131.927536 281.899858 
L 132.672983 278.419389 
L 133.418429 282.72575 
L 134.163875 285.053501 
L 134.909321 277.731765 
L 135.654767 321.533975 
L 136.400214 322.555034 
L 137.14566 328.466097 
L 137.891106 324.415562 
L 138.636552 328.403977 
L 139.381998 331.060135 
L 140.127445 331.455657 
L 140.872891 329.471051 
L 141.618337 336.641404 
L 142.363783 333.073427 
L 143.109229 328.643386 
L 143.854676 336.836534 
L 144.600122 333.323218 
L 145.345568 338.040987 
L 146.091014 325.061395 
L 146.83646 339.517165 
L 147.581907 340.875039 
L 148.327353 331.094328 
L 149.072799 342.803278 
L 149.818245 341.77597 
L 150.563692 336.001699 
L 151.309138 344.203888 
L 152.054584 339.852809 
L 152.80003 344.541359 
L 153.545476 337.497815 
L 154.290923 325.688303 
L 155.781815 341.127847 
L 156.527261 338.537041 
L 157.272707 340.661798 
L 158.018154 337.47718 
L 158.7636 341.685516 
L 159.509046 343.748161 
L 160.254492 345.04068 
L 160.999938 338.383354 
L 161.745385 344.102688 
L 162.490831 343.745786 
L 163.236277 342.330668 
L 163.981723 344.383924 
L 165.472616 336.579948 
L 166.218062 341.755641 
L 166.963508 338.479208 
L 167.708954 342.870445 
L 168.4544 336.82083 
L 169.199847 345.40921 
L 169.945293 339.17416 
L 170.690739 342.590453 
L 171.436185 341.440322 
L 172.181631 339.976416 
L 172.927078 335.146032 
L 173.672524 339.101967 
L 174.41797 339.502799 
L 175.163416 339.49649 
L 175.908862 341.343649 
L 176.654309 340.651536 
L 177.399755 339.169122 
L 178.145201 341.721274 
L 178.890647 336.260655 
L 179.636093 336.559291 
L 180.38154 340.284764 
L 181.126986 341.686456 
L 181.872432 341.538568 
L 182.617878 344.754347 
L 183.363325 350.052851 
L 184.108771 342.486644 
L 184.854217 344.304576 
L 185.599663 342.262594 
L 186.345109 346.275092 
L 187.090556 343.658576 
L 187.836002 342.803526 
L 189.326894 342.52336 
L 190.07234 347.990256 
L 190.817787 343.581439 
L 191.563233 348.590951 
L 192.308679 344.264764 
L 193.054125 345.799528 
L 193.799571 344.506781 
L 194.545018 345.525294 
L 195.290464 342.12643 
L 196.03591 348.872682 
L 196.781356 338.252612 
L 197.526802 342.153054 
L 198.272249 341.453824 
L 199.017695 342.709767 
L 199.763141 343.577807 
L 200.508587 344.139012 
L 201.254033 341.23847 
L 201.99948 342.583728 
L 202.744926 342.897151 
L 203.490372 338.495071 
L 204.235818 344.032289 
L 204.981264 345.057238 
L 205.726711 343.489247 
L 206.472157 345.282718 
L 207.217603 342.899229 
L 207.963049 344.756779 
L 208.708495 340.578269 
L 209.453942 339.754734 
L 210.199388 343.388944 
L 210.944834 348.657285 
L 211.69028 341.392857 
L 212.435727 341.700508 
L 213.181173 341.378468 
L 213.926619 339.424661 
L 214.672065 338.556797 
L 215.417511 343.67351 
L 216.162958 345.341363 
L 216.908404 343.73541 
L 217.65385 344.344977 
L 218.399296 345.395236 
L 219.890189 345.114994 
L 220.635635 341.127118 
L 221.381081 339.20449 
L 222.126527 344.278998 
L 222.871973 346.292767 
L 223.61742 339.985579 
L 224.362866 342.52763 
L 225.108312 342.566735 
L 225.853758 341.507976 
L 226.599204 343.652021 
L 227.344651 343.48507 
L 228.090097 340.982263 
L 228.835543 341.904948 
L 229.580989 345.302347 
L 230.326435 340.405325 
L 231.071882 339.478119 
L 231.817328 345.486434 
L 232.562774 340.190098 
L 233.30822 338.895241 
L 234.053666 345.25565 
L 234.799113 341.872736 
L 235.544559 337.333963 
L 236.290005 342.45758 
L 237.035451 339.858263 
L 237.780897 343.478028 
L 238.526344 338.549518 
L 239.27179 337.651076 
L 240.017236 339.003027 
L 240.762682 338.771543 
L 241.508129 340.523511 
L 242.253575 337.557872 
L 242.999021 333.806305 
L 243.744467 339.286367 
L 244.489913 337.416035 
L 245.23536 333.35944 
L 245.980806 335.59009 
L 246.726252 338.667207 
L 247.471698 337.425515 
L 248.217144 341.111674 
L 248.962591 336.618396 
L 249.708037 337.995873 
L 250.453483 338.76771 
L 251.198929 337.795656 
L 251.944375 341.424571 
L 252.689822 337.182741 
L 254.92616 339.669616 
L 255.671606 341.996497 
L 256.417053 336.961312 
L 257.162499 338.877857 
L 257.907945 338.112562 
L 258.653391 337.745862 
L 259.398837 337.749467 
L 260.144284 335.97963 
L 260.88973 337.681371 
L 261.635176 338.74063 
L 262.380622 335.402948 
L 263.126068 337.454785 
L 263.871515 337.445912 
L 264.616961 335.928178 
L 265.362407 334.704508 
L 266.107853 335.791252 
L 266.853299 337.195103 
L 267.598746 335.354688 
L 268.344192 335.708421 
L 269.089638 336.200539 
L 269.835084 336.881242 
L 270.580531 334.769107 
L 271.325977 335.218148 
L 272.071423 336.456612 
L 272.816869 337.096854 
L 273.562315 337.45419 
L 274.307762 335.272916 
L 275.053208 337.764595 
L 275.798654 339.285309 
L 276.5441 337.168976 
L 278.034993 338.308644 
L 278.780439 334.144833 
L 279.525885 340.467454 
L 280.271331 338.528215 
L 281.016777 339.440724 
L 281.762224 338.782853 
L 282.50767 340.018721 
L 283.253116 339.816274 
L 283.998562 336.820249 
L 284.744008 338.325807 
L 285.489455 336.214963 
L 286.234901 337.648414 
L 286.980347 335.19534 
L 287.725793 331.028888 
L 288.471239 334.963278 
L 289.216686 332.048253 
L 289.962132 333.481212 
L 290.707578 331.028027 
L 291.453024 332.237431 
L 292.19847 334.195181 
L 292.943917 336.52381 
L 293.689363 335.151663 
L 294.434809 335.752812 
L 295.180255 335.086111 
L 295.925701 338.349315 
L 296.671148 338.472558 
L 297.416594 334.140475 
L 298.16204 335.663972 
L 298.907486 336.005982 
L 299.652933 334.615086 
L 300.398379 332.940782 
L 302.634717 337.072089 
L 303.380164 337.97233 
L 304.12561 336.757848 
L 304.871056 337.209291 
L 305.616502 333.945103 
L 306.361948 337.617003 
L 307.107395 337.728368 
L 307.852841 336.035348 
L 308.598287 336.010861 
L 309.343733 334.003051 
L 310.834626 336.8728 
L 311.580072 335.408696 
L 312.325518 335.307327 
L 313.070964 336.573323 
L 313.81641 335.515653 
L 314.561857 335.134117 
L 315.307303 337.047496 
L 316.798195 333.167391 
L 317.543641 333.647806 
L 318.289088 333.752327 
L 319.034534 333.586413 
L 319.77998 333.077508 
L 320.525426 333.886489 
L 322.016319 333.996191 
L 322.761765 333.579488 
L 323.507211 331.347907 
L 324.252657 332.778803 
L 324.998103 332.492366 
L 325.74355 332.668818 
L 326.488996 328.985511 
L 327.234442 331.911142 
L 327.979888 330.532301 
L 328.725334 333.116754 
L 329.470781 332.423906 
L 330.216227 330.420411 
L 330.961673 330.817517 
L 331.707119 331.989299 
L 332.452566 332.035692 
L 333.198012 333.231465 
L 333.943458 332.220016 
L 334.688904 332.295292 
L 335.43435 333.136854 
L 336.179797 332.203984 
L 336.925243 332.115182 
L 337.670689 331.297122 
L 338.416135 330.190007 
L 339.161581 330.72729 
L 339.907028 328.951295 
L 340.652474 330.337938 
L 341.39792 329.953322 
L 342.143366 332.191201 
L 342.888812 333.089976 
L 343.634259 331.141846 
L 344.379705 330.079733 
L 345.125151 331.346442 
L 345.870597 330.707612 
L 346.616043 332.563519 
L 347.36149 330.687836 
L 348.106936 333.524539 
L 348.852382 332.10033 
L 349.597828 333.135962 
L 350.343274 332.109509 
L 351.088721 329.910859 
L 351.834167 330.418646 
L 352.579613 330.296182 
L 353.325059 328.997987 
L 354.070505 329.94781 
L 354.815952 328.869115 
L 355.561398 330.015631 
L 356.306844 329.709957 
L 357.05229 331.084075 
L 357.797736 332.7274 
L 358.543183 331.521668 
L 359.288629 333.720934 
L 360.034075 331.150723 
L 360.779521 333.470392 
L 361.524968 332.338914 
L 362.270414 332.405621 
L 363.01586 331.940841 
L 363.761306 332.084779 
L 364.506752 333.08991 
L 365.252199 332.665587 
L 365.997645 333.69023 
L 366.743091 333.230903 
L 367.488537 331.850845 
L 368.233983 332.625301 
L 368.97943 332.521192 
L 369.724876 330.47343 
L 370.470322 330.036921 
L 371.215768 331.274283 
L 371.961214 330.967432 
L 372.706661 332.433495 
L 373.452107 332.238329 
L 374.197553 332.495805 
L 374.942999 331.601956 
L 375.688445 331.398063 
L 376.433892 332.254772 
L 377.179338 331.130315 
L 377.924784 331.647513 
L 378.67023 330.970441 
L 379.415676 332.589273 
L 380.161123 330.650328 
L 380.906569 331.853059 
L 381.652015 331.992844 
L 382.397461 330.631883 
L 383.142907 330.281775 
L 384.6338 330.350282 
L 385.379246 330.729313 
L 386.124692 329.783394 
L 387.615585 329.247708 
L 388.361031 328.760606 
L 389.106477 330.258808 
L 389.851923 329.2228 
L 390.59737 330.087026 
L 391.342816 328.99076 
L 392.088262 330.128603 
L 392.833708 330.168024 
L 393.579154 329.834722 
L 394.324601 329.015157 
L 395.070047 329.284005 
L 395.815493 328.7473 
L 396.560939 330.224709 
L 397.306385 329.830148 
L 398.051832 329.862099 
L 398.797278 330.761369 
L 400.28817 329.471768 
L 401.033616 330.572145 
L 401.779063 330.677171 
L 402.524509 330.45719 
L 403.269955 330.583946 
L 404.015401 330.219771 
L 404.760847 330.801785 
L 405.506294 330.175836 
L 406.25174 329.221507 
L 406.997186 329.523469 
L 407.742632 329.370523 
L 408.488078 329.975718 
L 409.233525 329.910224 
L 409.978971 329.407966 
L 410.724417 328.763303 
L 411.469863 329.927845 
L 412.215309 330.097618 
L 412.960756 327.935145 
L 413.706202 328.515506 
L 414.451648 329.768642 
L 415.197094 329.810638 
L 415.94254 329.514959 
L 416.687987 328.734717 
L 417.433433 328.846403 
L 418.178879 330.216713 
L 418.924325 329.589509 
L 419.669772 329.947729 
L 420.415218 329.54607 
L 421.160664 330.184548 
L 421.90611 330.222341 
L 422.651556 329.402071 
L 423.397003 331.113267 
L 424.142449 330.530911 
L 424.887895 330.125825 
L 425.633341 328.574228 
L 426.378787 329.174741 
L 427.124234 331.158121 
L 427.86968 330.402217 
L 428.615126 330.269348 
L 429.360572 330.908964 
L 430.106018 329.982091 
L 430.851465 330.794706 
L 431.596911 330.188471 
L 432.342357 330.095359 
L 433.087803 330.799913 
L 433.833249 330.380354 
L 434.578696 330.587634 
L 435.324142 329.401941 
L 436.069588 330.327283 
L 436.815034 328.858935 
L 437.56048 329.658438 
L 438.305927 330.245176 
L 439.051373 329.634644 
L 439.796819 330.145727 
L 440.542265 330.063671 
L 442.778604 330.725713 
L 443.52405 330.111276 
L 444.269496 329.6888 
L 445.014942 329.039613 
L 445.760389 330.863771 
L 446.505835 330.111648 
L 447.251281 329.813555 
L 447.996727 328.955917 
L 448.742174 330.106458 
L 449.48762 329.050664 
L 450.233066 328.518396 
L 450.978512 328.169039 
L 451.723958 329.973223 
L 452.469405 329.228576 
L 453.214851 330.424141 
L 453.960297 329.491934 
L 454.705743 329.382428 
L 455.451189 330.188838 
L 456.196636 328.547269 
L 456.942082 329.034992 
L 457.687528 327.878176 
L 458.432974 329.192386 
L 459.17842 328.805003 
L 459.923867 328.657141 
L 460.669313 327.978903 
L 462.160205 328.739914 
L 462.905651 327.825711 
L 463.651098 329.02221 
L 464.396544 328.345335 
L 465.14199 328.357532 
L 466.632882 328.922674 
L 467.378329 329.605741 
L 468.123775 329.088568 
L 468.869221 328.163389 
L 470.360113 330.348523 
L 471.10556 329.534029 
L 471.851006 330.334319 
L 472.596452 328.684654 
L 473.341898 329.658269 
L 474.087344 329.540344 
L 474.832791 330.039968 
L 475.578237 329.458024 
L 476.323683 330.116438 
L 477.069129 329.188441 
L 477.814575 329.628659 
L 478.560022 329.897742 
L 479.305468 329.302134 
L 480.050914 329.444701 
L 480.79636 329.270326 
L 481.541807 330.065986 
L 482.287253 330.187856 
L 483.032699 330.14304 
L 483.778145 329.539265 
L 484.523591 329.596657 
L 485.269038 328.543143 
L 486.014484 328.394539 
L 486.75993 328.932309 
L 487.505376 329.185304 
L 488.250822 329.244235 
L 489.741715 328.396931 
L 490.487161 329.24424 
L 491.232607 328.683641 
L 491.978053 328.330178 
L 492.7235 328.863959 
L 493.468946 328.278101 
L 494.214392 327.976336 
L 495.705284 328.718027 
L 496.450731 328.84881 
L 497.196177 328.48289 
L 498.687069 328.64654 
L 499.432515 329.161309 
L 500.177962 328.55156 
L 500.923408 328.595579 
L 501.668854 328.861114 
L 502.4143 328.902585 
L 503.159746 329.282277 
L 503.905193 328.698894 
L 504.650639 329.423396 
L 505.396085 328.753593 
L 506.141531 328.574383 
L 508.37787 329.234096 
L 509.123316 328.935592 
L 509.868762 328.826064 
L 510.614209 329.364537 
L 511.359655 328.200749 
L 512.850547 328.836971 
L 513.595993 328.230618 
L 514.34144 328.573698 
L 515.086886 328.097433 
L 515.832332 328.168899 
L 517.323224 327.884229 
L 518.068671 328.514752 
L 518.814117 327.955706 
L 519.559563 328.385055 
L 520.305009 327.647858 
L 521.050455 328.017283 
L 521.795902 328.528557 
L 522.541348 327.954962 
L 523.286794 328.236451 
L 524.03224 328.248045 
L 524.777686 327.881908 
L 525.523133 328.268204 
L 527.014025 327.334232 
L 527.759471 328.409655 
L 529.250364 327.558365 
L 531.486702 327.613318 
L 532.232148 327.443524 
L 532.977595 326.668464 
L 533.723041 327.627562 
L 534.468487 327.887073 
L 535.213933 327.639661 
L 535.959379 327.771184 
L 536.704826 327.492417 
L 537.450272 328.073302 
L 538.195718 327.331307 
L 538.941164 327.498489 
L 539.686611 326.823184 
L 540.432057 327.286309 
L 541.177503 327.001915 
L 541.922949 327.110035 
L 543.413842 326.854057 
L 544.159288 326.205777 
L 544.904734 326.513099 
L 545.65018 327.49488 
L 546.395626 327.555755 
L 547.141073 327.970902 
L 547.886519 327.39859 
L 548.631965 326.392948 
L 549.377411 327.849548 
L 550.122857 327.155962 
L 550.868304 327.091263 
L 551.61375 328.08205 
L 552.359196 327.500258 
L 553.104642 327.065282 
L 553.850088 327.959851 
L 554.595535 327.594016 
L 555.340981 326.943909 
L 556.086427 327.111607 
L 557.577319 326.855546 
L 558.322766 326.406979 
L 559.068212 326.18604 
L 559.813658 326.595406 
L 560.559104 327.535027 
L 561.30455 326.72143 
L 562.049997 327.772148 
L 562.795443 327.01925 
L 563.540889 327.076031 
L 564.286335 326.972449 
L 565.031781 326.625652 
L 565.777228 326.876458 
L 568.013566 326.76816 
L 568.759013 326.736476 
L 569.504459 326.936179 
L 570.249905 327.355689 
L 570.995351 325.989615 
L 571.740797 327.071837 
L 572.486244 326.287128 
L 573.977136 327.195908 
L 575.468028 326.211009 
L 576.213475 325.880609 
L 577.704367 326.466315 
L 578.449813 325.842418 
L 579.195259 325.732826 
L 579.940706 326.451961 
L 580.686152 325.310309 
L 582.177044 326.542285 
L 582.92249 325.742995 
L 583.667937 325.553219 
L 584.413383 326.236335 
L 585.158829 325.999714 
L 585.904275 326.58672 
L 586.649721 326.697592 
L 587.395168 326.434006 
L 588.140614 326.486788 
L 588.88606 325.93628 
L 589.631506 326.744074 
L 589.631506 326.744074 
" clip-path="url(#pc844b428a5)" style="fill: none; stroke: #d97706; stroke-width: 3; stroke-linecap: square"/>
   </g>
   <g id="line2d_16">
    <path d="M 134.909321 404.945625 
L 134.909321 40.105625 
" clip-path="url(#pc844b428a5)" style="fill: none; stroke-dasharray: 2,3.3; stroke-dashoffset: 0; stroke: #dc2626; stroke-width: 2"/>
   </g>
   <g id="patch_3">
    <path d="M 89.474375 404.945625 
L 89.474375 40.105625 
" style="fill: none; stroke: #212529; stroke-width: 1.4; stroke-linejoin: miter; stroke-linecap: square"/>
   </g>
   <g id="patch_4">
    <path d="M 613.448512 404.945625 
L 613.448512 40.105625 
" style="fill: none; stroke: #212529; stroke-width: 1.4; stroke-linejoin: miter; stroke-linecap: square"/>
   </g>
   <g id="patch_5">
    <path d="M 89.474375 404.945625 
L 613.448512 404.945625 
" style="fill: none; stroke: #212529; stroke-width: 1.4; stroke-linejoin: miter; stroke-linecap: square"/>
   </g>
   <g id="patch_6">
    <path d="M 89.474375 40.105625 
L 613.448512 40.105625 
" style="fill: none; stroke: #212529; stroke-width: 1.4; stroke-linejoin: miter; stroke-linecap: square"/>
   </g>
   <g id="text_8">
    <!-- Wave residual -->
    <g style="fill: #212529" transform="translate(232.041756 33.034687) scale(0.34 -0.34)">
     <defs>
      <path id="DejaVuSans-57" d="M 213 4666 
L 850 4666 
L 1831 722 
L 2809 4666 
L 3519 4666 
L 4500 722 
L 5478 4666 
L 6119 4666 
L 4947 0 
L 4153 0 
L 3169 4050 
L 2175 0 
L 1381 0 
L 213 4666 
z
" transform="scale(0.015625)"/>
      <path id="DejaVuSans-76" d="M 191 3500 
L 800 3500 
L 1894 563 
L 2988 3500 
L 3597 3500 
L 2284 0 
L 1503 0 
L 191 3500 
z
" transform="scale(0.015625)"/>
      <path id="DejaVuSans-75" d="M 544 1381 
L 544 3500 
L 1119 3500 
L 1119 1403 
Q 1119 906 1312 657 
Q 1506 409 1894 409 
Q 2359 409 2629 706 
Q 2900 1003 2900 1516 
L 2900 3500 
L 3475 3500 
L 3475 0 
L 2900 0 
L 2900 538 
Q 2691 219 2414 64 
Q 2138 -91 1772 -91 
Q 1169 -91 856 284 
Q 544 659 544 1381 
z
M 1991 3584 
L 1991 3584 
z
" transform="scale(0.015625)"/>
      <path id="DejaVuSans-6c" d="M 603 4863 
L 1178 4863 
L 1178 0 
L 603 0 
L 603 4863 
z
" transform="scale(0.015625)"/>
     </defs>
     <use xlink:href="#DejaVuSans-57"/>
     <use xlink:href="#DejaVuSans-61" x="92.501953"/>
     <use xlink:href="#DejaVuSans-76" x="153.78125"/>
     <use xlink:href="#DejaVuSans-65" x="212.960938"/>
     <use xlink:href="#DejaVuSans-20" x="274.484375"/>
     <use xlink:href="#DejaVuSans-72" x="306.271484"/>
     <use xlink:href="#DejaVuSans-65" x="345.134766"/>
     <use xlink:href="#DejaVuSans-73" x="406.658203"/>
     <use xlink:href="#DejaVuSans-69" x="458.757812"/>
     <use xlink:href="#DejaVuSans-64" x="486.541016"/>
     <use xlink:href="#DejaVuSans-75" x="550.017578"/>
     <use xlink:href="#DejaVuSans-61" x="613.396484"/>
     <use xlink:href="#DejaVuSans-6c" x="674.675781"/>
    </g>
   </g>
   <g id="legend_1">
    <g id="line2d_17">
     <path d="M 397.606013 71.541875 
L 421.606013 71.541875 
L 445.606013 71.541875 
" style="fill: none; stroke: #2563eb; stroke-width: 3; stroke-linecap: square"/>
    </g>
    <g id="text_9">
     <!-- Train -->
     <g transform="translate(464.806013 79.941875) scale(0.24 -0.24)">
      <defs>
       <path id="DejaVuSans-54" d="M -19 4666 
L 3928 4666 
L 3928 4134 
L 2272 4134 
L 2272 0 
L 1638 0 
L 1638 4134 
L -19 4134 
L -19 4666 
z
" transform="scale(0.015625)"/>
      </defs>
      <use xlink:href="#DejaVuSans-54"/>
      <use xlink:href="#DejaVuSans-72" x="46.333984"/>
      <use xlink:href="#DejaVuSans-61" x="87.447266"/>
      <use xlink:href="#DejaVuSans-69" x="148.726562"/>
      <use xlink:href="#DejaVuSans-6e" x="176.509766"/>
     </g>
    </g>
    <g id="line2d_18">
     <path d="M 397.606013 106.769375 
L 421.606013 106.769375 
L 445.606013 106.769375 
" style="fill: none; stroke: #d97706; stroke-width: 3; stroke-linecap: square"/>
    </g>
    <g id="text_10">
     <!-- Validation -->
     <g transform="translate(464.806013 115.169375) scale(0.24 -0.24)">
      <defs>
       <path id="DejaVuSans-56" d="M 1831 0 
L 50 4666 
L 709 4666 
L 2188 738 
L 3669 4666 
L 4325 4666 
L 2547 0 
L 1831 0 
z
" transform="scale(0.015625)"/>
      </defs>
      <use xlink:href="#DejaVuSans-56"/>
      <use xlink:href="#DejaVuSans-61" x="60.658203"/>
      <use xlink:href="#DejaVuSans-6c" x="121.9375"/>
      <use xlink:href="#DejaVuSans-69" x="149.720703"/>
      <use xlink:href="#DejaVuSans-64" x="177.503906"/>
      <use xlink:href="#DejaVuSans-61" x="240.980469"/>
      <use xlink:href="#DejaVuSans-74" x="302.259766"/>
      <use xlink:href="#DejaVuSans-69" x="341.46875"/>
      <use xlink:href="#DejaVuSans-6f" x="369.251953"/>
      <use xlink:href="#DejaVuSans-6e" x="430.433594"/>
     </g>
    </g>
    <g id="line2d_19">
     <path d="M 397.606013 141.996875 
L 421.606013 141.996875 
L 445.606013 141.996875 
" style="fill: none; stroke-dasharray: 2,3.3; stroke-dashoffset: 0; stroke: #dc2626; stroke-width: 2"/>
    </g>
    <g id="text_11">
     <!-- physics on -->
     <g transform="translate(464.806013 150.396875) scale(0.24 -0.24)">
      <defs>
       <path id="DejaVuSans-79" d="M 2059 -325 
Q 1816 -950 1584 -1140 
Q 1353 -1331 966 -1331 
L 506 -1331 
L 506 -850 
L 844 -850 
Q 1081 -850 1212 -737 
Q 1344 -625 1503 -206 
L 1606 56 
L 191 3500 
L 800 3500 
L 1894 763 
L 2988 3500 
L 3597 3500 
L 2059 -325 
z
" transform="scale(0.015625)"/>
      </defs>
      <use xlink:href="#DejaVuSans-70"/>
      <use xlink:href="#DejaVuSans-68" x="63.476562"/>
      <use xlink:href="#DejaVuSans-79" x="126.855469"/>
      <use xlink:href="#DejaVuSans-73" x="186.035156"/>
      <use xlink:href="#DejaVuSans-69" x="238.134766"/>
      <use xlink:href="#DejaVuSans-63" x="265.917969"/>
      <use xlink:href="#DejaVuSans-73" x="320.898438"/>
      <use xlink:href="#DejaVuSans-20" x="372.998047"/>
      <use xlink:href="#DejaVuSans-6f" x="404.785156"/>
      <use xlink:href="#DejaVuSans-6e" x="465.966797"/>
     </g>
    </g>
   </g>
  </g>
 </g>
 <defs>
  <clipPath id="pc844b428a5">
   <rect x="89.474375" y="40.105625" width="523.974137" height="364.84"/>
  </clipPath>
 </defs>
</svg>
