<?xml version="1.0" encoding="utf-8" standalone="no"?>
<!DOCTYPE svg PUBLIC "-//W3C//DTD SVG 1.1//EN"
  "http://www.w3.org/Graphics/SVG/1.1/DTD/svg11.dtd">
<svg xmlns:xlink="http://www.w3.org/1999/xlink" width="620.85195pt" height="475.4075pt" viewBox="0 0 620.85195 475.4075" xmlns="http://www.w3.org/2000/svg" version="1.1">
 <metadata>
  <rdf:RDF xmlns:dc="http://purl.org/dc/elements/1.1/" xmlns:cc="http://creativecommons.org/ns#" xmlns:rdf="http://www.w3.org/1999/02/22-rdf-syntax-ns#">
   <cc:Work>
    <dc:type rdf:resource="http://purl.org/dc/dcmitype/StillImage"/>
    <dc:date>2026-06-21T05:01:41.201195</dc:date>
    <dc:format>image/svg+xml</dc:format>
    <dc:creator>
     <cc:Agent>
      <dc:title>Matplotlib v3.8.0, https://matplotlib.org/</dc:title>
     </cc:Agent>
    </dc:creator>
   </cc:Work>
  </rdf:RDF>
 </metadata>
 <defs>
  <style type="text/css">*{stroke-linejoin: round; stroke-linecap: butt}</style>
 </defs>
 <g id="figure_1">
  <g id="patch_1">
   <path d="M 0 475.4075 
L 620.85195 475.4075 
L 620.85195 0 
L 0 0 
z
" style="fill: #ffffff"/>
  </g>
  <g id="axes_1">
   <g id="patch_2">
    <path d="M 103.634375 404.945625 
L 613.65195 404.945625 
L 613.65195 40.105625 
L 103.634375 40.105625 
z
" style="fill: #ffffff"/>
   </g>
   <g id="matplotlib.axis_1">
    <g id="xtick_1">
     <g id="line2d_1">
      <defs>
       <path id="m292d97074d" d="M 0 0 
L 0 3.5 
" style="stroke: #212529; stroke-width: 0.8"/>
      </defs>
      <g>
       <use xlink:href="#m292d97074d" x="126.091402" y="404.945625" style="fill: #212529; stroke: #212529; stroke-width: 0.8"/>
      </g>
     </g>
     <g id="text_1">
      <!-- 0 -->
      <g style="fill: #212529" transform="translate(118.456402 430.181875) scale(0.24 -0.24)">
       <defs>
        <path id="DejaVuSans-30" d="M 2034 4250 
Q 1547 4250 1301 3770 
Q 1056 3291 1056 2328 
Q 1056 1369 1301 889 
Q 1547 409 2034 409 
Q 2525 409 2770 889 
Q 3016 1369 3016 2328 
Q 3016 3291 2770 3770 
Q 2525 4250 2034 4250 
z
M 2034 4750 
Q 2819 4750 3233 4129 
Q 3647 3509 3647 2328 
Q 3647 1150 3233 529 
Q 2819 -91 2034 -91 
Q 1250 -91 836 529 
Q 422 1150 422 2328 
Q 422 3509 836 4129 
Q 1250 4750 2034 4750 
z
" transform="scale(0.015625)"/>
       </defs>
       <use xlink:href="#DejaVuSans-30"/>
      </g>
     </g>
    </g>
    <g id="xtick_2">
     <g id="line2d_2">
      <g>
       <use xlink:href="#m292d97074d" x="271.209505" y="404.945625" style="fill: #212529; stroke: #212529; stroke-width: 0.8"/>
      </g>
     </g>
     <g id="text_2">
      <!-- 200 -->
      <g style="fill: #212529" transform="translate(248.304505 430.181875) scale(0.24 -0.24)">
       <defs>
        <path id="DejaVuSans-32" d="M 1228 531 
L 3431 531 
L 3431 0 
L 469 0 
L 469 531 
Q 828 903 1448 1529 
Q 2069 2156 2228 2338 
Q 2531 2678 2651 2914 
Q 2772 3150 2772 3378 
Q 2772 3750 2511 3984 
Q 2250 4219 1831 4219 
Q 1534 4219 1204 4116 
Q 875 4013 500 3803 
L 500 4441 
Q 881 4594 1212 4672 
Q 1544 4750 1819 4750 
Q 2544 4750 2975 4387 
Q 3406 4025 3406 3419 
Q 3406 3131 3298 2873 
Q 3191 2616 2906 2266 
Q 2828 2175 2409 1742 
Q 1991 1309 1228 531 
z
" transform="scale(0.015625)"/>
       </defs>
       <use xlink:href="#DejaVuSans-32"/>
       <use xlink:href="#DejaVuSans-30" x="63.623047"/>
       <use xlink:href="#DejaVuSans-30" x="127.246094"/>
      </g>
     </g>
    </g>
    <g id="xtick_3">
     <g id="line2d_3">
      <g>
       <use xlink:href="#m292d97074d" x="416.327609" y="404.945625" style="fill: #212529; stroke: #212529; stroke-width: 0.8"/>
      </g>
     </g>
     <g id="text_3">
      <!-- 400 -->
      <g style="fill: #212529" transform="translate(393.422609 430.181875) scale(0.24 -0.24)">
       <defs>
        <path id="DejaVuSans-34" d="M 2419 4116 
L 825 1625 
L 2419 1625 
L 2419 4116 
z
M 2253 4666 
L 3047 4666 
L 3047 1625 
L 3713 1625 
L 3713 1100 
L 3047 1100 
L 3047 0 
L 2419 0 
L 2419 1100 
L 313 1100 
L 313 1709 
L 2253 4666 
z
" transform="scale(0.015625)"/>
       </defs>
       <use xlink:href="#DejaVuSans-34"/>
       <use xlink:href="#DejaVuSans-30" x="63.623047"/>
       <use xlink:href="#DejaVuSans-30" x="127.246094"/>
      </g>
     </g>
    </g>
    <g id="xtick_4">
     <g id="line2d_4">
      <g>
       <use xlink:href="#m292d97074d" x="561.445712" y="404.945625" style="fill: #212529; stroke: #212529; stroke-width: 0.8"/>
      </g>
     </g>
     <g id="text_4">
      <!-- 600 -->
      <g style="fill: #212529" transform="translate(538.540712 430.181875) scale(0.24 -0.24)">
       <defs>
        <path id="DejaVuSans-36" d="M 2113 2584 
Q 1688 2584 1439 2293 
Q 1191 2003 1191 1497 
Q 1191 994 1439 701 
Q 1688 409 2113 409 
Q 2538 409 2786 701 
Q 3034 994 3034 1497 
Q 3034 2003 2786 2293 
Q 2538 2584 2113 2584 
z
M 3366 4563 
L 3366 3988 
Q 3128 4100 2886 4159 
Q 2644 4219 2406 4219 
Q 1781 4219 1451 3797 
Q 1122 3375 1075 2522 
Q 1259 2794 1537 2939 
Q 1816 3084 2150 3084 
Q 2853 3084 3261 2657 
Q 3669 2231 3669 1497 
Q 3669 778 3244 343 
Q 2819 -91 2113 -91 
Q 1303 -91 875 529 
Q 447 1150 447 2328 
Q 447 3434 972 4092 
Q 1497 4750 2381 4750 
Q 2619 4750 2861 4703 
Q 3103 4656 3366 4563 
z
" transform="scale(0.015625)"/>
       </defs>
       <use xlink:href="#DejaVuSans-36"/>
       <use xlink:href="#DejaVuSans-30" x="63.623047"/>
       <use xlink:href="#DejaVuSans-30" x="127.246094"/>
      </g>
     </g>
    </g>
    <g id="text_5">
     <!-- Epoch -->
     <g style="fill: #212529" transform="translate(312.71035 461.968438) scale(0.3 -0.3)">
      <defs>
       <path id="DejaVuSans-45" d="M 628 4666 
L 3578 4666 
L 3578 4134 
L 1259 4134 
L 1259 2753 
L 3481 2753 
L 3481 2222 
L 1259 2222 
L 1259 531 
L 3634 531 
L 3634 0 
L 628 0 
L 628 4666 
z
" transform="scale(0.015625)"/>
       <path id="DejaVuSans-70" d="M 1159 525 
L 1159 -1331 
L 581 -1331 
L 581 3500 
L 1159 3500 
L 1159 2969 
Q 1341 3281 1617 3432 
Q 1894 3584 2278 3584 
Q 2916 3584 3314 3078 
Q 3713 2572 3713 1747 
Q 3713 922 3314 415 
Q 2916 -91 2278 -91 
Q 1894 -91 1617 61 
Q 1341 213 1159 525 
z
M 3116 1747 
Q 3116 2381 2855 2742 
Q 2594 3103 2138 3103 
Q 1681 3103 1420 2742 
Q 1159 2381 1159 1747 
Q 1159 1113 1420 752 
Q 1681 391 2138 391 
Q 2594 391 2855 752 
Q 3116 1113 3116 1747 
z
" transform="scale(0.015625)"/>
       <path id="DejaVuSans-6f" d="M 1959 3097 
Q 1497 3097 1228 2736 
Q 959 2375 959 1747 
Q 959 1119 1226 758 
Q 1494 397 1959 397 
Q 2419 397 2687 759 
Q 2956 1122 2956 1747 
Q 2956 2369 2687 2733 
Q 2419 3097 1959 3097 
z
M 1959 3584 
Q 2709 3584 3137 3096 
Q 3566 2609 3566 1747 
Q 3566 888 3137 398 
Q 2709 -91 1959 -91 
Q 1206 -91 779 398 
Q 353 888 353 1747 
Q 353 2609 779 3096 
Q 1206 3584 1959 3584 
z
" transform="scale(0.015625)"/>
       <path id="DejaVuSans-63" d="M 3122 3366 
L 3122 2828 
Q 2878 2963 2633 3030 
Q 2388 3097 2138 3097 
Q 1578 3097 1268 2742 
Q 959 2388 959 1747 
Q 959 1106 1268 751 
Q 1578 397 2138 397 
Q 2388 397 2633 464 
Q 2878 531 3122 666 
L 3122 134 
Q 2881 22 2623 -34 
Q 2366 -91 2075 -91 
Q 1284 -91 818 406 
Q 353 903 353 1747 
Q 353 2603 823 3093 
Q 1294 3584 2113 3584 
Q 2378 3584 2631 3529 
Q 2884 3475 3122 3366 
z
" transform="scale(0.015625)"/>
       <path id="DejaVuSans-68" d="M 3513 2113 
L 3513 0 
L 2938 0 
L 2938 2094 
Q 2938 2591 2744 2837 
Q 2550 3084 2163 3084 
Q 1697 3084 1428 2787 
Q 1159 2491 1159 1978 
L 1159 0 
L 581 0 
L 581 4863 
L 1159 4863 
L 1159 2956 
Q 1366 3272 1645 3428 
Q 1925 3584 2291 3584 
Q 2894 3584 3203 3211 
Q 3513 2838 3513 2113 
z
" transform="scale(0.015625)"/>
      </defs>
      <use xlink:href="#DejaVuSans-45"/>
      <use xlink:href="#DejaVuSans-70" x="63.183594"/>
      <use xlink:href="#DejaVuSans-6f" x="126.660156"/>
      <use xlink:href="#DejaVuSans-63" x="187.841797"/>
      <use xlink:href="#DejaVuSans-68" x="242.822266"/>
     </g>
    </g>
   </g>
   <g id="matplotlib.axis_2">
    <g id="ytick_1">
     <g id="line2d_5">
      <defs>
       <path id="ma6a1f73e47" d="M 0 0 
L -3.5 0 
" style="stroke: #212529; stroke-width: 0.8"/>
      </defs>
      <g>
       <use xlink:href="#ma6a1f73e47" x="103.634375" y="375.660838" style="fill: #212529; stroke: #212529; stroke-width: 0.8"/>
      </g>
     </g>
     <g id="text_6">
      <!-- $\mathdefault{10^{-2}}$ -->
      <g style="fill: #212529" transform="translate(40.234375 384.778963) scale(0.24 -0.24)">
       <defs>
        <path id="DejaVuSans-31" d="M 794 531 
L 1825 531 
L 1825 4091 
L 703 3866 
L 703 4441 
L 1819 4666 
L 2450 4666 
L 2450 531 
L 3481 531 
L 3481 0 
L 794 0 
L 794 531 
z
" transform="scale(0.015625)"/>
        <path id="DejaVuSans-2212" d="M 678 2272 
L 4684 2272 
L 4684 1741 
L 678 1741 
L 678 2272 
z
" transform="scale(0.015625)"/>
       </defs>
       <use xlink:href="#DejaVuSans-31" transform="translate(0 0.765625)"/>
       <use xlink:href="#DejaVuSans-30" transform="translate(63.623047 0.765625)"/>
       <use xlink:href="#DejaVuSans-2212" transform="translate(128.203125 39.046875) scale(0.7)"/>
       <use xlink:href="#DejaVuSans-32" transform="translate(186.855469 39.046875) scale(0.7)"/>
      </g>
     </g>
    </g>
    <g id="ytick_2">
     <g id="line2d_6">
      <g>
       <use xlink:href="#ma6a1f73e47" x="103.634375" y="169.21291" style="fill: #212529; stroke: #212529; stroke-width: 0.8"/>
      </g>
     </g>
     <g id="text_7">
      <!-- $\mathdefault{10^{-1}}$ -->
      <g style="fill: #212529" transform="translate(40.234375 178.331035) scale(0.24 -0.24)">
       <use xlink:href="#DejaVuSans-31" transform="translate(0 0.684375)"/>
       <use xlink:href="#DejaVuSans-30" transform="translate(63.623047 0.684375)"/>
       <use xlink:href="#DejaVuSans-2212" transform="translate(128.203125 38.965625) scale(0.7)"/>
       <use xlink:href="#DejaVuSans-31" transform="translate(186.855469 38.965625) scale(0.7)"/>
      </g>
     </g>
    </g>
    <g id="ytick_3">
     <g id="line2d_7">
      <defs>
       <path id="mc655d5f084" d="M 0 0 
L -2 0 
" style="stroke: #212529; stroke-width: 0.6"/>
      </defs>
      <g>
       <use xlink:href="#mc655d5f084" x="103.634375" y="395.667709" style="fill: #212529; stroke: #212529; stroke-width: 0.6"/>
      </g>
     </g>
    </g>
    <g id="ytick_4">
     <g id="line2d_8">
      <g>
       <use xlink:href="#mc655d5f084" x="103.634375" y="385.107377" style="fill: #212529; stroke: #212529; stroke-width: 0.6"/>
      </g>
     </g>
    </g>
    <g id="ytick_5">
     <g id="line2d_9">
      <g>
       <use xlink:href="#mc655d5f084" x="103.634375" y="313.513819" style="fill: #212529; stroke: #212529; stroke-width: 0.6"/>
      </g>
     </g>
    </g>
    <g id="ytick_6">
     <g id="line2d_10">
      <g>
       <use xlink:href="#mc655d5f084" x="103.634375" y="277.160144" style="fill: #212529; stroke: #212529; stroke-width: 0.6"/>
      </g>
     </g>
    </g>
    <g id="ytick_7">
     <g id="line2d_11">
      <g>
       <use xlink:href="#mc655d5f084" x="103.634375" y="251.3668" style="fill: #212529; stroke: #212529; stroke-width: 0.6"/>
      </g>
     </g>
    </g>
    <g id="ytick_8">
     <g id="line2d_12">
      <g>
       <use xlink:href="#mc655d5f084" x="103.634375" y="231.359929" style="fill: #212529; stroke: #212529; stroke-width: 0.6"/>
      </g>
     </g>
    </g>
    <g id="ytick_9">
     <g id="line2d_13">
      <g>
       <use xlink:href="#mc655d5f084" x="103.634375" y="215.013125" style="fill: #212529; stroke: #212529; stroke-width: 0.6"/>
      </g>
     </g>
    </g>
    <g id="ytick_10">
     <g id="line2d_14">
      <g>
       <use xlink:href="#mc655d5f084" x="103.634375" y="201.192099" style="fill: #212529; stroke: #212529; stroke-width: 0.6"/>
      </g>
     </g>
    </g>
    <g id="ytick_11">
     <g id="line2d_15">
      <g>
       <use xlink:href="#mc655d5f084" x="103.634375" y="189.219782" style="fill: #212529; stroke: #212529; stroke-width: 0.6"/>
      </g>
     </g>
    </g>
    <g id="ytick_12">
     <g id="line2d_16">
      <g>
       <use xlink:href="#mc655d5f084" x="103.634375" y="178.659449" style="fill: #212529; stroke: #212529; stroke-width: 0.6"/>
      </g>
     </g>
    </g>
    <g id="ytick_13">
     <g id="line2d_17">
      <g>
       <use xlink:href="#mc655d5f084" x="103.634375" y="107.065891" style="fill: #212529; stroke: #212529; stroke-width: 0.6"/>
      </g>
     </g>
    </g>
    <g id="ytick_14">
     <g id="line2d_18">
      <g>
       <use xlink:href="#mc655d5f084" x="103.634375" y="70.712216" style="fill: #212529; stroke: #212529; stroke-width: 0.6"/>
      </g>
     </g>
    </g>
    <g id="ytick_15">
     <g id="line2d_19">
      <g>
       <use xlink:href="#mc655d5f084" x="103.634375" y="44.918873" style="fill: #212529; stroke: #212529; stroke-width: 0.6"/>
      </g>
     </g>
    </g>
    <g id="text_8">
     <!-- MSE (standardized) -->
     <g style="fill: #212529" transform="translate(29.995312 368.267031) rotate(-90) scale(0.3 -0.3)">
      <defs>
       <path id="DejaVuSans-4d" d="M 628 4666 
L 1569 4666 
L 2759 1491 
L 3956 4666 
L 4897 4666 
L 4897 0 
L 4281 0 
L 4281 4097 
L 3078 897 
L 2444 897 
L 1241 4097 
L 1241 0 
L 628 0 
L 628 4666 
z
" transform="scale(0.015625)"/>
       <path id="DejaVuSans-53" d="M 3425 4513 
L 3425 3897 
Q 3066 4069 2747 4153 
Q 2428 4238 2131 4238 
Q 1616 4238 1336 4038 
Q 1056 3838 1056 3469 
Q 1056 3159 1242 3001 
Q 1428 2844 1947 2747 
L 2328 2669 
Q 3034 2534 3370 2195 
Q 3706 1856 3706 1288 
Q 3706 609 3251 259 
Q 2797 -91 1919 -91 
Q 1588 -91 1214 -16 
Q 841 59 441 206 
L 441 856 
Q 825 641 1194 531 
Q 1563 422 1919 422 
Q 2459 422 2753 634 
Q 3047 847 3047 1241 
Q 3047 1584 2836 1778 
Q 2625 1972 2144 2069 
L 1759 2144 
Q 1053 2284 737 2584 
Q 422 2884 422 3419 
Q 422 4038 858 4394 
Q 1294 4750 2059 4750 
Q 2388 4750 2728 4690 
Q 3069 4631 3425 4513 
z
" transform="scale(0.015625)"/>
       <path id="DejaVuSans-20" transform="scale(0.015625)"/>
       <path id="DejaVuSans-28" d="M 1984 4856 
Q 1566 4138 1362 3434 
Q 1159 2731 1159 2009 
Q 1159 1288 1364 580 
Q 1569 -128 1984 -844 
L 1484 -844 
Q 1016 -109 783 600 
Q 550 1309 550 2009 
Q 550 2706 781 3412 
Q 1013 4119 1484 4856 
L 1984 4856 
z
" transform="scale(0.015625)"/>
       <path id="DejaVuSans-73" d="M 2834 3397 
L 2834 2853 
Q 2591 2978 2328 3040 
Q 2066 3103 1784 3103 
Q 1356 3103 1142 2972 
Q 928 2841 928 2578 
Q 928 2378 1081 2264 
Q 1234 2150 1697 2047 
L 1894 2003 
Q 2506 1872 2764 1633 
Q 3022 1394 3022 966 
Q 3022 478 2636 193 
Q 2250 -91 1575 -91 
Q 1294 -91 989 -36 
Q 684 19 347 128 
L 347 722 
Q 666 556 975 473 
Q 1284 391 1588 391 
Q 1994 391 2212 530 
Q 2431 669 2431 922 
Q 2431 1156 2273 1281 
Q 2116 1406 1581 1522 
L 1381 1569 
Q 847 1681 609 1914 
Q 372 2147 372 2553 
Q 372 3047 722 3315 
Q 1072 3584 1716 3584 
Q 2034 3584 2315 3537 
Q 2597 3491 2834 3397 
z
" transform="scale(0.015625)"/>
       <path id="DejaVuSans-74" d="M 1172 4494 
L 1172 3500 
L 2356 3500 
L 2356 3053 
L 1172 3053 
L 1172 1153 
Q 1172 725 1289 603 
Q 1406 481 1766 481 
L 2356 481 
L 2356 0 
L 1766 0 
Q 1100 0 847 248 
Q 594 497 594 1153 
L 594 3053 
L 172 3053 
L 172 3500 
L 594 3500 
L 594 4494 
L 1172 4494 
z
" transform="scale(0.015625)"/>
       <path id="DejaVuSans-61" d="M 2194 1759 
Q 1497 1759 1228 1600 
Q 959 1441 959 1056 
Q 959 750 1161 570 
Q 1363 391 1709 391 
Q 2188 391 2477 730 
Q 2766 1069 2766 1631 
L 2766 1759 
L 2194 1759 
z
M 3341 1997 
L 3341 0 
L 2766 0 
L 2766 531 
Q 2569 213 2275 61 
Q 1981 -91 1556 -91 
Q 1019 -91 701 211 
Q 384 513 384 1019 
Q 384 1609 779 1909 
Q 1175 2209 1959 2209 
L 2766 2209 
L 2766 2266 
Q 2766 2663 2505 2880 
Q 2244 3097 1772 3097 
Q 1472 3097 1187 3025 
Q 903 2953 641 2809 
L 641 3341 
Q 956 3463 1253 3523 
Q 1550 3584 1831 3584 
Q 2591 3584 2966 3190 
Q 3341 2797 3341 1997 
z
" transform="scale(0.015625)"/>
       <path id="DejaVuSans-6e" d="M 3513 2113 
L 3513 0 
L 2938 0 
L 2938 2094 
Q 2938 2591 2744 2837 
Q 2550 3084 2163 3084 
Q 1697 3084 1428 2787 
Q 1159 2491 1159 1978 
L 1159 0 
L 581 0 
L 581 3500 
L 1159 3500 
L 1159 2956 
Q 1366 3272 1645 3428 
Q 1925 3584 2291 3584 
Q 2894 3584 3203 3211 
Q 3513 2838 3513 2113 
z
" transform="scale(0.015625)"/>
       <path id="DejaVuSans-64" d="M 2906 2969 
L 2906 4863 
L 3481 4863 
L 3481 0 
L 2906 0 
L 2906 525 
Q 2725 213 2448 61 
Q 2172 -91 1784 -91 
Q 1150 -91 751 415 
Q 353 922 353 1747 
Q 353 2572 751 3078 
Q 1150 3584 1784 3584 
Q 2172 3584 2448 3432 
Q 2725 3281 2906 2969 
z
M 947 1747 
Q 947 1113 1208 752 
Q 1469 391 1925 391 
Q 2381 391 2643 752 
Q 2906 1113 2906 1747 
Q 2906 2381 2643 2742 
Q 2381 3103 1925 3103 
Q 1469 3103 1208 2742 
Q 947 2381 947 1747 
z
" transform="scale(0.015625)"/>
       <path id="DejaVuSans-72" d="M 2631 2963 
Q 2534 3019 2420 3045 
Q 2306 3072 2169 3072 
Q 1681 3072 1420 2755 
Q 1159 2438 1159 1844 
L 1159 0 
L 581 0 
L 581 3500 
L 1159 3500 
L 1159 2956 
Q 1341 3275 1631 3429 
Q 1922 3584 2338 3584 
Q 2397 3584 2469 3576 
Q 2541 3569 2628 3553 
L 2631 2963 
z
" transform="scale(0.015625)"/>
       <path id="DejaVuSans-69" d="M 603 3500 
L 1178 3500 
L 1178 0 
L 603 0 
L 603 3500 
z
M 603 4863 
L 1178 4863 
L 1178 4134 
L 603 4134 
L 603 4863 
z
" transform="scale(0.015625)"/>
       <path id="DejaVuSans-7a" d="M 353 3500 
L 3084 3500 
L 3084 2975 
L 922 459 
L 3084 459 
L 3084 0 
L 275 0 
L 275 525 
L 2438 3041 
L 353 3041 
L 353 3500 
z
" transform="scale(0.015625)"/>
       <path id="DejaVuSans-65" d="M 3597 1894 
L 3597 1613 
L 953 1613 
Q 991 1019 1311 708 
Q 1631 397 2203 397 
Q 2534 397 2845 478 
Q 3156 559 3463 722 
L 3463 178 
Q 3153 47 2828 -22 
Q 2503 -91 2169 -91 
Q 1331 -91 842 396 
Q 353 884 353 1716 
Q 353 2575 817 3079 
Q 1281 3584 2069 3584 
Q 2775 3584 3186 3129 
Q 3597 2675 3597 1894 
z
M 3022 2063 
Q 3016 2534 2758 2815 
Q 2500 3097 2075 3097 
Q 1594 3097 1305 2825 
Q 1016 2553 972 2059 
L 3022 2063 
z
" transform="scale(0.015625)"/>
       <path id="DejaVuSans-29" d="M 513 4856 
L 1013 4856 
Q 1481 4119 1714 3412 
Q 1947 2706 1947 2009 
Q 1947 1309 1714 600 
Q 1481 -109 1013 -844 
L 513 -844 
Q 928 -128 1133 580 
Q 1338 1288 1338 2009 
Q 1338 2731 1133 3434 
Q 928 4138 513 4856 
z
" transform="scale(0.015625)"/>
      </defs>
      <use xlink:href="#DejaVuSans-4d"/>
      <use xlink:href="#DejaVuSans-53" x="86.279297"/>
      <use xlink:href="#DejaVuSans-45" x="149.755859"/>
      <use xlink:href="#DejaVuSans-20" x="212.939453"/>
      <use xlink:href="#DejaVuSans-28" x="244.726562"/>
      <use xlink:href="#DejaVuSans-73" x="283.740234"/>
      <use xlink:href="#DejaVuSans-74" x="335.839844"/>
      <use xlink:href="#DejaVuSans-61" x="375.048828"/>
      <use xlink:href="#DejaVuSans-6e" x="436.328125"/>
      <use xlink:href="#DejaVuSans-64" x="499.707031"/>
      <use xlink:href="#DejaVuSans-61" x="563.183594"/>
      <use xlink:href="#DejaVuSans-72" x="624.462891"/>
      <use xlink:href="#DejaVuSans-64" x="663.826172"/>
      <use xlink:href="#DejaVuSans-69" x="727.302734"/>
      <use xlink:href="#DejaVuSans-7a" x="755.085938"/>
      <use xlink:href="#DejaVuSans-65" x="807.576172"/>
      <use xlink:href="#DejaVuSans-64" x="869.099609"/>
      <use xlink:href="#DejaVuSans-29" x="932.576172"/>
     </g>
    </g>
   </g>
   <g id="line2d_20">
    <path d="M 126.816992 388.361989 
L 127.542583 92.788987 
L 128.268173 74.521638 
L 128.993764 65.409466 
L 129.719354 63.662744 
L 130.444945 64.399028 
L 131.170535 59.825042 
L 131.896126 67.178572 
L 132.621716 61.550033 
L 133.347307 64.238662 
L 134.072897 62.735902 
L 134.798488 63.140207 
L 135.524078 56.689261 
L 136.249669 61.616355 
L 136.975259 60.440953 
L 137.70085 59.56143 
L 138.42644 64.409183 
L 139.152031 58.62758 
L 139.877621 62.112479 
L 140.603212 60.38851 
L 141.328802 60.034739 
L 142.054393 61.95392 
L 142.779983 60.648912 
L 143.505574 59.852256 
L 144.231164 58.648748 
L 144.956755 59.881197 
L 145.682346 60.098599 
L 146.407936 59.91756 
L 147.133527 58.492315 
L 148.584708 63.927139 
L 149.310298 61.611475 
L 150.035889 62.138353 
L 150.761479 63.169554 
L 151.48707 61.056658 
L 152.21266 60.134116 
L 152.938251 61.799644 
L 153.663841 62.22334 
L 154.389432 63.289582 
L 155.115022 59.66214 
L 155.840613 62.592867 
L 156.566203 64.1667 
L 157.291794 63.032386 
L 158.017384 65.346894 
L 158.742975 64.455061 
L 159.468565 60.400722 
L 160.194156 60.034539 
L 160.919746 62.238736 
L 161.645337 63.774515 
L 162.370927 61.691919 
L 163.096518 63.170593 
L 163.822108 66.13246 
L 164.547699 62.534285 
L 165.273289 63.157279 
L 165.99888 62.247823 
L 166.724471 63.966838 
L 167.450061 62.764387 
L 168.175652 64.406717 
L 168.901242 61.695744 
L 169.626833 63.521551 
L 170.352423 62.878169 
L 171.078014 62.547318 
L 171.803604 63.303002 
L 173.254785 61.927905 
L 173.980376 62.814777 
L 174.705966 61.253777 
L 175.431557 62.987019 
L 176.157147 62.243189 
L 176.882738 62.25028 
L 177.608328 62.970395 
L 178.333919 62.769057 
L 179.059509 63.024478 
L 179.7851 64.358336 
L 180.51069 61.582777 
L 181.961871 62.183781 
L 182.687462 62.658787 
L 183.413052 62.636208 
L 184.138643 62.060984 
L 184.864233 63.604428 
L 185.589824 61.739255 
L 186.315415 62.735705 
L 187.041005 63.099997 
L 187.766596 61.967536 
L 188.492186 62.229154 
L 189.217777 62.232763 
L 189.943367 62.926091 
L 191.394548 63.688577 
L 192.120139 62.520017 
L 192.845729 61.600962 
L 193.57132 63.768023 
L 194.29691 61.056704 
L 195.022501 62.949112 
L 195.748091 62.473605 
L 196.473682 62.559556 
L 197.199272 61.726401 
L 197.924863 62.099789 
L 198.650453 62.725025 
L 199.376044 61.281446 
L 200.101634 63.092182 
L 200.827225 63.020399 
L 201.552815 62.801563 
L 202.278406 63.011349 
L 203.003996 62.887699 
L 203.729587 61.527059 
L 204.455177 62.168518 
L 205.180768 61.884168 
L 205.906358 63.447679 
L 206.631949 63.298815 
L 207.35754 61.580729 
L 208.08313 62.184623 
L 209.534311 60.959589 
L 210.259902 63.137136 
L 210.985492 61.706401 
L 211.711083 62.016543 
L 212.436673 62.571988 
L 214.613445 62.056976 
L 215.339035 62.890804 
L 216.064626 62.446619 
L 216.790216 62.366475 
L 217.515807 63.547773 
L 218.241397 62.676165 
L 218.966988 61.228837 
L 219.692578 61.809173 
L 220.418169 61.555598 
L 221.143759 62.689377 
L 221.86935 62.82176 
L 222.59494 61.667831 
L 223.320531 62.481717 
L 224.046121 60.54218 
L 224.771712 62.957732 
L 225.497302 61.861438 
L 226.222893 61.257619 
L 226.948484 61.740884 
L 227.674074 61.720954 
L 228.399665 62.030421 
L 229.850846 61.930948 
L 230.576436 62.08172 
L 231.302027 61.963631 
L 232.753208 61.165099 
L 233.478798 62.19829 
L 234.204389 61.09706 
L 235.65557 62.018718 
L 237.106751 61.239819 
L 237.832341 60.65589 
L 238.557932 61.315424 
L 239.283522 61.242514 
L 240.009113 61.690546 
L 240.734703 61.057095 
L 241.460294 62.166519 
L 242.911475 61.551322 
L 243.637065 61.44863 
L 244.362656 62.045925 
L 245.088246 61.810174 
L 245.813837 61.323644 
L 246.539427 61.859685 
L 247.265018 61.930999 
L 247.990609 60.904133 
L 248.716199 60.800981 
L 249.44179 62.47732 
L 250.16738 61.950056 
L 250.892971 61.073428 
L 251.618561 61.539556 
L 252.344152 61.141954 
L 253.069742 61.294486 
L 253.795333 61.332745 
L 254.520923 61.960004 
L 255.246514 62.303127 
L 255.972104 61.510502 
L 256.697695 61.436304 
L 257.423285 61.69519 
L 258.148876 61.000541 
L 259.600057 61.944602 
L 261.051238 60.953253 
L 261.776828 61.587826 
L 262.502419 62.734237 
L 263.9536 61.026302 
L 264.67919 61.378176 
L 265.404781 61.164474 
L 266.130371 60.759302 
L 266.855962 60.970175 
L 267.581553 61.429061 
L 268.307143 60.936452 
L 269.032734 62.043908 
L 269.758324 60.905028 
L 270.483915 60.483075 
L 271.935096 61.069749 
L 272.660686 60.672026 
L 273.386277 60.846591 
L 274.111867 61.465868 
L 274.837458 61.670292 
L 275.563048 61.181794 
L 276.288639 61.009165 
L 277.014229 61.166577 
L 277.73982 60.978322 
L 278.46541 61.054641 
L 279.191001 60.539242 
L 280.642182 61.854659 
L 281.367772 60.821967 
L 282.093363 61.926028 
L 282.818953 60.556918 
L 283.544544 61.019979 
L 284.270134 61.658173 
L 284.995725 60.737097 
L 286.446906 61.376744 
L 287.172496 60.814045 
L 287.898087 61.632481 
L 288.623678 60.841185 
L 289.349268 61.486443 
L 290.074859 61.059574 
L 290.800449 61.035591 
L 291.52604 61.369793 
L 292.25163 60.611131 
L 293.702811 61.057715 
L 294.428402 60.181307 
L 295.153992 60.788677 
L 297.330764 61.806231 
L 298.056354 60.963725 
L 299.507535 61.118806 
L 300.958716 61.034057 
L 301.684307 61.260733 
L 302.409897 60.957501 
L 303.135488 61.088812 
L 303.861078 61.768427 
L 304.586669 60.656536 
L 306.03785 60.909543 
L 306.76344 60.888914 
L 307.489031 61.867865 
L 308.214622 60.956737 
L 308.940212 60.970908 
L 309.665803 60.519654 
L 310.391393 61.142109 
L 311.116984 60.956302 
L 311.842574 61.406202 
L 312.568165 60.359561 
L 313.293755 61.424903 
L 314.019346 60.996863 
L 314.744936 61.186341 
L 315.470527 61.535147 
L 316.196117 61.029078 
L 316.921708 61.28033 
L 317.647298 61.018438 
L 318.372889 61.554685 
L 319.098479 61.100989 
L 319.82407 60.379526 
L 320.54966 61.187475 
L 321.275251 61.619551 
L 322.000841 61.310743 
L 323.452022 61.455434 
L 324.177613 61.85991 
L 324.903203 61.725461 
L 325.628794 61.302674 
L 326.354384 61.165701 
L 327.079975 61.377986 
L 328.531156 60.686886 
L 329.256747 60.960612 
L 330.707928 61.805284 
L 331.433518 61.159107 
L 332.159109 61.2049 
L 332.884699 60.887971 
L 333.61029 60.793658 
L 334.33588 60.849207 
L 335.061471 61.316275 
L 335.787061 60.68898 
L 336.512652 61.011742 
L 337.238242 61.596723 
L 337.963833 61.583151 
L 338.689423 60.560334 
L 339.415014 61.432542 
L 340.140604 60.751811 
L 340.866195 61.748225 
L 341.591785 62.080236 
L 342.317376 60.958765 
L 343.042966 61.069691 
L 343.768557 61.400053 
L 344.494147 60.893226 
L 345.219738 61.140019 
L 345.945328 61.027878 
L 346.670919 61.363157 
L 347.396509 61.201814 
L 348.1221 60.345088 
L 348.847691 61.027266 
L 349.573281 60.889099 
L 350.298872 61.732154 
L 351.024462 60.965935 
L 351.750053 60.732342 
L 352.475643 60.628267 
L 353.201234 60.846364 
L 353.926824 61.26938 
L 355.378005 61.36427 
L 356.103596 61.06613 
L 357.554777 60.837018 
L 358.280367 60.466955 
L 359.005958 60.786512 
L 359.731548 61.699186 
L 360.457139 61.123354 
L 361.182729 61.532245 
L 361.90832 60.997199 
L 362.63391 61.233171 
L 363.359501 60.942186 
L 364.085091 60.335796 
L 364.810682 61.260984 
L 365.536272 61.104326 
L 366.261863 61.258428 
L 366.987453 61.265718 
L 367.713044 61.129139 
L 368.438634 61.403952 
L 369.164225 60.84782 
L 369.889816 61.257557 
L 370.615406 60.731112 
L 371.340997 61.237539 
L 372.066587 61.11264 
L 372.792178 60.706639 
L 374.243359 61.012199 
L 374.968949 60.841352 
L 375.69454 61.257382 
L 376.42013 61.163908 
L 377.145721 61.312942 
L 377.871311 61.288437 
L 378.596902 61.498729 
L 380.048083 60.74622 
L 380.773673 61.012527 
L 382.224854 61.231395 
L 382.950445 61.037901 
L 383.676035 61.119792 
L 385.127216 60.81072 
L 385.852807 61.106439 
L 386.578397 60.876405 
L 387.303988 61.136195 
L 388.029578 60.943659 
L 388.755169 61.345912 
L 389.48076 60.818488 
L 393.108712 61.109104 
L 393.834303 60.891723 
L 394.559893 61.099177 
L 395.285484 60.834525 
L 396.736665 60.828917 
L 397.462255 61.044344 
L 398.187846 60.99383 
L 398.913436 60.661614 
L 400.364617 61.015859 
L 401.090208 60.481443 
L 401.815798 61.193593 
L 402.541389 61.212165 
L 403.266979 60.884441 
L 403.99257 60.746334 
L 405.443751 60.871134 
L 406.169341 61.430475 
L 407.620522 60.716911 
L 409.071703 61.123185 
L 409.797294 61.089432 
L 410.522885 60.425633 
L 411.248475 61.224985 
L 411.974066 60.892765 
L 412.699656 60.707605 
L 413.425247 60.739956 
L 414.150837 60.608008 
L 414.876428 60.812046 
L 415.602018 60.413914 
L 416.327609 60.832567 
L 417.053199 61.03157 
L 417.77879 60.781086 
L 418.50438 60.67774 
L 419.229971 60.926189 
L 421.406742 60.719161 
L 422.132333 60.894664 
L 422.857923 60.855268 
L 423.583514 60.667686 
L 424.309104 60.637954 
L 425.034695 61.006986 
L 425.760285 60.594944 
L 426.485876 61.080173 
L 427.211466 60.420857 
L 427.937057 61.096111 
L 428.662647 60.596382 
L 429.388238 60.549225 
L 430.839419 61.102275 
L 432.2906 60.498369 
L 433.016191 60.916704 
L 433.741781 60.930101 
L 434.467372 60.529237 
L 435.192962 61.018126 
L 435.918553 61.089025 
L 436.644143 60.73561 
L 437.369734 60.987968 
L 438.095324 60.790566 
L 438.820915 61.125395 
L 439.546505 60.497485 
L 440.272096 60.577783 
L 440.997686 60.875239 
L 441.723277 60.614536 
L 442.448867 61.213736 
L 443.174458 61.182235 
L 443.900048 60.460166 
L 444.625639 60.550904 
L 445.351229 61.234261 
L 446.07682 60.755267 
L 446.80241 61.064893 
L 447.528001 60.697561 
L 448.253591 60.9469 
L 448.979182 60.541905 
L 453.332725 61.2706 
L 454.058316 60.66278 
L 454.783906 61.175885 
L 455.509497 61.071815 
L 456.235087 60.7553 
L 456.960678 60.960187 
L 458.411859 60.876346 
L 459.137449 61.261358 
L 459.86304 60.548755 
L 460.58863 60.931065 
L 461.314221 61.062843 
L 462.039811 60.649412 
L 462.765402 61.090422 
L 463.490992 61.135352 
L 464.216583 60.760325 
L 464.942173 60.960757 
L 465.667764 60.942757 
L 466.393354 60.553701 
L 467.118945 61.295144 
L 467.844535 61.007242 
L 468.570126 61.231808 
L 469.295716 60.723013 
L 470.021307 61.095289 
L 470.746898 60.718017 
L 471.472488 61.025858 
L 472.198079 60.75284 
L 472.923669 60.95046 
L 473.64926 60.991515 
L 474.37485 61.373325 
L 475.100441 60.902488 
L 475.826031 60.813776 
L 476.551622 61.006525 
L 477.277212 60.238424 
L 478.002803 60.795628 
L 479.453984 60.750373 
L 480.179574 61.162415 
L 480.905165 60.554577 
L 481.630755 61.009232 
L 482.356346 60.80466 
L 483.081936 60.864614 
L 483.807527 60.793897 
L 484.533117 60.992624 
L 487.435479 60.893978 
L 488.16107 61.093164 
L 488.88666 60.906697 
L 489.612251 61.002331 
L 490.337841 60.608508 
L 491.063432 61.042004 
L 491.789023 60.978694 
L 492.514613 60.657209 
L 493.240204 61.020248 
L 493.965794 60.684276 
L 494.691385 60.734729 
L 495.416975 61.045792 
L 496.142566 60.650536 
L 496.868156 61.021499 
L 497.593747 60.975418 
L 498.319337 61.104667 
L 499.044928 60.694188 
L 499.770518 61.011754 
L 501.221699 61.063895 
L 501.94729 60.623933 
L 502.67288 61.139957 
L 504.124061 60.96537 
L 504.849652 60.71572 
L 507.026423 61.046559 
L 507.752014 60.906818 
L 508.477604 60.616682 
L 509.203195 60.638623 
L 509.928785 60.457386 
L 510.654376 60.86414 
L 512.105557 60.7987 
L 512.831148 60.78573 
L 513.556738 60.943599 
L 515.007919 60.481532 
L 515.73351 60.888655 
L 516.4591 60.812076 
L 517.184691 61.012037 
L 517.910281 60.946166 
L 518.635872 60.520246 
L 519.361462 60.72379 
L 520.087053 60.779097 
L 520.812643 60.509623 
L 521.538234 60.501844 
L 522.263824 60.896702 
L 522.989415 60.771731 
L 524.440596 61.095452 
L 525.166186 60.976815 
L 526.617367 60.465985 
L 527.342958 60.956682 
L 528.068548 60.645971 
L 529.519729 60.988694 
L 530.24532 60.98259 
L 530.97091 60.722991 
L 531.696501 60.778924 
L 532.422092 60.662402 
L 533.873273 60.829049 
L 534.598863 60.760944 
L 535.324454 61.000324 
L 536.050044 61.029777 
L 536.775635 60.941949 
L 537.501225 60.617699 
L 538.226816 60.719471 
L 538.952406 60.595166 
L 539.677997 61.034776 
L 541.854768 60.802444 
L 543.305949 60.796658 
L 544.03154 60.2788 
L 544.75713 60.794997 
L 545.482721 61.013306 
L 546.933902 60.370674 
L 548.385083 61.055065 
L 549.836264 60.794328 
L 552.013036 60.707964 
L 552.738626 60.710655 
L 553.464217 60.916439 
L 554.189807 60.916604 
L 554.915398 61.121574 
L 555.640988 60.693095 
L 556.366579 60.606246 
L 558.54335 60.839376 
L 559.268941 61.032631 
L 559.994531 60.580373 
L 560.720122 60.938616 
L 561.445712 60.727526 
L 562.896893 60.857209 
L 564.348074 60.525815 
L 566.524846 60.984351 
L 567.250436 60.71896 
L 568.701617 60.830237 
L 570.152798 60.823808 
L 570.878389 60.577573 
L 571.603979 60.875309 
L 572.32957 61.026021 
L 573.780751 60.942377 
L 574.506342 60.444597 
L 575.231932 60.752557 
L 576.683113 60.685349 
L 577.408704 60.858842 
L 578.134294 60.760059 
L 578.859885 60.798542 
L 579.585475 60.713827 
L 580.311066 60.841082 
L 581.036656 60.486249 
L 582.487837 60.859207 
L 583.213428 60.892751 
L 583.939018 60.672065 
L 584.664609 60.687058 
L 585.390199 61.14927 
L 586.11579 60.741454 
L 586.84138 60.977577 
L 587.566971 60.760503 
L 588.292561 61.078112 
L 589.018152 60.753854 
L 589.743742 60.582926 
L 590.469333 60.759351 
L 590.469333 60.759351 
" clip-path="url(#p9ee7b326e3)" style="fill: none; stroke: #2563eb; stroke-width: 3; stroke-linecap: square"/>
   </g>
   <g id="line2d_21">
    <path d="M 126.816992 383.220503 
L 127.542583 128.341324 
L 128.268173 103.591118 
L 128.993764 87.754597 
L 129.719354 83.262068 
L 130.444945 89.916578 
L 131.170535 84.091436 
L 131.896126 87.855039 
L 132.621716 82.910848 
L 133.347307 82.921238 
L 134.072897 82.017152 
L 134.798488 82.314083 
L 135.524078 78.690148 
L 136.975259 82.201032 
L 137.70085 81.122727 
L 138.42644 83.682548 
L 139.152031 82.703237 
L 139.877621 80.429445 
L 140.603212 80.268894 
L 141.328802 81.99424 
L 142.054393 80.402005 
L 142.779983 79.630659 
L 143.505574 80.393539 
L 144.231164 79.782031 
L 144.956755 79.574417 
L 145.682346 79.015492 
L 146.407936 81.016662 
L 147.133527 79.430437 
L 147.859117 78.845282 
L 148.584708 83.234573 
L 149.310298 80.320301 
L 150.035889 82.996333 
L 150.761479 80.041992 
L 151.48707 79.960623 
L 152.21266 81.535647 
L 152.938251 81.540007 
L 153.663841 81.213336 
L 154.389432 81.24585 
L 155.115022 80.797387 
L 155.840613 80.120117 
L 156.566203 84.312379 
L 157.291794 81.24997 
L 158.017384 82.860324 
L 158.742975 79.577989 
L 159.468565 79.957462 
L 160.194156 80.196606 
L 160.919746 79.442619 
L 161.645337 82.161797 
L 162.370927 80.773826 
L 163.096518 81.906136 
L 163.822108 84.599808 
L 164.547699 80.443242 
L 165.273289 81.830469 
L 165.99888 80.5116 
L 166.724471 82.32715 
L 167.450061 83.046676 
L 168.175652 80.81686 
L 168.901242 81.505533 
L 169.626833 81.716514 
L 170.352423 82.63373 
L 171.078014 80.350876 
L 171.803604 81.183916 
L 172.529195 81.150412 
L 173.254785 82.2052 
L 173.980376 81.549604 
L 174.705966 78.67828 
L 175.431557 81.912942 
L 176.157147 82.567 
L 176.882738 80.979111 
L 177.608328 81.119609 
L 179.059509 81.047222 
L 179.7851 82.252076 
L 180.51069 81.481032 
L 181.236281 79.930228 
L 181.961871 81.839716 
L 182.687462 80.71626 
L 183.413052 82.483997 
L 184.138643 80.931633 
L 184.864233 82.192975 
L 185.589824 79.627256 
L 186.315415 81.079594 
L 187.041005 80.743812 
L 187.766596 80.803129 
L 189.217777 80.264024 
L 189.943367 81.176277 
L 190.668958 81.086485 
L 191.394548 82.476738 
L 192.120139 81.031151 
L 192.845729 80.000993 
L 193.57132 80.545903 
L 194.29691 79.504002 
L 195.022501 79.749597 
L 195.748091 80.810944 
L 197.199272 81.151303 
L 197.924863 81.195521 
L 198.650453 80.878426 
L 199.376044 80.256987 
L 200.101634 81.356241 
L 200.827225 81.101668 
L 201.552815 81.773663 
L 202.278406 80.667497 
L 203.003996 80.646428 
L 203.729587 79.941712 
L 204.455177 80.659654 
L 205.180768 81.070696 
L 205.906358 80.822322 
L 206.631949 81.03051 
L 207.35754 81.382928 
L 208.08313 80.447565 
L 208.808721 79.990184 
L 209.534311 79.870253 
L 210.259902 79.905672 
L 210.985492 78.918106 
L 211.711083 80.745301 
L 212.436673 80.723587 
L 213.162264 81.127283 
L 214.613445 80.613405 
L 215.339035 80.575818 
L 216.064626 79.90341 
L 216.790216 80.392761 
L 217.515807 81.457695 
L 218.241397 81.651276 
L 218.966988 80.448013 
L 219.692578 80.622337 
L 220.418169 79.531769 
L 221.143759 80.27764 
L 221.86935 80.193203 
L 222.59494 80.867922 
L 224.046121 78.816054 
L 224.771712 80.459673 
L 225.497302 80.044853 
L 226.222893 80.242507 
L 226.948484 80.859658 
L 227.674074 80.319984 
L 228.399665 80.109388 
L 229.125255 80.077332 
L 229.850846 80.449446 
L 230.576436 80.639055 
L 231.302027 79.669499 
L 232.027617 79.651376 
L 232.753208 80.633015 
L 234.204389 80.359836 
L 234.929979 80.409969 
L 236.38116 80.870809 
L 237.106751 79.515916 
L 237.832341 79.838321 
L 238.557932 79.690753 
L 240.009113 80.326769 
L 240.734703 80.783377 
L 241.460294 80.354126 
L 242.185884 80.988175 
L 242.911475 80.252756 
L 243.637065 80.077621 
L 244.362656 80.152893 
L 245.088246 79.528484 
L 245.813837 80.027103 
L 246.539427 80.753181 
L 247.265018 80.493591 
L 247.990609 79.471217 
L 248.716199 80.068991 
L 249.44179 80.840664 
L 250.16738 80.406081 
L 250.892971 79.726327 
L 251.618561 79.576339 
L 252.344152 80.138397 
L 253.069742 80.366718 
L 253.795333 79.751156 
L 254.520923 80.534001 
L 255.246514 80.00605 
L 256.697695 79.853297 
L 257.423285 80.200056 
L 258.148876 79.239402 
L 258.874466 80.120382 
L 259.600057 80.31156 
L 260.325647 79.77258 
L 261.051238 80.193649 
L 261.776828 80.125567 
L 262.502419 81.236936 
L 263.228009 80.200902 
L 263.9536 79.546183 
L 264.67919 80.057698 
L 265.404781 80.250787 
L 266.130371 79.508465 
L 266.855962 79.586276 
L 267.581553 79.816176 
L 268.307143 80.36431 
L 269.032734 80.150956 
L 269.758324 79.419148 
L 270.483915 79.612297 
L 271.209505 79.208749 
L 271.935096 80.399572 
L 272.660686 79.203584 
L 273.386277 80.19802 
L 274.111867 79.910232 
L 274.837458 80.053581 
L 275.563048 79.7202 
L 276.288639 78.939881 
L 277.014229 81.372177 
L 277.73982 80.017153 
L 278.46541 80.000793 
L 279.191001 78.783477 
L 279.916591 80.048381 
L 281.367772 79.483404 
L 282.093363 81.334885 
L 282.818953 79.544595 
L 283.544544 79.878314 
L 284.270134 79.587381 
L 284.995725 80.151479 
L 285.721315 80.566021 
L 286.446906 80.03221 
L 287.172496 79.821258 
L 287.898087 80.305509 
L 288.623678 79.630751 
L 289.349268 79.788174 
L 290.074859 79.24123 
L 290.800449 79.191603 
L 291.52604 79.888268 
L 292.977221 79.703718 
L 294.428402 79.135664 
L 295.153992 79.997562 
L 295.879583 80.358576 
L 296.605173 79.69941 
L 297.330764 81.310761 
L 298.056354 80.221893 
L 298.781945 79.581071 
L 299.507535 79.534371 
L 300.233126 79.665955 
L 300.958716 80.025642 
L 301.684307 79.968523 
L 302.409897 79.794492 
L 303.135488 79.971353 
L 303.861078 80.634133 
L 304.586669 79.27632 
L 305.312259 79.552654 
L 306.03785 79.236971 
L 306.76344 79.804907 
L 307.489031 79.909984 
L 308.214622 79.53654 
L 308.940212 80.525857 
L 309.665803 79.568215 
L 310.391393 79.777148 
L 311.116984 79.685974 
L 311.842574 80.662551 
L 312.568165 79.641865 
L 313.293755 80.210585 
L 314.019346 79.632737 
L 314.744936 80.382513 
L 315.470527 80.247142 
L 316.196117 79.745511 
L 317.647298 80.125878 
L 318.372889 80.418065 
L 319.098479 79.355637 
L 319.82407 79.491442 
L 321.275251 80.538379 
L 322.726432 80.143006 
L 323.452022 79.746344 
L 324.903203 79.846716 
L 325.628794 79.849517 
L 326.354384 79.643681 
L 327.079975 79.921737 
L 327.805565 80.06825 
L 328.531156 79.641823 
L 329.982337 80.057789 
L 330.707928 80.319062 
L 331.433518 80.185137 
L 332.159109 79.869504 
L 334.33588 80.406346 
L 335.061471 80.157954 
L 335.787061 79.56752 
L 336.512652 79.432247 
L 337.238242 80.507279 
L 337.963833 79.675164 
L 338.689423 79.340816 
L 339.415014 79.995403 
L 340.140604 79.815886 
L 341.591785 80.320958 
L 342.317376 79.507683 
L 343.042966 79.611738 
L 343.768557 80.296248 
L 345.219738 79.647052 
L 345.945328 79.840081 
L 346.670919 80.226867 
L 347.396509 79.67205 
L 348.1221 79.731754 
L 348.847691 80.481437 
L 349.573281 79.90061 
L 350.298872 80.244455 
L 351.024462 80.19125 
L 351.750053 79.507513 
L 352.475643 79.920078 
L 353.201234 80.147646 
L 354.652415 79.94462 
L 355.378005 79.446905 
L 356.103596 79.51655 
L 356.829186 79.963648 
L 357.554777 79.479484 
L 358.280367 79.521054 
L 359.005958 79.090014 
L 359.731548 80.033258 
L 360.457139 79.574301 
L 361.182729 80.131774 
L 361.90832 79.588975 
L 362.63391 80.200873 
L 363.359501 80.367095 
L 364.085091 79.163057 
L 364.810682 80.204072 
L 365.536272 79.500821 
L 366.261863 80.048708 
L 366.987453 79.876771 
L 367.713044 79.831035 
L 368.438634 80.120901 
L 369.164225 79.881624 
L 369.889816 80.407694 
L 370.615406 79.365749 
L 371.340997 79.968016 
L 372.066587 80.167503 
L 373.517768 79.824306 
L 374.243359 80.084947 
L 374.968949 79.642347 
L 375.69454 79.616943 
L 377.145721 80.037995 
L 377.871311 79.758209 
L 378.596902 80.432121 
L 379.322492 79.615206 
L 380.048083 79.899703 
L 380.773673 79.52069 
L 381.499264 79.936785 
L 382.224854 80.148905 
L 382.950445 79.691308 
L 384.401626 79.856616 
L 385.127216 79.549981 
L 385.852807 80.038205 
L 386.578397 79.612925 
L 387.303988 79.702705 
L 388.029578 79.631755 
L 388.755169 80.240189 
L 389.48076 79.795189 
L 390.20635 79.84892 
L 390.931941 79.381532 
L 391.657531 79.774909 
L 393.834303 79.480028 
L 395.285484 80.066112 
L 396.011074 79.236953 
L 396.736665 79.973695 
L 397.462255 79.815544 
L 398.187846 79.965198 
L 398.913436 79.575695 
L 399.639027 79.780313 
L 400.364617 79.808712 
L 401.090208 79.366844 
L 401.815798 79.851866 
L 403.266979 79.536988 
L 403.99257 79.564053 
L 404.71816 79.363897 
L 406.169341 79.779296 
L 406.894932 79.918781 
L 407.620522 79.421093 
L 408.346113 79.380859 
L 409.071703 79.961542 
L 409.797294 79.631042 
L 411.248475 79.99802 
L 411.974066 79.602132 
L 412.699656 79.56782 
L 413.425247 79.652826 
L 414.150837 79.618542 
L 414.876428 79.375007 
L 415.602018 79.744736 
L 416.327609 79.510257 
L 417.053199 79.89572 
L 417.77879 79.739322 
L 418.50438 79.186731 
L 419.229971 79.630188 
L 419.955561 79.879561 
L 420.681152 79.817379 
L 421.406742 79.375719 
L 422.132333 79.304111 
L 422.857923 79.739947 
L 423.583514 79.246853 
L 425.034695 79.74367 
L 426.485876 79.621481 
L 427.211466 79.464551 
L 427.937057 79.435429 
L 428.662647 79.975253 
L 429.388238 79.555231 
L 430.113829 79.794839 
L 430.839419 79.8805 
L 431.56501 79.515974 
L 434.467372 79.435436 
L 435.192962 79.687142 
L 435.918553 79.335184 
L 436.644143 79.478852 
L 437.369734 79.837765 
L 438.095324 79.319102 
L 438.820915 79.732241 
L 439.546505 79.361274 
L 440.272096 79.348455 
L 440.997686 79.776346 
L 441.723277 79.584658 
L 442.448867 79.664444 
L 443.174458 80.046453 
L 443.900048 79.376916 
L 444.625639 80.101348 
L 445.351229 80.002591 
L 446.07682 79.676999 
L 446.80241 79.926211 
L 447.528001 79.636939 
L 448.253591 79.867259 
L 448.979182 79.420525 
L 449.704772 79.525766 
L 451.155954 79.547196 
L 451.881544 80.037352 
L 452.607135 79.550199 
L 453.332725 80.07114 
L 454.058316 79.444247 
L 454.783906 79.815322 
L 455.509497 79.913476 
L 456.235087 79.664085 
L 456.960678 79.73433 
L 457.686268 79.553814 
L 458.411859 79.841311 
L 459.137449 79.457312 
L 459.86304 79.433756 
L 461.314221 79.692857 
L 462.039811 79.139909 
L 462.765402 79.877121 
L 463.490992 79.470252 
L 464.216583 79.779022 
L 465.667764 79.323551 
L 467.118945 79.757563 
L 467.844535 79.491607 
L 468.570126 79.644541 
L 469.295716 79.106024 
L 470.021307 80.057908 
L 470.746898 79.625826 
L 471.472488 79.436476 
L 472.198079 79.966691 
L 472.923669 79.904846 
L 473.64926 79.728573 
L 474.37485 79.767832 
L 475.100441 79.287099 
L 475.826031 79.142329 
L 476.551622 79.721099 
L 477.277212 79.204003 
L 478.002803 79.598348 
L 478.728393 79.27061 
L 479.453984 79.27056 
L 480.179574 79.743003 
L 480.905165 79.55334 
L 481.630755 79.730017 
L 482.356346 79.491241 
L 483.081936 79.386907 
L 484.533117 79.817552 
L 485.258708 79.359924 
L 485.984298 79.61149 
L 486.709889 79.473362 
L 488.88666 79.771709 
L 489.612251 79.332702 
L 490.337841 79.298582 
L 491.063432 79.836293 
L 492.514613 79.520013 
L 493.240204 79.972275 
L 493.965794 79.400989 
L 496.142566 79.512812 
L 496.868156 79.719228 
L 497.593747 79.34891 
L 498.319337 79.791597 
L 499.770518 79.267617 
L 500.496109 79.647306 
L 501.221699 79.390838 
L 501.94729 79.42273 
L 502.67288 79.866334 
L 504.849652 79.384415 
L 505.575242 79.485755 
L 506.300833 79.394688 
L 507.026423 79.652353 
L 509.203195 79.401606 
L 509.928785 79.233356 
L 510.654376 79.581676 
L 512.105557 79.530895 
L 513.556738 79.462603 
L 514.282329 79.477242 
L 515.007919 79.258604 
L 515.73351 79.752977 
L 516.4591 79.612521 
L 517.184691 79.973999 
L 518.635872 79.270537 
L 520.812643 79.448594 
L 521.538234 79.211725 
L 522.263824 79.571282 
L 522.989415 79.575509 
L 523.715005 79.879515 
L 524.440596 79.610491 
L 525.166186 79.791883 
L 525.891777 79.638963 
L 526.617367 79.225336 
L 527.342958 79.551006 
L 528.794139 79.472013 
L 529.519729 79.722022 
L 530.97091 79.544065 
L 531.696501 79.543181 
L 532.422092 79.384269 
L 533.147682 79.647878 
L 533.873273 79.336704 
L 534.598863 79.440947 
L 535.324454 79.78633 
L 536.775635 79.456214 
L 538.226816 79.417814 
L 538.952406 79.205992 
L 539.677997 79.552048 
L 541.129178 79.627686 
L 541.854768 79.466616 
L 542.580359 79.648801 
L 543.305949 79.666931 
L 544.03154 79.233433 
L 544.75713 79.585844 
L 545.482721 79.562701 
L 546.208311 79.099074 
L 546.933902 79.196968 
L 548.385083 79.717182 
L 549.110673 79.521362 
L 549.836264 79.54063 
L 550.561854 79.279444 
L 551.287445 79.136954 
L 552.013036 79.137042 
L 552.738626 79.345047 
L 553.464217 79.399898 
L 554.189807 79.749033 
L 554.915398 79.613311 
L 555.640988 79.779917 
L 556.366579 79.155075 
L 557.092169 79.372643 
L 559.268941 79.546035 
L 559.994531 79.120774 
L 560.720122 79.449653 
L 561.445712 79.235551 
L 562.171303 79.566319 
L 562.896893 79.396841 
L 563.622484 79.354471 
L 564.348074 79.173093 
L 565.073665 79.354871 
L 565.799255 79.230777 
L 566.524846 79.542215 
L 567.250436 79.473631 
L 567.976027 79.673711 
L 568.701617 79.282741 
L 570.152798 79.550405 
L 570.878389 79.248895 
L 571.603979 79.499682 
L 573.780751 79.446026 
L 574.506342 79.020871 
L 575.231932 79.731405 
L 576.683113 79.440134 
L 577.408704 79.768685 
L 578.134294 79.639064 
L 578.859885 79.630006 
L 581.036656 79.241323 
L 582.487837 79.598485 
L 583.213428 79.669059 
L 583.939018 79.413438 
L 584.664609 79.464816 
L 585.390199 79.720194 
L 586.11579 79.543113 
L 586.84138 79.597249 
L 587.566971 79.403334 
L 589.018152 79.582259 
L 589.743742 79.20552 
L 590.469333 79.742481 
L 590.469333 79.742481 
" clip-path="url(#p9ee7b326e3)" style="fill: none; stroke: #d97706; stroke-width: 3; stroke-linecap: square"/>
   </g>
   <g id="line2d_22">
    <path d="M 147.859117 404.945625 
L 147.859117 40.105625 
" clip-path="url(#p9ee7b326e3)" style="fill: none; stroke-dasharray: 2,3.3; stroke-dashoffset: 0; stroke: #dc2626; stroke-width: 2"/>
   </g>
   <g id="patch_3">
    <path d="M 103.634375 404.945625 
L 103.634375 40.105625 
" style="fill: none; stroke: #212529; stroke-width: 1.4; stroke-linejoin: miter; stroke-linecap: square"/>
   </g>
   <g id="patch_4">
    <path d="M 613.65195 404.945625 
L 613.65195 40.105625 
" style="fill: none; stroke: #212529; stroke-width: 1.4; stroke-linejoin: miter; stroke-linecap: square"/>
   </g>
   <g id="patch_5">
    <path d="M 103.634375 404.945625 
L 613.65195 404.945625 
" style="fill: none; stroke: #212529; stroke-width: 1.4; stroke-linejoin: miter; stroke-linecap: square"/>
   </g>
   <g id="patch_6">
    <path d="M 103.634375 40.105625 
L 613.65195 40.105625 
" style="fill: none; stroke: #212529; stroke-width: 1.4; stroke-linejoin: miter; stroke-linecap: square"/>
   </g>
   <g id="text_9">
    <!-- Boundary (Dirichlet) -->
    <g style="fill: #212529" transform="translate(186.608475 33.034687) scale(0.34 -0.34)">
     <defs>
      <path id="DejaVuSans-42" d="M 1259 2228 
L 1259 519 
L 2272 519 
Q 2781 519 3026 730 
Q 3272 941 3272 1375 
Q 3272 1813 3026 2020 
Q 2781 2228 2272 2228 
L 1259 2228 
z
M 1259 4147 
L 1259 2741 
L 2194 2741 
Q 2656 2741 2882 2914 
Q 3109 3088 3109 3444 
Q 3109 3797 2882 3972 
Q 2656 4147 2194 4147 
L 1259 4147 
z
M 628 4666 
L 2241 4666 
Q 2963 4666 3353 4366 
Q 3744 4066 3744 3513 
Q 3744 3084 3544 2831 
Q 3344 2578 2956 2516 
Q 3422 2416 3680 2098 
Q 3938 1781 3938 1306 
Q 3938 681 3513 340 
Q 3088 0 2303 0 
L 628 0 
L 628 4666 
z
" transform="scale(0.015625)"/>
      <path id="DejaVuSans-75" d="M 544 1381 
L 544 3500 
L 1119 3500 
L 1119 1403 
Q 1119 906 1312 657 
Q 1506 409 1894 409 
Q 2359 409 2629 706 
Q 2900 1003 2900 1516 
L 2900 3500 
L 3475 3500 
L 3475 0 
L 2900 0 
L 2900 538 
Q 2691 219 2414 64 
Q 2138 -91 1772 -91 
Q 1169 -91 856 284 
Q 544 659 544 1381 
z
M 1991 3584 
L 1991 3584 
z
" transform="scale(0.015625)"/>
      <path id="DejaVuSans-79" d="M 2059 -325 
Q 1816 -950 1584 -1140 
Q 1353 -1331 966 -1331 
L 506 -1331 
L 506 -850 
L 844 -850 
Q 1081 -850 1212 -737 
Q 1344 -625 1503 -206 
L 1606 56 
L 191 3500 
L 800 3500 
L 1894 763 
L 2988 3500 
L 3597 3500 
L 2059 -325 
z
" transform="scale(0.015625)"/>
      <path id="DejaVuSans-44" d="M 1259 4147 
L 1259 519 
L 2022 519 
Q 2988 519 3436 956 
Q 3884 1394 3884 2338 
Q 3884 3275 3436 3711 
Q 2988 4147 2022 4147 
L 1259 4147 
z
M 628 4666 
L 1925 4666 
Q 3281 4666 3915 4102 
Q 4550 3538 4550 2338 
Q 4550 1131 3912 565 
Q 3275 0 1925 0 
L 628 0 
L 628 4666 
z
" transform="scale(0.015625)"/>
      <path id="DejaVuSans-6c" d="M 603 4863 
L 1178 4863 
L 1178 0 
L 603 0 
L 603 4863 
z
" transform="scale(0.015625)"/>
     </defs>
     <use xlink:href="#DejaVuSans-42"/>
     <use xlink:href="#DejaVuSans-6f" x="68.603516"/>
     <use xlink:href="#DejaVuSans-75" x="129.785156"/>
     <use xlink:href="#DejaVuSans-6e" x="193.164062"/>
     <use xlink:href="#DejaVuSans-64" x="256.542969"/>
     <use xlink:href="#DejaVuSans-61" x="320.019531"/>
     <use xlink:href="#DejaVuSans-72" x="381.298828"/>
     <use xlink:href="#DejaVuSans-79" x="422.412109"/>
     <use xlink:href="#DejaVuSans-20" x="481.591797"/>
     <use xlink:href="#DejaVuSans-28" x="513.378906"/>
     <use xlink:href="#DejaVuSans-44" x="552.392578"/>
     <use xlink:href="#DejaVuSans-69" x="629.394531"/>
     <use xlink:href="#DejaVuSans-72" x="657.177734"/>
     <use xlink:href="#DejaVuSans-69" x="698.291016"/>
     <use xlink:href="#DejaVuSans-63" x="726.074219"/>
     <use xlink:href="#DejaVuSans-68" x="781.054688"/>
     <use xlink:href="#DejaVuSans-6c" x="844.433594"/>
     <use xlink:href="#DejaVuSans-65" x="872.216797"/>
     <use xlink:href="#DejaVuSans-74" x="933.740234"/>
     <use xlink:href="#DejaVuSans-29" x="972.949219"/>
    </g>
   </g>
   <g id="legend_1">
    <g id="line2d_23">
     <path d="M 397.80945 299.499375 
L 421.80945 299.499375 
L 445.80945 299.499375 
" style="fill: none; stroke: #2563eb; stroke-width: 3; stroke-linecap: square"/>
    </g>
    <g id="text_10">
     <!-- Train -->
     <g transform="translate(465.00945 307.899375) scale(0.24 -0.24)">
      <defs>
       <path id="DejaVuSans-54" d="M -19 4666 
L 3928 4666 
L 3928 4134 
L 2272 4134 
L 2272 0 
L 1638 0 
L 1638 4134 
L -19 4134 
L -19 4666 
z
" transform="scale(0.015625)"/>
      </defs>
      <use xlink:href="#DejaVuSans-54"/>
      <use xlink:href="#DejaVuSans-72" x="46.333984"/>
      <use xlink:href="#DejaVuSans-61" x="87.447266"/>
      <use xlink:href="#DejaVuSans-69" x="148.726562"/>
      <use xlink:href="#DejaVuSans-6e" x="176.509766"/>
     </g>
    </g>
    <g id="line2d_24">
     <path d="M 397.80945 334.726875 
L 421.80945 334.726875 
L 445.80945 334.726875 
" style="fill: none; stroke: #d97706; stroke-width: 3; stroke-linecap: square"/>
    </g>
    <g id="text_11">
     <!-- Validation -->
     <g transform="translate(465.00945 343.126875) scale(0.24 -0.24)">
      <defs>
       <path id="DejaVuSans-56" d="M 1831 0 
L 50 4666 
L 709 4666 
L 2188 738 
L 3669 4666 
L 4325 4666 
L 2547 0 
L 1831 0 
z
" transform="scale(0.015625)"/>
      </defs>
      <use xlink:href="#DejaVuSans-56"/>
      <use xlink:href="#DejaVuSans-61" x="60.658203"/>
      <use xlink:href="#DejaVuSans-6c" x="121.9375"/>
      <use xlink:href="#DejaVuSans-69" x="149.720703"/>
      <use xlink:href="#DejaVuSans-64" x="177.503906"/>
      <use xlink:href="#DejaVuSans-61" x="240.980469"/>
      <use xlink:href="#DejaVuSans-74" x="302.259766"/>
      <use xlink:href="#DejaVuSans-69" x="341.46875"/>
      <use xlink:href="#DejaVuSans-6f" x="369.251953"/>
      <use xlink:href="#DejaVuSans-6e" x="430.433594"/>
     </g>
    </g>
    <g id="line2d_25">
     <path d="M 397.80945 369.954375 
L 421.80945 369.954375 
L 445.80945 369.954375 
" style="fill: none; stroke-dasharray: 2,3.3; stroke-dashoffset: 0; stroke: #dc2626; stroke-width: 2"/>
    </g>
    <g id="text_12">
     <!-- physics on -->
     <g transform="translate(465.00945 378.354375) scale(0.24 -0.24)">
      <use xlink:href="#DejaVuSans-70"/>
      <use xlink:href="#DejaVuSans-68" x="63.476562"/>
      <use xlink:href="#DejaVuSans-79" x="126.855469"/>
      <use xlink:href="#DejaVuSans-73" x="186.035156"/>
      <use xlink:href="#DejaVuSans-69" x="238.134766"/>
      <use xlink:href="#DejaVuSans-63" x="265.917969"/>
      <use xlink:href="#DejaVuSans-73" x="320.898438"/>
      <use xlink:href="#DejaVuSans-20" x="372.998047"/>
      <use xlink:href="#DejaVuSans-6f" x="404.785156"/>
      <use xlink:href="#DejaVuSans-6e" x="465.966797"/>
     </g>
    </g>
   </g>
  </g>
 </g>
 <defs>
  <clipPath id="p9ee7b326e3">
   <rect x="103.634375" y="40.105625" width="510.017575" height="364.84"/>
  </clipPath>
 </defs>
</svg>
