<?xml version="1.0" encoding="utf-8" standalone="no"?>
<!DOCTYPE svg PUBLIC "-//W3C//DTD SVG 1.1//EN"
  "http://www.w3.org/Graphics/SVG/1.1/DTD/svg11.dtd">
<svg xmlns:xlink="http://www.w3.org/1999/xlink" width="1288.632664pt" height="280.290937pt" viewBox="0 0 1288.632664 280.290937" xmlns="http://www.w3.org/2000/svg" version="1.1">
 <metadata>
  <rdf:RDF xmlns:dc="http://purl.org/dc/elements/1.1/" xmlns:cc="http://creativecommons.org/ns#" xmlns:rdf="http://www.w3.org/1999/02/22-rdf-syntax-ns#">
   <cc:Work>
    <dc:type rdf:resource="http://purl.org/dc/dcmitype/StillImage"/>
    <dc:date>2026-05-31T14:36:15.043888</dc:date>
    <dc:format>image/svg+xml</dc:format>
    <dc:creator>
     <cc:Agent>
      <dc:title>Matplotlib v3.10.9, https://matplotlib.org/</dc:title>
     </cc:Agent>
    </dc:creator>
   </cc:Work>
  </rdf:RDF>
 </metadata>
 <defs>
  <style type="text/css">*{stroke-linejoin: round; stroke-linecap: butt}</style>
 </defs>
 <g id="figure_1">
  <g id="patch_1">
   <path d="M 0 280.290937 
L 1288.632664 280.290937 
L 1288.632664 0 
L 0 0 
z
" style="fill: #ffffff"/>
  </g>
  <g id="axes_1">
   <g id="patch_2">
    <path d="M 48.050313 242.62375 
L 254.028645 242.62375 
L 254.028645 22.0425 
L 48.050313 22.0425 
z
" style="fill: #ffffff"/>
   </g>
   <g id="matplotlib.axis_1">
    <g id="xtick_1">
     <g id="line2d_1">
      <path d="M 54.699152 242.62375 
L 54.699152 22.0425 
" clip-path="url(#p775bf2285c)" style="fill: none; stroke: #e9ecef; stroke-width: 0.6; stroke-linecap: square"/>
     </g>
     <g id="line2d_2">
      <defs>
       <path id="m3771470497" d="M 0 0 
L 0 3.5 
" style="stroke: #6c757d; stroke-width: 0.8"/>
      </defs>
      <g>
       <use xlink:href="#m3771470497" x="54.699152" y="242.62375" style="fill: #6c757d; stroke: #6c757d; stroke-width: 0.8"/>
      </g>
     </g>
     <g id="text_1">
      <!-- 0 -->
      <g style="fill: #6c757d" transform="translate(51.918683 256.797187) scale(0.1 -0.1)">
       <defs>
        <path id="Helvetica-30" d="M 1731 4475 
Q 2600 4475 2988 3759 
Q 3288 3206 3288 2244 
Q 3288 1331 3016 734 
Q 2622 -122 1728 -122 
Q 922 -122 528 578 
Q 200 1163 200 2147 
Q 200 2909 397 3456 
Q 766 4475 1731 4475 
z
M 1725 391 
Q 2163 391 2422 778 
Q 2681 1166 2681 2222 
Q 2681 2984 2493 3476 
Q 2306 3969 1766 3969 
Q 1269 3969 1039 3501 
Q 809 3034 809 2125 
Q 809 1441 956 1025 
Q 1181 391 1725 391 
z
" transform="scale(0.015625)"/>
       </defs>
       <use xlink:href="#Helvetica-30"/>
      </g>
     </g>
    </g>
    <g id="xtick_2">
     <g id="line2d_3">
      <path d="M 108.975392 242.62375 
L 108.975392 22.0425 
" clip-path="url(#p775bf2285c)" style="fill: none; stroke: #e9ecef; stroke-width: 0.6; stroke-linecap: square"/>
     </g>
     <g id="line2d_4">
      <g>
       <use xlink:href="#m3771470497" x="108.975392" y="242.62375" style="fill: #6c757d; stroke: #6c757d; stroke-width: 0.8"/>
      </g>
     </g>
     <g id="text_2">
      <!-- 20 -->
      <g style="fill: #6c757d" transform="translate(103.414455 256.797187) scale(0.1 -0.1)">
       <defs>
        <path id="Helvetica-32" d="M 200 0 
Q 231 578 439 1006 
Q 647 1434 1250 1784 
L 1850 2131 
Q 2253 2366 2416 2531 
Q 2672 2791 2672 3125 
Q 2672 3516 2437 3745 
Q 2203 3975 1813 3975 
Q 1234 3975 1013 3538 
Q 894 3303 881 2888 
L 309 2888 
Q 319 3472 525 3841 
Q 891 4491 1816 4491 
Q 2584 4491 2939 4075 
Q 3294 3659 3294 3150 
Q 3294 2613 2916 2231 
Q 2697 2009 2131 1694 
L 1703 1456 
Q 1397 1288 1222 1134 
Q 909 863 828 531 
L 3272 531 
L 3272 0 
L 200 0 
z
" transform="scale(0.015625)"/>
       </defs>
       <use xlink:href="#Helvetica-32"/>
       <use xlink:href="#Helvetica-30" transform="translate(55.615234 0)"/>
      </g>
     </g>
    </g>
    <g id="xtick_3">
     <g id="line2d_5">
      <path d="M 163.251633 242.62375 
L 163.251633 22.0425 
" clip-path="url(#p775bf2285c)" style="fill: none; stroke: #e9ecef; stroke-width: 0.6; stroke-linecap: square"/>
     </g>
     <g id="line2d_6">
      <g>
       <use xlink:href="#m3771470497" x="163.251633" y="242.62375" style="fill: #6c757d; stroke: #6c757d; stroke-width: 0.8"/>
      </g>
     </g>
     <g id="text_3">
      <!-- 40 -->
      <g style="fill: #6c757d" transform="translate(157.690695 256.797187) scale(0.1 -0.1)">
       <defs>
        <path id="Helvetica-34" d="M 2116 1584 
L 2116 3613 
L 681 1584 
L 2116 1584 
z
M 2125 0 
L 2125 1094 
L 163 1094 
L 163 1644 
L 2213 4488 
L 2688 4488 
L 2688 1584 
L 3347 1584 
L 3347 1094 
L 2688 1094 
L 2688 0 
L 2125 0 
z
" transform="scale(0.015625)"/>
       </defs>
       <use xlink:href="#Helvetica-34"/>
       <use xlink:href="#Helvetica-30" transform="translate(55.615234 0)"/>
      </g>
     </g>
    </g>
    <g id="xtick_4">
     <g id="line2d_7">
      <path d="M 217.527873 242.62375 
L 217.527873 22.0425 
" clip-path="url(#p775bf2285c)" style="fill: none; stroke: #e9ecef; stroke-width: 0.6; stroke-linecap: square"/>
     </g>
     <g id="line2d_8">
      <g>
       <use xlink:href="#m3771470497" x="217.527873" y="242.62375" style="fill: #6c757d; stroke: #6c757d; stroke-width: 0.8"/>
      </g>
     </g>
     <g id="text_4">
      <!-- 60 -->
      <g style="fill: #6c757d" transform="translate(211.966935 256.797187) scale(0.1 -0.1)">
       <defs>
        <path id="Helvetica-36" d="M 1872 4494 
Q 2622 4494 2917 4105 
Q 3213 3716 3213 3303 
L 2656 3303 
Q 2606 3569 2497 3719 
Q 2294 4000 1881 4000 
Q 1409 4000 1131 3564 
Q 853 3128 822 2316 
Q 1016 2600 1309 2741 
Q 1578 2866 1909 2866 
Q 2472 2866 2890 2506 
Q 3309 2147 3309 1434 
Q 3309 825 2912 354 
Q 2516 -116 1781 -116 
Q 1153 -116 697 361 
Q 241 838 241 1966 
Q 241 2800 444 3381 
Q 834 4494 1872 4494 
z
M 1831 384 
Q 2275 384 2495 682 
Q 2716 981 2716 1388 
Q 2716 1731 2519 2042 
Q 2322 2353 1803 2353 
Q 1441 2353 1167 2112 
Q 894 1872 894 1388 
Q 894 963 1142 673 
Q 1391 384 1831 384 
z
" transform="scale(0.015625)"/>
       </defs>
       <use xlink:href="#Helvetica-36"/>
       <use xlink:href="#Helvetica-30" transform="translate(55.615234 0)"/>
      </g>
     </g>
    </g>
    <g id="text_5">
     <!-- Epoch -->
     <g style="fill: #212529" transform="translate(135.44526 270.798125) scale(0.11 -0.11)">
      <defs>
       <path id="Helvetica-45" d="M 547 4591 
L 3894 4591 
L 3894 4028 
L 1153 4028 
L 1153 2634 
L 3688 2634 
L 3688 2103 
L 1153 2103 
L 1153 547 
L 3941 547 
L 3941 0 
L 547 0 
L 547 4591 
z
M 2244 4591 
L 2244 4591 
z
" transform="scale(0.015625)"/>
       <path id="Helvetica-70" d="M 1825 378 
Q 2219 378 2480 708 
Q 2741 1038 2741 1694 
Q 2741 2094 2625 2381 
Q 2406 2934 1825 2934 
Q 1241 2934 1025 2350 
Q 909 2038 909 1556 
Q 909 1169 1025 897 
Q 1244 378 1825 378 
z
M 369 3331 
L 916 3331 
L 916 2888 
Q 1084 3116 1284 3241 
Q 1569 3428 1953 3428 
Q 2522 3428 2919 2992 
Q 3316 2556 3316 1747 
Q 3316 653 2744 184 
Q 2381 -113 1900 -113 
Q 1522 -113 1266 53 
Q 1116 147 931 375 
L 931 -1334 
L 369 -1334 
L 369 3331 
z
" transform="scale(0.015625)"/>
       <path id="Helvetica-6f" d="M 1741 363 
Q 2300 363 2508 786 
Q 2716 1209 2716 1728 
Q 2716 2197 2566 2491 
Q 2328 2953 1747 2953 
Q 1231 2953 997 2559 
Q 763 2166 763 1609 
Q 763 1075 997 719 
Q 1231 363 1741 363 
z
M 1763 3444 
Q 2409 3444 2856 3012 
Q 3303 2581 3303 1744 
Q 3303 934 2909 406 
Q 2516 -122 1688 -122 
Q 997 -122 590 345 
Q 184 813 184 1600 
Q 184 2444 612 2944 
Q 1041 3444 1763 3444 
z
M 1744 3428 
L 1744 3428 
z
" transform="scale(0.015625)"/>
       <path id="Helvetica-63" d="M 1703 3444 
Q 2269 3444 2623 3169 
Q 2978 2894 3050 2222 
L 2503 2222 
Q 2453 2531 2275 2736 
Q 2097 2941 1703 2941 
Q 1166 2941 934 2416 
Q 784 2075 784 1575 
Q 784 1072 996 728 
Q 1209 384 1666 384 
Q 2016 384 2220 598 
Q 2425 813 2503 1184 
L 3050 1184 
Q 2956 519 2581 211 
Q 2206 -97 1622 -97 
Q 966 -97 575 383 
Q 184 863 184 1581 
Q 184 2463 612 2953 
Q 1041 3444 1703 3444 
z
M 1616 3428 
L 1616 3428 
z
" transform="scale(0.015625)"/>
       <path id="Helvetica-68" d="M 413 4606 
L 975 4606 
L 975 2894 
Q 1175 3147 1334 3250 
Q 1606 3428 2013 3428 
Q 2741 3428 3000 2919 
Q 3141 2641 3141 2147 
L 3141 0 
L 2563 0 
L 2563 2109 
Q 2563 2478 2469 2650 
Q 2316 2925 1894 2925 
Q 1544 2925 1259 2684 
Q 975 2444 975 1775 
L 975 0 
L 413 0 
L 413 4606 
z
" transform="scale(0.015625)"/>
      </defs>
      <use xlink:href="#Helvetica-45"/>
      <use xlink:href="#Helvetica-70" transform="translate(66.699219 0)"/>
      <use xlink:href="#Helvetica-6f" transform="translate(122.314453 0)"/>
      <use xlink:href="#Helvetica-63" transform="translate(177.929688 0)"/>
      <use xlink:href="#Helvetica-68" transform="translate(227.929688 0)"/>
     </g>
    </g>
   </g>
   <g id="matplotlib.axis_2">
    <g id="ytick_1">
     <g id="line2d_9">
      <path d="M 48.050313 217.517535 
L 254.028645 217.517535 
" clip-path="url(#p775bf2285c)" style="fill: none; stroke: #e9ecef; stroke-width: 0.6; stroke-linecap: square"/>
     </g>
     <g id="line2d_10">
      <defs>
       <path id="m9f12db1b52" d="M 0 0 
L -3.5 0 
" style="stroke: #6c757d; stroke-width: 0.8"/>
      </defs>
      <g>
       <use xlink:href="#m9f12db1b52" x="48.050313" y="217.517535" style="fill: #6c757d; stroke: #6c757d; stroke-width: 0.8"/>
      </g>
     </g>
     <g id="text_6">
      <!-- $\mathdefault{10^{-2}}$ -->
      <g style="fill: #6c757d" transform="translate(21.550313 221.104253) scale(0.1 -0.1)">
       <defs>
        <path id="Helvetica-31" d="M 613 3169 
L 613 3600 
Q 1222 3659 1462 3798 
Q 1703 3938 1822 4456 
L 2266 4456 
L 2266 0 
L 1666 0 
L 1666 3169 
L 613 3169 
z
" transform="scale(0.015625)"/>
        <path id="Helvetica-2212" d="M 3547 1894 
L 3547 1369 
L 288 1369 
L 288 1894 
L 3547 1894 
z
" transform="scale(0.015625)"/>
       </defs>
       <use xlink:href="#Helvetica-31" transform="translate(0 0.271875)"/>
       <use xlink:href="#Helvetica-30" transform="translate(55.615234 0.271875)"/>
       <use xlink:href="#Helvetica-2212" transform="translate(112.145664 36.879688) scale(0.7)"/>
       <use xlink:href="#Helvetica-32" transform="translate(153.02457 36.879688) scale(0.7)"/>
      </g>
     </g>
    </g>
    <g id="ytick_2">
     <g id="line2d_11">
      <path d="M 48.050313 145.666862 
L 254.028645 145.666862 
" clip-path="url(#p775bf2285c)" style="fill: none; stroke: #e9ecef; stroke-width: 0.6; stroke-linecap: square"/>
     </g>
     <g id="line2d_12">
      <g>
       <use xlink:href="#m9f12db1b52" x="48.050313" y="145.666862" style="fill: #6c757d; stroke: #6c757d; stroke-width: 0.8"/>
      </g>
     </g>
     <g id="text_7">
      <!-- $\mathdefault{10^{-1}}$ -->
      <g style="fill: #6c757d" transform="translate(21.550313 149.253581) scale(0.1 -0.1)">
       <use xlink:href="#Helvetica-31" transform="translate(0 0.654688)"/>
       <use xlink:href="#Helvetica-30" transform="translate(55.615234 0.654688)"/>
       <use xlink:href="#Helvetica-2212" transform="translate(112.145664 37.2625) scale(0.7)"/>
       <use xlink:href="#Helvetica-31" transform="translate(153.02457 37.2625) scale(0.7)"/>
      </g>
     </g>
    </g>
    <g id="ytick_3">
     <g id="line2d_13">
      <path d="M 48.050313 73.816189 
L 254.028645 73.816189 
" clip-path="url(#p775bf2285c)" style="fill: none; stroke: #e9ecef; stroke-width: 0.6; stroke-linecap: square"/>
     </g>
     <g id="line2d_14">
      <g>
       <use xlink:href="#m9f12db1b52" x="48.050313" y="73.816189" style="fill: #6c757d; stroke: #6c757d; stroke-width: 0.8"/>
      </g>
     </g>
     <g id="text_8">
      <!-- $\mathdefault{10^{0}}$ -->
      <g style="fill: #6c757d" transform="translate(25.650313 77.402908) scale(0.1 -0.1)">
       <use xlink:href="#Helvetica-31" transform="translate(0 0.446875)"/>
       <use xlink:href="#Helvetica-30" transform="translate(55.615234 0.446875)"/>
       <use xlink:href="#Helvetica-30" transform="translate(112.145664 37.054688) scale(0.7)"/>
      </g>
     </g>
    </g>
    <g id="ytick_4">
     <g id="line2d_15">
      <defs>
       <path id="m5d70ef719d" d="M 0 0 
L -2 0 
" style="stroke: #6c757d; stroke-width: 0.6"/>
      </defs>
      <g>
       <use xlink:href="#m5d70ef719d" x="48.050313" y="239.146742" style="fill: #6c757d; stroke: #6c757d; stroke-width: 0.6"/>
      </g>
     </g>
    </g>
    <g id="ytick_5">
     <g id="line2d_16">
      <g>
       <use xlink:href="#m5d70ef719d" x="48.050313" y="233.457517" style="fill: #6c757d; stroke: #6c757d; stroke-width: 0.6"/>
      </g>
     </g>
    </g>
    <g id="ytick_6">
     <g id="line2d_17">
      <g>
       <use xlink:href="#m5d70ef719d" x="48.050313" y="228.647345" style="fill: #6c757d; stroke: #6c757d; stroke-width: 0.6"/>
      </g>
     </g>
    </g>
    <g id="ytick_7">
     <g id="line2d_18">
      <g>
       <use xlink:href="#m5d70ef719d" x="48.050313" y="224.480584" style="fill: #6c757d; stroke: #6c757d; stroke-width: 0.6"/>
      </g>
     </g>
    </g>
    <g id="ytick_8">
     <g id="line2d_19">
      <g>
       <use xlink:href="#m5d70ef719d" x="48.050313" y="220.805241" style="fill: #6c757d; stroke: #6c757d; stroke-width: 0.6"/>
      </g>
     </g>
    </g>
    <g id="ytick_9">
     <g id="line2d_20">
      <g>
       <use xlink:href="#m5d70ef719d" x="48.050313" y="195.888327" style="fill: #6c757d; stroke: #6c757d; stroke-width: 0.6"/>
      </g>
     </g>
    </g>
    <g id="ytick_10">
     <g id="line2d_21">
      <g>
       <use xlink:href="#m5d70ef719d" x="48.050313" y="183.236052" style="fill: #6c757d; stroke: #6c757d; stroke-width: 0.6"/>
      </g>
     </g>
    </g>
    <g id="ytick_11">
     <g id="line2d_22">
      <g>
       <use xlink:href="#m5d70ef719d" x="48.050313" y="174.259119" style="fill: #6c757d; stroke: #6c757d; stroke-width: 0.6"/>
      </g>
     </g>
    </g>
    <g id="ytick_12">
     <g id="line2d_23">
      <g>
       <use xlink:href="#m5d70ef719d" x="48.050313" y="167.29607" style="fill: #6c757d; stroke: #6c757d; stroke-width: 0.6"/>
      </g>
     </g>
    </g>
    <g id="ytick_13">
     <g id="line2d_24">
      <g>
       <use xlink:href="#m5d70ef719d" x="48.050313" y="161.606844" style="fill: #6c757d; stroke: #6c757d; stroke-width: 0.6"/>
      </g>
     </g>
    </g>
    <g id="ytick_14">
     <g id="line2d_25">
      <g>
       <use xlink:href="#m5d70ef719d" x="48.050313" y="156.796672" style="fill: #6c757d; stroke: #6c757d; stroke-width: 0.6"/>
      </g>
     </g>
    </g>
    <g id="ytick_15">
     <g id="line2d_26">
      <g>
       <use xlink:href="#m5d70ef719d" x="48.050313" y="152.629912" style="fill: #6c757d; stroke: #6c757d; stroke-width: 0.6"/>
      </g>
     </g>
    </g>
    <g id="ytick_16">
     <g id="line2d_27">
      <g>
       <use xlink:href="#m5d70ef719d" x="48.050313" y="148.954568" style="fill: #6c757d; stroke: #6c757d; stroke-width: 0.6"/>
      </g>
     </g>
    </g>
    <g id="ytick_17">
     <g id="line2d_28">
      <g>
       <use xlink:href="#m5d70ef719d" x="48.050313" y="124.037654" style="fill: #6c757d; stroke: #6c757d; stroke-width: 0.6"/>
      </g>
     </g>
    </g>
    <g id="ytick_18">
     <g id="line2d_29">
      <g>
       <use xlink:href="#m5d70ef719d" x="48.050313" y="111.385379" style="fill: #6c757d; stroke: #6c757d; stroke-width: 0.6"/>
      </g>
     </g>
    </g>
    <g id="ytick_19">
     <g id="line2d_30">
      <g>
       <use xlink:href="#m5d70ef719d" x="48.050313" y="102.408446" style="fill: #6c757d; stroke: #6c757d; stroke-width: 0.6"/>
      </g>
     </g>
    </g>
    <g id="ytick_20">
     <g id="line2d_31">
      <g>
       <use xlink:href="#m5d70ef719d" x="48.050313" y="95.445397" style="fill: #6c757d; stroke: #6c757d; stroke-width: 0.6"/>
      </g>
     </g>
    </g>
    <g id="ytick_21">
     <g id="line2d_32">
      <g>
       <use xlink:href="#m5d70ef719d" x="48.050313" y="89.756171" style="fill: #6c757d; stroke: #6c757d; stroke-width: 0.6"/>
      </g>
     </g>
    </g>
    <g id="ytick_22">
     <g id="line2d_33">
      <g>
       <use xlink:href="#m5d70ef719d" x="48.050313" y="84.945999" style="fill: #6c757d; stroke: #6c757d; stroke-width: 0.6"/>
      </g>
     </g>
    </g>
    <g id="ytick_23">
     <g id="line2d_34">
      <g>
       <use xlink:href="#m5d70ef719d" x="48.050313" y="80.779239" style="fill: #6c757d; stroke: #6c757d; stroke-width: 0.6"/>
      </g>
     </g>
    </g>
    <g id="ytick_24">
     <g id="line2d_35">
      <g>
       <use xlink:href="#m5d70ef719d" x="48.050313" y="77.103896" style="fill: #6c757d; stroke: #6c757d; stroke-width: 0.6"/>
      </g>
     </g>
    </g>
    <g id="ytick_25">
     <g id="line2d_36">
      <g>
       <use xlink:href="#m5d70ef719d" x="48.050313" y="52.186981" style="fill: #6c757d; stroke: #6c757d; stroke-width: 0.6"/>
      </g>
     </g>
    </g>
    <g id="ytick_26">
     <g id="line2d_37">
      <g>
       <use xlink:href="#m5d70ef719d" x="48.050313" y="39.534706" style="fill: #6c757d; stroke: #6c757d; stroke-width: 0.6"/>
      </g>
     </g>
    </g>
    <g id="ytick_27">
     <g id="line2d_38">
      <g>
       <use xlink:href="#m5d70ef719d" x="48.050313" y="30.557774" style="fill: #6c757d; stroke: #6c757d; stroke-width: 0.6"/>
      </g>
     </g>
    </g>
    <g id="ytick_28">
     <g id="line2d_39">
      <g>
       <use xlink:href="#m5d70ef719d" x="48.050313" y="23.594724" style="fill: #6c757d; stroke: #6c757d; stroke-width: 0.6"/>
      </g>
     </g>
    </g>
    <g id="text_9">
     <!-- MSE (standardized) -->
     <g style="fill: #212529" transform="translate(15.2575 180.933359) rotate(-90) scale(0.11 -0.11)">
      <defs>
       <path id="Helvetica-4d" d="M 472 4591 
L 1363 4591 
L 2681 709 
L 3991 4591 
L 4872 4591 
L 4872 0 
L 4281 0 
L 4281 2709 
Q 4281 2850 4287 3175 
Q 4294 3500 4294 3872 
L 2984 0 
L 2369 0 
L 1050 3872 
L 1050 3731 
Q 1050 3563 1058 3217 
Q 1066 2872 1066 2709 
L 1066 0 
L 472 0 
L 472 4591 
z
" transform="scale(0.015625)"/>
       <path id="Helvetica-53" d="M 894 1481 
Q 916 1091 1078 847 
Q 1388 391 2169 391 
Q 2519 391 2806 491 
Q 3363 684 3363 1184 
Q 3363 1559 3128 1719 
Q 2891 1875 2384 1991 
L 1763 2131 
Q 1153 2269 900 2434 
Q 463 2722 463 3294 
Q 463 3913 891 4309 
Q 1319 4706 2103 4706 
Q 2825 4706 3329 4357 
Q 3834 4009 3834 3244 
L 3250 3244 
Q 3203 3613 3050 3809 
Q 2766 4169 2084 4169 
Q 1534 4169 1293 3937 
Q 1053 3706 1053 3400 
Q 1053 3063 1334 2906 
Q 1519 2806 2169 2656 
L 2813 2509 
Q 3278 2403 3531 2219 
Q 3969 1897 3969 1284 
Q 3969 522 3414 194 
Q 2859 -134 2125 -134 
Q 1269 -134 784 303 
Q 300 738 309 1481 
L 894 1481 
z
M 2150 4716 
L 2150 4716 
z
" transform="scale(0.015625)"/>
       <path id="Helvetica-20" transform="scale(0.015625)"/>
       <path id="Helvetica-28" d="M 1894 4666 
Q 1403 3713 1256 3263 
Q 1034 2578 1034 1681 
Q 1034 775 1288 25 
Q 1444 -438 1903 -1306 
L 1525 -1306 
Q 1069 -594 959 -397 
Q 850 -200 722 138 
Q 547 600 478 1125 
Q 444 1397 444 1644 
Q 444 2569 734 3291 
Q 919 3750 1503 4666 
L 1894 4666 
z
" transform="scale(0.015625)"/>
       <path id="Helvetica-73" d="M 747 1050 
Q 772 769 888 619 
Q 1100 347 1625 347 
Q 1938 347 2175 483 
Q 2413 619 2413 903 
Q 2413 1119 2222 1231 
Q 2100 1300 1741 1391 
L 1294 1503 
Q 866 1609 663 1741 
Q 300 1969 300 2372 
Q 300 2847 642 3140 
Q 984 3434 1563 3434 
Q 2319 3434 2653 2991 
Q 2863 2709 2856 2384 
L 2325 2384 
Q 2309 2575 2191 2731 
Q 1997 2953 1519 2953 
Q 1200 2953 1036 2831 
Q 872 2709 872 2509 
Q 872 2291 1088 2159 
Q 1213 2081 1456 2022 
L 1828 1931 
Q 2434 1784 2641 1647 
Q 2969 1431 2969 969 
Q 2969 522 2630 197 
Q 2291 -128 1597 -128 
Q 850 -128 539 211 
Q 228 550 206 1050 
L 747 1050 
z
M 1578 3428 
L 1578 3428 
z
" transform="scale(0.015625)"/>
       <path id="Helvetica-74" d="M 525 4281 
L 1094 4281 
L 1094 3347 
L 1628 3347 
L 1628 2888 
L 1094 2888 
L 1094 703 
Q 1094 528 1213 469 
Q 1278 434 1431 434 
Q 1472 434 1519 436 
Q 1566 438 1628 444 
L 1628 0 
Q 1531 -28 1426 -40 
Q 1322 -53 1200 -53 
Q 806 -53 665 148 
Q 525 350 525 672 
L 525 2888 
L 72 2888 
L 72 3347 
L 525 3347 
L 525 4281 
z
" transform="scale(0.015625)"/>
       <path id="Helvetica-61" d="M 844 891 
Q 844 647 1022 506 
Q 1200 366 1444 366 
Q 1741 366 2019 503 
Q 2488 731 2488 1250 
L 2488 1703 
Q 2384 1638 2221 1594 
Q 2059 1550 1903 1531 
L 1563 1488 
Q 1256 1447 1103 1359 
Q 844 1213 844 891 
z
M 2206 2028 
Q 2400 2053 2466 2191 
Q 2503 2266 2503 2406 
Q 2503 2694 2298 2823 
Q 2094 2953 1713 2953 
Q 1272 2953 1088 2716 
Q 984 2584 953 2325 
L 428 2325 
Q 444 2944 830 3186 
Q 1216 3428 1725 3428 
Q 2316 3428 2684 3203 
Q 3050 2978 3050 2503 
L 3050 575 
Q 3050 488 3086 434 
Q 3122 381 3238 381 
Q 3275 381 3322 386 
Q 3369 391 3422 400 
L 3422 -16 
Q 3291 -53 3222 -62 
Q 3153 -72 3034 -72 
Q 2744 -72 2613 134 
Q 2544 244 2516 444 
Q 2344 219 2022 53 
Q 1700 -113 1313 -113 
Q 847 -113 551 170 
Q 256 453 256 878 
Q 256 1344 547 1600 
Q 838 1856 1309 1916 
L 2206 2028 
z
M 1741 3428 
L 1741 3428 
z
" transform="scale(0.015625)"/>
       <path id="Helvetica-6e" d="M 413 3347 
L 947 3347 
L 947 2872 
Q 1184 3166 1450 3294 
Q 1716 3422 2041 3422 
Q 2753 3422 3003 2925 
Q 3141 2653 3141 2147 
L 3141 0 
L 2569 0 
L 2569 2109 
Q 2569 2416 2478 2603 
Q 2328 2916 1934 2916 
Q 1734 2916 1606 2875 
Q 1375 2806 1200 2600 
Q 1059 2434 1017 2257 
Q 975 2081 975 1753 
L 975 0 
L 413 0 
L 413 3347 
z
M 1734 3428 
L 1734 3428 
z
" transform="scale(0.015625)"/>
       <path id="Helvetica-64" d="M 769 1634 
Q 769 1097 997 734 
Q 1225 372 1728 372 
Q 2119 372 2370 708 
Q 2622 1044 2622 1672 
Q 2622 2306 2362 2611 
Q 2103 2916 1722 2916 
Q 1297 2916 1033 2591 
Q 769 2266 769 1634 
z
M 1616 3406 
Q 2000 3406 2259 3244 
Q 2409 3150 2600 2916 
L 2600 4606 
L 3141 4606 
L 3141 0 
L 2634 0 
L 2634 466 
Q 2438 156 2169 18 
Q 1900 -119 1553 -119 
Q 994 -119 584 351 
Q 175 822 175 1603 
Q 175 2334 548 2870 
Q 922 3406 1616 3406 
z
" transform="scale(0.015625)"/>
       <path id="Helvetica-72" d="M 428 3347 
L 963 3347 
L 963 2769 
Q 1028 2938 1284 3180 
Q 1541 3422 1875 3422 
Q 1891 3422 1928 3419 
Q 1966 3416 2056 3406 
L 2056 2813 
Q 2006 2822 1964 2825 
Q 1922 2828 1872 2828 
Q 1447 2828 1219 2554 
Q 991 2281 991 1925 
L 991 0 
L 428 0 
L 428 3347 
z
" transform="scale(0.015625)"/>
       <path id="Helvetica-69" d="M 413 3331 
L 984 3331 
L 984 0 
L 413 0 
L 413 3331 
z
M 413 4591 
L 984 4591 
L 984 3953 
L 413 3953 
L 413 4591 
z
" transform="scale(0.015625)"/>
       <path id="Helvetica-7a" d="M 163 444 
L 2147 2844 
L 309 2844 
L 309 3347 
L 2903 3347 
L 2903 2888 
L 931 503 
L 2963 503 
L 2963 0 
L 163 0 
L 163 444 
z
M 1609 3428 
L 1609 3428 
z
" transform="scale(0.015625)"/>
       <path id="Helvetica-65" d="M 1806 3422 
Q 2163 3422 2497 3255 
Q 2831 3088 3006 2822 
Q 3175 2569 3231 2231 
Q 3281 2000 3281 1494 
L 828 1494 
Q 844 984 1069 676 
Q 1294 369 1766 369 
Q 2206 369 2469 659 
Q 2619 828 2681 1050 
L 3234 1050 
Q 3213 866 3089 639 
Q 2966 413 2813 269 
Q 2556 19 2178 -69 
Q 1975 -119 1719 -119 
Q 1094 -119 659 336 
Q 225 791 225 1609 
Q 225 2416 662 2919 
Q 1100 3422 1806 3422 
z
M 2703 1941 
Q 2669 2306 2544 2525 
Q 2313 2931 1772 2931 
Q 1384 2931 1121 2651 
Q 859 2372 844 1941 
L 2703 1941 
z
M 1753 3428 
L 1753 3428 
z
" transform="scale(0.015625)"/>
       <path id="Helvetica-29" d="M 222 -1306 
Q 719 -338 863 106 
Q 1081 778 1081 1681 
Q 1081 2584 828 3334 
Q 672 3797 213 4666 
L 591 4666 
Q 1072 3897 1173 3717 
Q 1275 3538 1394 3222 
Q 1544 2831 1608 2450 
Q 1672 2069 1672 1716 
Q 1672 791 1378 66 
Q 1194 -400 613 -1306 
L 222 -1306 
z
" transform="scale(0.015625)"/>
      </defs>
      <use xlink:href="#Helvetica-4d"/>
      <use xlink:href="#Helvetica-53" transform="translate(83.300781 0)"/>
      <use xlink:href="#Helvetica-45" transform="translate(150 0)"/>
      <use xlink:href="#Helvetica-20" transform="translate(216.699219 0)"/>
      <use xlink:href="#Helvetica-28" transform="translate(244.482422 0)"/>
      <use xlink:href="#Helvetica-73" transform="translate(277.783203 0)"/>
      <use xlink:href="#Helvetica-74" transform="translate(327.783203 0)"/>
      <use xlink:href="#Helvetica-61" transform="translate(355.566406 0)"/>
      <use xlink:href="#Helvetica-6e" transform="translate(411.181641 0)"/>
      <use xlink:href="#Helvetica-64" transform="translate(466.796875 0)"/>
      <use xlink:href="#Helvetica-61" transform="translate(522.412109 0)"/>
      <use xlink:href="#Helvetica-72" transform="translate(578.027344 0)"/>
      <use xlink:href="#Helvetica-64" transform="translate(611.328125 0)"/>
      <use xlink:href="#Helvetica-69" transform="translate(666.943359 0)"/>
      <use xlink:href="#Helvetica-7a" transform="translate(689.160156 0)"/>
      <use xlink:href="#Helvetica-65" transform="translate(739.160156 0)"/>
      <use xlink:href="#Helvetica-64" transform="translate(794.775391 0)"/>
      <use xlink:href="#Helvetica-29" transform="translate(850.390625 0)"/>
     </g>
    </g>
   </g>
   <g id="line2d_40">
    <path d="M 57.412964 32.06892 
L 60.126776 73.597261 
L 62.840588 80.105242 
L 65.5544 92.23657 
L 68.268212 109.556908 
L 70.982024 123.815645 
L 73.695836 134.285927 
L 76.409648 141.939643 
L 79.12346 148.726192 
L 81.837272 154.394974 
L 84.551084 159.053739 
L 87.264896 163.758967 
L 89.978708 167.104698 
L 92.69252 170.432704 
L 95.406332 174.036505 
L 98.120144 176.329449 
L 100.833956 179.804074 
L 103.547768 181.252721 
L 106.26158 184.488924 
L 108.975392 185.43295 
L 111.689204 187.895258 
L 114.403016 188.98946 
L 117.116828 191.070087 
L 119.83064 193.88687 
L 122.544452 195.187199 
L 125.258264 197.180957 
L 127.972076 197.508613 
L 130.685888 199.100348 
L 133.3997 200.833182 
L 136.113512 202.019584 
L 138.827324 202.778178 
L 141.541136 202.942718 
L 144.254949 205.753458 
L 146.968761 207.879107 
L 149.682573 207.21207 
L 152.396385 206.896189 
L 155.110197 208.949791 
L 157.824009 209.998559 
L 160.537821 209.691028 
L 163.251633 212.901271 
L 165.965445 211.601394 
L 168.679257 212.154521 
L 171.393069 211.257891 
L 174.106881 212.178499 
L 176.820693 214.849893 
L 179.534505 214.261746 
L 182.248317 216.387686 
L 184.962129 217.655562 
L 187.675941 218.36675 
L 190.389753 218.167812 
L 193.103565 219.777847 
L 195.817377 220.682549 
L 198.531189 221.418828 
L 201.245001 221.497566 
L 203.958813 223.976253 
L 206.672625 224.741098 
L 209.386437 223.856868 
L 212.100249 224.491343 
L 214.814061 225.16526 
L 217.527873 225.301048 
L 220.241685 225.725684 
L 222.955497 226.677267 
L 225.669309 229.403024 
L 228.383121 228.147179 
L 231.096933 225.405481 
L 233.810745 226.980589 
L 236.524557 228.12035 
L 239.238369 229.962295 
L 241.952181 230.487316 
L 244.665993 232.59733 
" clip-path="url(#p775bf2285c)" style="fill: none; stroke: #2563eb; stroke-width: 1.8; stroke-linecap: square"/>
   </g>
   <g id="line2d_41">
    <path d="M 57.412964 69.641486 
L 60.126776 73.587133 
L 62.840588 81.694195 
L 65.5544 95.349857 
L 68.268212 107.477957 
L 70.982024 117.238301 
L 73.695836 121.954901 
L 76.409648 126.957588 
L 79.12346 129.390911 
L 81.837272 132.173309 
L 84.551084 133.726916 
L 87.264896 136.363228 
L 89.978708 136.719652 
L 92.69252 138.29723 
L 95.406332 139.715644 
L 98.120144 139.750937 
L 100.833956 139.773378 
L 103.547768 141.433045 
L 106.26158 141.49108 
L 108.975392 143.066107 
L 111.689204 143.203411 
L 114.403016 143.936967 
L 117.116828 144.235258 
L 119.83064 144.617616 
L 122.544452 145.624627 
L 125.258264 145.695732 
L 127.972076 146.03738 
L 130.685888 147.161769 
L 133.3997 146.147545 
L 136.113512 146.858428 
L 138.827324 146.761121 
L 141.541136 147.773874 
L 144.254949 148.137605 
L 146.968761 148.19469 
L 149.682573 148.651073 
L 152.396385 148.467907 
L 155.110197 149.02494 
L 157.824009 149.288101 
L 160.537821 149.704676 
L 163.251633 149.749823 
L 165.965445 150.109655 
L 168.679257 150.210456 
L 171.393069 150.717013 
L 174.106881 150.562544 
L 176.820693 150.790654 
L 179.534505 150.880441 
L 182.248317 151.026718 
L 184.962129 151.266952 
L 187.675941 151.19757 
L 190.389753 152.116692 
L 193.103565 151.621201 
L 195.817377 152.112099 
L 198.531189 151.854057 
L 201.245001 152.061581 
L 203.958813 152.28359 
L 206.672625 152.614374 
L 209.386437 152.235049 
L 212.100249 152.397076 
L 214.814061 153.020472 
L 217.527873 152.663506 
L 220.241685 152.930005 
L 222.955497 153.266099 
L 225.669309 153.149983 
L 228.383121 153.351532 
L 231.096933 152.83593 
L 233.810745 153.446873 
L 236.524557 153.507597 
L 239.238369 153.672985 
L 241.952181 154.236912 
L 244.665993 153.888977 
" clip-path="url(#p775bf2285c)" style="fill: none; stroke: #d97706; stroke-width: 1.8; stroke-linecap: square"/>
   </g>
   <g id="patch_3">
    <path d="M 48.050313 242.62375 
L 48.050313 22.0425 
" style="fill: none; stroke: #495057; stroke-width: 0.8; stroke-linejoin: miter; stroke-linecap: square"/>
   </g>
   <g id="patch_4">
    <path d="M 48.050313 242.62375 
L 254.028645 242.62375 
" style="fill: none; stroke: #495057; stroke-width: 0.8; stroke-linejoin: miter; stroke-linecap: square"/>
   </g>
   <g id="text_10">
    <!-- Data loss -->
    <g style="fill: #212529" transform="translate(126.029791 16.0425) scale(0.12 -0.12)">
     <defs>
      <path id="Helvetica-44" d="M 2250 531 
Q 2566 531 2769 597 
Q 3131 719 3363 1066 
Q 3547 1344 3628 1778 
Q 3675 2038 3675 2259 
Q 3675 3113 3336 3584 
Q 2997 4056 2244 4056 
L 1141 4056 
L 1141 531 
L 2250 531 
z
M 516 4591 
L 2375 4591 
Q 3322 4591 3844 3919 
Q 4309 3313 4309 2366 
Q 4309 1634 4034 1044 
Q 3550 0 2369 0 
L 516 0 
L 516 4591 
z
" transform="scale(0.015625)"/>
      <path id="Helvetica-6c" d="M 428 4591 
L 991 4591 
L 991 0 
L 428 0 
L 428 4591 
z
" transform="scale(0.015625)"/>
     </defs>
     <use xlink:href="#Helvetica-44"/>
     <use xlink:href="#Helvetica-61" transform="translate(72.216797 0)"/>
     <use xlink:href="#Helvetica-74" transform="translate(127.832031 0)"/>
     <use xlink:href="#Helvetica-61" transform="translate(155.615234 0)"/>
     <use xlink:href="#Helvetica-20" transform="translate(211.230469 0)"/>
     <use xlink:href="#Helvetica-6c" transform="translate(239.013672 0)"/>
     <use xlink:href="#Helvetica-6f" transform="translate(261.230469 0)"/>
     <use xlink:href="#Helvetica-73" transform="translate(316.845703 0)"/>
     <use xlink:href="#Helvetica-73" transform="translate(366.845703 0)"/>
    </g>
   </g>
   <g id="legend_1">
    <g id="line2d_42">
     <path d="M 181.20177 33.448594 
L 190.20177 33.448594 
L 199.20177 33.448594 
" style="fill: none; stroke: #2563eb; stroke-width: 1.8; stroke-linecap: square"/>
    </g>
    <g id="text_11">
     <!-- Train -->
     <g transform="translate(206.40177 36.598594) scale(0.09 -0.09)">
      <defs>
       <path id="Helvetica-54" d="M 3828 4591 
L 3828 4044 
L 2281 4044 
L 2281 0 
L 1650 0 
L 1650 4044 
L 103 4044 
L 103 4591 
L 3828 4591 
z
" transform="scale(0.015625)"/>
      </defs>
      <use xlink:href="#Helvetica-54"/>
      <use xlink:href="#Helvetica-72" transform="translate(61.083984 0)"/>
      <use xlink:href="#Helvetica-61" transform="translate(94.384766 0)"/>
      <use xlink:href="#Helvetica-69" transform="translate(150 0)"/>
      <use xlink:href="#Helvetica-6e" transform="translate(172.216797 0)"/>
     </g>
    </g>
    <g id="line2d_43">
     <path d="M 181.20177 46.280625 
L 190.20177 46.280625 
L 199.20177 46.280625 
" style="fill: none; stroke: #d97706; stroke-width: 1.8; stroke-linecap: square"/>
    </g>
    <g id="text_12">
     <!-- Validation -->
     <g transform="translate(206.40177 49.430625) scale(0.09 -0.09)">
      <defs>
       <path id="Helvetica-56" d="M 850 4591 
L 2169 681 
L 3472 4591 
L 4169 4591 
L 2494 0 
L 1834 0 
L 163 4591 
L 850 4591 
z
" transform="scale(0.015625)"/>
      </defs>
      <use xlink:href="#Helvetica-56"/>
      <use xlink:href="#Helvetica-61" transform="translate(66.699219 0)"/>
      <use xlink:href="#Helvetica-6c" transform="translate(122.314453 0)"/>
      <use xlink:href="#Helvetica-69" transform="translate(144.53125 0)"/>
      <use xlink:href="#Helvetica-64" transform="translate(166.748047 0)"/>
      <use xlink:href="#Helvetica-61" transform="translate(222.363281 0)"/>
      <use xlink:href="#Helvetica-74" transform="translate(277.978516 0)"/>
      <use xlink:href="#Helvetica-69" transform="translate(305.761719 0)"/>
      <use xlink:href="#Helvetica-6f" transform="translate(327.978516 0)"/>
      <use xlink:href="#Helvetica-6e" transform="translate(383.59375 0)"/>
     </g>
    </g>
   </g>
  </g>
  <g id="axes_2">
   <g id="patch_5">
    <path d="M 304.901317 242.62375 
L 510.879649 242.62375 
L 510.879649 22.0425 
L 304.901317 22.0425 
z
" style="fill: #ffffff"/>
   </g>
   <g id="matplotlib.axis_3">
    <g id="xtick_5">
     <g id="line2d_44">
      <path d="M 311.550157 242.62375 
L 311.550157 22.0425 
" clip-path="url(#paa920f08bb)" style="fill: none; stroke: #e9ecef; stroke-width: 0.6; stroke-linecap: square"/>
     </g>
     <g id="line2d_45">
      <g>
       <use xlink:href="#m3771470497" x="311.550157" y="242.62375" style="fill: #6c757d; stroke: #6c757d; stroke-width: 0.8"/>
      </g>
     </g>
     <g id="text_13">
      <!-- 0 -->
      <g style="fill: #6c757d" transform="translate(308.769688 256.797187) scale(0.1 -0.1)">
       <use xlink:href="#Helvetica-30"/>
      </g>
     </g>
    </g>
    <g id="xtick_6">
     <g id="line2d_46">
      <path d="M 365.826397 242.62375 
L 365.826397 22.0425 
" clip-path="url(#paa920f08bb)" style="fill: none; stroke: #e9ecef; stroke-width: 0.6; stroke-linecap: square"/>
     </g>
     <g id="line2d_47">
      <g>
       <use xlink:href="#m3771470497" x="365.826397" y="242.62375" style="fill: #6c757d; stroke: #6c757d; stroke-width: 0.8"/>
      </g>
     </g>
     <g id="text_14">
      <!-- 20 -->
      <g style="fill: #6c757d" transform="translate(360.26546 256.797187) scale(0.1 -0.1)">
       <use xlink:href="#Helvetica-32"/>
       <use xlink:href="#Helvetica-30" transform="translate(55.615234 0)"/>
      </g>
     </g>
    </g>
    <g id="xtick_7">
     <g id="line2d_48">
      <path d="M 420.102638 242.62375 
L 420.102638 22.0425 
" clip-path="url(#paa920f08bb)" style="fill: none; stroke: #e9ecef; stroke-width: 0.6; stroke-linecap: square"/>
     </g>
     <g id="line2d_49">
      <g>
       <use xlink:href="#m3771470497" x="420.102638" y="242.62375" style="fill: #6c757d; stroke: #6c757d; stroke-width: 0.8"/>
      </g>
     </g>
     <g id="text_15">
      <!-- 40 -->
      <g style="fill: #6c757d" transform="translate(414.5417 256.797187) scale(0.1 -0.1)">
       <use xlink:href="#Helvetica-34"/>
       <use xlink:href="#Helvetica-30" transform="translate(55.615234 0)"/>
      </g>
     </g>
    </g>
    <g id="xtick_8">
     <g id="line2d_50">
      <path d="M 474.378878 242.62375 
L 474.378878 22.0425 
" clip-path="url(#paa920f08bb)" style="fill: none; stroke: #e9ecef; stroke-width: 0.6; stroke-linecap: square"/>
     </g>
     <g id="line2d_51">
      <g>
       <use xlink:href="#m3771470497" x="474.378878" y="242.62375" style="fill: #6c757d; stroke: #6c757d; stroke-width: 0.8"/>
      </g>
     </g>
     <g id="text_16">
      <!-- 60 -->
      <g style="fill: #6c757d" transform="translate(468.81794 256.797187) scale(0.1 -0.1)">
       <use xlink:href="#Helvetica-36"/>
       <use xlink:href="#Helvetica-30" transform="translate(55.615234 0)"/>
      </g>
     </g>
    </g>
    <g id="text_17">
     <!-- Epoch -->
     <g style="fill: #212529" transform="translate(392.296265 270.798125) scale(0.11 -0.11)">
      <use xlink:href="#Helvetica-45"/>
      <use xlink:href="#Helvetica-70" transform="translate(66.699219 0)"/>
      <use xlink:href="#Helvetica-6f" transform="translate(122.314453 0)"/>
      <use xlink:href="#Helvetica-63" transform="translate(177.929688 0)"/>
      <use xlink:href="#Helvetica-68" transform="translate(227.929688 0)"/>
     </g>
    </g>
   </g>
   <g id="matplotlib.axis_4">
    <g id="ytick_29">
     <g id="line2d_52">
      <path d="M 304.901317 110.904878 
L 510.879649 110.904878 
" clip-path="url(#paa920f08bb)" style="fill: none; stroke: #e9ecef; stroke-width: 0.6; stroke-linecap: square"/>
     </g>
     <g id="line2d_53">
      <g>
       <use xlink:href="#m9f12db1b52" x="304.901317" y="110.904878" style="fill: #6c757d; stroke: #6c757d; stroke-width: 0.8"/>
      </g>
     </g>
     <g id="text_18">
      <!-- $\mathdefault{10^{4}}$ -->
      <g style="fill: #6c757d" transform="translate(282.501317 114.491596) scale(0.1 -0.1)">
       <use xlink:href="#Helvetica-31" transform="translate(0 0.304688)"/>
       <use xlink:href="#Helvetica-30" transform="translate(55.615234 0.304688)"/>
       <use xlink:href="#Helvetica-34" transform="translate(112.145664 36.9125) scale(0.7)"/>
      </g>
     </g>
    </g>
    <g id="ytick_30">
     <g id="line2d_54">
      <g>
       <use xlink:href="#m5d70ef719d" x="304.901317" y="228.920886" style="fill: #6c757d; stroke: #6c757d; stroke-width: 0.6"/>
      </g>
     </g>
     <g id="text_19">
      <!-- $\mathdefault{3\times10^{3}}$ -->
      <g style="fill: #6c757d" transform="translate(268.801317 232.507605) scale(0.1 -0.1)">
       <defs>
        <path id="Helvetica-33" d="M 1663 -122 
Q 869 -122 511 314 
Q 153 750 153 1375 
L 741 1375 
Q 778 941 903 744 
Q 1122 391 1694 391 
Q 2138 391 2406 628 
Q 2675 866 2675 1241 
Q 2675 1703 2392 1887 
Q 2109 2072 1606 2072 
Q 1550 2072 1492 2070 
Q 1434 2069 1375 2066 
L 1375 2563 
Q 1463 2553 1522 2550 
Q 1581 2547 1650 2547 
Q 1966 2547 2169 2647 
Q 2525 2822 2525 3272 
Q 2525 3606 2287 3787 
Q 2050 3969 1734 3969 
Q 1172 3969 956 3594 
Q 838 3388 822 3006 
L 266 3006 
Q 266 3506 466 3856 
Q 809 4481 1675 4481 
Q 2359 4481 2734 4176 
Q 3109 3872 3109 3294 
Q 3109 2881 2888 2625 
Q 2750 2466 2531 2375 
Q 2884 2278 3082 2001 
Q 3281 1725 3281 1325 
Q 3281 684 2859 281 
Q 2438 -122 1663 -122 
z
" transform="scale(0.015625)"/>
        <path id="Helvetica-d7" d="M 363 2822 
L 731 3191 
L 1916 2006 
L 3103 3191 
L 3481 2822 
L 2294 1634 
L 3481 450 
L 3103 72 
L 1916 1256 
L 731 72 
L 363 450 
L 1547 1634 
L 363 2822 
z
" transform="scale(0.015625)"/>
       </defs>
       <use xlink:href="#Helvetica-33" transform="translate(0 0.38125)"/>
       <use xlink:href="#Helvetica-d7" transform="translate(75.097656 0.38125)"/>
       <use xlink:href="#Helvetica-31" transform="translate(152.978516 0.38125)"/>
       <use xlink:href="#Helvetica-30" transform="translate(208.59375 0.38125)"/>
       <use xlink:href="#Helvetica-33" transform="translate(265.12418 36.989063) scale(0.7)"/>
      </g>
     </g>
    </g>
    <g id="ytick_31">
     <g id="line2d_55">
      <g>
       <use xlink:href="#m5d70ef719d" x="304.901317" y="200.72167" style="fill: #6c757d; stroke: #6c757d; stroke-width: 0.6"/>
      </g>
     </g>
     <g id="text_20">
      <!-- $\mathdefault{4\times10^{3}}$ -->
      <g style="fill: #6c757d" transform="translate(268.801317 204.308388) scale(0.1 -0.1)">
       <use xlink:href="#Helvetica-34" transform="translate(0 0.38125)"/>
       <use xlink:href="#Helvetica-d7" transform="translate(75.097656 0.38125)"/>
       <use xlink:href="#Helvetica-31" transform="translate(152.978516 0.38125)"/>
       <use xlink:href="#Helvetica-30" transform="translate(208.59375 0.38125)"/>
       <use xlink:href="#Helvetica-33" transform="translate(265.12418 36.989063) scale(0.7)"/>
      </g>
     </g>
    </g>
    <g id="ytick_32">
     <g id="line2d_56">
      <g>
       <use xlink:href="#m5d70ef719d" x="304.901317" y="178.848658" style="fill: #6c757d; stroke: #6c757d; stroke-width: 0.6"/>
      </g>
     </g>
    </g>
    <g id="ytick_33">
     <g id="line2d_57">
      <g>
       <use xlink:href="#m5d70ef719d" x="304.901317" y="160.977106" style="fill: #6c757d; stroke: #6c757d; stroke-width: 0.6"/>
      </g>
     </g>
     <g id="text_21">
      <!-- $\mathdefault{6\times10^{3}}$ -->
      <g style="fill: #6c757d" transform="translate(268.801317 164.563825) scale(0.1 -0.1)">
       <use xlink:href="#Helvetica-36" transform="translate(0 0.38125)"/>
       <use xlink:href="#Helvetica-d7" transform="translate(75.097656 0.38125)"/>
       <use xlink:href="#Helvetica-31" transform="translate(152.978516 0.38125)"/>
       <use xlink:href="#Helvetica-30" transform="translate(208.59375 0.38125)"/>
       <use xlink:href="#Helvetica-33" transform="translate(265.12418 36.989063) scale(0.7)"/>
      </g>
     </g>
    </g>
    <g id="ytick_34">
     <g id="line2d_58">
      <g>
       <use xlink:href="#m5d70ef719d" x="304.901317" y="145.866924" style="fill: #6c757d; stroke: #6c757d; stroke-width: 0.6"/>
      </g>
     </g>
    </g>
    <g id="ytick_35">
     <g id="line2d_59">
      <g>
       <use xlink:href="#m5d70ef719d" x="304.901317" y="132.777889" style="fill: #6c757d; stroke: #6c757d; stroke-width: 0.6"/>
      </g>
     </g>
    </g>
    <g id="ytick_36">
     <g id="line2d_60">
      <g>
       <use xlink:href="#m5d70ef719d" x="304.901317" y="121.232542" style="fill: #6c757d; stroke: #6c757d; stroke-width: 0.6"/>
      </g>
     </g>
    </g>
    <g id="ytick_37">
     <g id="line2d_61">
      <g>
       <use xlink:href="#m5d70ef719d" x="304.901317" y="42.961097" style="fill: #6c757d; stroke: #6c757d; stroke-width: 0.6"/>
      </g>
     </g>
     <g id="text_22">
      <!-- $\mathdefault{2\times10^{4}}$ -->
      <g style="fill: #6c757d" transform="translate(268.801317 46.547816) scale(0.1 -0.1)">
       <use xlink:href="#Helvetica-32" transform="translate(0 0.304688)"/>
       <use xlink:href="#Helvetica-d7" transform="translate(75.097656 0.304688)"/>
       <use xlink:href="#Helvetica-31" transform="translate(152.978516 0.304688)"/>
       <use xlink:href="#Helvetica-30" transform="translate(208.59375 0.304688)"/>
       <use xlink:href="#Helvetica-34" transform="translate(265.12418 36.9125) scale(0.7)"/>
      </g>
     </g>
    </g>
   </g>
   <g id="line2d_62">
    <path d="M 314.263969 229.312433 
L 316.977781 210.209525 
L 319.691593 106.11883 
L 322.405405 65.450132 
L 325.119217 57.473956 
L 327.833029 52.555808 
L 330.546841 43.253965 
L 333.260653 37.404705 
L 335.974465 34.426478 
L 338.688277 32.06892 
L 341.402089 36.164003 
L 344.115901 37.241608 
L 346.829713 34.053895 
L 349.543525 34.268562 
L 352.257337 38.035133 
L 354.971149 36.549513 
L 357.684961 34.0195 
L 360.398773 37.250924 
L 363.112585 36.016199 
L 365.826397 36.825453 
L 368.540209 36.605003 
L 371.254021 36.991828 
L 373.967833 39.387517 
L 376.681645 40.408973 
L 379.395457 38.512228 
L 382.109269 41.329332 
L 384.823081 43.528849 
L 387.536893 42.350988 
L 390.250705 43.443406 
L 392.964517 45.331574 
L 395.678329 43.96324 
L 398.392141 44.97201 
L 401.105953 43.175805 
L 403.819765 43.616634 
L 406.533577 44.375531 
L 409.247389 44.025416 
L 411.961201 46.744323 
L 414.675013 46.205416 
L 417.388825 47.017331 
L 420.102638 46.277885 
L 422.81645 48.311649 
L 425.530262 51.028379 
L 428.244074 50.107628 
L 430.957886 49.779489 
L 433.671698 50.250509 
L 436.38551 52.047929 
L 439.099322 51.787314 
L 441.813134 51.335303 
L 444.526946 50.146195 
L 447.240758 57.517493 
L 449.95457 52.469943 
L 452.668382 55.117307 
L 455.382194 54.45672 
L 458.096006 56.702311 
L 460.809818 56.048252 
L 463.52363 55.848068 
L 466.237442 54.876002 
L 468.951254 56.971778 
L 471.665066 59.356929 
L 474.378878 60.066748 
L 477.09269 57.801937 
L 479.806502 61.473595 
L 482.520314 61.681872 
L 485.234126 60.091094 
L 487.947938 60.162361 
L 490.66175 63.619287 
L 493.375562 63.820662 
L 496.089374 62.44482 
L 498.803186 63.070931 
L 501.516998 62.51384 
" clip-path="url(#paa920f08bb)" style="fill: none; stroke: #2563eb; stroke-width: 1.8; stroke-linecap: square"/>
   </g>
   <g id="line2d_63">
    <path d="M 314.263969 232.59733 
L 316.977781 202.34535 
L 319.691593 105.049207 
L 322.405405 64.58792 
L 325.119217 51.184564 
L 327.833029 46.665889 
L 330.546841 40.781091 
L 333.260653 33.870898 
L 335.974465 35.283472 
L 338.688277 33.754648 
L 341.402089 36.153074 
L 344.115901 36.332542 
L 346.829713 36.668324 
L 349.543525 39.582345 
L 352.257337 38.361889 
L 354.971149 39.056425 
L 357.684961 38.549403 
L 360.398773 37.43227 
L 363.112585 37.066815 
L 365.826397 39.342594 
L 368.540209 38.157694 
L 371.254021 38.559748 
L 373.967833 41.146471 
L 376.681645 42.974206 
L 379.395457 40.505947 
L 382.109269 42.89338 
L 384.823081 44.365859 
L 387.536893 44.317194 
L 390.250705 46.146877 
L 392.964517 48.185066 
L 395.678329 46.711023 
L 398.392141 48.483928 
L 401.105953 49.172289 
L 403.819765 47.617423 
L 406.533577 49.960283 
L 409.247389 47.942102 
L 411.961201 52.0485 
L 414.675013 51.971105 
L 417.388825 51.774481 
L 420.102638 50.738765 
L 422.81645 53.608386 
L 425.530262 56.357991 
L 428.244074 55.974601 
L 430.957886 54.746705 
L 433.671698 57.119841 
L 436.38551 57.339792 
L 439.099322 57.952172 
L 441.813134 55.176754 
L 444.526946 55.281396 
L 447.240758 61.283115 
L 449.95457 59.029026 
L 452.668382 60.492843 
L 455.382194 60.51179 
L 458.096006 64.036923 
L 460.809818 62.444409 
L 463.52363 62.164497 
L 466.237442 62.153714 
L 468.951254 63.650415 
L 471.665066 65.218514 
L 474.378878 65.53695 
L 477.09269 63.932514 
L 479.806502 67.250612 
L 482.520314 66.488489 
L 485.234126 65.673618 
L 487.947938 65.693316 
L 490.66175 68.909371 
L 493.375562 68.865139 
L 496.089374 65.929889 
L 498.803186 67.898564 
L 501.516998 67.096104 
" clip-path="url(#paa920f08bb)" style="fill: none; stroke: #d97706; stroke-width: 1.8; stroke-linecap: square"/>
   </g>
   <g id="patch_6">
    <path d="M 304.901317 242.62375 
L 304.901317 22.0425 
" style="fill: none; stroke: #495057; stroke-width: 0.8; stroke-linejoin: miter; stroke-linecap: square"/>
   </g>
   <g id="patch_7">
    <path d="M 304.901317 242.62375 
L 510.879649 242.62375 
" style="fill: none; stroke: #495057; stroke-width: 0.8; stroke-linejoin: miter; stroke-linecap: square"/>
   </g>
   <g id="text_23">
    <!-- Wave residual -->
    <g style="fill: #212529" transform="translate(369.876733 16.0425) scale(0.12 -0.12)">
     <defs>
      <path id="Helvetica-57" d="M 791 4591 
L 1656 856 
L 2694 4591 
L 3369 4591 
L 4406 856 
L 5272 4591 
L 5953 4591 
L 4747 0 
L 4094 0 
L 3034 3806 
L 1969 0 
L 1316 0 
L 116 4591 
L 791 4591 
z
" transform="scale(0.015625)"/>
      <path id="Helvetica-76" d="M 688 3347 
L 1581 622 
L 2516 3347 
L 3131 3347 
L 1869 0 
L 1269 0 
L 34 3347 
L 688 3347 
z
" transform="scale(0.015625)"/>
      <path id="Helvetica-75" d="M 975 3347 
L 975 1125 
Q 975 869 1056 706 
Q 1206 406 1616 406 
Q 2203 406 2416 931 
Q 2531 1213 2531 1703 
L 2531 3347 
L 3094 3347 
L 3094 0 
L 2563 0 
L 2569 494 
Q 2459 303 2297 172 
Q 1975 -91 1516 -91 
Q 800 -91 541 388 
Q 400 644 400 1072 
L 400 3347 
L 975 3347 
z
M 1747 3428 
L 1747 3428 
z
" transform="scale(0.015625)"/>
     </defs>
     <use xlink:href="#Helvetica-57"/>
     <use xlink:href="#Helvetica-61" transform="translate(94.384766 0)"/>
     <use xlink:href="#Helvetica-76" transform="translate(150 0)"/>
     <use xlink:href="#Helvetica-65" transform="translate(200 0)"/>
     <use xlink:href="#Helvetica-20" transform="translate(255.615234 0)"/>
     <use xlink:href="#Helvetica-72" transform="translate(283.398438 0)"/>
     <use xlink:href="#Helvetica-65" transform="translate(316.699219 0)"/>
     <use xlink:href="#Helvetica-73" transform="translate(372.314453 0)"/>
     <use xlink:href="#Helvetica-69" transform="translate(422.314453 0)"/>
     <use xlink:href="#Helvetica-64" transform="translate(444.53125 0)"/>
     <use xlink:href="#Helvetica-75" transform="translate(500.146484 0)"/>
     <use xlink:href="#Helvetica-61" transform="translate(555.761719 0)"/>
     <use xlink:href="#Helvetica-6c" transform="translate(611.376953 0)"/>
    </g>
   </g>
   <g id="legend_2">
    <g id="line2d_64">
     <path d="M 438.052774 216.665781 
L 447.052774 216.665781 
L 456.052774 216.665781 
" style="fill: none; stroke: #2563eb; stroke-width: 1.8; stroke-linecap: square"/>
    </g>
    <g id="text_24">
     <!-- Train -->
     <g transform="translate(463.252774 219.815781) scale(0.09 -0.09)">
      <use xlink:href="#Helvetica-54"/>
      <use xlink:href="#Helvetica-72" transform="translate(61.083984 0)"/>
      <use xlink:href="#Helvetica-61" transform="translate(94.384766 0)"/>
      <use xlink:href="#Helvetica-69" transform="translate(150 0)"/>
      <use xlink:href="#Helvetica-6e" transform="translate(172.216797 0)"/>
     </g>
    </g>
    <g id="line2d_65">
     <path d="M 438.052774 229.497812 
L 447.052774 229.497812 
L 456.052774 229.497812 
" style="fill: none; stroke: #d97706; stroke-width: 1.8; stroke-linecap: square"/>
    </g>
    <g id="text_25">
     <!-- Validation -->
     <g transform="translate(463.252774 232.647812) scale(0.09 -0.09)">
      <use xlink:href="#Helvetica-56"/>
      <use xlink:href="#Helvetica-61" transform="translate(66.699219 0)"/>
      <use xlink:href="#Helvetica-6c" transform="translate(122.314453 0)"/>
      <use xlink:href="#Helvetica-69" transform="translate(144.53125 0)"/>
      <use xlink:href="#Helvetica-64" transform="translate(166.748047 0)"/>
      <use xlink:href="#Helvetica-61" transform="translate(222.363281 0)"/>
      <use xlink:href="#Helvetica-74" transform="translate(277.978516 0)"/>
      <use xlink:href="#Helvetica-69" transform="translate(305.761719 0)"/>
      <use xlink:href="#Helvetica-6f" transform="translate(327.978516 0)"/>
      <use xlink:href="#Helvetica-6e" transform="translate(383.59375 0)"/>
     </g>
    </g>
   </g>
  </g>
  <g id="axes_3">
   <g id="patch_8">
    <path d="M 561.752322 242.62375 
L 767.730654 242.62375 
L 767.730654 22.0425 
L 561.752322 22.0425 
z
" style="fill: #ffffff"/>
   </g>
   <g id="matplotlib.axis_5">
    <g id="xtick_9">
     <g id="line2d_66">
      <path d="M 568.401162 242.62375 
L 568.401162 22.0425 
" clip-path="url(#p6920250016)" style="fill: none; stroke: #e9ecef; stroke-width: 0.6; stroke-linecap: square"/>
     </g>
     <g id="line2d_67">
      <g>
       <use xlink:href="#m3771470497" x="568.401162" y="242.62375" style="fill: #6c757d; stroke: #6c757d; stroke-width: 0.8"/>
      </g>
     </g>
     <g id="text_26">
      <!-- 0 -->
      <g style="fill: #6c757d" transform="translate(565.620693 256.797187) scale(0.1 -0.1)">
       <use xlink:href="#Helvetica-30"/>
      </g>
     </g>
    </g>
    <g id="xtick_10">
     <g id="line2d_68">
      <path d="M 622.677402 242.62375 
L 622.677402 22.0425 
" clip-path="url(#p6920250016)" style="fill: none; stroke: #e9ecef; stroke-width: 0.6; stroke-linecap: square"/>
     </g>
     <g id="line2d_69">
      <g>
       <use xlink:href="#m3771470497" x="622.677402" y="242.62375" style="fill: #6c757d; stroke: #6c757d; stroke-width: 0.8"/>
      </g>
     </g>
     <g id="text_27">
      <!-- 20 -->
      <g style="fill: #6c757d" transform="translate(617.116465 256.797187) scale(0.1 -0.1)">
       <use xlink:href="#Helvetica-32"/>
       <use xlink:href="#Helvetica-30" transform="translate(55.615234 0)"/>
      </g>
     </g>
    </g>
    <g id="xtick_11">
     <g id="line2d_70">
      <path d="M 676.953642 242.62375 
L 676.953642 22.0425 
" clip-path="url(#p6920250016)" style="fill: none; stroke: #e9ecef; stroke-width: 0.6; stroke-linecap: square"/>
     </g>
     <g id="line2d_71">
      <g>
       <use xlink:href="#m3771470497" x="676.953642" y="242.62375" style="fill: #6c757d; stroke: #6c757d; stroke-width: 0.8"/>
      </g>
     </g>
     <g id="text_28">
      <!-- 40 -->
      <g style="fill: #6c757d" transform="translate(671.392705 256.797187) scale(0.1 -0.1)">
       <use xlink:href="#Helvetica-34"/>
       <use xlink:href="#Helvetica-30" transform="translate(55.615234 0)"/>
      </g>
     </g>
    </g>
    <g id="xtick_12">
     <g id="line2d_72">
      <path d="M 731.229883 242.62375 
L 731.229883 22.0425 
" clip-path="url(#p6920250016)" style="fill: none; stroke: #e9ecef; stroke-width: 0.6; stroke-linecap: square"/>
     </g>
     <g id="line2d_73">
      <g>
       <use xlink:href="#m3771470497" x="731.229883" y="242.62375" style="fill: #6c757d; stroke: #6c757d; stroke-width: 0.8"/>
      </g>
     </g>
     <g id="text_29">
      <!-- 60 -->
      <g style="fill: #6c757d" transform="translate(725.668945 256.797187) scale(0.1 -0.1)">
       <use xlink:href="#Helvetica-36"/>
       <use xlink:href="#Helvetica-30" transform="translate(55.615234 0)"/>
      </g>
     </g>
    </g>
    <g id="text_30">
     <!-- Epoch -->
     <g style="fill: #212529" transform="translate(649.14727 270.798125) scale(0.11 -0.11)">
      <use xlink:href="#Helvetica-45"/>
      <use xlink:href="#Helvetica-70" transform="translate(66.699219 0)"/>
      <use xlink:href="#Helvetica-6f" transform="translate(122.314453 0)"/>
      <use xlink:href="#Helvetica-63" transform="translate(177.929688 0)"/>
      <use xlink:href="#Helvetica-68" transform="translate(227.929688 0)"/>
     </g>
    </g>
   </g>
   <g id="matplotlib.axis_6">
    <g id="ytick_38">
     <g id="line2d_74">
      <path d="M 561.752322 234.90492 
L 767.730654 234.90492 
" clip-path="url(#p6920250016)" style="fill: none; stroke: #e9ecef; stroke-width: 0.6; stroke-linecap: square"/>
     </g>
     <g id="line2d_75">
      <g>
       <use xlink:href="#m9f12db1b52" x="561.752322" y="234.90492" style="fill: #6c757d; stroke: #6c757d; stroke-width: 0.8"/>
      </g>
     </g>
     <g id="text_31">
      <!-- $\mathdefault{10^{-1}}$ -->
      <g style="fill: #6c757d" transform="translate(535.252322 238.491638) scale(0.1 -0.1)">
       <use xlink:href="#Helvetica-31" transform="translate(0 0.654688)"/>
       <use xlink:href="#Helvetica-30" transform="translate(55.615234 0.654688)"/>
       <use xlink:href="#Helvetica-2212" transform="translate(112.145664 37.2625) scale(0.7)"/>
       <use xlink:href="#Helvetica-31" transform="translate(153.02457 37.2625) scale(0.7)"/>
      </g>
     </g>
    </g>
    <g id="ytick_39">
     <g id="line2d_76">
      <g>
       <use xlink:href="#m5d70ef719d" x="561.752322" y="168.103044" style="fill: #6c757d; stroke: #6c757d; stroke-width: 0.6"/>
      </g>
     </g>
     <g id="text_32">
      <!-- $\mathdefault{2\times10^{-1}}$ -->
      <g style="fill: #6c757d" transform="translate(521.552322 171.689763) scale(0.1 -0.1)">
       <use xlink:href="#Helvetica-32" transform="translate(0 0.654688)"/>
       <use xlink:href="#Helvetica-d7" transform="translate(75.097656 0.654688)"/>
       <use xlink:href="#Helvetica-31" transform="translate(152.978516 0.654688)"/>
       <use xlink:href="#Helvetica-30" transform="translate(208.59375 0.654688)"/>
       <use xlink:href="#Helvetica-2212" transform="translate(265.12418 37.2625) scale(0.7)"/>
       <use xlink:href="#Helvetica-31" transform="translate(306.003086 37.2625) scale(0.7)"/>
      </g>
     </g>
    </g>
    <g id="ytick_40">
     <g id="line2d_77">
      <g>
       <use xlink:href="#m5d70ef719d" x="561.752322" y="129.026453" style="fill: #6c757d; stroke: #6c757d; stroke-width: 0.6"/>
      </g>
     </g>
     <g id="text_33">
      <!-- $\mathdefault{3\times10^{-1}}$ -->
      <g style="fill: #6c757d" transform="translate(521.552322 132.613171) scale(0.1 -0.1)">
       <use xlink:href="#Helvetica-33" transform="translate(0 0.654688)"/>
       <use xlink:href="#Helvetica-d7" transform="translate(75.097656 0.654688)"/>
       <use xlink:href="#Helvetica-31" transform="translate(152.978516 0.654688)"/>
       <use xlink:href="#Helvetica-30" transform="translate(208.59375 0.654688)"/>
       <use xlink:href="#Helvetica-2212" transform="translate(265.12418 37.2625) scale(0.7)"/>
       <use xlink:href="#Helvetica-31" transform="translate(306.003086 37.2625) scale(0.7)"/>
      </g>
     </g>
    </g>
    <g id="ytick_41">
     <g id="line2d_78">
      <g>
       <use xlink:href="#m5d70ef719d" x="561.752322" y="101.301169" style="fill: #6c757d; stroke: #6c757d; stroke-width: 0.6"/>
      </g>
     </g>
     <g id="text_34">
      <!-- $\mathdefault{4\times10^{-1}}$ -->
      <g style="fill: #6c757d" transform="translate(521.552322 104.887888) scale(0.1 -0.1)">
       <use xlink:href="#Helvetica-34" transform="translate(0 0.654688)"/>
       <use xlink:href="#Helvetica-d7" transform="translate(75.097656 0.654688)"/>
       <use xlink:href="#Helvetica-31" transform="translate(152.978516 0.654688)"/>
       <use xlink:href="#Helvetica-30" transform="translate(208.59375 0.654688)"/>
       <use xlink:href="#Helvetica-2212" transform="translate(265.12418 37.2625) scale(0.7)"/>
       <use xlink:href="#Helvetica-31" transform="translate(306.003086 37.2625) scale(0.7)"/>
      </g>
     </g>
    </g>
    <g id="ytick_42">
     <g id="line2d_79">
      <g>
       <use xlink:href="#m5d70ef719d" x="561.752322" y="79.795769" style="fill: #6c757d; stroke: #6c757d; stroke-width: 0.6"/>
      </g>
     </g>
    </g>
    <g id="ytick_43">
     <g id="line2d_80">
      <g>
       <use xlink:href="#m5d70ef719d" x="561.752322" y="62.224577" style="fill: #6c757d; stroke: #6c757d; stroke-width: 0.6"/>
      </g>
     </g>
     <g id="text_35">
      <!-- $\mathdefault{6\times10^{-1}}$ -->
      <g style="fill: #6c757d" transform="translate(521.552322 65.811296) scale(0.1 -0.1)">
       <use xlink:href="#Helvetica-36" transform="translate(0 0.654688)"/>
       <use xlink:href="#Helvetica-d7" transform="translate(75.097656 0.654688)"/>
       <use xlink:href="#Helvetica-31" transform="translate(152.978516 0.654688)"/>
       <use xlink:href="#Helvetica-30" transform="translate(208.59375 0.654688)"/>
       <use xlink:href="#Helvetica-2212" transform="translate(265.12418 37.2625) scale(0.7)"/>
       <use xlink:href="#Helvetica-31" transform="translate(306.003086 37.2625) scale(0.7)"/>
      </g>
     </g>
    </g>
    <g id="ytick_44">
     <g id="line2d_81">
      <g>
       <use xlink:href="#m5d70ef719d" x="561.752322" y="47.368347" style="fill: #6c757d; stroke: #6c757d; stroke-width: 0.6"/>
      </g>
     </g>
    </g>
    <g id="ytick_45">
     <g id="line2d_82">
      <g>
       <use xlink:href="#m5d70ef719d" x="561.752322" y="34.499294" style="fill: #6c757d; stroke: #6c757d; stroke-width: 0.6"/>
      </g>
     </g>
    </g>
    <g id="ytick_46">
     <g id="line2d_83">
      <g>
       <use xlink:href="#m5d70ef719d" x="561.752322" y="23.147985" style="fill: #6c757d; stroke: #6c757d; stroke-width: 0.6"/>
      </g>
     </g>
    </g>
   </g>
   <g id="line2d_84">
    <path d="M 571.114974 232.59733 
L 573.828786 190.523138 
L 576.542598 94.295458 
L 579.25641 65.752903 
L 581.970222 47.818784 
L 584.684034 49.433584 
L 587.397846 46.673319 
L 590.111658 45.857982 
L 592.82547 45.606766 
L 595.539282 48.044428 
L 598.253094 51.38804 
L 600.966906 52.182106 
L 603.680718 45.994865 
L 606.39453 50.296456 
L 609.108342 52.02948 
L 611.822154 53.088192 
L 614.535966 48.383753 
L 617.249778 51.154876 
L 619.96359 49.558104 
L 622.677402 54.062615 
L 625.391214 50.689769 
L 628.105026 50.6958 
L 630.818838 51.658666 
L 633.53265 56.180142 
L 636.246462 51.566293 
L 638.960274 53.138017 
L 641.674086 57.447427 
L 644.387898 52.782388 
L 647.10171 57.109197 
L 649.815522 57.867505 
L 652.529334 59.980743 
L 655.243146 57.871398 
L 657.956958 56.850432 
L 660.67077 56.106224 
L 663.384582 56.518267 
L 666.098394 57.422967 
L 668.812206 61.457484 
L 671.526018 59.657496 
L 674.23983 59.092425 
L 676.953642 58.32894 
L 679.667454 60.404563 
L 682.381266 63.961167 
L 685.095078 65.712164 
L 687.80889 63.563409 
L 690.522702 67.370307 
L 693.236514 64.236942 
L 695.950327 67.123204 
L 698.664139 64.096666 
L 701.377951 63.808564 
L 704.091763 70.846433 
L 706.805575 66.652483 
L 709.519387 69.90123 
L 712.233199 67.052339 
L 714.947011 73.234587 
L 717.660823 70.362426 
L 720.374635 69.114066 
L 723.088447 69.239409 
L 725.802259 72.704923 
L 728.516071 73.82467 
L 731.229883 74.84607 
L 733.943695 71.619303 
L 736.657507 74.352271 
L 739.371319 77.949144 
L 742.085131 74.194958 
L 744.798943 72.946847 
L 747.512755 78.908208 
L 750.226567 79.248857 
L 752.940379 76.794563 
L 755.654191 78.574724 
L 758.368003 76.165898 
" clip-path="url(#p6920250016)" style="fill: none; stroke: #2563eb; stroke-width: 1.8; stroke-linecap: square"/>
   </g>
   <g id="line2d_85">
    <path d="M 571.114974 232.178324 
L 573.828786 187.05686 
L 576.542598 86.895928 
L 579.25641 57.908611 
L 581.970222 43.517121 
L 584.684034 42.373087 
L 587.397846 37.92771 
L 590.111658 32.06892 
L 592.82547 36.258372 
L 595.539282 36.908476 
L 598.253094 39.706613 
L 600.966906 43.075843 
L 603.680718 39.500315 
L 606.39453 43.959428 
L 609.108342 41.34221 
L 611.822154 43.635156 
L 614.535966 39.862623 
L 617.249778 45.335606 
L 619.96359 48.324394 
L 622.677402 49.70486 
L 625.391214 50.220976 
L 628.105026 49.618791 
L 630.818838 53.391927 
L 633.53265 56.51121 
L 636.246462 55.284937 
L 638.960274 59.929037 
L 641.674086 62.473502 
L 644.387898 60.9769 
L 647.10171 63.792732 
L 649.815522 66.905677 
L 652.529334 66.796128 
L 655.243146 66.774376 
L 657.956958 69.088393 
L 660.67077 67.634141 
L 663.384582 67.219924 
L 666.098394 67.495831 
L 668.812206 73.034412 
L 671.526018 70.930824 
L 674.23983 71.070276 
L 676.953642 71.289861 
L 679.667454 73.148816 
L 682.381266 74.482608 
L 685.095078 76.927842 
L 687.80889 76.317103 
L 690.522702 76.032907 
L 693.236514 77.761571 
L 695.950327 76.970319 
L 698.664139 74.25524 
L 701.377951 77.39802 
L 704.091763 81.799186 
L 706.805575 77.445047 
L 709.519387 82.100993 
L 712.233199 81.605061 
L 714.947011 86.040532 
L 717.660823 81.571812 
L 720.374635 83.101068 
L 723.088447 83.025043 
L 725.802259 83.491223 
L 728.516071 86.747683 
L 731.229883 84.801185 
L 733.943695 83.214966 
L 736.657507 86.956407 
L 739.371319 87.112088 
L 742.085131 87.083516 
L 744.798943 85.583965 
L 747.512755 90.682759 
L 750.226567 90.133281 
L 752.940379 87.342949 
L 755.654191 87.319081 
L 758.368003 89.453201 
" clip-path="url(#p6920250016)" style="fill: none; stroke: #d97706; stroke-width: 1.8; stroke-linecap: square"/>
   </g>
   <g id="patch_9">
    <path d="M 561.752322 242.62375 
L 561.752322 22.0425 
" style="fill: none; stroke: #495057; stroke-width: 0.8; stroke-linejoin: miter; stroke-linecap: square"/>
   </g>
   <g id="patch_10">
    <path d="M 561.752322 242.62375 
L 767.730654 242.62375 
" style="fill: none; stroke: #495057; stroke-width: 0.8; stroke-linejoin: miter; stroke-linecap: square"/>
   </g>
   <g id="text_36">
    <!-- Gauge div(psi) -->
    <g style="fill: #212529" transform="translate(625.726488 16.0425) scale(0.12 -0.12)">
     <defs>
      <path id="Helvetica-47" d="M 2472 4709 
Q 3119 4709 3591 4459 
Q 4275 4100 4428 3200 
L 3813 3200 
Q 3700 3703 3347 3933 
Q 2994 4163 2456 4163 
Q 1819 4163 1383 3684 
Q 947 3206 947 2259 
Q 947 1441 1306 927 
Q 1666 413 2478 413 
Q 3100 413 3508 773 
Q 3916 1134 3925 1941 
L 2488 1941 
L 2488 2456 
L 4503 2456 
L 4503 0 
L 4103 0 
L 3953 591 
Q 3638 244 3394 109 
Q 2984 -122 2353 -122 
Q 1538 -122 950 406 
Q 309 1069 309 2225 
Q 309 3378 934 4059 
Q 1528 4709 2472 4709 
z
M 2369 4716 
L 2369 4716 
z
" transform="scale(0.015625)"/>
      <path id="Helvetica-67" d="M 1594 3406 
Q 1988 3406 2281 3213 
Q 2441 3103 2606 2894 
L 2606 3316 
L 3125 3316 
L 3125 272 
Q 3125 -366 2938 -734 
Q 2588 -1416 1616 -1416 
Q 1075 -1416 706 -1173 
Q 338 -931 294 -416 
L 866 -416 
Q 906 -641 1028 -763 
Q 1219 -950 1628 -950 
Q 2275 -950 2475 -494 
Q 2594 -225 2584 466 
Q 2416 209 2178 84 
Q 1941 -41 1550 -41 
Q 1006 -41 598 345 
Q 191 731 191 1622 
Q 191 2463 602 2934 
Q 1013 3406 1594 3406 
z
M 2606 1688 
Q 2606 2309 2350 2609 
Q 2094 2909 1697 2909 
Q 1103 2909 884 2353 
Q 769 2056 769 1575 
Q 769 1009 998 714 
Q 1228 419 1616 419 
Q 2222 419 2469 966 
Q 2606 1275 2606 1688 
z
M 1659 3428 
L 1659 3428 
z
" transform="scale(0.015625)"/>
     </defs>
     <use xlink:href="#Helvetica-47"/>
     <use xlink:href="#Helvetica-61" transform="translate(77.783203 0)"/>
     <use xlink:href="#Helvetica-75" transform="translate(133.398438 0)"/>
     <use xlink:href="#Helvetica-67" transform="translate(189.013672 0)"/>
     <use xlink:href="#Helvetica-65" transform="translate(244.628906 0)"/>
     <use xlink:href="#Helvetica-20" transform="translate(300.244141 0)"/>
     <use xlink:href="#Helvetica-64" transform="translate(328.027344 0)"/>
     <use xlink:href="#Helvetica-69" transform="translate(383.642578 0)"/>
     <use xlink:href="#Helvetica-76" transform="translate(405.859375 0)"/>
     <use xlink:href="#Helvetica-28" transform="translate(455.859375 0)"/>
     <use xlink:href="#Helvetica-70" transform="translate(489.160156 0)"/>
     <use xlink:href="#Helvetica-73" transform="translate(544.775391 0)"/>
     <use xlink:href="#Helvetica-69" transform="translate(594.775391 0)"/>
     <use xlink:href="#Helvetica-29" transform="translate(616.992188 0)"/>
    </g>
   </g>
   <g id="legend_3">
    <g id="line2d_86">
     <path d="M 694.903779 33.448594 
L 703.903779 33.448594 
L 712.903779 33.448594 
" style="fill: none; stroke: #2563eb; stroke-width: 1.8; stroke-linecap: square"/>
    </g>
    <g id="text_37">
     <!-- Train -->
     <g transform="translate(720.103779 36.598594) scale(0.09 -0.09)">
      <use xlink:href="#Helvetica-54"/>
      <use xlink:href="#Helvetica-72" transform="translate(61.083984 0)"/>
      <use xlink:href="#Helvetica-61" transform="translate(94.384766 0)"/>
      <use xlink:href="#Helvetica-69" transform="translate(150 0)"/>
      <use xlink:href="#Helvetica-6e" transform="translate(172.216797 0)"/>
     </g>
    </g>
    <g id="line2d_87">
     <path d="M 694.903779 46.280625 
L 703.903779 46.280625 
L 712.903779 46.280625 
" style="fill: none; stroke: #d97706; stroke-width: 1.8; stroke-linecap: square"/>
    </g>
    <g id="text_38">
     <!-- Validation -->
     <g transform="translate(720.103779 49.430625) scale(0.09 -0.09)">
      <use xlink:href="#Helvetica-56"/>
      <use xlink:href="#Helvetica-61" transform="translate(66.699219 0)"/>
      <use xlink:href="#Helvetica-6c" transform="translate(122.314453 0)"/>
      <use xlink:href="#Helvetica-69" transform="translate(144.53125 0)"/>
      <use xlink:href="#Helvetica-64" transform="translate(166.748047 0)"/>
      <use xlink:href="#Helvetica-61" transform="translate(222.363281 0)"/>
      <use xlink:href="#Helvetica-74" transform="translate(277.978516 0)"/>
      <use xlink:href="#Helvetica-69" transform="translate(305.761719 0)"/>
      <use xlink:href="#Helvetica-6f" transform="translate(327.978516 0)"/>
      <use xlink:href="#Helvetica-6e" transform="translate(383.59375 0)"/>
     </g>
    </g>
   </g>
  </g>
  <g id="axes_4">
   <g id="patch_11">
    <path d="M 818.603327 242.62375 
L 1024.581659 242.62375 
L 1024.581659 22.0425 
L 818.603327 22.0425 
z
" style="fill: #ffffff"/>
   </g>
   <g id="matplotlib.axis_7">
    <g id="xtick_13">
     <g id="line2d_88">
      <path d="M 825.252167 242.62375 
L 825.252167 22.0425 
" clip-path="url(#p8c7f3f4af2)" style="fill: none; stroke: #e9ecef; stroke-width: 0.6; stroke-linecap: square"/>
     </g>
     <g id="line2d_89">
      <g>
       <use xlink:href="#m3771470497" x="825.252167" y="242.62375" style="fill: #6c757d; stroke: #6c757d; stroke-width: 0.8"/>
      </g>
     </g>
     <g id="text_39">
      <!-- 0 -->
      <g style="fill: #6c757d" transform="translate(822.471698 256.797187) scale(0.1 -0.1)">
       <use xlink:href="#Helvetica-30"/>
      </g>
     </g>
    </g>
    <g id="xtick_14">
     <g id="line2d_90">
      <path d="M 879.528407 242.62375 
L 879.528407 22.0425 
" clip-path="url(#p8c7f3f4af2)" style="fill: none; stroke: #e9ecef; stroke-width: 0.6; stroke-linecap: square"/>
     </g>
     <g id="line2d_91">
      <g>
       <use xlink:href="#m3771470497" x="879.528407" y="242.62375" style="fill: #6c757d; stroke: #6c757d; stroke-width: 0.8"/>
      </g>
     </g>
     <g id="text_40">
      <!-- 20 -->
      <g style="fill: #6c757d" transform="translate(873.967469 256.797187) scale(0.1 -0.1)">
       <use xlink:href="#Helvetica-32"/>
       <use xlink:href="#Helvetica-30" transform="translate(55.615234 0)"/>
      </g>
     </g>
    </g>
    <g id="xtick_15">
     <g id="line2d_92">
      <path d="M 933.804647 242.62375 
L 933.804647 22.0425 
" clip-path="url(#p8c7f3f4af2)" style="fill: none; stroke: #e9ecef; stroke-width: 0.6; stroke-linecap: square"/>
     </g>
     <g id="line2d_93">
      <g>
       <use xlink:href="#m3771470497" x="933.804647" y="242.62375" style="fill: #6c757d; stroke: #6c757d; stroke-width: 0.8"/>
      </g>
     </g>
     <g id="text_41">
      <!-- 40 -->
      <g style="fill: #6c757d" transform="translate(928.24371 256.797187) scale(0.1 -0.1)">
       <use xlink:href="#Helvetica-34"/>
       <use xlink:href="#Helvetica-30" transform="translate(55.615234 0)"/>
      </g>
     </g>
    </g>
    <g id="xtick_16">
     <g id="line2d_94">
      <path d="M 988.080888 242.62375 
L 988.080888 22.0425 
" clip-path="url(#p8c7f3f4af2)" style="fill: none; stroke: #e9ecef; stroke-width: 0.6; stroke-linecap: square"/>
     </g>
     <g id="line2d_95">
      <g>
       <use xlink:href="#m3771470497" x="988.080888" y="242.62375" style="fill: #6c757d; stroke: #6c757d; stroke-width: 0.8"/>
      </g>
     </g>
     <g id="text_42">
      <!-- 60 -->
      <g style="fill: #6c757d" transform="translate(982.51995 256.797187) scale(0.1 -0.1)">
       <use xlink:href="#Helvetica-36"/>
       <use xlink:href="#Helvetica-30" transform="translate(55.615234 0)"/>
      </g>
     </g>
    </g>
    <g id="text_43">
     <!-- Epoch -->
     <g style="fill: #212529" transform="translate(905.998274 270.798125) scale(0.11 -0.11)">
      <use xlink:href="#Helvetica-45"/>
      <use xlink:href="#Helvetica-70" transform="translate(66.699219 0)"/>
      <use xlink:href="#Helvetica-6f" transform="translate(122.314453 0)"/>
      <use xlink:href="#Helvetica-63" transform="translate(177.929688 0)"/>
      <use xlink:href="#Helvetica-68" transform="translate(227.929688 0)"/>
     </g>
    </g>
   </g>
   <g id="matplotlib.axis_8">
    <g id="ytick_47">
     <g id="line2d_96">
      <g>
       <use xlink:href="#m5d70ef719d" x="818.603327" y="167.799131" style="fill: #6c757d; stroke: #6c757d; stroke-width: 0.6"/>
      </g>
     </g>
     <g id="text_44">
      <!-- $\mathdefault{2\times10^{-3}}$ -->
      <g style="fill: #6c757d" transform="translate(778.403327 171.385849) scale(0.1 -0.1)">
       <use xlink:href="#Helvetica-32" transform="translate(0 0.38125)"/>
       <use xlink:href="#Helvetica-d7" transform="translate(75.097656 0.38125)"/>
       <use xlink:href="#Helvetica-31" transform="translate(152.978516 0.38125)"/>
       <use xlink:href="#Helvetica-30" transform="translate(208.59375 0.38125)"/>
       <use xlink:href="#Helvetica-2212" transform="translate(265.12418 36.989063) scale(0.7)"/>
       <use xlink:href="#Helvetica-33" transform="translate(306.003086 36.989063) scale(0.7)"/>
      </g>
     </g>
    </g>
    <g id="ytick_48">
     <g id="line2d_97">
      <g>
       <use xlink:href="#m5d70ef719d" x="818.603327" y="100.490063" style="fill: #6c757d; stroke: #6c757d; stroke-width: 0.6"/>
      </g>
     </g>
     <g id="text_45">
      <!-- $\mathdefault{3\times10^{-3}}$ -->
      <g style="fill: #6c757d" transform="translate(778.403327 104.076781) scale(0.1 -0.1)">
       <use xlink:href="#Helvetica-33" transform="translate(0 0.38125)"/>
       <use xlink:href="#Helvetica-d7" transform="translate(75.097656 0.38125)"/>
       <use xlink:href="#Helvetica-31" transform="translate(152.978516 0.38125)"/>
       <use xlink:href="#Helvetica-30" transform="translate(208.59375 0.38125)"/>
       <use xlink:href="#Helvetica-2212" transform="translate(265.12418 36.989063) scale(0.7)"/>
       <use xlink:href="#Helvetica-33" transform="translate(306.003086 36.989063) scale(0.7)"/>
      </g>
     </g>
    </g>
    <g id="ytick_49">
     <g id="line2d_98">
      <g>
       <use xlink:href="#m5d70ef719d" x="818.603327" y="52.733519" style="fill: #6c757d; stroke: #6c757d; stroke-width: 0.6"/>
      </g>
     </g>
     <g id="text_46">
      <!-- $\mathdefault{4\times10^{-3}}$ -->
      <g style="fill: #6c757d" transform="translate(778.403327 56.320237) scale(0.1 -0.1)">
       <use xlink:href="#Helvetica-34" transform="translate(0 0.38125)"/>
       <use xlink:href="#Helvetica-d7" transform="translate(75.097656 0.38125)"/>
       <use xlink:href="#Helvetica-31" transform="translate(152.978516 0.38125)"/>
       <use xlink:href="#Helvetica-30" transform="translate(208.59375 0.38125)"/>
       <use xlink:href="#Helvetica-2212" transform="translate(265.12418 36.989063) scale(0.7)"/>
       <use xlink:href="#Helvetica-33" transform="translate(306.003086 36.989063) scale(0.7)"/>
      </g>
     </g>
    </g>
   </g>
   <g id="line2d_99">
    <path d="M 827.965979 155.028825 
L 830.679791 86.079179 
L 833.393603 33.716275 
L 836.107415 39.299103 
L 838.821227 79.691815 
L 841.535039 85.719577 
L 844.248851 89.714918 
L 846.962663 110.64352 
L 849.676475 116.324231 
L 852.390287 103.039527 
L 855.104099 111.167895 
L 857.817911 115.437394 
L 860.531723 122.280187 
L 863.245535 129.741131 
L 865.959347 141.41604 
L 868.673159 146.10614 
L 871.386971 150.745609 
L 874.100783 136.900258 
L 876.814595 161.715702 
L 879.528407 153.312422 
L 882.242219 155.975553 
L 884.956031 155.527359 
L 887.669843 166.226841 
L 890.383655 164.644577 
L 893.097467 166.472647 
L 895.811279 160.352795 
L 898.525091 161.625375 
L 901.238903 165.356978 
L 903.952715 161.166553 
L 906.666527 174.631 
L 909.380339 178.625158 
L 912.094151 180.112701 
L 914.807963 186.45825 
L 917.521775 185.66132 
L 920.235587 183.56745 
L 922.949399 187.685851 
L 925.663211 179.523669 
L 928.377023 174.70089 
L 931.090835 189.953756 
L 933.804647 198.110236 
L 936.518459 181.55915 
L 939.232271 183.137518 
L 941.946083 191.491641 
L 944.659895 193.714805 
L 947.373707 172.795291 
L 950.087519 192.786629 
L 952.801331 186.147905 
L 955.515143 205.193978 
L 958.228955 211.094733 
L 960.942767 204.308192 
L 963.656579 198.140437 
L 966.370391 203.391177 
L 969.084204 200.39617 
L 971.798016 204.205849 
L 974.511828 203.509982 
L 977.22564 198.793836 
L 979.939452 221.578645 
L 982.653264 211.524268 
L 985.367076 219.315276 
L 988.080888 225.941999 
L 990.7947 201.027436 
L 993.508512 223.42697 
L 996.222324 222.264167 
L 998.936136 206.484386 
L 1001.649948 215.038414 
L 1004.36376 225.311432 
L 1007.077572 219.877057 
L 1009.791384 232.59733 
L 1012.505196 220.391203 
L 1015.219008 217.109352 
" clip-path="url(#p8c7f3f4af2)" style="fill: none; stroke: #2563eb; stroke-width: 1.8; stroke-linecap: square"/>
   </g>
   <g id="line2d_100">
    <path d="M 827.965979 161.104572 
L 830.679791 83.207959 
L 833.393603 32.06892 
L 836.107415 38.605706 
L 838.821227 83.651719 
L 841.535039 85.396188 
L 844.248851 88.020713 
L 846.962663 106.63208 
L 849.676475 110.67928 
L 852.390287 99.455829 
L 855.104099 107.61746 
L 857.817911 114.60373 
L 860.531723 121.169341 
L 863.245535 129.53096 
L 865.959347 139.604796 
L 868.673159 146.198605 
L 871.386971 152.469398 
L 874.100783 140.923851 
L 876.814595 162.961209 
L 879.528407 154.735883 
L 882.242219 155.991859 
L 884.956031 155.969898 
L 887.669843 165.524853 
L 890.383655 164.116672 
L 893.097467 164.302272 
L 895.811279 160.19298 
L 898.525091 159.096527 
L 901.238903 163.707285 
L 903.952715 158.639642 
L 906.666527 171.476797 
L 909.380339 176.87249 
L 912.094151 178.243893 
L 914.807963 185.322348 
L 917.521775 184.007542 
L 920.235587 182.805008 
L 922.949399 183.401409 
L 925.663211 177.929177 
L 928.377023 172.66061 
L 931.090835 188.020471 
L 933.804647 195.591883 
L 936.518459 177.279504 
L 939.232271 182.282252 
L 941.946083 188.997147 
L 944.659895 191.200438 
L 947.373707 171.609445 
L 950.087519 190.558517 
L 952.801331 185.842311 
L 955.515143 203.444369 
L 958.228955 207.997347 
L 960.942767 202.497551 
L 963.656579 196.234439 
L 966.370391 201.308728 
L 969.084204 199.455333 
L 971.798016 203.964271 
L 974.511828 203.966824 
L 977.22564 196.447199 
L 979.939452 219.328431 
L 982.653264 209.514424 
L 985.367076 216.746843 
L 988.080888 223.271873 
L 990.7947 199.981401 
L 993.508512 222.421622 
L 996.222324 219.960022 
L 998.936136 206.332458 
L 1001.649948 212.376089 
L 1004.36376 223.387063 
L 1007.077572 216.942531 
L 1009.791384 231.265244 
L 1012.505196 218.927684 
L 1015.219008 214.876834 
" clip-path="url(#p8c7f3f4af2)" style="fill: none; stroke: #d97706; stroke-width: 1.8; stroke-linecap: square"/>
   </g>
   <g id="patch_12">
    <path d="M 818.603327 242.62375 
L 818.603327 22.0425 
" style="fill: none; stroke: #495057; stroke-width: 0.8; stroke-linejoin: miter; stroke-linecap: square"/>
   </g>
   <g id="patch_13">
    <path d="M 818.603327 242.62375 
L 1024.581659 242.62375 
" style="fill: none; stroke: #495057; stroke-width: 0.8; stroke-linejoin: miter; stroke-linecap: square"/>
   </g>
   <g id="text_47">
    <!-- Initial condition -->
    <g style="fill: #212529" transform="translate(881.903431 16.0425) scale(0.12 -0.12)">
     <defs>
      <path id="Helvetica-49" d="M 628 4591 
L 1256 4591 
L 1256 0 
L 628 0 
L 628 4591 
z
" transform="scale(0.015625)"/>
     </defs>
     <use xlink:href="#Helvetica-49"/>
     <use xlink:href="#Helvetica-6e" transform="translate(27.783203 0)"/>
     <use xlink:href="#Helvetica-69" transform="translate(83.398438 0)"/>
     <use xlink:href="#Helvetica-74" transform="translate(105.615234 0)"/>
     <use xlink:href="#Helvetica-69" transform="translate(133.398438 0)"/>
     <use xlink:href="#Helvetica-61" transform="translate(155.615234 0)"/>
     <use xlink:href="#Helvetica-6c" transform="translate(211.230469 0)"/>
     <use xlink:href="#Helvetica-20" transform="translate(233.447266 0)"/>
     <use xlink:href="#Helvetica-63" transform="translate(261.230469 0)"/>
     <use xlink:href="#Helvetica-6f" transform="translate(311.230469 0)"/>
     <use xlink:href="#Helvetica-6e" transform="translate(366.845703 0)"/>
     <use xlink:href="#Helvetica-64" transform="translate(422.460938 0)"/>
     <use xlink:href="#Helvetica-69" transform="translate(478.076172 0)"/>
     <use xlink:href="#Helvetica-74" transform="translate(500.292969 0)"/>
     <use xlink:href="#Helvetica-69" transform="translate(528.076172 0)"/>
     <use xlink:href="#Helvetica-6f" transform="translate(550.292969 0)"/>
     <use xlink:href="#Helvetica-6e" transform="translate(605.908203 0)"/>
    </g>
   </g>
   <g id="legend_4">
    <g id="line2d_101">
     <path d="M 951.754784 33.448594 
L 960.754784 33.448594 
L 969.754784 33.448594 
" style="fill: none; stroke: #2563eb; stroke-width: 1.8; stroke-linecap: square"/>
    </g>
    <g id="text_48">
     <!-- Train -->
     <g transform="translate(976.954784 36.598594) scale(0.09 -0.09)">
      <use xlink:href="#Helvetica-54"/>
      <use xlink:href="#Helvetica-72" transform="translate(61.083984 0)"/>
      <use xlink:href="#Helvetica-61" transform="translate(94.384766 0)"/>
      <use xlink:href="#Helvetica-69" transform="translate(150 0)"/>
      <use xlink:href="#Helvetica-6e" transform="translate(172.216797 0)"/>
     </g>
    </g>
    <g id="line2d_102">
     <path d="M 951.754784 46.280625 
L 960.754784 46.280625 
L 969.754784 46.280625 
" style="fill: none; stroke: #d97706; stroke-width: 1.8; stroke-linecap: square"/>
    </g>
    <g id="text_49">
     <!-- Validation -->
     <g transform="translate(976.954784 49.430625) scale(0.09 -0.09)">
      <use xlink:href="#Helvetica-56"/>
      <use xlink:href="#Helvetica-61" transform="translate(66.699219 0)"/>
      <use xlink:href="#Helvetica-6c" transform="translate(122.314453 0)"/>
      <use xlink:href="#Helvetica-69" transform="translate(144.53125 0)"/>
      <use xlink:href="#Helvetica-64" transform="translate(166.748047 0)"/>
      <use xlink:href="#Helvetica-61" transform="translate(222.363281 0)"/>
      <use xlink:href="#Helvetica-74" transform="translate(277.978516 0)"/>
      <use xlink:href="#Helvetica-69" transform="translate(305.761719 0)"/>
      <use xlink:href="#Helvetica-6f" transform="translate(327.978516 0)"/>
      <use xlink:href="#Helvetica-6e" transform="translate(383.59375 0)"/>
     </g>
    </g>
   </g>
  </g>
  <g id="axes_5">
   <g id="patch_14">
    <path d="M 1075.454332 242.62375 
L 1281.432664 242.62375 
L 1281.432664 22.0425 
L 1075.454332 22.0425 
z
" style="fill: #ffffff"/>
   </g>
   <g id="matplotlib.axis_9">
    <g id="xtick_17">
     <g id="line2d_103">
      <path d="M 1082.103171 242.62375 
L 1082.103171 22.0425 
" clip-path="url(#pe1a97f0d8b)" style="fill: none; stroke: #e9ecef; stroke-width: 0.6; stroke-linecap: square"/>
     </g>
     <g id="line2d_104">
      <g>
       <use xlink:href="#m3771470497" x="1082.103171" y="242.62375" style="fill: #6c757d; stroke: #6c757d; stroke-width: 0.8"/>
      </g>
     </g>
     <g id="text_50">
      <!-- 0 -->
      <g style="fill: #6c757d" transform="translate(1079.322703 256.797187) scale(0.1 -0.1)">
       <use xlink:href="#Helvetica-30"/>
      </g>
     </g>
    </g>
    <g id="xtick_18">
     <g id="line2d_105">
      <path d="M 1136.379412 242.62375 
L 1136.379412 22.0425 
" clip-path="url(#pe1a97f0d8b)" style="fill: none; stroke: #e9ecef; stroke-width: 0.6; stroke-linecap: square"/>
     </g>
     <g id="line2d_106">
      <g>
       <use xlink:href="#m3771470497" x="1136.379412" y="242.62375" style="fill: #6c757d; stroke: #6c757d; stroke-width: 0.8"/>
      </g>
     </g>
     <g id="text_51">
      <!-- 20 -->
      <g style="fill: #6c757d" transform="translate(1130.818474 256.797187) scale(0.1 -0.1)">
       <use xlink:href="#Helvetica-32"/>
       <use xlink:href="#Helvetica-30" transform="translate(55.615234 0)"/>
      </g>
     </g>
    </g>
    <g id="xtick_19">
     <g id="line2d_107">
      <path d="M 1190.655652 242.62375 
L 1190.655652 22.0425 
" clip-path="url(#pe1a97f0d8b)" style="fill: none; stroke: #e9ecef; stroke-width: 0.6; stroke-linecap: square"/>
     </g>
     <g id="line2d_108">
      <g>
       <use xlink:href="#m3771470497" x="1190.655652" y="242.62375" style="fill: #6c757d; stroke: #6c757d; stroke-width: 0.8"/>
      </g>
     </g>
     <g id="text_52">
      <!-- 40 -->
      <g style="fill: #6c757d" transform="translate(1185.094715 256.797187) scale(0.1 -0.1)">
       <use xlink:href="#Helvetica-34"/>
       <use xlink:href="#Helvetica-30" transform="translate(55.615234 0)"/>
      </g>
     </g>
    </g>
    <g id="xtick_20">
     <g id="line2d_109">
      <path d="M 1244.931893 242.62375 
L 1244.931893 22.0425 
" clip-path="url(#pe1a97f0d8b)" style="fill: none; stroke: #e9ecef; stroke-width: 0.6; stroke-linecap: square"/>
     </g>
     <g id="line2d_110">
      <g>
       <use xlink:href="#m3771470497" x="1244.931893" y="242.62375" style="fill: #6c757d; stroke: #6c757d; stroke-width: 0.8"/>
      </g>
     </g>
     <g id="text_53">
      <!-- 60 -->
      <g style="fill: #6c757d" transform="translate(1239.370955 256.797187) scale(0.1 -0.1)">
       <use xlink:href="#Helvetica-36"/>
       <use xlink:href="#Helvetica-30" transform="translate(55.615234 0)"/>
      </g>
     </g>
    </g>
    <g id="text_54">
     <!-- Epoch -->
     <g style="fill: #212529" transform="translate(1162.849279 270.798125) scale(0.11 -0.11)">
      <use xlink:href="#Helvetica-45"/>
      <use xlink:href="#Helvetica-70" transform="translate(66.699219 0)"/>
      <use xlink:href="#Helvetica-6f" transform="translate(122.314453 0)"/>
      <use xlink:href="#Helvetica-63" transform="translate(177.929688 0)"/>
      <use xlink:href="#Helvetica-68" transform="translate(227.929688 0)"/>
     </g>
    </g>
   </g>
   <g id="matplotlib.axis_10">
    <g id="ytick_50">
     <g id="line2d_111">
      <path d="M 1075.454332 217.517535 
L 1281.432664 217.517535 
" clip-path="url(#pe1a97f0d8b)" style="fill: none; stroke: #e9ecef; stroke-width: 0.6; stroke-linecap: square"/>
     </g>
     <g id="line2d_112">
      <g>
       <use xlink:href="#m9f12db1b52" x="1075.454332" y="217.517535" style="fill: #6c757d; stroke: #6c757d; stroke-width: 0.8"/>
      </g>
     </g>
     <g id="text_55">
      <!-- $\mathdefault{10^{-2}}$ -->
      <g style="fill: #6c757d" transform="translate(1048.954332 221.104253) scale(0.1 -0.1)">
       <use xlink:href="#Helvetica-31" transform="translate(0 0.271875)"/>
       <use xlink:href="#Helvetica-30" transform="translate(55.615234 0.271875)"/>
       <use xlink:href="#Helvetica-2212" transform="translate(112.145664 36.879688) scale(0.7)"/>
       <use xlink:href="#Helvetica-32" transform="translate(153.02457 36.879688) scale(0.7)"/>
      </g>
     </g>
    </g>
    <g id="ytick_51">
     <g id="line2d_113">
      <path d="M 1075.454332 145.666862 
L 1281.432664 145.666862 
" clip-path="url(#pe1a97f0d8b)" style="fill: none; stroke: #e9ecef; stroke-width: 0.6; stroke-linecap: square"/>
     </g>
     <g id="line2d_114">
      <g>
       <use xlink:href="#m9f12db1b52" x="1075.454332" y="145.666862" style="fill: #6c757d; stroke: #6c757d; stroke-width: 0.8"/>
      </g>
     </g>
     <g id="text_56">
      <!-- $\mathdefault{10^{-1}}$ -->
      <g style="fill: #6c757d" transform="translate(1048.954332 149.253581) scale(0.1 -0.1)">
       <use xlink:href="#Helvetica-31" transform="translate(0 0.654688)"/>
       <use xlink:href="#Helvetica-30" transform="translate(55.615234 0.654688)"/>
       <use xlink:href="#Helvetica-2212" transform="translate(112.145664 37.2625) scale(0.7)"/>
       <use xlink:href="#Helvetica-31" transform="translate(153.02457 37.2625) scale(0.7)"/>
      </g>
     </g>
    </g>
    <g id="ytick_52">
     <g id="line2d_115">
      <path d="M 1075.454332 73.816189 
L 1281.432664 73.816189 
" clip-path="url(#pe1a97f0d8b)" style="fill: none; stroke: #e9ecef; stroke-width: 0.6; stroke-linecap: square"/>
     </g>
     <g id="line2d_116">
      <g>
       <use xlink:href="#m9f12db1b52" x="1075.454332" y="73.816189" style="fill: #6c757d; stroke: #6c757d; stroke-width: 0.8"/>
      </g>
     </g>
     <g id="text_57">
      <!-- $\mathdefault{10^{0}}$ -->
      <g style="fill: #6c757d" transform="translate(1053.054332 77.402908) scale(0.1 -0.1)">
       <use xlink:href="#Helvetica-31" transform="translate(0 0.446875)"/>
       <use xlink:href="#Helvetica-30" transform="translate(55.615234 0.446875)"/>
       <use xlink:href="#Helvetica-30" transform="translate(112.145664 37.054688) scale(0.7)"/>
      </g>
     </g>
    </g>
    <g id="ytick_53">
     <g id="line2d_117">
      <g>
       <use xlink:href="#m5d70ef719d" x="1075.454332" y="239.146742" style="fill: #6c757d; stroke: #6c757d; stroke-width: 0.6"/>
      </g>
     </g>
    </g>
    <g id="ytick_54">
     <g id="line2d_118">
      <g>
       <use xlink:href="#m5d70ef719d" x="1075.454332" y="233.457517" style="fill: #6c757d; stroke: #6c757d; stroke-width: 0.6"/>
      </g>
     </g>
    </g>
    <g id="ytick_55">
     <g id="line2d_119">
      <g>
       <use xlink:href="#m5d70ef719d" x="1075.454332" y="228.647345" style="fill: #6c757d; stroke: #6c757d; stroke-width: 0.6"/>
      </g>
     </g>
    </g>
    <g id="ytick_56">
     <g id="line2d_120">
      <g>
       <use xlink:href="#m5d70ef719d" x="1075.454332" y="224.480584" style="fill: #6c757d; stroke: #6c757d; stroke-width: 0.6"/>
      </g>
     </g>
    </g>
    <g id="ytick_57">
     <g id="line2d_121">
      <g>
       <use xlink:href="#m5d70ef719d" x="1075.454332" y="220.805241" style="fill: #6c757d; stroke: #6c757d; stroke-width: 0.6"/>
      </g>
     </g>
    </g>
    <g id="ytick_58">
     <g id="line2d_122">
      <g>
       <use xlink:href="#m5d70ef719d" x="1075.454332" y="195.888327" style="fill: #6c757d; stroke: #6c757d; stroke-width: 0.6"/>
      </g>
     </g>
    </g>
    <g id="ytick_59">
     <g id="line2d_123">
      <g>
       <use xlink:href="#m5d70ef719d" x="1075.454332" y="183.236052" style="fill: #6c757d; stroke: #6c757d; stroke-width: 0.6"/>
      </g>
     </g>
    </g>
    <g id="ytick_60">
     <g id="line2d_124">
      <g>
       <use xlink:href="#m5d70ef719d" x="1075.454332" y="174.259119" style="fill: #6c757d; stroke: #6c757d; stroke-width: 0.6"/>
      </g>
     </g>
    </g>
    <g id="ytick_61">
     <g id="line2d_125">
      <g>
       <use xlink:href="#m5d70ef719d" x="1075.454332" y="167.29607" style="fill: #6c757d; stroke: #6c757d; stroke-width: 0.6"/>
      </g>
     </g>
    </g>
    <g id="ytick_62">
     <g id="line2d_126">
      <g>
       <use xlink:href="#m5d70ef719d" x="1075.454332" y="161.606844" style="fill: #6c757d; stroke: #6c757d; stroke-width: 0.6"/>
      </g>
     </g>
    </g>
    <g id="ytick_63">
     <g id="line2d_127">
      <g>
       <use xlink:href="#m5d70ef719d" x="1075.454332" y="156.796672" style="fill: #6c757d; stroke: #6c757d; stroke-width: 0.6"/>
      </g>
     </g>
    </g>
    <g id="ytick_64">
     <g id="line2d_128">
      <g>
       <use xlink:href="#m5d70ef719d" x="1075.454332" y="152.629912" style="fill: #6c757d; stroke: #6c757d; stroke-width: 0.6"/>
      </g>
     </g>
    </g>
    <g id="ytick_65">
     <g id="line2d_129">
      <g>
       <use xlink:href="#m5d70ef719d" x="1075.454332" y="148.954568" style="fill: #6c757d; stroke: #6c757d; stroke-width: 0.6"/>
      </g>
     </g>
    </g>
    <g id="ytick_66">
     <g id="line2d_130">
      <g>
       <use xlink:href="#m5d70ef719d" x="1075.454332" y="124.037654" style="fill: #6c757d; stroke: #6c757d; stroke-width: 0.6"/>
      </g>
     </g>
    </g>
    <g id="ytick_67">
     <g id="line2d_131">
      <g>
       <use xlink:href="#m5d70ef719d" x="1075.454332" y="111.385379" style="fill: #6c757d; stroke: #6c757d; stroke-width: 0.6"/>
      </g>
     </g>
    </g>
    <g id="ytick_68">
     <g id="line2d_132">
      <g>
       <use xlink:href="#m5d70ef719d" x="1075.454332" y="102.408446" style="fill: #6c757d; stroke: #6c757d; stroke-width: 0.6"/>
      </g>
     </g>
    </g>
    <g id="ytick_69">
     <g id="line2d_133">
      <g>
       <use xlink:href="#m5d70ef719d" x="1075.454332" y="95.445397" style="fill: #6c757d; stroke: #6c757d; stroke-width: 0.6"/>
      </g>
     </g>
    </g>
    <g id="ytick_70">
     <g id="line2d_134">
      <g>
       <use xlink:href="#m5d70ef719d" x="1075.454332" y="89.756171" style="fill: #6c757d; stroke: #6c757d; stroke-width: 0.6"/>
      </g>
     </g>
    </g>
    <g id="ytick_71">
     <g id="line2d_135">
      <g>
       <use xlink:href="#m5d70ef719d" x="1075.454332" y="84.945999" style="fill: #6c757d; stroke: #6c757d; stroke-width: 0.6"/>
      </g>
     </g>
    </g>
    <g id="ytick_72">
     <g id="line2d_136">
      <g>
       <use xlink:href="#m5d70ef719d" x="1075.454332" y="80.779239" style="fill: #6c757d; stroke: #6c757d; stroke-width: 0.6"/>
      </g>
     </g>
    </g>
    <g id="ytick_73">
     <g id="line2d_137">
      <g>
       <use xlink:href="#m5d70ef719d" x="1075.454332" y="77.103896" style="fill: #6c757d; stroke: #6c757d; stroke-width: 0.6"/>
      </g>
     </g>
    </g>
    <g id="ytick_74">
     <g id="line2d_138">
      <g>
       <use xlink:href="#m5d70ef719d" x="1075.454332" y="52.186981" style="fill: #6c757d; stroke: #6c757d; stroke-width: 0.6"/>
      </g>
     </g>
    </g>
    <g id="ytick_75">
     <g id="line2d_139">
      <g>
       <use xlink:href="#m5d70ef719d" x="1075.454332" y="39.534706" style="fill: #6c757d; stroke: #6c757d; stroke-width: 0.6"/>
      </g>
     </g>
    </g>
    <g id="ytick_76">
     <g id="line2d_140">
      <g>
       <use xlink:href="#m5d70ef719d" x="1075.454332" y="30.557774" style="fill: #6c757d; stroke: #6c757d; stroke-width: 0.6"/>
      </g>
     </g>
    </g>
    <g id="ytick_77">
     <g id="line2d_141">
      <g>
       <use xlink:href="#m5d70ef719d" x="1075.454332" y="23.594724" style="fill: #6c757d; stroke: #6c757d; stroke-width: 0.6"/>
      </g>
     </g>
    </g>
   </g>
   <g id="line2d_142">
    <path d="M 1084.816983 32.06892 
L 1087.530796 73.597261 
L 1090.244608 80.105242 
L 1092.95842 92.23657 
L 1095.672232 109.556908 
L 1098.386044 123.815645 
L 1101.099856 134.285927 
L 1103.813668 141.939643 
L 1106.52748 148.726192 
L 1109.241292 154.394974 
L 1111.955104 159.053739 
L 1114.668916 163.758967 
L 1117.382728 167.104698 
L 1120.09654 170.432704 
L 1122.810352 174.036505 
L 1125.524164 176.329449 
L 1128.237976 179.804074 
L 1130.951788 181.252721 
L 1133.6656 184.488924 
L 1136.379412 185.43295 
L 1139.093224 187.895258 
L 1141.807036 188.98946 
L 1144.520848 191.070087 
L 1147.23466 193.88687 
L 1149.948472 195.187199 
L 1152.662284 197.180957 
L 1155.376096 197.508613 
L 1158.089908 199.100348 
L 1160.80372 200.833182 
L 1163.517532 202.019584 
L 1166.231344 202.778178 
L 1168.945156 202.942718 
L 1171.658968 205.753458 
L 1174.37278 207.879107 
L 1177.086592 207.21207 
L 1179.800404 206.896189 
L 1182.514216 208.949791 
L 1185.228028 209.998559 
L 1187.94184 209.691028 
L 1190.655652 212.901271 
L 1193.369464 211.601394 
L 1196.083276 212.154521 
L 1198.797088 211.257891 
L 1201.5109 212.178499 
L 1204.224712 214.849893 
L 1206.938524 214.261746 
L 1209.652336 216.387686 
L 1212.366148 217.655562 
L 1215.07996 218.36675 
L 1217.793772 218.167812 
L 1220.507584 219.777847 
L 1223.221396 220.682549 
L 1225.935208 221.418828 
L 1228.64902 221.497566 
L 1231.362832 223.976253 
L 1234.076644 224.741098 
L 1236.790456 223.856868 
L 1239.504268 224.491343 
L 1242.21808 225.16526 
L 1244.931893 225.301048 
L 1247.645705 225.725684 
L 1250.359517 226.677267 
L 1253.073329 229.403024 
L 1255.787141 228.147179 
L 1258.500953 225.405481 
L 1261.214765 226.980589 
L 1263.928577 228.12035 
L 1266.642389 229.962295 
L 1269.356201 230.487316 
L 1272.070013 232.59733 
" clip-path="url(#pe1a97f0d8b)" style="fill: none; stroke: #2563eb; stroke-width: 1.8; stroke-linecap: square"/>
   </g>
   <g id="line2d_143">
    <path d="M 1084.816983 69.641486 
L 1087.530796 73.587133 
L 1090.244608 81.694195 
L 1092.95842 95.349857 
L 1095.672232 107.477957 
L 1098.386044 117.238301 
L 1101.099856 121.954901 
L 1103.813668 126.957588 
L 1106.52748 129.390911 
L 1109.241292 132.173309 
L 1111.955104 133.726916 
L 1114.668916 136.363228 
L 1117.382728 136.719652 
L 1120.09654 138.29723 
L 1122.810352 139.715644 
L 1125.524164 139.750937 
L 1128.237976 139.773378 
L 1130.951788 141.433045 
L 1133.6656 141.49108 
L 1136.379412 143.066107 
L 1139.093224 143.203411 
L 1141.807036 143.936967 
L 1144.520848 144.235258 
L 1147.23466 144.617616 
L 1149.948472 145.624627 
L 1152.662284 145.695732 
L 1155.376096 146.03738 
L 1158.089908 147.161769 
L 1160.80372 146.147545 
L 1163.517532 146.858428 
L 1166.231344 146.761121 
L 1168.945156 147.773874 
L 1171.658968 148.137605 
L 1174.37278 148.19469 
L 1177.086592 148.651073 
L 1179.800404 148.467907 
L 1182.514216 149.02494 
L 1185.228028 149.288101 
L 1187.94184 149.704676 
L 1190.655652 149.749823 
L 1193.369464 150.109655 
L 1196.083276 150.210456 
L 1198.797088 150.717013 
L 1201.5109 150.562544 
L 1204.224712 150.790654 
L 1206.938524 150.880441 
L 1209.652336 151.026718 
L 1212.366148 151.266952 
L 1215.07996 151.19757 
L 1217.793772 152.116692 
L 1220.507584 151.621201 
L 1223.221396 152.112099 
L 1225.935208 151.854057 
L 1228.64902 152.061581 
L 1231.362832 152.28359 
L 1234.076644 152.614374 
L 1236.790456 152.235049 
L 1239.504268 152.397076 
L 1242.21808 153.020472 
L 1244.931893 152.663506 
L 1247.645705 152.930005 
L 1250.359517 153.266099 
L 1253.073329 153.149983 
L 1255.787141 153.351532 
L 1258.500953 152.83593 
L 1261.214765 153.446873 
L 1263.928577 153.507597 
L 1266.642389 153.672985 
L 1269.356201 154.236912 
L 1272.070013 153.888977 
" clip-path="url(#pe1a97f0d8b)" style="fill: none; stroke: #d97706; stroke-width: 1.8; stroke-linecap: square"/>
   </g>
   <g id="patch_15">
    <path d="M 1075.454332 242.62375 
L 1075.454332 22.0425 
" style="fill: none; stroke: #495057; stroke-width: 0.8; stroke-linejoin: miter; stroke-linecap: square"/>
   </g>
   <g id="patch_16">
    <path d="M 1075.454332 242.62375 
L 1281.432664 242.62375 
" style="fill: none; stroke: #495057; stroke-width: 0.8; stroke-linejoin: miter; stroke-linecap: square"/>
   </g>
   <g id="text_58">
    <!-- Total loss -->
    <g style="fill: #212529" transform="translate(1152.769123 16.0425) scale(0.12 -0.12)">
     <use xlink:href="#Helvetica-54"/>
     <use xlink:href="#Helvetica-6f" transform="translate(61.083984 0)"/>
     <use xlink:href="#Helvetica-74" transform="translate(116.699219 0)"/>
     <use xlink:href="#Helvetica-61" transform="translate(144.482422 0)"/>
     <use xlink:href="#Helvetica-6c" transform="translate(200.097656 0)"/>
     <use xlink:href="#Helvetica-20" transform="translate(222.314453 0)"/>
     <use xlink:href="#Helvetica-6c" transform="translate(250.097656 0)"/>
     <use xlink:href="#Helvetica-6f" transform="translate(272.314453 0)"/>
     <use xlink:href="#Helvetica-73" transform="translate(327.929688 0)"/>
     <use xlink:href="#Helvetica-73" transform="translate(377.929688 0)"/>
    </g>
   </g>
   <g id="legend_5">
    <g id="line2d_144">
     <path d="M 1208.605789 33.448594 
L 1217.605789 33.448594 
L 1226.605789 33.448594 
" style="fill: none; stroke: #2563eb; stroke-width: 1.8; stroke-linecap: square"/>
    </g>
    <g id="text_59">
     <!-- Train -->
     <g transform="translate(1233.805789 36.598594) scale(0.09 -0.09)">
      <use xlink:href="#Helvetica-54"/>
      <use xlink:href="#Helvetica-72" transform="translate(61.083984 0)"/>
      <use xlink:href="#Helvetica-61" transform="translate(94.384766 0)"/>
      <use xlink:href="#Helvetica-69" transform="translate(150 0)"/>
      <use xlink:href="#Helvetica-6e" transform="translate(172.216797 0)"/>
     </g>
    </g>
    <g id="line2d_145">
     <path d="M 1208.605789 46.280625 
L 1217.605789 46.280625 
L 1226.605789 46.280625 
" style="fill: none; stroke: #d97706; stroke-width: 1.8; stroke-linecap: square"/>
    </g>
    <g id="text_60">
     <!-- Validation -->
     <g transform="translate(1233.805789 49.430625) scale(0.09 -0.09)">
      <use xlink:href="#Helvetica-56"/>
      <use xlink:href="#Helvetica-61" transform="translate(66.699219 0)"/>
      <use xlink:href="#Helvetica-6c" transform="translate(122.314453 0)"/>
      <use xlink:href="#Helvetica-69" transform="translate(144.53125 0)"/>
      <use xlink:href="#Helvetica-64" transform="translate(166.748047 0)"/>
      <use xlink:href="#Helvetica-61" transform="translate(222.363281 0)"/>
      <use xlink:href="#Helvetica-74" transform="translate(277.978516 0)"/>
      <use xlink:href="#Helvetica-69" transform="translate(305.761719 0)"/>
      <use xlink:href="#Helvetica-6f" transform="translate(327.978516 0)"/>
      <use xlink:href="#Helvetica-6e" transform="translate(383.59375 0)"/>
     </g>
    </g>
   </g>
  </g>
 </g>
 <defs>
  <clipPath id="p775bf2285c">
   <rect x="48.050313" y="22.0425" width="205.978332" height="220.58125"/>
  </clipPath>
  <clipPath id="paa920f08bb">
   <rect x="304.901317" y="22.0425" width="205.978332" height="220.58125"/>
  </clipPath>
  <clipPath id="p6920250016">
   <rect x="561.752322" y="22.0425" width="205.978332" height="220.58125"/>
  </clipPath>
  <clipPath id="p8c7f3f4af2">
   <rect x="818.603327" y="22.0425" width="205.978332" height="220.58125"/>
  </clipPath>
  <clipPath id="pe1a97f0d8b">
   <rect x="1075.454332" y="22.0425" width="205.978332" height="220.58125"/>
  </clipPath>
 </defs>
</svg>
