<?xml version="1.0" encoding="utf-8" standalone="no"?>
<!DOCTYPE svg PUBLIC "-//W3C//DTD SVG 1.1//EN"
  "http://www.w3.org/Graphics/SVG/1.1/DTD/svg11.dtd">
<svg xmlns:xlink="http://www.w3.org/1999/xlink" width="620.28195pt" height="475.4075pt" viewBox="0 0 620.28195 475.4075" xmlns="http://www.w3.org/2000/svg" version="1.1">
 <metadata>
  <rdf:RDF xmlns:dc="http://purl.org/dc/elements/1.1/" xmlns:cc="http://creativecommons.org/ns#" xmlns:rdf="http://www.w3.org/1999/02/22-rdf-syntax-ns#">
   <cc:Work>
    <dc:type rdf:resource="http://purl.org/dc/dcmitype/StillImage"/>
    <dc:date>2026-06-19T04:02:43.634877</dc:date>
    <dc:format>image/svg+xml</dc:format>
    <dc:creator>
     <cc:Agent>
      <dc:title>Matplotlib v3.8.0, https://matplotlib.org/</dc:title>
     </cc:Agent>
    </dc:creator>
   </cc:Work>
  </rdf:RDF>
 </metadata>
 <defs>
  <style type="text/css">*{stroke-linejoin: round; stroke-linecap: butt}</style>
 </defs>
 <g id="figure_1">
  <g id="patch_1">
   <path d="M 0 475.4075 
L 620.28195 475.4075 
L 620.28195 0 
L 0 0 
z
" style="fill: #ffffff"/>
  </g>
  <g id="axes_1">
   <g id="patch_2">
    <path d="M 103.634375 404.945625 
L 613.08195 404.945625 
L 613.08195 40.105625 
L 103.634375 40.105625 
z
" style="fill: #ffffff"/>
   </g>
   <g id="matplotlib.axis_1">
    <g id="xtick_1">
     <g id="line2d_1">
      <defs>
       <path id="m6bd08451a0" d="M 0 0 
L 0 3.5 
" style="stroke: #212529; stroke-width: 0.8"/>
      </defs>
      <g>
       <use xlink:href="#m6bd08451a0" x="120.928625" y="404.945625" style="fill: #212529; stroke: #212529; stroke-width: 0.8"/>
      </g>
     </g>
     <g id="text_1">
      <!-- 0 -->
      <g style="fill: #212529" transform="translate(113.293625 430.181875) scale(0.24 -0.24)">
       <defs>
        <path id="DejaVuSans-30" d="M 2034 4250 
Q 1547 4250 1301 3770 
Q 1056 3291 1056 2328 
Q 1056 1369 1301 889 
Q 1547 409 2034 409 
Q 2525 409 2770 889 
Q 3016 1369 3016 2328 
Q 3016 3291 2770 3770 
Q 2525 4250 2034 4250 
z
M 2034 4750 
Q 2819 4750 3233 4129 
Q 3647 3509 3647 2328 
Q 3647 1150 3233 529 
Q 2819 -91 2034 -91 
Q 1250 -91 836 529 
Q 422 1150 422 2328 
Q 422 3509 836 4129 
Q 1250 4750 2034 4750 
z
" transform="scale(0.015625)"/>
       </defs>
       <use xlink:href="#DejaVuSans-30"/>
      </g>
     </g>
    </g>
    <g id="xtick_2">
     <g id="line2d_2">
      <g>
       <use xlink:href="#m6bd08451a0" x="238.177779" y="404.945625" style="fill: #212529; stroke: #212529; stroke-width: 0.8"/>
      </g>
     </g>
     <g id="text_2">
      <!-- 20 -->
      <g style="fill: #212529" transform="translate(222.907779 430.181875) scale(0.24 -0.24)">
       <defs>
        <path id="DejaVuSans-32" d="M 1228 531 
L 3431 531 
L 3431 0 
L 469 0 
L 469 531 
Q 828 903 1448 1529 
Q 2069 2156 2228 2338 
Q 2531 2678 2651 2914 
Q 2772 3150 2772 3378 
Q 2772 3750 2511 3984 
Q 2250 4219 1831 4219 
Q 1534 4219 1204 4116 
Q 875 4013 500 3803 
L 500 4441 
Q 881 4594 1212 4672 
Q 1544 4750 1819 4750 
Q 2544 4750 2975 4387 
Q 3406 4025 3406 3419 
Q 3406 3131 3298 2873 
Q 3191 2616 2906 2266 
Q 2828 2175 2409 1742 
Q 1991 1309 1228 531 
z
" transform="scale(0.015625)"/>
       </defs>
       <use xlink:href="#DejaVuSans-32"/>
       <use xlink:href="#DejaVuSans-30" x="63.623047"/>
      </g>
     </g>
    </g>
    <g id="xtick_3">
     <g id="line2d_3">
      <g>
       <use xlink:href="#m6bd08451a0" x="355.426934" y="404.945625" style="fill: #212529; stroke: #212529; stroke-width: 0.8"/>
      </g>
     </g>
     <g id="text_3">
      <!-- 40 -->
      <g style="fill: #212529" transform="translate(340.156934 430.181875) scale(0.24 -0.24)">
       <defs>
        <path id="DejaVuSans-34" d="M 2419 4116 
L 825 1625 
L 2419 1625 
L 2419 4116 
z
M 2253 4666 
L 3047 4666 
L 3047 1625 
L 3713 1625 
L 3713 1100 
L 3047 1100 
L 3047 0 
L 2419 0 
L 2419 1100 
L 313 1100 
L 313 1709 
L 2253 4666 
z
" transform="scale(0.015625)"/>
       </defs>
       <use xlink:href="#DejaVuSans-34"/>
       <use xlink:href="#DejaVuSans-30" x="63.623047"/>
      </g>
     </g>
    </g>
    <g id="xtick_4">
     <g id="line2d_4">
      <g>
       <use xlink:href="#m6bd08451a0" x="472.676088" y="404.945625" style="fill: #212529; stroke: #212529; stroke-width: 0.8"/>
      </g>
     </g>
     <g id="text_4">
      <!-- 60 -->
      <g style="fill: #212529" transform="translate(457.406088 430.181875) scale(0.24 -0.24)">
       <defs>
        <path id="DejaVuSans-36" d="M 2113 2584 
Q 1688 2584 1439 2293 
Q 1191 2003 1191 1497 
Q 1191 994 1439 701 
Q 1688 409 2113 409 
Q 2538 409 2786 701 
Q 3034 994 3034 1497 
Q 3034 2003 2786 2293 
Q 2538 2584 2113 2584 
z
M 3366 4563 
L 3366 3988 
Q 3128 4100 2886 4159 
Q 2644 4219 2406 4219 
Q 1781 4219 1451 3797 
Q 1122 3375 1075 2522 
Q 1259 2794 1537 2939 
Q 1816 3084 2150 3084 
Q 2853 3084 3261 2657 
Q 3669 2231 3669 1497 
Q 3669 778 3244 343 
Q 2819 -91 2113 -91 
Q 1303 -91 875 529 
Q 447 1150 447 2328 
Q 447 3434 972 4092 
Q 1497 4750 2381 4750 
Q 2619 4750 2861 4703 
Q 3103 4656 3366 4563 
z
" transform="scale(0.015625)"/>
       </defs>
       <use xlink:href="#DejaVuSans-36"/>
       <use xlink:href="#DejaVuSans-30" x="63.623047"/>
      </g>
     </g>
    </g>
    <g id="xtick_5">
     <g id="line2d_5">
      <g>
       <use xlink:href="#m6bd08451a0" x="589.925242" y="404.945625" style="fill: #212529; stroke: #212529; stroke-width: 0.8"/>
      </g>
     </g>
     <g id="text_5">
      <!-- 80 -->
      <g style="fill: #212529" transform="translate(574.655242 430.181875) scale(0.24 -0.24)">
       <defs>
        <path id="DejaVuSans-38" d="M 2034 2216 
Q 1584 2216 1326 1975 
Q 1069 1734 1069 1313 
Q 1069 891 1326 650 
Q 1584 409 2034 409 
Q 2484 409 2743 651 
Q 3003 894 3003 1313 
Q 3003 1734 2745 1975 
Q 2488 2216 2034 2216 
z
M 1403 2484 
Q 997 2584 770 2862 
Q 544 3141 544 3541 
Q 544 4100 942 4425 
Q 1341 4750 2034 4750 
Q 2731 4750 3128 4425 
Q 3525 4100 3525 3541 
Q 3525 3141 3298 2862 
Q 3072 2584 2669 2484 
Q 3125 2378 3379 2068 
Q 3634 1759 3634 1313 
Q 3634 634 3220 271 
Q 2806 -91 2034 -91 
Q 1263 -91 848 271 
Q 434 634 434 1313 
Q 434 1759 690 2068 
Q 947 2378 1403 2484 
z
M 1172 3481 
Q 1172 3119 1398 2916 
Q 1625 2713 2034 2713 
Q 2441 2713 2670 2916 
Q 2900 3119 2900 3481 
Q 2900 3844 2670 4047 
Q 2441 4250 2034 4250 
Q 1625 4250 1398 4047 
Q 1172 3844 1172 3481 
z
" transform="scale(0.015625)"/>
       </defs>
       <use xlink:href="#DejaVuSans-38"/>
       <use xlink:href="#DejaVuSans-30" x="63.623047"/>
      </g>
     </g>
    </g>
    <g id="text_6">
     <!-- Epoch -->
     <g style="fill: #212529" transform="translate(312.42535 461.968438) scale(0.3 -0.3)">
      <defs>
       <path id="DejaVuSans-45" d="M 628 4666 
L 3578 4666 
L 3578 4134 
L 1259 4134 
L 1259 2753 
L 3481 2753 
L 3481 2222 
L 1259 2222 
L 1259 531 
L 3634 531 
L 3634 0 
L 628 0 
L 628 4666 
z
" transform="scale(0.015625)"/>
       <path id="DejaVuSans-70" d="M 1159 525 
L 1159 -1331 
L 581 -1331 
L 581 3500 
L 1159 3500 
L 1159 2969 
Q 1341 3281 1617 3432 
Q 1894 3584 2278 3584 
Q 2916 3584 3314 3078 
Q 3713 2572 3713 1747 
Q 3713 922 3314 415 
Q 2916 -91 2278 -91 
Q 1894 -91 1617 61 
Q 1341 213 1159 525 
z
M 3116 1747 
Q 3116 2381 2855 2742 
Q 2594 3103 2138 3103 
Q 1681 3103 1420 2742 
Q 1159 2381 1159 1747 
Q 1159 1113 1420 752 
Q 1681 391 2138 391 
Q 2594 391 2855 752 
Q 3116 1113 3116 1747 
z
" transform="scale(0.015625)"/>
       <path id="DejaVuSans-6f" d="M 1959 3097 
Q 1497 3097 1228 2736 
Q 959 2375 959 1747 
Q 959 1119 1226 758 
Q 1494 397 1959 397 
Q 2419 397 2687 759 
Q 2956 1122 2956 1747 
Q 2956 2369 2687 2733 
Q 2419 3097 1959 3097 
z
M 1959 3584 
Q 2709 3584 3137 3096 
Q 3566 2609 3566 1747 
Q 3566 888 3137 398 
Q 2709 -91 1959 -91 
Q 1206 -91 779 398 
Q 353 888 353 1747 
Q 353 2609 779 3096 
Q 1206 3584 1959 3584 
z
" transform="scale(0.015625)"/>
       <path id="DejaVuSans-63" d="M 3122 3366 
L 3122 2828 
Q 2878 2963 2633 3030 
Q 2388 3097 2138 3097 
Q 1578 3097 1268 2742 
Q 959 2388 959 1747 
Q 959 1106 1268 751 
Q 1578 397 2138 397 
Q 2388 397 2633 464 
Q 2878 531 3122 666 
L 3122 134 
Q 2881 22 2623 -34 
Q 2366 -91 2075 -91 
Q 1284 -91 818 406 
Q 353 903 353 1747 
Q 353 2603 823 3093 
Q 1294 3584 2113 3584 
Q 2378 3584 2631 3529 
Q 2884 3475 3122 3366 
z
" transform="scale(0.015625)"/>
       <path id="DejaVuSans-68" d="M 3513 2113 
L 3513 0 
L 2938 0 
L 2938 2094 
Q 2938 2591 2744 2837 
Q 2550 3084 2163 3084 
Q 1697 3084 1428 2787 
Q 1159 2491 1159 1978 
L 1159 0 
L 581 0 
L 581 4863 
L 1159 4863 
L 1159 2956 
Q 1366 3272 1645 3428 
Q 1925 3584 2291 3584 
Q 2894 3584 3203 3211 
Q 3513 2838 3513 2113 
z
" transform="scale(0.015625)"/>
      </defs>
      <use xlink:href="#DejaVuSans-45"/>
      <use xlink:href="#DejaVuSans-70" x="63.183594"/>
      <use xlink:href="#DejaVuSans-6f" x="126.660156"/>
      <use xlink:href="#DejaVuSans-63" x="187.841797"/>
      <use xlink:href="#DejaVuSans-68" x="242.822266"/>
     </g>
    </g>
   </g>
   <g id="matplotlib.axis_2">
    <g id="ytick_1">
     <g id="line2d_6">
      <defs>
       <path id="mf985682df8" d="M 0 0 
L -3.5 0 
" style="stroke: #212529; stroke-width: 0.8"/>
      </defs>
      <g>
       <use xlink:href="#mf985682df8" x="103.634375" y="299.513894" style="fill: #212529; stroke: #212529; stroke-width: 0.8"/>
      </g>
     </g>
     <g id="text_7">
      <!-- $\mathdefault{10^{-5}}$ -->
      <g style="fill: #212529" transform="translate(40.234375 308.632019) scale(0.24 -0.24)">
       <defs>
        <path id="DejaVuSans-31" d="M 794 531 
L 1825 531 
L 1825 4091 
L 703 3866 
L 703 4441 
L 1819 4666 
L 2450 4666 
L 2450 531 
L 3481 531 
L 3481 0 
L 794 0 
L 794 531 
z
" transform="scale(0.015625)"/>
        <path id="DejaVuSans-2212" d="M 678 2272 
L 4684 2272 
L 4684 1741 
L 678 1741 
L 678 2272 
z
" transform="scale(0.015625)"/>
        <path id="DejaVuSans-35" d="M 691 4666 
L 3169 4666 
L 3169 4134 
L 1269 4134 
L 1269 2991 
Q 1406 3038 1543 3061 
Q 1681 3084 1819 3084 
Q 2600 3084 3056 2656 
Q 3513 2228 3513 1497 
Q 3513 744 3044 326 
Q 2575 -91 1722 -91 
Q 1428 -91 1123 -41 
Q 819 9 494 109 
L 494 744 
Q 775 591 1075 516 
Q 1375 441 1709 441 
Q 2250 441 2565 725 
Q 2881 1009 2881 1497 
Q 2881 1984 2565 2268 
Q 2250 2553 1709 2553 
Q 1456 2553 1204 2497 
Q 953 2441 691 2322 
L 691 4666 
z
" transform="scale(0.015625)"/>
       </defs>
       <use xlink:href="#DejaVuSans-31" transform="translate(0 0.684375)"/>
       <use xlink:href="#DejaVuSans-30" transform="translate(63.623047 0.684375)"/>
       <use xlink:href="#DejaVuSans-2212" transform="translate(128.203125 38.965625) scale(0.7)"/>
       <use xlink:href="#DejaVuSans-35" transform="translate(186.855469 38.965625) scale(0.7)"/>
      </g>
     </g>
    </g>
    <g id="ytick_2">
     <g id="line2d_7">
      <g>
       <use xlink:href="#mf985682df8" x="103.634375" y="159.513426" style="fill: #212529; stroke: #212529; stroke-width: 0.8"/>
      </g>
     </g>
     <g id="text_8">
      <!-- $\mathdefault{10^{-4}}$ -->
      <g style="fill: #212529" transform="translate(40.234375 168.631551) scale(0.24 -0.24)">
       <use xlink:href="#DejaVuSans-31" transform="translate(0 0.684375)"/>
       <use xlink:href="#DejaVuSans-30" transform="translate(63.623047 0.684375)"/>
       <use xlink:href="#DejaVuSans-2212" transform="translate(128.203125 38.965625) scale(0.7)"/>
       <use xlink:href="#DejaVuSans-34" transform="translate(186.855469 38.965625) scale(0.7)"/>
      </g>
     </g>
    </g>
    <g id="ytick_3">
     <g id="line2d_8">
      <defs>
       <path id="m854b0abd9d" d="M 0 0 
L -2 0 
" style="stroke: #212529; stroke-width: 0.6"/>
      </defs>
      <g>
       <use xlink:href="#m854b0abd9d" x="103.634375" y="397.370021" style="fill: #212529; stroke: #212529; stroke-width: 0.6"/>
      </g>
     </g>
    </g>
    <g id="ytick_4">
     <g id="line2d_9">
      <g>
       <use xlink:href="#m854b0abd9d" x="103.634375" y="372.717162" style="fill: #212529; stroke: #212529; stroke-width: 0.6"/>
      </g>
     </g>
    </g>
    <g id="ytick_5">
     <g id="line2d_10">
      <g>
       <use xlink:href="#m854b0abd9d" x="103.634375" y="355.225681" style="fill: #212529; stroke: #212529; stroke-width: 0.6"/>
      </g>
     </g>
    </g>
    <g id="ytick_6">
     <g id="line2d_11">
      <g>
       <use xlink:href="#m854b0abd9d" x="103.634375" y="341.658234" style="fill: #212529; stroke: #212529; stroke-width: 0.6"/>
      </g>
     </g>
    </g>
    <g id="ytick_7">
     <g id="line2d_12">
      <g>
       <use xlink:href="#m854b0abd9d" x="103.634375" y="330.572822" style="fill: #212529; stroke: #212529; stroke-width: 0.6"/>
      </g>
     </g>
    </g>
    <g id="ytick_8">
     <g id="line2d_13">
      <g>
       <use xlink:href="#m854b0abd9d" x="103.634375" y="321.20024" style="fill: #212529; stroke: #212529; stroke-width: 0.6"/>
      </g>
     </g>
    </g>
    <g id="ytick_9">
     <g id="line2d_14">
      <g>
       <use xlink:href="#m854b0abd9d" x="103.634375" y="313.081341" style="fill: #212529; stroke: #212529; stroke-width: 0.6"/>
      </g>
     </g>
    </g>
    <g id="ytick_10">
     <g id="line2d_15">
      <g>
       <use xlink:href="#m854b0abd9d" x="103.634375" y="305.919964" style="fill: #212529; stroke: #212529; stroke-width: 0.6"/>
      </g>
     </g>
    </g>
    <g id="ytick_11">
     <g id="line2d_16">
      <g>
       <use xlink:href="#m854b0abd9d" x="103.634375" y="257.369554" style="fill: #212529; stroke: #212529; stroke-width: 0.6"/>
      </g>
     </g>
    </g>
    <g id="ytick_12">
     <g id="line2d_17">
      <g>
       <use xlink:href="#m854b0abd9d" x="103.634375" y="232.716695" style="fill: #212529; stroke: #212529; stroke-width: 0.6"/>
      </g>
     </g>
    </g>
    <g id="ytick_13">
     <g id="line2d_18">
      <g>
       <use xlink:href="#m854b0abd9d" x="103.634375" y="215.225214" style="fill: #212529; stroke: #212529; stroke-width: 0.6"/>
      </g>
     </g>
    </g>
    <g id="ytick_14">
     <g id="line2d_19">
      <g>
       <use xlink:href="#m854b0abd9d" x="103.634375" y="201.657766" style="fill: #212529; stroke: #212529; stroke-width: 0.6"/>
      </g>
     </g>
    </g>
    <g id="ytick_15">
     <g id="line2d_20">
      <g>
       <use xlink:href="#m854b0abd9d" x="103.634375" y="190.572355" style="fill: #212529; stroke: #212529; stroke-width: 0.6"/>
      </g>
     </g>
    </g>
    <g id="ytick_16">
     <g id="line2d_21">
      <g>
       <use xlink:href="#m854b0abd9d" x="103.634375" y="181.199773" style="fill: #212529; stroke: #212529; stroke-width: 0.6"/>
      </g>
     </g>
    </g>
    <g id="ytick_17">
     <g id="line2d_22">
      <g>
       <use xlink:href="#m854b0abd9d" x="103.634375" y="173.080874" style="fill: #212529; stroke: #212529; stroke-width: 0.6"/>
      </g>
     </g>
    </g>
    <g id="ytick_18">
     <g id="line2d_23">
      <g>
       <use xlink:href="#m854b0abd9d" x="103.634375" y="165.919497" style="fill: #212529; stroke: #212529; stroke-width: 0.6"/>
      </g>
     </g>
    </g>
    <g id="ytick_19">
     <g id="line2d_24">
      <g>
       <use xlink:href="#m854b0abd9d" x="103.634375" y="117.369086" style="fill: #212529; stroke: #212529; stroke-width: 0.6"/>
      </g>
     </g>
    </g>
    <g id="ytick_20">
     <g id="line2d_25">
      <g>
       <use xlink:href="#m854b0abd9d" x="103.634375" y="92.716228" style="fill: #212529; stroke: #212529; stroke-width: 0.6"/>
      </g>
     </g>
    </g>
    <g id="ytick_21">
     <g id="line2d_26">
      <g>
       <use xlink:href="#m854b0abd9d" x="103.634375" y="75.224746" style="fill: #212529; stroke: #212529; stroke-width: 0.6"/>
      </g>
     </g>
    </g>
    <g id="ytick_22">
     <g id="line2d_27">
      <g>
       <use xlink:href="#m854b0abd9d" x="103.634375" y="61.657299" style="fill: #212529; stroke: #212529; stroke-width: 0.6"/>
      </g>
     </g>
    </g>
    <g id="ytick_23">
     <g id="line2d_28">
      <g>
       <use xlink:href="#m854b0abd9d" x="103.634375" y="50.571888" style="fill: #212529; stroke: #212529; stroke-width: 0.6"/>
      </g>
     </g>
    </g>
    <g id="ytick_24">
     <g id="line2d_29">
      <g>
       <use xlink:href="#m854b0abd9d" x="103.634375" y="41.199306" style="fill: #212529; stroke: #212529; stroke-width: 0.6"/>
      </g>
     </g>
    </g>
    <g id="text_9">
     <!-- MSE (standardized) -->
     <g style="fill: #212529" transform="translate(29.995312 368.267031) rotate(-90) scale(0.3 -0.3)">
      <defs>
       <path id="DejaVuSans-4d" d="M 628 4666 
L 1569 4666 
L 2759 1491 
L 3956 4666 
L 4897 4666 
L 4897 0 
L 4281 0 
L 4281 4097 
L 3078 897 
L 2444 897 
L 1241 4097 
L 1241 0 
L 628 0 
L 628 4666 
z
" transform="scale(0.015625)"/>
       <path id="DejaVuSans-53" d="M 3425 4513 
L 3425 3897 
Q 3066 4069 2747 4153 
Q 2428 4238 2131 4238 
Q 1616 4238 1336 4038 
Q 1056 3838 1056 3469 
Q 1056 3159 1242 3001 
Q 1428 2844 1947 2747 
L 2328 2669 
Q 3034 2534 3370 2195 
Q 3706 1856 3706 1288 
Q 3706 609 3251 259 
Q 2797 -91 1919 -91 
Q 1588 -91 1214 -16 
Q 841 59 441 206 
L 441 856 
Q 825 641 1194 531 
Q 1563 422 1919 422 
Q 2459 422 2753 634 
Q 3047 847 3047 1241 
Q 3047 1584 2836 1778 
Q 2625 1972 2144 2069 
L 1759 2144 
Q 1053 2284 737 2584 
Q 422 2884 422 3419 
Q 422 4038 858 4394 
Q 1294 4750 2059 4750 
Q 2388 4750 2728 4690 
Q 3069 4631 3425 4513 
z
" transform="scale(0.015625)"/>
       <path id="DejaVuSans-20" transform="scale(0.015625)"/>
       <path id="DejaVuSans-28" d="M 1984 4856 
Q 1566 4138 1362 3434 
Q 1159 2731 1159 2009 
Q 1159 1288 1364 580 
Q 1569 -128 1984 -844 
L 1484 -844 
Q 1016 -109 783 600 
Q 550 1309 550 2009 
Q 550 2706 781 3412 
Q 1013 4119 1484 4856 
L 1984 4856 
z
" transform="scale(0.015625)"/>
       <path id="DejaVuSans-73" d="M 2834 3397 
L 2834 2853 
Q 2591 2978 2328 3040 
Q 2066 3103 1784 3103 
Q 1356 3103 1142 2972 
Q 928 2841 928 2578 
Q 928 2378 1081 2264 
Q 1234 2150 1697 2047 
L 1894 2003 
Q 2506 1872 2764 1633 
Q 3022 1394 3022 966 
Q 3022 478 2636 193 
Q 2250 -91 1575 -91 
Q 1294 -91 989 -36 
Q 684 19 347 128 
L 347 722 
Q 666 556 975 473 
Q 1284 391 1588 391 
Q 1994 391 2212 530 
Q 2431 669 2431 922 
Q 2431 1156 2273 1281 
Q 2116 1406 1581 1522 
L 1381 1569 
Q 847 1681 609 1914 
Q 372 2147 372 2553 
Q 372 3047 722 3315 
Q 1072 3584 1716 3584 
Q 2034 3584 2315 3537 
Q 2597 3491 2834 3397 
z
" transform="scale(0.015625)"/>
       <path id="DejaVuSans-74" d="M 1172 4494 
L 1172 3500 
L 2356 3500 
L 2356 3053 
L 1172 3053 
L 1172 1153 
Q 1172 725 1289 603 
Q 1406 481 1766 481 
L 2356 481 
L 2356 0 
L 1766 0 
Q 1100 0 847 248 
Q 594 497 594 1153 
L 594 3053 
L 172 3053 
L 172 3500 
L 594 3500 
L 594 4494 
L 1172 4494 
z
" transform="scale(0.015625)"/>
       <path id="DejaVuSans-61" d="M 2194 1759 
Q 1497 1759 1228 1600 
Q 959 1441 959 1056 
Q 959 750 1161 570 
Q 1363 391 1709 391 
Q 2188 391 2477 730 
Q 2766 1069 2766 1631 
L 2766 1759 
L 2194 1759 
z
M 3341 1997 
L 3341 0 
L 2766 0 
L 2766 531 
Q 2569 213 2275 61 
Q 1981 -91 1556 -91 
Q 1019 -91 701 211 
Q 384 513 384 1019 
Q 384 1609 779 1909 
Q 1175 2209 1959 2209 
L 2766 2209 
L 2766 2266 
Q 2766 2663 2505 2880 
Q 2244 3097 1772 3097 
Q 1472 3097 1187 3025 
Q 903 2953 641 2809 
L 641 3341 
Q 956 3463 1253 3523 
Q 1550 3584 1831 3584 
Q 2591 3584 2966 3190 
Q 3341 2797 3341 1997 
z
" transform="scale(0.015625)"/>
       <path id="DejaVuSans-6e" d="M 3513 2113 
L 3513 0 
L 2938 0 
L 2938 2094 
Q 2938 2591 2744 2837 
Q 2550 3084 2163 3084 
Q 1697 3084 1428 2787 
Q 1159 2491 1159 1978 
L 1159 0 
L 581 0 
L 581 3500 
L 1159 3500 
L 1159 2956 
Q 1366 3272 1645 3428 
Q 1925 3584 2291 3584 
Q 2894 3584 3203 3211 
Q 3513 2838 3513 2113 
z
" transform="scale(0.015625)"/>
       <path id="DejaVuSans-64" d="M 2906 2969 
L 2906 4863 
L 3481 4863 
L 3481 0 
L 2906 0 
L 2906 525 
Q 2725 213 2448 61 
Q 2172 -91 1784 -91 
Q 1150 -91 751 415 
Q 353 922 353 1747 
Q 353 2572 751 3078 
Q 1150 3584 1784 3584 
Q 2172 3584 2448 3432 
Q 2725 3281 2906 2969 
z
M 947 1747 
Q 947 1113 1208 752 
Q 1469 391 1925 391 
Q 2381 391 2643 752 
Q 2906 1113 2906 1747 
Q 2906 2381 2643 2742 
Q 2381 3103 1925 3103 
Q 1469 3103 1208 2742 
Q 947 2381 947 1747 
z
" transform="scale(0.015625)"/>
       <path id="DejaVuSans-72" d="M 2631 2963 
Q 2534 3019 2420 3045 
Q 2306 3072 2169 3072 
Q 1681 3072 1420 2755 
Q 1159 2438 1159 1844 
L 1159 0 
L 581 0 
L 581 3500 
L 1159 3500 
L 1159 2956 
Q 1341 3275 1631 3429 
Q 1922 3584 2338 3584 
Q 2397 3584 2469 3576 
Q 2541 3569 2628 3553 
L 2631 2963 
z
" transform="scale(0.015625)"/>
       <path id="DejaVuSans-69" d="M 603 3500 
L 1178 3500 
L 1178 0 
L 603 0 
L 603 3500 
z
M 603 4863 
L 1178 4863 
L 1178 4134 
L 603 4134 
L 603 4863 
z
" transform="scale(0.015625)"/>
       <path id="DejaVuSans-7a" d="M 353 3500 
L 3084 3500 
L 3084 2975 
L 922 459 
L 3084 459 
L 3084 0 
L 275 0 
L 275 525 
L 2438 3041 
L 353 3041 
L 353 3500 
z
" transform="scale(0.015625)"/>
       <path id="DejaVuSans-65" d="M 3597 1894 
L 3597 1613 
L 953 1613 
Q 991 1019 1311 708 
Q 1631 397 2203 397 
Q 2534 397 2845 478 
Q 3156 559 3463 722 
L 3463 178 
Q 3153 47 2828 -22 
Q 2503 -91 2169 -91 
Q 1331 -91 842 396 
Q 353 884 353 1716 
Q 353 2575 817 3079 
Q 1281 3584 2069 3584 
Q 2775 3584 3186 3129 
Q 3597 2675 3597 1894 
z
M 3022 2063 
Q 3016 2534 2758 2815 
Q 2500 3097 2075 3097 
Q 1594 3097 1305 2825 
Q 1016 2553 972 2059 
L 3022 2063 
z
" transform="scale(0.015625)"/>
       <path id="DejaVuSans-29" d="M 513 4856 
L 1013 4856 
Q 1481 4119 1714 3412 
Q 1947 2706 1947 2009 
Q 1947 1309 1714 600 
Q 1481 -109 1013 -844 
L 513 -844 
Q 928 -128 1133 580 
Q 1338 1288 1338 2009 
Q 1338 2731 1133 3434 
Q 928 4138 513 4856 
z
" transform="scale(0.015625)"/>
      </defs>
      <use xlink:href="#DejaVuSans-4d"/>
      <use xlink:href="#DejaVuSans-53" x="86.279297"/>
      <use xlink:href="#DejaVuSans-45" x="149.755859"/>
      <use xlink:href="#DejaVuSans-20" x="212.939453"/>
      <use xlink:href="#DejaVuSans-28" x="244.726562"/>
      <use xlink:href="#DejaVuSans-73" x="283.740234"/>
      <use xlink:href="#DejaVuSans-74" x="335.839844"/>
      <use xlink:href="#DejaVuSans-61" x="375.048828"/>
      <use xlink:href="#DejaVuSans-6e" x="436.328125"/>
      <use xlink:href="#DejaVuSans-64" x="499.707031"/>
      <use xlink:href="#DejaVuSans-61" x="563.183594"/>
      <use xlink:href="#DejaVuSans-72" x="624.462891"/>
      <use xlink:href="#DejaVuSans-64" x="663.826172"/>
      <use xlink:href="#DejaVuSans-69" x="727.302734"/>
      <use xlink:href="#DejaVuSans-7a" x="755.085938"/>
      <use xlink:href="#DejaVuSans-65" x="807.576172"/>
      <use xlink:href="#DejaVuSans-64" x="869.099609"/>
      <use xlink:href="#DejaVuSans-29" x="932.576172"/>
     </g>
    </g>
   </g>
   <g id="line2d_30">
    <path d="M 126.791083 56.689261 
L 132.653541 68.959524 
L 138.515998 83.010436 
L 144.378456 91.362941 
L 150.240914 96.285636 
L 156.103372 87.006119 
L 161.965829 91.294956 
L 167.828287 90.63589 
L 173.690745 82.906603 
L 179.553202 83.102877 
L 185.41566 87.720529 
L 191.278118 78.36224 
L 197.140575 81.297555 
L 203.003033 80.897061 
L 208.865491 81.674562 
L 214.727949 87.513968 
L 220.590406 85.109716 
L 226.452864 87.126386 
L 232.315322 89.632703 
L 238.177779 90.806424 
L 244.040237 88.231685 
L 249.902695 86.379297 
L 255.765153 92.839832 
L 261.62761 94.71331 
L 267.490068 91.147734 
L 273.352526 95.256708 
L 279.214983 93.693526 
L 285.077441 88.630483 
L 290.939899 93.380556 
L 296.802357 93.530016 
L 302.664814 331.631366 
L 308.527272 316.25911 
L 314.38973 299.752397 
L 320.252187 291.329556 
L 326.114645 339.078483 
L 331.977103 346.822516 
L 337.839561 304.376075 
L 343.702018 352.787343 
L 349.564476 263.992437 
L 355.426934 327.017733 
L 361.289391 270.198915 
L 367.151849 314.217827 
L 373.014307 322.614275 
L 378.876764 288.311499 
L 384.739222 279.493536 
L 390.60168 270.878734 
L 396.464138 360.658651 
L 402.326595 345.851626 
L 408.189053 354.406527 
L 414.051511 314.726162 
L 419.913968 348.153103 
L 425.776426 326.934509 
L 431.638884 329.308973 
L 437.501342 350.214948 
L 443.363799 367.030492 
L 449.226257 334.604263 
L 455.088715 353.10342 
L 460.951172 376.703337 
L 466.81363 368.605182 
L 472.676088 350.995095 
L 478.538546 358.202268 
L 484.401003 369.41621 
L 490.263461 375.935027 
L 496.125919 353.56012 
L 501.988376 369.983854 
L 507.850834 373.30772 
L 513.713292 360.546987 
L 519.57575 383.91724 
L 525.438207 359.511687 
L 531.300665 384.46885 
L 537.163123 381.428507 
L 543.02558 388.361989 
L 548.888038 369.09428 
L 554.750496 371.64956 
L 560.612953 373.634193 
L 566.475411 379.777575 
L 572.337869 374.823799 
L 578.200327 367.35284 
L 584.062784 379.1484 
L 589.925242 382.20352 
" clip-path="url(#pe6adc22897)" style="fill: none; stroke: #2563eb; stroke-width: 3; stroke-linecap: square"/>
   </g>
   <g id="line2d_31">
    <path d="M 126.791083 59.102997 
L 132.653541 66.887802 
L 138.515998 81.581335 
L 144.378456 90.115443 
L 150.240914 95.183441 
L 156.103372 86.716782 
L 161.965829 91.189695 
L 167.828287 90.671775 
L 173.690745 82.938919 
L 179.553202 83.193523 
L 185.41566 87.880515 
L 191.278118 78.46126 
L 197.140575 81.474603 
L 203.003033 81.065278 
L 208.865491 81.883174 
L 214.727949 87.814097 
L 220.590406 85.347763 
L 226.452864 87.379854 
L 232.315322 89.946082 
L 238.177779 91.116511 
L 244.040237 88.538289 
L 249.902695 86.671545 
L 255.765153 93.246806 
L 261.62761 95.184045 
L 267.490068 91.557843 
L 273.352526 95.699285 
L 279.214983 94.189006 
L 285.077441 89.133522 
L 290.939899 93.974777 
L 296.802357 94.087172 
L 302.664814 325.935886 
L 308.527272 308.23424 
L 314.38973 293.788915 
L 320.252187 284.895188 
L 326.114645 329.714335 
L 331.977103 333.969684 
L 337.839561 300.193946 
L 343.702018 340.953463 
L 349.564476 261.340352 
L 355.426934 319.345202 
L 361.289391 267.418714 
L 367.151849 307.291842 
L 373.014307 317.248582 
L 378.876764 284.587149 
L 384.739222 277.288393 
L 390.60168 269.67376 
L 396.464138 346.481341 
L 402.326595 337.643182 
L 408.189053 340.184837 
L 414.051511 310.369986 
L 419.913968 338.826477 
L 425.776426 321.635876 
L 431.638884 325.432886 
L 437.501342 344.618729 
L 443.363799 357.180847 
L 449.226257 330.227933 
L 455.088715 349.184122 
L 460.951172 369.140699 
L 466.81363 359.146976 
L 472.676088 346.848492 
L 478.538546 355.064256 
L 484.401003 359.99475 
L 490.263461 366.544264 
L 496.125919 346.019007 
L 501.988376 363.477116 
L 507.850834 365.864729 
L 513.713292 352.676737 
L 519.57575 375.835064 
L 525.438207 354.785848 
L 531.300665 376.704794 
L 537.163123 372.873235 
L 543.02558 378.938867 
L 548.888038 363.138365 
L 554.750496 366.116717 
L 560.612953 368.825256 
L 566.475411 372.757643 
L 572.337869 367.536039 
L 578.200327 363.091425 
L 584.062784 373.191485 
L 589.925242 374.345412 
" clip-path="url(#pe6adc22897)" style="fill: none; stroke: #d97706; stroke-width: 3; stroke-linecap: square"/>
   </g>
   <g id="line2d_32">
    <path d="M 296.802357 404.945625 
L 296.802357 40.105625 
" clip-path="url(#pe6adc22897)" style="fill: none; stroke-dasharray: 2,3.3; stroke-dashoffset: 0; stroke: #dc2626; stroke-width: 2"/>
   </g>
   <g id="patch_3">
    <path d="M 103.634375 404.945625 
L 103.634375 40.105625 
" style="fill: none; stroke: #212529; stroke-width: 1.4; stroke-linejoin: miter; stroke-linecap: square"/>
   </g>
   <g id="patch_4">
    <path d="M 613.08195 404.945625 
L 613.08195 40.105625 
" style="fill: none; stroke: #212529; stroke-width: 1.4; stroke-linejoin: miter; stroke-linecap: square"/>
   </g>
   <g id="patch_5">
    <path d="M 103.634375 404.945625 
L 613.08195 404.945625 
" style="fill: none; stroke: #212529; stroke-width: 1.4; stroke-linejoin: miter; stroke-linecap: square"/>
   </g>
   <g id="patch_6">
    <path d="M 103.634375 40.105625 
L 613.08195 40.105625 
" style="fill: none; stroke: #212529; stroke-width: 1.4; stroke-linejoin: miter; stroke-linecap: square"/>
   </g>
   <g id="text_10">
    <!-- Initial condition -->
    <g style="fill: #212529" transform="translate(227.314725 33.034687) scale(0.34 -0.34)">
     <defs>
      <path id="DejaVuSans-49" d="M 628 4666 
L 1259 4666 
L 1259 0 
L 628 0 
L 628 4666 
z
" transform="scale(0.015625)"/>
      <path id="DejaVuSans-6c" d="M 603 4863 
L 1178 4863 
L 1178 0 
L 603 0 
L 603 4863 
z
" transform="scale(0.015625)"/>
     </defs>
     <use xlink:href="#DejaVuSans-49"/>
     <use xlink:href="#DejaVuSans-6e" x="29.492188"/>
     <use xlink:href="#DejaVuSans-69" x="92.871094"/>
     <use xlink:href="#DejaVuSans-74" x="120.654297"/>
     <use xlink:href="#DejaVuSans-69" x="159.863281"/>
     <use xlink:href="#DejaVuSans-61" x="187.646484"/>
     <use xlink:href="#DejaVuSans-6c" x="248.925781"/>
     <use xlink:href="#DejaVuSans-20" x="276.708984"/>
     <use xlink:href="#DejaVuSans-63" x="308.496094"/>
     <use xlink:href="#DejaVuSans-6f" x="363.476562"/>
     <use xlink:href="#DejaVuSans-6e" x="424.658203"/>
     <use xlink:href="#DejaVuSans-64" x="488.037109"/>
     <use xlink:href="#DejaVuSans-69" x="551.513672"/>
     <use xlink:href="#DejaVuSans-74" x="579.296875"/>
     <use xlink:href="#DejaVuSans-69" x="618.505859"/>
     <use xlink:href="#DejaVuSans-6f" x="646.289062"/>
     <use xlink:href="#DejaVuSans-6e" x="707.470703"/>
    </g>
   </g>
   <g id="legend_1">
    <g id="line2d_33">
     <path d="M 397.23945 71.541875 
L 421.23945 71.541875 
L 445.23945 71.541875 
" style="fill: none; stroke: #2563eb; stroke-width: 3; stroke-linecap: square"/>
    </g>
    <g id="text_11">
     <!-- Train -->
     <g transform="translate(464.43945 79.941875) scale(0.24 -0.24)">
      <defs>
       <path id="DejaVuSans-54" d="M -19 4666 
L 3928 4666 
L 3928 4134 
L 2272 4134 
L 2272 0 
L 1638 0 
L 1638 4134 
L -19 4134 
L -19 4666 
z
" transform="scale(0.015625)"/>
      </defs>
      <use xlink:href="#DejaVuSans-54"/>
      <use xlink:href="#DejaVuSans-72" x="46.333984"/>
      <use xlink:href="#DejaVuSans-61" x="87.447266"/>
      <use xlink:href="#DejaVuSans-69" x="148.726562"/>
      <use xlink:href="#DejaVuSans-6e" x="176.509766"/>
     </g>
    </g>
    <g id="line2d_34">
     <path d="M 397.23945 106.769375 
L 421.23945 106.769375 
L 445.23945 106.769375 
" style="fill: none; stroke: #d97706; stroke-width: 3; stroke-linecap: square"/>
    </g>
    <g id="text_12">
     <!-- Validation -->
     <g transform="translate(464.43945 115.169375) scale(0.24 -0.24)">
      <defs>
       <path id="DejaVuSans-56" d="M 1831 0 
L 50 4666 
L 709 4666 
L 2188 738 
L 3669 4666 
L 4325 4666 
L 2547 0 
L 1831 0 
z
" transform="scale(0.015625)"/>
      </defs>
      <use xlink:href="#DejaVuSans-56"/>
      <use xlink:href="#DejaVuSans-61" x="60.658203"/>
      <use xlink:href="#DejaVuSans-6c" x="121.9375"/>
      <use xlink:href="#DejaVuSans-69" x="149.720703"/>
      <use xlink:href="#DejaVuSans-64" x="177.503906"/>
      <use xlink:href="#DejaVuSans-61" x="240.980469"/>
      <use xlink:href="#DejaVuSans-74" x="302.259766"/>
      <use xlink:href="#DejaVuSans-69" x="341.46875"/>
      <use xlink:href="#DejaVuSans-6f" x="369.251953"/>
      <use xlink:href="#DejaVuSans-6e" x="430.433594"/>
     </g>
    </g>
    <g id="line2d_35">
     <path d="M 397.23945 141.996875 
L 421.23945 141.996875 
L 445.23945 141.996875 
" style="fill: none; stroke-dasharray: 2,3.3; stroke-dashoffset: 0; stroke: #dc2626; stroke-width: 2"/>
    </g>
    <g id="text_13">
     <!-- physics on -->
     <g transform="translate(464.43945 150.396875) scale(0.24 -0.24)">
      <defs>
       <path id="DejaVuSans-79" d="M 2059 -325 
Q 1816 -950 1584 -1140 
Q 1353 -1331 966 -1331 
L 506 -1331 
L 506 -850 
L 844 -850 
Q 1081 -850 1212 -737 
Q 1344 -625 1503 -206 
L 1606 56 
L 191 3500 
L 800 3500 
L 1894 763 
L 2988 3500 
L 3597 3500 
L 2059 -325 
z
" transform="scale(0.015625)"/>
      </defs>
      <use xlink:href="#DejaVuSans-70"/>
      <use xlink:href="#DejaVuSans-68" x="63.476562"/>
      <use xlink:href="#DejaVuSans-79" x="126.855469"/>
      <use xlink:href="#DejaVuSans-73" x="186.035156"/>
      <use xlink:href="#DejaVuSans-69" x="238.134766"/>
      <use xlink:href="#DejaVuSans-63" x="265.917969"/>
      <use xlink:href="#DejaVuSans-73" x="320.898438"/>
      <use xlink:href="#DejaVuSans-20" x="372.998047"/>
      <use xlink:href="#DejaVuSans-6f" x="404.785156"/>
      <use xlink:href="#DejaVuSans-6e" x="465.966797"/>
     </g>
    </g>
   </g>
  </g>
 </g>
 <defs>
  <clipPath id="pe6adc22897">
   <rect x="103.634375" y="40.105625" width="509.447575" height="364.84"/>
  </clipPath>
 </defs>
</svg>
